<svg width="15" height="14" viewBox="0 0 15 14" fill="none" xmlns="http://www.w3.org/2000/svg">
<path fill-rule="evenodd" clip-rule="evenodd" d="M4.6572 5.88263L7.37634 3.16468L10.0966 5.88484L11.6779 4.3025L7.37634 0L3.07481 4.3014L4.6572 5.88263ZM0.375 7.00024L1.95681 5.41848L3.53862 7.00024L1.95681 8.582L0.375 7.00024ZM7.37634 10.8364L4.6572 8.11737L3.07259 9.6975L3.07481 9.69971L7.37634 14L11.6779 9.6975L11.679 9.69639L10.0966 8.11626L7.37634 10.8364ZM11.2114 7.00063L12.7932 5.41887L14.375 7.00063L12.7932 8.58239L11.2114 7.00063ZM7.37634 5.39389L8.98085 6.99945H8.98195L8.98085 7.00055L7.37634 8.60611L5.77183 7.00276L5.76962 6.99945L5.77183 6.99724L6.05271 6.71637L6.18982 6.58036L7.37634 5.39389Z" fill="#F3BA2F"/>
</svg>
