<svg width="48" height="48" viewBox="0 0 48 48" fill="none" xmlns="http://www.w3.org/2000/svg">
<path d="M20 39.496V32.8C20 30.234 21.99 28.216 24.934 27.064C23.0354 26.3579 21.0257 25.9975 19 26C15.22 26 11.728 27.234 8.906 29.32C9.78101 31.7947 11.2502 34.0167 13.1845 35.7909C15.1188 37.5652 17.4591 38.8375 20 39.496V39.496ZM37.76 32.172C36.97 31.106 34.34 30 31 30C26.988 30 24 31.594 24 32.8V40C26.7757 40.0015 29.504 39.2806 31.9166 37.9081C34.3292 36.5356 36.343 34.5587 37.76 32.172V32.172ZM19.1 23C20.2935 23 21.4381 22.5259 22.282 21.682C23.1259 20.8381 23.6 19.6935 23.6 18.5C23.6 17.3065 23.1259 16.1619 22.282 15.318C21.4381 14.4741 20.2935 14 19.1 14C17.9065 14 16.7619 14.4741 15.918 15.318C15.0741 16.1619 14.6 17.3065 14.6 18.5C14.6 19.6935 15.0741 20.8381 15.918 21.682C16.7619 22.5259 17.9065 23 19.1 23V23ZM31 25C32.0609 25 33.0783 24.5786 33.8284 23.8284C34.5786 23.0783 35 22.0609 35 21C35 19.9391 34.5786 18.9217 33.8284 18.1716C33.0783 17.4214 32.0609 17 31 17C29.9391 17 28.9217 17.4214 28.1716 18.1716C27.4214 18.9217 27 19.9391 27 21C27 22.0609 27.4214 23.0783 28.1716 23.8284C28.9217 24.5786 29.9391 25 31 25ZM24 44C12.954 44 4 35.046 4 24C4 12.954 12.954 4 24 4C35.046 4 44 12.954 44 24C44 35.046 35.046 44 24 44Z" fill="url(#paint0_linear_610_433)"/>
<defs>
<linearGradient id="paint0_linear_610_433" x1="4" y1="13.4815" x2="45.7836" y2="19.547" gradientUnits="userSpaceOnUse">
<stop stop-color="#84B9D1"/>
<stop offset="1" stop-color="#D2B4FC"/>
</linearGradient>
</defs>
</svg>
