<svg width="49" height="48" viewBox="0 0 49 48" fill="none" xmlns="http://www.w3.org/2000/svg">
<path fill-rule="evenodd" clip-rule="evenodd" d="M43.8068 6.58579C43.4317 6.21071 42.923 6 42.3926 6H6.39258C5.86215 6 5.35344 6.21071 4.97836 6.58579C4.60329 6.96086 4.39258 7.46957 4.39258 8V40C4.39258 40.5304 4.60329 41.0391 4.97836 41.4142C5.35344 41.7893 5.86215 42 6.39258 42H32.6446C32.4801 41.3608 32.3926 40.6906 32.3926 40C32.3926 35.5817 35.9743 32 40.3926 32C41.8497 32 43.2159 32.3896 44.3926 33.0703V8C44.3926 7.46957 44.1819 6.96086 43.8068 6.58579ZM15.1906 16H19.1906L25.5886 32H21.2786L20.4786 30H13.8986L13.0986 32H8.79058L15.1906 16ZM34.3926 16H38.3926V32H32.3926L32.0406 31.99C30.4814 31.8999 29.0187 31.2053 27.9635 30.0539C26.9083 28.9025 26.3435 27.3851 26.3894 25.8239C26.4352 24.2628 27.088 22.781 28.2089 21.6935C29.3299 20.606 30.8308 19.9985 32.3926 20H34.3926V16ZM32.3926 28H34.3926V24H32.3926L32.1586 24.014C31.6725 24.0718 31.2245 24.3059 30.8994 24.6719C30.5743 25.0379 30.3948 25.5105 30.3948 26C30.3948 26.4895 30.5743 26.9621 30.8994 27.3281C31.2245 27.6941 31.6725 27.9282 32.1586 27.986L32.3926 28ZM18.8806 26L17.1906 21.77L15.4966 26H18.8806Z" fill="url(#paint0_linear_610_477)"/>
<path d="M41.0593 34C44.7413 34 47.7259 36.9847 47.7259 40.6667C47.7259 44.3487 44.7413 47.3333 41.0593 47.3333C39.5049 47.3356 37.999 46.7925 36.8039 45.7987L36.6413 45.6593L37.2426 44.3913C38.1012 45.2714 39.2376 45.8278 40.4593 45.9662C41.6811 46.1047 42.9131 45.8168 43.947 45.1512C44.9808 44.4857 45.7529 43.4833 46.1326 42.3139C46.5123 41.1444 46.4763 39.8797 46.0307 38.7337C45.585 37.5878 44.7571 36.631 43.687 36.0254C42.617 35.4197 41.3706 35.2024 40.1587 35.4102C38.9468 35.618 37.844 36.2381 37.0368 37.1656C36.2296 38.0931 35.7677 39.271 35.7293 40.5L35.7259 40.6667H37.3926L35.5886 44.4773C34.8081 43.3601 34.3905 42.0296 34.3926 40.6667C34.3926 36.9847 37.3773 34 41.0593 34ZM41.7259 36.6667V38H43.3926V39.3333H39.7259C39.6426 39.3332 39.5623 39.3642 39.5007 39.4203C39.4392 39.4765 39.4009 39.5536 39.3933 39.6365C39.3858 39.7195 39.4096 39.8023 39.4601 39.8686C39.5105 39.9348 39.584 39.9798 39.6659 39.9947L39.7259 40H42.3926C42.8346 40 43.2585 40.1756 43.5711 40.4882C43.8837 40.8007 44.0593 41.2246 44.0593 41.6667C44.0593 42.1087 43.8837 42.5326 43.5711 42.8452C43.2585 43.1577 42.8346 43.3333 42.3926 43.3333H41.7259V44.6667H40.3926V43.3333H38.7259V42H42.3926C42.4759 42.0002 42.5562 41.9691 42.6178 41.913C42.6793 41.8569 42.7176 41.7797 42.7252 41.6968C42.7327 41.6138 42.7089 41.5311 42.6584 41.4648C42.608 41.3985 42.5346 41.3535 42.4526 41.3387L42.3926 41.3333H39.7259C39.2839 41.3333 38.86 41.1577 38.5474 40.8452C38.2348 40.5326 38.0593 40.1087 38.0593 39.6667C38.0593 39.2246 38.2348 38.8007 38.5474 38.4882C38.86 38.1756 39.2839 38 39.7259 38H40.3926V36.6667H41.7259Z" fill="white"/>
<defs>
<linearGradient id="paint0_linear_610_477" x1="4.39258" y1="14.5333" x2="45.9748" y2="21.2404" gradientUnits="userSpaceOnUse">
<stop stop-color="#84B9D1"/>
<stop offset="1" stop-color="#D2B4FC"/>
</linearGradient>
</defs>
</svg>
