<svg width="90" height="90" viewBox="0 0 90 90" fill="none" xmlns="http://www.w3.org/2000/svg">
<path d="M67.8488 30.507L56.02 34.4497L47.9251 22.3077C46.5367 20.2258 43.4674 20.219 42.0749 22.3077L33.98 34.4497L22.1512 30.507C19.5975 29.6548 17.0625 31.8844 17.5919 34.5314C22.8165 59.6132 22.0097 58.9526 23.3453 60.2888C35.2853 72.2282 54.7133 72.2289 66.6541 60.2888C67.9896 58.9533 67.1938 59.5631 72.4075 34.5314C72.9341 31.8995 70.4196 29.65 67.8488 30.507ZM60.9377 56.0296C51.9447 64.2776 38.0546 64.2776 29.0623 56.0296L25.675 39.0928L34.3041 41.9691C35.8079 42.4711 37.4613 41.9032 38.3409 40.5842L45 30.5956L51.6591 40.5842C52.538 41.9032 54.1914 42.4704 55.6959 41.9691L64.325 39.0928L60.9377 56.0296ZM45 0C20.1297 0 0 20.1263 0 45C0 69.8703 20.1263 90 45 90C69.8703 90 90 69.8737 90 45C90 20.1297 69.8737 0 45 0ZM45 82.9688C24.0154 82.9688 7.03125 65.9873 7.03125 45C7.03125 24.0154 24.0127 7.03125 45 7.03125C65.9846 7.03125 82.9688 24.0127 82.9688 45C82.9688 65.9846 65.9873 82.9688 45 82.9688Z" fill="url(#paint0_linear)"/>
<defs>
<linearGradient id="paint0_linear" x1="45" y1="0" x2="45" y2="90" gradientUnits="userSpaceOnUse">
<stop stop-color="#724861"/>
<stop offset="1" stop-color="#93C1F9"/>
</linearGradient>
</defs>
</svg>
