<svg width="90" height="90" viewBox="0 0 90 90" fill="none" xmlns="http://www.w3.org/2000/svg">
<path d="M73.3008 67.1484C78.1548 67.1484 82.0898 63.2134 82.0898 58.3594C82.0898 53.5053 78.1548 49.5703 73.3008 49.5703C68.4467 49.5703 64.5117 53.5053 64.5117 58.3594C64.5117 63.2134 68.4467 67.1484 73.3008 67.1484Z" fill="url(#paint0_linear)"/>
<path d="M16.6992 17.5781C21.5533 17.5781 25.4883 13.6431 25.4883 8.78906C25.4883 3.935 21.5533 0 16.6992 0C11.8452 0 7.91016 3.935 7.91016 8.78906C7.91016 13.6431 11.8452 17.5781 16.6992 17.5781Z" fill="url(#paint1_linear)"/>
<path d="M26.4122 19C23.8855 21.4179 20.4641 22.908 16.6992 22.908C12.9343 22.908 9.51293 21.4179 6.98625 19C2.75924 22.0329 0 26.988 0 32.5759V37.8494C0 39.3055 1.18055 40.4861 2.63672 40.4861H4.83064C4.65908 42.004 4.57031 43.532 4.57031 45.0564C4.57031 46.9487 4.7025 48.8273 4.9616 50.6835C6.2049 48.8025 7.88713 47.2373 9.86186 46.1334C9.85113 45.775 9.84375 45.4161 9.84375 45.0564C9.84375 43.5312 9.9457 42.0013 10.1429 40.4861H30.7617C32.2179 40.4861 33.3984 39.3055 33.3984 37.8494V32.5759C33.3984 26.988 30.6392 22.0329 26.4122 19Z" fill="url(#paint2_linear)"/>
<path d="M73.3008 17.5781C78.1548 17.5781 82.0898 13.6431 82.0898 8.78906C82.0898 3.935 78.1548 0 73.3008 0C68.4467 0 64.5117 3.935 64.5117 8.78906C64.5117 13.6431 68.4467 17.5781 73.3008 17.5781Z" fill="url(#paint3_linear)"/>
<path d="M83.0138 18.9434C80.4871 21.3612 77.0657 22.8513 73.3008 22.8513C69.5359 22.8513 66.1145 21.3612 63.5878 18.9434C59.3608 21.9763 56.6016 26.9314 56.6016 32.5193V37.7927C56.6016 39.2489 57.7821 40.4295 59.2383 40.4295H79.8571C80.0543 41.9447 80.1562 43.4745 80.1562 44.9998C80.1562 45.3594 80.1489 45.7184 80.1381 46.077C82.113 47.1807 83.7953 48.746 85.0386 50.627C85.2975 48.7706 85.4297 46.892 85.4297 44.9998C85.4297 43.4754 85.3409 41.9473 85.1694 40.4295H87.3633C88.8195 40.4295 90 39.2489 90 37.7927V32.5193C90 26.9314 87.2408 21.9763 83.0138 18.9434Z" fill="url(#paint4_linear)"/>
<path d="M83.0138 68.5137C80.4871 70.9315 77.0657 72.4216 73.3008 72.4216C69.5359 72.4216 66.1145 70.9315 63.5878 68.5137C59.3608 71.5466 56.6016 76.5017 56.6016 82.0896V87.363C56.6016 88.8192 57.7821 89.9998 59.2383 89.9998H87.3633C88.8195 89.9998 90 88.8192 90 87.363V82.0896C90 76.5017 87.2408 71.5466 83.0138 68.5137Z" fill="url(#paint5_linear)"/>
<path d="M16.6992 67.1484C21.5533 67.1484 25.4883 63.2134 25.4883 58.3594C25.4883 53.5053 21.5533 49.5703 16.6992 49.5703C11.8452 49.5703 7.91016 53.5053 7.91016 58.3594C7.91016 63.2134 11.8452 67.1484 16.6992 67.1484Z" fill="url(#paint6_linear)"/>
<path d="M26.4122 68.5137C23.8855 70.9315 20.4641 72.4216 16.6992 72.4216C12.9343 72.4216 9.51293 70.9315 6.98625 68.5137C2.75924 71.5466 0 76.5017 0 82.0896V87.363C0 88.8192 1.18055 89.9998 2.63672 89.9998H30.7617C32.2179 89.9998 33.3984 88.8192 33.3984 87.363V82.0896C33.3984 76.5017 30.6392 71.5466 26.4122 68.5137Z" fill="url(#paint7_linear)"/>
<path d="M44.9999 9.84375C50.2127 9.84375 55.2937 10.9828 59.9399 13.1683C59.4868 11.7889 59.2382 10.318 59.2382 8.78906C59.2382 8.24713 59.2721 7.71311 59.3321 7.18682C54.7874 5.46328 49.9452 4.57031 44.9999 4.57031C40.0547 4.57031 35.2124 5.46328 30.6678 7.18682C30.7277 7.71311 30.7617 8.24713 30.7617 8.78906C30.7617 10.318 30.5131 11.7889 30.0599 13.1683C34.7062 10.9828 39.7871 9.84375 44.9999 9.84375Z" fill="url(#paint8_linear)"/>
<path d="M38.5229 79.5596C38.6209 80.3951 38.6718 81.2397 38.6718 82.0901V84.9355C40.7519 85.2626 42.864 85.43 45 85.43C47.1359 85.43 49.2481 85.2626 51.3281 84.9355V82.0901C51.3281 81.2397 51.3791 80.3951 51.477 79.5596C49.3553 79.9551 47.1923 80.1565 45 80.1565C42.8076 80.1565 40.6446 79.9551 38.5229 79.5596Z" fill="url(#paint9_linear)"/>
<defs>
<linearGradient id="paint0_linear" x1="45" y1="0" x2="45" y2="89.9998" gradientUnits="userSpaceOnUse">
<stop stop-color="#724861"/>
<stop offset="1" stop-color="#90B6EB"/>
</linearGradient>
<linearGradient id="paint1_linear" x1="45" y1="0" x2="45" y2="89.9998" gradientUnits="userSpaceOnUse">
<stop stop-color="#724861"/>
<stop offset="1" stop-color="#90B6EB"/>
</linearGradient>
<linearGradient id="paint2_linear" x1="45" y1="0" x2="45" y2="89.9998" gradientUnits="userSpaceOnUse">
<stop stop-color="#724861"/>
<stop offset="1" stop-color="#90B6EB"/>
</linearGradient>
<linearGradient id="paint3_linear" x1="45" y1="0" x2="45" y2="89.9998" gradientUnits="userSpaceOnUse">
<stop stop-color="#724861"/>
<stop offset="1" stop-color="#90B6EB"/>
</linearGradient>
<linearGradient id="paint4_linear" x1="45" y1="0" x2="45" y2="89.9998" gradientUnits="userSpaceOnUse">
<stop stop-color="#724861"/>
<stop offset="1" stop-color="#90B6EB"/>
</linearGradient>
<linearGradient id="paint5_linear" x1="45" y1="0" x2="45" y2="89.9998" gradientUnits="userSpaceOnUse">
<stop stop-color="#724861"/>
<stop offset="1" stop-color="#90B6EB"/>
</linearGradient>
<linearGradient id="paint6_linear" x1="45" y1="0" x2="45" y2="89.9998" gradientUnits="userSpaceOnUse">
<stop stop-color="#724861"/>
<stop offset="1" stop-color="#90B6EB"/>
</linearGradient>
<linearGradient id="paint7_linear" x1="45" y1="0" x2="45" y2="89.9998" gradientUnits="userSpaceOnUse">
<stop stop-color="#724861"/>
<stop offset="1" stop-color="#90B6EB"/>
</linearGradient>
<linearGradient id="paint8_linear" x1="45" y1="0" x2="45" y2="89.9998" gradientUnits="userSpaceOnUse">
<stop stop-color="#724861"/>
<stop offset="1" stop-color="#90B6EB"/>
</linearGradient>
<linearGradient id="paint9_linear" x1="45" y1="0" x2="45" y2="89.9998" gradientUnits="userSpaceOnUse">
<stop stop-color="#724861"/>
<stop offset="1" stop-color="#90B6EB"/>
</linearGradient>
</defs>
</svg>
