<svg width="92" height="91" viewBox="0 0 92 91" fill="none" xmlns="http://www.w3.org/2000/svg">
<path d="M56.2155 43.3154L47.1377 51.9804L8.80332 88.5663C7.79693 89.5291 6.5059 90.0105 5.21488 90.0105C3.80186 90.0105 2.38885 89.4369 1.36213 88.3C-0.660818 86.0672 -0.396513 82.5745 1.9314 80.6694L47.1377 43.8275L52.1188 39.7715L56.2155 43.3154Z" fill="url(#paint0_linear)"/>
<path d="M91.978 29.9078C91.978 46.4288 78.6814 59.8259 62.2945 59.8259C51.9663 59.8259 42.8681 54.5101 37.5515 46.4391C34.4307 41.7071 32.6111 36.0225 32.6111 29.9078C32.6111 13.3868 45.9076 0 62.2945 0C69.6951 0 76.4552 2.72448 81.6498 7.23114C87.9727 12.7211 91.978 20.8433 91.978 29.9078Z" fill="url(#paint1_linear)"/>
<path d="M62.2946 53.2084C75.0671 53.2084 85.4213 42.776 85.4213 29.9069C85.4213 17.0379 75.0671 6.60547 62.2946 6.60547C49.5221 6.60547 39.168 17.0379 39.168 29.9069C39.168 42.776 49.5221 53.2084 62.2946 53.2084Z" fill="white"/>
<path opacity="0.06" d="M91.9779 29.9072C91.9779 46.4281 78.6814 59.8252 62.2945 59.8252C51.9663 59.8252 42.8681 54.5094 37.5515 46.4384C71.0267 43.6934 79.8504 15.1171 81.6599 7.23047C87.9727 12.7204 91.9779 20.8426 91.9779 29.9072Z" fill="url(#paint2_linear)"/>
<path d="M62.2944 29.9597C64.9782 29.9597 67.1536 27.7678 67.1536 25.0638C67.1536 22.3598 64.9782 20.168 62.2944 20.168C59.6107 20.168 57.4353 22.3598 57.4353 25.0638C57.4353 27.7678 59.6006 29.9597 62.2944 29.9597ZM62.2944 32.4076C59.0516 32.4076 52.5762 34.0464 52.5762 37.3035V38.5326C52.5762 39.2086 53.1251 39.7617 53.796 39.7617H70.8132C71.4841 39.7617 72.0331 39.2086 72.0331 38.5326V37.3035C72.0127 34.0567 65.5373 32.4076 62.2944 32.4076Z" fill="url(#paint3_linear)"/>
<defs>
<linearGradient id="paint0_linear" x1="28.1079" y1="39.7715" x2="28.1079" y2="90.0105" gradientUnits="userSpaceOnUse">
<stop stop-color="#724861"/>
<stop offset="1" stop-color="#92BDF4"/>
</linearGradient>
<linearGradient id="paint1_linear" x1="62.2945" y1="0" x2="62.2945" y2="59.8259" gradientUnits="userSpaceOnUse">
<stop stop-color="#724861"/>
<stop offset="1" stop-color="#92BDF4"/>
</linearGradient>
<linearGradient id="paint2_linear" x1="64.7647" y1="7.23047" x2="64.7647" y2="59.8252" gradientUnits="userSpaceOnUse">
<stop stop-color="#724861"/>
<stop offset="1" stop-color="#92BDF4"/>
</linearGradient>
<linearGradient id="paint3_linear" x1="62.3046" y1="20.168" x2="62.3046" y2="39.7617" gradientUnits="userSpaceOnUse">
<stop stop-color="#724861"/>
<stop offset="1" stop-color="#92BDF4"/>
</linearGradient>
</defs>
</svg>
