<svg width="72" height="90" viewBox="0 0 72 90" fill="none" xmlns="http://www.w3.org/2000/svg">
<path d="M57.3638 74.1087L62.4049 31.2588H71.4603L67.4552 15.2384H60.0305V6.1221L53.9084 0L50.1324 3.776L54.6904 8.33416V15.2384H17.3095V8.33416L21.8675 3.776L18.0917 0L11.9694 6.1221V15.2382H4.54465L0.539551 31.2586H9.59516L14.6362 74.1085C14.5666 79.9381 9.8052 84.6599 3.95937 84.6599V90H68.0409V84.6599C62.1949 84.6599 57.4334 79.9383 57.3638 74.1087ZM7.37901 25.9185L8.71404 20.5784H63.286L64.6211 25.9185C61.1373 25.9185 9.38316 25.9185 7.37901 25.9185ZM57.0279 31.2586L52.316 71.3095H19.6839L14.972 31.2586H57.0279ZM15.8905 84.6599C17.8681 82.453 19.2441 79.6957 19.7572 76.6497H52.243C52.7562 79.6957 54.132 82.453 56.1098 84.6599H15.8905Z" fill="url(#paint0_linear)"/>
<path d="M29.8778 62.842L36 56.7199L42.1223 62.842L45.8983 59.066L39.7762 52.9438L41.8932 50.8267C45.1427 47.5773 45.1427 42.29 41.8932 39.0406C38.6365 35.7836 33.3643 35.7831 30.107 39.0406C26.8576 42.29 26.8576 47.5773 30.107 50.8267L32.224 52.9438L26.1019 59.066L29.8778 62.842ZM33.8829 42.8166C35.0504 41.6492 36.9497 41.6492 38.117 42.8166C39.2844 43.9839 39.2844 45.8834 38.117 47.0508L35.9999 49.1678L33.8829 47.0508C32.7155 45.8834 32.7155 43.9839 33.8829 42.8166Z" fill="url(#paint1_linear)"/>
<defs>
<linearGradient id="paint0_linear" x1="35.9999" y1="0" x2="35.9999" y2="90" gradientUnits="userSpaceOnUse">
<stop stop-color="#724861"/>
<stop offset="1" stop-color="#90B3E7"/>
</linearGradient>
<linearGradient id="paint1_linear" x1="35.9999" y1="0" x2="35.9999" y2="90" gradientUnits="userSpaceOnUse">
<stop stop-color="#724861"/>
<stop offset="1" stop-color="#90B3E7"/>
</linearGradient>
</defs>
</svg>
