<svg width="654" height="402" viewBox="0 0 654 402" fill="none" xmlns="http://www.w3.org/2000/svg">
<mask id="mask0_841_970" style="mask-type:alpha" maskUnits="userSpaceOnUse" x="78" y="44" width="531" height="292">
<path d="M80.5603 335.5C79.6894 335.508 78.8359 335.508 78 335.5H80.5603C156.098 334.836 362.931 276.124 608.5 44V335.5H80.5603Z" fill="black"/>
</mask>
<g mask="url(#mask0_841_970)">
<path d="M46.5 85H468.5V363H46.5V85Z" fill="url(#paint0_linear_841_970)"/>
</g>
<path fill-rule="evenodd" clip-rule="evenodd" d="M610 43H79V335H610V43ZM78 42V336H611V42H78Z" fill="white"/>
<path fill-rule="evenodd" clip-rule="evenodd" d="M609.186 43.7269C360.674 278.633 151.67 336.17 77.9902 335.5L78.0084 333.5C150.995 334.164 359.525 276.967 607.812 42.2734L609.186 43.7269Z" fill="white"/>
<path fill-rule="evenodd" clip-rule="evenodd" d="M80 159.5H79V158.5H80V159.5ZM84 159.5H82V158.5H84V159.5ZM88 159.5H86V158.5H88V159.5ZM92 159.5H90V158.5H92V159.5ZM96 159.5H94V158.5H96V159.5ZM100 159.5H98V158.5H100V159.5ZM104 159.5H102V158.5H104V159.5ZM108 159.5H106V158.5H108V159.5ZM112 159.5H110V158.5H112V159.5ZM116 159.5H114V158.5H116V159.5ZM120 159.5H118V158.5H120V159.5ZM124 159.5H122V158.5H124V159.5ZM128 159.5H126V158.5H128V159.5ZM132 159.5H130V158.5H132V159.5ZM136 159.5H134V158.5H136V159.5ZM140 159.5H138V158.5H140V159.5ZM144 159.5H142V158.5H144V159.5ZM148 159.5H146V158.5H148V159.5ZM152 159.5H150V158.5H152V159.5ZM156 159.5H154V158.5H156V159.5ZM160 159.5H158V158.5H160V159.5ZM164 159.5H162V158.5H164V159.5ZM168 159.5H166V158.5H168V159.5ZM172 159.5H170V158.5H172V159.5ZM176 159.5H174V158.5H176V159.5ZM180 159.5H178V158.5H180V159.5ZM184 159.5H182V158.5H184V159.5ZM188 159.5H186V158.5H188V159.5ZM192 159.5H190V158.5H192V159.5ZM196 159.5H194V158.5H196V159.5ZM200 159.5H198V158.5H200V159.5ZM204 159.5H202V158.5H204V159.5ZM208 159.5H206V158.5H208V159.5ZM212 159.5H210V158.5H212V159.5ZM216 159.5H214V158.5H216V159.5ZM220 159.5H218V158.5H220V159.5ZM224 159.5H222V158.5H224V159.5ZM228 159.5H226V158.5H228V159.5ZM232 159.5H230V158.5H232V159.5ZM236 159.5H234V158.5H236V159.5ZM240 159.5H238V158.5H240V159.5ZM244 159.5H242V158.5H244V159.5ZM248 159.5H246V158.5H248V159.5ZM252 159.5H250V158.5H252V159.5ZM256 159.5H254V158.5H256V159.5ZM260 159.5H258V158.5H260V159.5ZM264 159.5H262V158.5H264V159.5ZM268 159.5H266V158.5H268V159.5ZM272 159.5H270V158.5H272V159.5ZM276 159.5H274V158.5H276V159.5ZM280 159.5H278V158.5H280V159.5ZM284 159.5H282V158.5H284V159.5ZM288 159.5H286V158.5H288V159.5ZM292 159.5H290V158.5H292V159.5ZM296 159.5H294V158.5H296V159.5ZM300 159.5H298V158.5H300V159.5ZM304 159.5H302V158.5H304V159.5ZM308 159.5H306V158.5H308V159.5ZM312 159.5H310V158.5H312V159.5ZM316 159.5H314V158.5H316V159.5ZM320 159.5H318V158.5H320V159.5ZM324 159.5H322V158.5H324V159.5ZM328 159.5H326V158.5H328V159.5ZM332 159.5H330V158.5H332V159.5ZM336 159.5H334V158.5H336V159.5ZM340 159.5H338V158.5H340V159.5ZM344 159.5H342V158.5H344V159.5ZM348 159.5H346V158.5H348V159.5ZM352 159.5H350V158.5H352V159.5ZM356 159.5H354V158.5H356V159.5ZM360 159.5H358V158.5H360V159.5ZM364 159.5H362V158.5H364V159.5ZM368 159.5H366V158.5H368V159.5ZM372 159.5H370V158.5H372V159.5ZM376 159.5H374V158.5H376V159.5ZM380 159.5H378V158.5H380V159.5ZM384 159.5H382V158.5H384V159.5ZM388 159.5H386V158.5H388V159.5ZM392 159.5H390V158.5H392V159.5ZM396 159.5H394V158.5H396V159.5ZM400 159.5H398V158.5H400V159.5ZM404 159.5H402V158.5H404V159.5ZM408 159.5H406V158.5H408V159.5ZM412 159.5H410V158.5H412V159.5ZM416 159.5H414V158.5H416V159.5ZM420 159.5H418V158.5H420V159.5ZM424 159.5H422V158.5H424V159.5ZM428 159.5H426V158.5H428V159.5ZM432 159.5H430V158.5H432V159.5ZM436 159.5H434V158.5H436V159.5ZM440 159.5H438V158.5H440V159.5ZM444 159.5H442V158.5H444V159.5ZM448 159.5H446V158.5H448V159.5ZM452 159.5H450V158.5H452V159.5ZM456 159.5H454V158.5H456V159.5ZM460 159.5H458V158.5H460V159.5ZM464 159.5H462V158.5H464V159.5ZM468 159.5H466V158.5H468V159.5ZM471 159.5H470V158.5H471V159.5Z" fill="white"/>
<path d="M207.688 141.097C206.579 141.097 205.576 140.852 204.68 140.361C203.795 139.87 203.096 139.193 202.584 138.329C202.083 137.454 201.832 136.478 201.832 135.401C201.832 134.324 202.083 133.353 202.584 132.489C203.096 131.614 203.8 130.932 204.696 130.441C205.592 129.95 206.595 129.705 207.704 129.705C208.536 129.705 209.304 129.844 210.008 130.121C210.712 130.398 211.309 130.804 211.8 131.337L211.048 132.089C210.173 131.204 209.069 130.761 207.736 130.761C206.851 130.761 206.045 130.964 205.32 131.369C204.595 131.774 204.024 132.329 203.608 133.033C203.203 133.737 203 134.526 203 135.401C203 136.276 203.203 137.065 203.608 137.769C204.024 138.473 204.595 139.028 205.32 139.433C206.045 139.838 206.851 140.041 207.736 140.041C209.08 140.041 210.184 139.593 211.048 138.697L211.8 139.449C211.309 139.982 210.707 140.393 209.992 140.681C209.288 140.958 208.52 141.097 207.688 141.097Z" fill="white"/>
<path d="M221.387 132.585V141.001H220.299V139.465C220 139.977 219.589 140.377 219.067 140.665C218.544 140.942 217.947 141.081 217.275 141.081C216.176 141.081 215.307 140.777 214.667 140.169C214.037 139.55 213.723 138.649 213.723 137.465V132.585H214.859V137.353C214.859 138.238 215.077 138.91 215.515 139.369C215.952 139.828 216.576 140.057 217.387 140.057C218.272 140.057 218.971 139.79 219.483 139.257C219.995 138.713 220.251 137.961 220.251 137.001V132.585H221.387Z" fill="white"/>
<path d="M225.656 134.233C225.923 133.668 226.318 133.241 226.84 132.953C227.374 132.665 228.03 132.521 228.808 132.521V133.625L228.536 133.609C227.651 133.609 226.958 133.881 226.456 134.425C225.955 134.969 225.704 135.732 225.704 136.713V141.001H224.568V132.585H225.656V134.233Z" fill="white"/>
<path d="M231.953 134.233C232.22 133.668 232.615 133.241 233.137 132.953C233.671 132.665 234.327 132.521 235.105 132.521V133.625L234.833 133.609C233.948 133.609 233.255 133.881 232.753 134.425C232.252 134.969 232.001 135.732 232.001 136.713V141.001H230.865V132.585H231.953V134.233Z" fill="white"/>
<path d="M244.412 137.145H237.372C237.436 138.02 237.772 138.729 238.38 139.273C238.988 139.806 239.756 140.073 240.684 140.073C241.207 140.073 241.687 139.982 242.124 139.801C242.561 139.609 242.94 139.332 243.26 138.969L243.9 139.705C243.527 140.153 243.057 140.494 242.492 140.729C241.937 140.964 241.324 141.081 240.652 141.081C239.788 141.081 239.02 140.9 238.348 140.537C237.687 140.164 237.169 139.652 236.796 139.001C236.423 138.35 236.236 137.614 236.236 136.793C236.236 135.972 236.412 135.236 236.764 134.585C237.127 133.934 237.617 133.428 238.236 133.065C238.865 132.702 239.569 132.521 240.348 132.521C241.127 132.521 241.825 132.702 242.444 133.065C243.063 133.428 243.548 133.934 243.9 134.585C244.252 135.225 244.428 135.961 244.428 136.793L244.412 137.145ZM240.348 133.497C239.537 133.497 238.855 133.758 238.3 134.281C237.756 134.793 237.447 135.465 237.372 136.297H243.34C243.265 135.465 242.951 134.793 242.396 134.281C241.852 133.758 241.169 133.497 240.348 133.497Z" fill="white"/>
<path d="M251.028 132.521C252.084 132.521 252.922 132.83 253.54 133.449C254.17 134.057 254.484 134.948 254.484 136.121V141.001H253.348V136.233C253.348 135.358 253.13 134.692 252.692 134.233C252.255 133.774 251.631 133.545 250.82 133.545C249.914 133.545 249.194 133.817 248.66 134.361C248.138 134.894 247.876 135.636 247.876 136.585V141.001H246.74V132.585H247.828V134.137C248.138 133.625 248.564 133.23 249.108 132.953C249.663 132.665 250.303 132.521 251.028 132.521Z" fill="white"/>
<path d="M262 140.489C261.787 140.681 261.52 140.83 261.2 140.937C260.891 141.033 260.566 141.081 260.224 141.081C259.435 141.081 258.827 140.868 258.4 140.441C257.974 140.014 257.76 139.412 257.76 138.633V133.545H256.256V132.585H257.76V130.745H258.896V132.585H261.456V133.545H258.896V138.569C258.896 139.07 259.019 139.454 259.264 139.721C259.52 139.977 259.883 140.105 260.352 140.105C260.587 140.105 260.811 140.068 261.024 139.993C261.248 139.918 261.44 139.812 261.6 139.673L262 140.489Z" fill="white"/>
<path d="M270.672 130.825H266.736V129.801H275.792V130.825H271.856V141.001H270.672V130.825Z" fill="white"/>
<path d="M280.008 141.081C279.198 141.081 278.467 140.9 277.816 140.537C277.166 140.164 276.654 139.652 276.28 139.001C275.907 138.35 275.72 137.614 275.72 136.793C275.72 135.972 275.907 135.236 276.28 134.585C276.654 133.934 277.166 133.428 277.816 133.065C278.467 132.702 279.198 132.521 280.008 132.521C280.819 132.521 281.55 132.702 282.2 133.065C282.851 133.428 283.358 133.934 283.72 134.585C284.094 135.236 284.28 135.972 284.28 136.793C284.28 137.614 284.094 138.35 283.72 139.001C283.358 139.652 282.851 140.164 282.2 140.537C281.55 140.9 280.819 141.081 280.008 141.081ZM280.008 140.073C280.606 140.073 281.139 139.94 281.608 139.673C282.088 139.396 282.462 139.006 282.728 138.505C282.995 138.004 283.128 137.433 283.128 136.793C283.128 136.153 282.995 135.582 282.728 135.081C282.462 134.58 282.088 134.196 281.608 133.929C281.139 133.652 280.606 133.513 280.008 133.513C279.411 133.513 278.872 133.652 278.392 133.929C277.923 134.196 277.55 134.58 277.272 135.081C277.006 135.582 276.872 136.153 276.872 136.793C276.872 137.433 277.006 138.004 277.272 138.505C277.55 139.006 277.923 139.396 278.392 139.673C278.872 139.94 279.411 140.073 280.008 140.073Z" fill="white"/>
<path d="M289.72 136.777L287.736 138.601V141.001H286.6V129.129H287.736V137.177L292.76 132.585H294.168L290.568 136.025L294.504 141.001H293.112L289.72 136.777Z" fill="white"/>
<path d="M303.193 137.145H296.153C296.217 138.02 296.553 138.729 297.161 139.273C297.769 139.806 298.537 140.073 299.465 140.073C299.988 140.073 300.468 139.982 300.905 139.801C301.343 139.609 301.721 139.332 302.041 138.969L302.681 139.705C302.308 140.153 301.839 140.494 301.273 140.729C300.719 140.964 300.105 141.081 299.433 141.081C298.569 141.081 297.801 140.9 297.129 140.537C296.468 140.164 295.951 139.652 295.577 139.001C295.204 138.35 295.017 137.614 295.017 136.793C295.017 135.972 295.193 135.236 295.545 134.585C295.908 133.934 296.399 133.428 297.017 133.065C297.647 132.702 298.351 132.521 299.129 132.521C299.908 132.521 300.607 132.702 301.225 133.065C301.844 133.428 302.329 133.934 302.681 134.585C303.033 135.225 303.209 135.961 303.209 136.793L303.193 137.145ZM299.129 133.497C298.319 133.497 297.636 133.758 297.081 134.281C296.537 134.793 296.228 135.465 296.153 136.297H302.121C302.047 135.465 301.732 134.793 301.177 134.281C300.633 133.758 299.951 133.497 299.129 133.497Z" fill="white"/>
<path d="M309.81 132.521C310.866 132.521 311.703 132.83 312.322 133.449C312.951 134.057 313.266 134.948 313.266 136.121V141.001H312.13V136.233C312.13 135.358 311.911 134.692 311.474 134.233C311.036 133.774 310.412 133.545 309.602 133.545C308.695 133.545 307.975 133.817 307.442 134.361C306.919 134.894 306.658 135.636 306.658 136.585V141.001H305.522V132.585H306.61V134.137C306.919 133.625 307.346 133.23 307.89 132.953C308.444 132.665 309.084 132.521 309.81 132.521Z" fill="white"/>
<path d="M324.969 129.801C326.398 129.801 327.518 130.142 328.329 130.825C329.14 131.508 329.545 132.446 329.545 133.641C329.545 134.836 329.14 135.774 328.329 136.457C327.518 137.129 326.398 137.465 324.969 137.465H321.961V141.001H320.777V129.801H324.969ZM324.937 136.425C326.046 136.425 326.894 136.185 327.481 135.705C328.068 135.214 328.361 134.526 328.361 133.641C328.361 132.734 328.068 132.041 327.481 131.561C326.894 131.07 326.046 130.825 324.937 130.825H321.961V136.425H324.937Z" fill="white"/>
<path d="M332.735 134.233C333.001 133.668 333.396 133.241 333.919 132.953C334.452 132.665 335.108 132.521 335.887 132.521V133.625L335.615 133.609C334.729 133.609 334.036 133.881 333.535 134.425C333.033 134.969 332.783 135.732 332.783 136.713V141.001H331.647V132.585H332.735V134.233Z" fill="white"/>
<path d="M337.943 132.585H339.079V141.001H337.943V132.585ZM338.519 130.745C338.285 130.745 338.087 130.665 337.927 130.505C337.767 130.345 337.687 130.153 337.687 129.929C337.687 129.716 337.767 129.529 337.927 129.369C338.087 129.209 338.285 129.129 338.519 129.129C338.754 129.129 338.951 129.209 339.111 129.369C339.271 129.518 339.351 129.7 339.351 129.913C339.351 130.148 339.271 130.345 339.111 130.505C338.951 130.665 338.754 130.745 338.519 130.745Z" fill="white"/>
<path d="M345.728 141.081C344.896 141.081 344.15 140.9 343.488 140.537C342.838 140.174 342.326 139.668 341.952 139.017C341.579 138.356 341.392 137.614 341.392 136.793C341.392 135.972 341.579 135.236 341.952 134.585C342.326 133.934 342.838 133.428 343.488 133.065C344.15 132.702 344.896 132.521 345.728 132.521C346.454 132.521 347.099 132.665 347.664 132.953C348.24 133.23 348.694 133.641 349.024 134.185L348.176 134.761C347.899 134.345 347.547 134.036 347.12 133.833C346.694 133.62 346.23 133.513 345.728 133.513C345.12 133.513 344.571 133.652 344.08 133.929C343.6 134.196 343.222 134.58 342.944 135.081C342.678 135.582 342.544 136.153 342.544 136.793C342.544 137.444 342.678 138.02 342.944 138.521C343.222 139.012 343.6 139.396 344.08 139.673C344.571 139.94 345.12 140.073 345.728 140.073C346.23 140.073 346.694 139.972 347.12 139.769C347.547 139.566 347.899 139.257 348.176 138.841L349.024 139.417C348.694 139.961 348.24 140.377 347.664 140.665C347.088 140.942 346.443 141.081 345.728 141.081Z" fill="white"/>
<path d="M358.443 137.145H351.403C351.467 138.02 351.803 138.729 352.411 139.273C353.019 139.806 353.787 140.073 354.715 140.073C355.238 140.073 355.718 139.982 356.155 139.801C356.593 139.609 356.971 139.332 357.291 138.969L357.931 139.705C357.558 140.153 357.089 140.494 356.523 140.729C355.969 140.964 355.355 141.081 354.683 141.081C353.819 141.081 353.051 140.9 352.379 140.537C351.718 140.164 351.201 139.652 350.827 139.001C350.454 138.35 350.267 137.614 350.267 136.793C350.267 135.972 350.443 135.236 350.795 134.585C351.158 133.934 351.649 133.428 352.267 133.065C352.897 132.702 353.601 132.521 354.379 132.521C355.158 132.521 355.857 132.702 356.475 133.065C357.094 133.428 357.579 133.934 357.931 134.585C358.283 135.225 358.459 135.961 358.459 136.793L358.443 137.145ZM354.379 133.497C353.569 133.497 352.886 133.758 352.331 134.281C351.787 134.793 351.478 135.465 351.403 136.297H357.371C357.297 135.465 356.982 134.793 356.427 134.281C355.883 133.758 355.201 133.497 354.379 133.497Z" fill="white"/>
<path d="M14.6 212.488C14.6 211.416 14.856 210.576 15.368 209.968C15.88 209.36 16.584 209.056 17.48 209.056C18.376 209.056 19.08 209.36 19.592 209.968C20.096 210.576 20.348 211.416 20.348 212.488L20.348 214.744L23 214.744L23 215.632L14.6 215.632L14.6 212.488ZM19.568 212.512C19.568 211.68 19.388 211.044 19.028 210.604C18.66 210.164 18.144 209.944 17.48 209.944C16.8 209.944 16.28 210.164 15.92 210.604C15.552 211.044 15.368 211.68 15.368 212.512L15.368 214.744L19.568 214.744L19.568 212.512ZM17.924 206.664C17.5 206.464 17.18 206.168 16.964 205.776C16.748 205.376 16.64 204.884 16.64 204.3L17.468 204.3L17.456 204.504C17.456 205.168 17.66 205.688 18.068 206.064C18.476 206.44 19.048 206.628 19.784 206.628L23 206.628L23 207.48L16.688 207.48L16.688 206.664L17.924 206.664ZM16.688 202.757L16.688 201.905L23 201.905L23 202.757L16.688 202.757ZM15.308 202.325C15.308 202.501 15.248 202.649 15.128 202.769C15.008 202.889 14.864 202.949 14.696 202.949C14.536 202.949 14.396 202.889 14.276 202.769C14.156 202.649 14.096 202.501 14.096 202.325C14.096 202.149 14.156 202.001 14.276 201.881C14.388 201.761 14.524 201.701 14.684 201.701C14.86 201.701 15.008 201.761 15.128 201.881C15.248 202.001 15.308 202.149 15.308 202.325ZM23.06 196.919C23.06 197.543 22.924 198.103 22.652 198.599C22.38 199.087 22 199.471 21.512 199.751C21.016 200.031 20.46 200.171 19.844 200.171C19.228 200.171 18.676 200.031 18.188 199.751C17.7 199.471 17.32 199.087 17.048 198.599C16.776 198.103 16.64 197.543 16.64 196.919C16.64 196.375 16.748 195.891 16.964 195.467C17.172 195.035 17.48 194.695 17.888 194.447L18.32 195.083C18.008 195.291 17.776 195.555 17.624 195.875C17.464 196.195 17.384 196.543 17.384 196.919C17.384 197.375 17.488 197.787 17.696 198.155C17.896 198.515 18.184 198.799 18.56 199.007C18.936 199.207 19.364 199.307 19.844 199.307C20.332 199.307 20.764 199.207 21.14 199.007C21.508 198.799 21.796 198.515 22.004 198.155C22.204 197.787 22.304 197.375 22.304 196.919C22.304 196.543 22.228 196.195 22.076 195.875C21.924 195.555 21.692 195.291 21.38 195.083L21.812 194.447C22.22 194.695 22.532 195.035 22.748 195.467C22.956 195.899 23.06 196.383 23.06 196.919ZM20.108 187.382L20.108 192.662C20.764 192.614 21.296 192.362 21.704 191.906C22.104 191.45 22.304 190.874 22.304 190.178C22.304 189.786 22.236 189.426 22.1 189.098C21.956 188.77 21.748 188.486 21.476 188.246L22.028 187.766C22.364 188.046 22.62 188.398 22.796 188.822C22.972 189.238 23.06 189.698 23.06 190.202C23.06 190.85 22.924 191.426 22.652 191.93C22.372 192.426 21.988 192.814 21.5 193.094C21.012 193.374 20.46 193.514 19.844 193.514C19.228 193.514 18.676 193.382 18.188 193.118C17.7 192.846 17.32 192.478 17.048 192.014C16.776 191.542 16.64 191.014 16.64 190.43C16.64 189.846 16.776 189.322 17.048 188.858C17.32 188.394 17.7 188.03 18.188 187.766C18.668 187.502 19.22 187.37 19.844 187.37L20.108 187.382ZM17.372 190.43C17.372 191.038 17.568 191.55 17.96 191.966C18.344 192.374 18.848 192.606 19.472 192.662L19.472 188.186C18.848 188.242 18.344 188.478 17.96 188.894C17.568 189.302 17.372 189.814 17.372 190.43Z" fill="white"/>
<path d="M256.091 381.6V390H255.239V383.28L251.939 388.932H251.519L248.219 383.316V390H247.367V381.6H248.099L251.747 387.828L255.359 381.6H256.091Z" fill="white"/>
<path d="M264.144 387.108H258.864C258.912 387.764 259.164 388.296 259.62 388.704C260.076 389.104 260.652 389.304 261.348 389.304C261.74 389.304 262.1 389.236 262.428 389.1C262.756 388.956 263.04 388.748 263.28 388.476L263.76 389.028C263.48 389.364 263.128 389.62 262.704 389.796C262.288 389.972 261.828 390.06 261.324 390.06C260.676 390.06 260.1 389.924 259.596 389.652C259.1 389.372 258.712 388.988 258.432 388.5C258.152 388.012 258.012 387.46 258.012 386.844C258.012 386.228 258.144 385.676 258.408 385.188C258.68 384.7 259.048 384.32 259.512 384.048C259.984 383.776 260.512 383.64 261.096 383.64C261.68 383.64 262.204 383.776 262.668 384.048C263.132 384.32 263.496 384.7 263.76 385.188C264.024 385.668 264.156 386.22 264.156 386.844L264.144 387.108ZM261.096 384.372C260.488 384.372 259.976 384.568 259.56 384.96C259.152 385.344 258.92 385.848 258.864 386.472H263.34C263.284 385.848 263.048 385.344 262.632 384.96C262.224 384.568 261.712 384.372 261.096 384.372Z" fill="white"/>
<path d="M273.762 383.64C274.554 383.64 275.174 383.868 275.622 384.324C276.078 384.78 276.306 385.452 276.306 386.34V390H275.454V386.424C275.454 385.768 275.294 385.268 274.974 384.924C274.662 384.58 274.218 384.408 273.642 384.408C272.986 384.408 272.47 384.612 272.094 385.02C271.718 385.42 271.53 385.976 271.53 386.688V390H270.678V386.424C270.678 385.768 270.518 385.268 270.198 384.924C269.886 384.58 269.438 384.408 268.854 384.408C268.206 384.408 267.69 384.612 267.306 385.02C266.93 385.42 266.742 385.976 266.742 386.688V390H265.89V383.688H266.706V384.84C266.93 384.456 267.242 384.16 267.642 383.952C268.042 383.744 268.502 383.64 269.022 383.64C269.55 383.64 270.006 383.752 270.39 383.976C270.782 384.2 271.074 384.532 271.266 384.972C271.498 384.556 271.83 384.232 272.262 384C272.702 383.76 273.202 383.64 273.762 383.64Z" fill="white"/>
<path d="M281.869 383.64C282.461 383.64 282.997 383.776 283.477 384.048C283.957 384.312 284.333 384.688 284.605 385.176C284.877 385.664 285.013 386.22 285.013 386.844C285.013 387.468 284.877 388.024 284.605 388.512C284.333 389 283.957 389.38 283.477 389.652C282.997 389.924 282.461 390.06 281.869 390.06C281.341 390.06 280.865 389.948 280.441 389.724C280.025 389.5 279.689 389.176 279.433 388.752V390H278.617V381.096H279.469V384.888C279.733 384.48 280.069 384.172 280.477 383.964C280.893 383.748 281.357 383.64 281.869 383.64ZM281.809 389.304C282.249 389.304 282.649 389.204 283.009 389.004C283.369 388.796 283.649 388.504 283.849 388.128C284.057 387.752 284.161 387.324 284.161 386.844C284.161 386.364 284.057 385.936 283.849 385.56C283.649 385.184 283.369 384.896 283.009 384.696C282.649 384.488 282.249 384.384 281.809 384.384C281.361 384.384 280.957 384.488 280.597 384.696C280.245 384.896 279.965 385.184 279.757 385.56C279.557 385.936 279.457 386.364 279.457 386.844C279.457 387.324 279.557 387.752 279.757 388.128C279.965 388.504 280.245 388.796 280.597 389.004C280.957 389.204 281.361 389.304 281.809 389.304Z" fill="white"/>
<path d="M292.246 387.108H286.966C287.014 387.764 287.266 388.296 287.722 388.704C288.178 389.104 288.754 389.304 289.45 389.304C289.842 389.304 290.202 389.236 290.53 389.1C290.858 388.956 291.142 388.748 291.382 388.476L291.862 389.028C291.582 389.364 291.23 389.62 290.806 389.796C290.39 389.972 289.93 390.06 289.426 390.06C288.778 390.06 288.202 389.924 287.698 389.652C287.202 389.372 286.814 388.988 286.534 388.5C286.254 388.012 286.114 387.46 286.114 386.844C286.114 386.228 286.246 385.676 286.51 385.188C286.782 384.7 287.15 384.32 287.614 384.048C288.086 383.776 288.614 383.64 289.198 383.64C289.782 383.64 290.306 383.776 290.77 384.048C291.234 384.32 291.598 384.7 291.862 385.188C292.126 385.668 292.258 386.22 292.258 386.844L292.246 387.108ZM289.198 384.372C288.59 384.372 288.078 384.568 287.662 384.96C287.254 385.344 287.022 385.848 286.966 386.472H291.442C291.386 385.848 291.15 385.344 290.734 384.96C290.326 384.568 289.814 384.372 289.198 384.372Z" fill="white"/>
<path d="M294.808 384.924C295.008 384.5 295.304 384.18 295.696 383.964C296.096 383.748 296.588 383.64 297.172 383.64V384.468L296.968 384.456C296.304 384.456 295.784 384.66 295.408 385.068C295.032 385.476 294.844 386.048 294.844 386.784V390H293.992V383.688H294.808V384.924Z" fill="white"/>
<path d="M300.453 390.06C299.941 390.06 299.449 389.988 298.977 389.844C298.513 389.692 298.149 389.504 297.885 389.28L298.269 388.608C298.533 388.816 298.865 388.988 299.265 389.124C299.665 389.252 300.081 389.316 300.513 389.316C301.089 389.316 301.513 389.228 301.785 389.052C302.065 388.868 302.205 388.612 302.205 388.284C302.205 388.052 302.129 387.872 301.977 387.744C301.825 387.608 301.633 387.508 301.401 387.444C301.169 387.372 300.861 387.304 300.477 387.24C299.965 387.144 299.553 387.048 299.241 386.952C298.929 386.848 298.661 386.676 298.437 386.436C298.221 386.196 298.113 385.864 298.113 385.44C298.113 384.912 298.333 384.48 298.773 384.144C299.213 383.808 299.825 383.64 300.609 383.64C301.017 383.64 301.425 383.696 301.833 383.808C302.241 383.912 302.577 384.052 302.841 384.228L302.469 384.912C301.949 384.552 301.329 384.372 300.609 384.372C300.065 384.372 299.653 384.468 299.373 384.66C299.101 384.852 298.965 385.104 298.965 385.416C298.965 385.656 299.041 385.848 299.193 385.992C299.353 386.136 299.549 386.244 299.781 386.316C300.013 386.38 300.333 386.448 300.741 386.52C301.245 386.616 301.649 386.712 301.953 386.808C302.257 386.904 302.517 387.068 302.733 387.3C302.949 387.532 303.057 387.852 303.057 388.26C303.057 388.812 302.825 389.252 302.361 389.58C301.905 389.9 301.269 390.06 300.453 390.06Z" fill="white"/>
<path d="M307.848 383.64C308.64 383.64 309.269 383.872 309.733 384.336C310.205 384.792 310.441 385.46 310.441 386.34V390H309.589V386.424C309.589 385.768 309.425 385.268 309.097 384.924C308.769 384.58 308.301 384.408 307.693 384.408C307.013 384.408 306.472 384.612 306.072 385.02C305.68 385.42 305.485 385.976 305.485 386.688V390H304.632V381.096H305.485V384.792C305.717 384.424 306.037 384.14 306.444 383.94C306.853 383.74 307.32 383.64 307.848 383.64Z" fill="white"/>
<path d="M312.754 383.688H313.606V390H312.754V383.688ZM313.186 382.308C313.01 382.308 312.862 382.248 312.742 382.128C312.622 382.008 312.562 381.864 312.562 381.696C312.562 381.536 312.622 381.396 312.742 381.276C312.862 381.156 313.01 381.096 313.186 381.096C313.362 381.096 313.51 381.156 313.63 381.276C313.75 381.388 313.81 381.524 313.81 381.684C313.81 381.86 313.75 382.008 313.63 382.128C313.51 382.248 313.362 382.308 313.186 382.308Z" fill="white"/>
<path d="M319.228 383.64C319.82 383.64 320.356 383.776 320.836 384.048C321.316 384.312 321.692 384.688 321.964 385.176C322.236 385.664 322.372 386.22 322.372 386.844C322.372 387.476 322.236 388.036 321.964 388.524C321.692 389.012 321.316 389.392 320.836 389.664C320.364 389.928 319.828 390.06 319.228 390.06C318.716 390.06 318.252 389.956 317.836 389.748C317.428 389.532 317.092 389.22 316.828 388.812V392.328H315.976V383.688H316.792V384.936C317.048 384.52 317.384 384.2 317.8 383.976C318.224 383.752 318.7 383.64 319.228 383.64ZM319.168 389.304C319.608 389.304 320.008 389.204 320.368 389.004C320.728 388.796 321.008 388.504 321.208 388.128C321.416 387.752 321.52 387.324 321.52 386.844C321.52 386.364 321.416 385.94 321.208 385.572C321.008 385.196 320.728 384.904 320.368 384.696C320.008 384.488 319.608 384.384 319.168 384.384C318.72 384.384 318.316 384.488 317.956 384.696C317.604 384.904 317.324 385.196 317.116 385.572C316.916 385.94 316.816 386.364 316.816 386.844C316.816 387.324 316.916 387.752 317.116 388.128C317.324 388.504 317.604 388.796 317.956 389.004C318.316 389.204 318.72 389.304 319.168 389.304Z" fill="white"/>
<path d="M329.062 382.368H326.11V381.6H332.902V382.368H329.95V390H329.062V382.368Z" fill="white"/>
<path d="M336.064 390.06C335.456 390.06 334.908 389.924 334.42 389.652C333.932 389.372 333.548 388.988 333.268 388.5C332.988 388.012 332.848 387.46 332.848 386.844C332.848 386.228 332.988 385.676 333.268 385.188C333.548 384.7 333.932 384.32 334.42 384.048C334.908 383.776 335.456 383.64 336.064 383.64C336.672 383.64 337.22 383.776 337.708 384.048C338.196 384.32 338.576 384.7 338.848 385.188C339.128 385.676 339.268 386.228 339.268 386.844C339.268 387.46 339.128 388.012 338.848 388.5C338.576 388.988 338.196 389.372 337.708 389.652C337.22 389.924 336.672 390.06 336.064 390.06ZM336.064 389.304C336.512 389.304 336.912 389.204 337.264 389.004C337.624 388.796 337.904 388.504 338.104 388.128C338.304 387.752 338.404 387.324 338.404 386.844C338.404 386.364 338.304 385.936 338.104 385.56C337.904 385.184 337.624 384.896 337.264 384.696C336.912 384.488 336.512 384.384 336.064 384.384C335.616 384.384 335.212 384.488 334.852 384.696C334.5 384.896 334.22 385.184 334.012 385.56C333.812 385.936 333.712 386.364 333.712 386.844C333.712 387.324 333.812 387.752 334.012 388.128C334.22 388.504 334.5 388.796 334.852 389.004C335.212 389.204 335.616 389.304 336.064 389.304Z" fill="white"/>
<path d="M343.348 386.832L341.859 388.2V390H341.008V381.096H341.859V387.132L345.628 383.688H346.684L343.984 386.268L346.936 390H345.891L343.348 386.832Z" fill="white"/>
<path d="M353.453 387.108H348.173C348.221 387.764 348.473 388.296 348.929 388.704C349.385 389.104 349.961 389.304 350.657 389.304C351.049 389.304 351.409 389.236 351.737 389.1C352.065 388.956 352.349 388.748 352.589 388.476L353.069 389.028C352.789 389.364 352.437 389.62 352.013 389.796C351.597 389.972 351.137 390.06 350.633 390.06C349.985 390.06 349.409 389.924 348.905 389.652C348.409 389.372 348.021 388.988 347.741 388.5C347.461 388.012 347.321 387.46 347.321 386.844C347.321 386.228 347.453 385.676 347.717 385.188C347.989 384.7 348.357 384.32 348.821 384.048C349.293 383.776 349.821 383.64 350.405 383.64C350.989 383.64 351.513 383.776 351.977 384.048C352.441 384.32 352.805 384.7 353.069 385.188C353.333 385.668 353.465 386.22 353.465 386.844L353.453 387.108ZM350.405 384.372C349.797 384.372 349.285 384.568 348.869 384.96C348.461 385.344 348.229 385.848 348.173 386.472H352.649C352.593 385.848 352.357 385.344 351.941 384.96C351.533 384.568 351.021 384.372 350.405 384.372Z" fill="white"/>
<path d="M358.415 383.64C359.207 383.64 359.835 383.872 360.299 384.336C360.771 384.792 361.007 385.46 361.007 386.34V390H360.155V386.424C360.155 385.768 359.991 385.268 359.663 384.924C359.335 384.58 358.867 384.408 358.259 384.408C357.579 384.408 357.039 384.612 356.639 385.02C356.247 385.42 356.051 385.976 356.051 386.688V390H355.199V383.688H356.015V384.852C356.247 384.468 356.567 384.172 356.975 383.964C357.391 383.748 357.871 383.64 358.415 383.64Z" fill="white"/>
<path d="M368.957 390.072C368.333 390.072 367.733 389.972 367.157 389.772C366.589 389.572 366.149 389.308 365.837 388.98L366.185 388.296C366.489 388.6 366.893 388.848 367.397 389.04C367.901 389.224 368.421 389.316 368.957 389.316C369.709 389.316 370.273 389.18 370.649 388.908C371.025 388.628 371.213 388.268 371.213 387.828C371.213 387.492 371.109 387.224 370.901 387.024C370.701 386.824 370.453 386.672 370.157 386.568C369.861 386.456 369.449 386.336 368.921 386.208C368.289 386.048 367.785 385.896 367.409 385.752C367.033 385.6 366.709 385.372 366.437 385.068C366.173 384.764 366.041 384.352 366.041 383.832C366.041 383.408 366.153 383.024 366.377 382.68C366.601 382.328 366.945 382.048 367.409 381.84C367.873 381.632 368.449 381.528 369.137 381.528C369.617 381.528 370.085 381.596 370.541 381.732C371.005 381.86 371.405 382.04 371.741 382.272L371.441 382.98C371.089 382.748 370.713 382.576 370.313 382.464C369.913 382.344 369.521 382.284 369.137 382.284C368.401 382.284 367.845 382.428 367.469 382.716C367.101 382.996 366.917 383.36 366.917 383.808C366.917 384.144 367.017 384.416 367.217 384.624C367.425 384.824 367.681 384.98 367.985 385.092C368.297 385.196 368.713 385.312 369.233 385.44C369.849 385.592 370.345 385.744 370.721 385.896C371.105 386.04 371.429 386.264 371.693 386.568C371.957 386.864 372.089 387.268 372.089 387.78C372.089 388.204 371.973 388.592 371.741 388.944C371.517 389.288 371.169 389.564 370.697 389.772C370.225 389.972 369.645 390.072 368.957 390.072Z" fill="white"/>
<path d="M379.531 383.688V390H378.715V388.848C378.491 389.232 378.183 389.532 377.791 389.748C377.399 389.956 376.951 390.06 376.447 390.06C375.623 390.06 374.971 389.832 374.491 389.376C374.019 388.912 373.783 388.236 373.783 387.348V383.688H374.635V387.264C374.635 387.928 374.799 388.432 375.127 388.776C375.455 389.12 375.923 389.292 376.531 389.292C377.195 389.292 377.719 389.092 378.103 388.692C378.487 388.284 378.679 387.72 378.679 387V383.688H379.531Z" fill="white"/>
<path d="M385.17 383.64C385.762 383.64 386.298 383.776 386.778 384.048C387.258 384.312 387.634 384.688 387.906 385.176C388.178 385.664 388.314 386.22 388.314 386.844C388.314 387.476 388.178 388.036 387.906 388.524C387.634 389.012 387.258 389.392 386.778 389.664C386.306 389.928 385.77 390.06 385.17 390.06C384.658 390.06 384.194 389.956 383.778 389.748C383.37 389.532 383.034 389.22 382.77 388.812V392.328H381.918V383.688H382.734V384.936C382.99 384.52 383.326 384.2 383.742 383.976C384.166 383.752 384.642 383.64 385.17 383.64ZM385.11 389.304C385.55 389.304 385.95 389.204 386.31 389.004C386.67 388.796 386.95 388.504 387.15 388.128C387.358 387.752 387.462 387.324 387.462 386.844C387.462 386.364 387.358 385.94 387.15 385.572C386.95 385.196 386.67 384.904 386.31 384.696C385.95 384.488 385.55 384.384 385.11 384.384C384.662 384.384 384.258 384.488 383.898 384.696C383.546 384.904 383.266 385.196 383.058 385.572C382.858 385.94 382.758 386.364 382.758 386.844C382.758 387.324 382.858 387.752 383.058 388.128C383.266 388.504 383.546 388.796 383.898 389.004C384.258 389.204 384.662 389.304 385.11 389.304Z" fill="white"/>
<path d="M393.302 383.64C393.894 383.64 394.43 383.776 394.91 384.048C395.39 384.312 395.766 384.688 396.038 385.176C396.31 385.664 396.446 386.22 396.446 386.844C396.446 387.476 396.31 388.036 396.038 388.524C395.766 389.012 395.39 389.392 394.91 389.664C394.438 389.928 393.902 390.06 393.302 390.06C392.79 390.06 392.326 389.956 391.91 389.748C391.502 389.532 391.166 389.22 390.902 388.812V392.328H390.05V383.688H390.866V384.936C391.122 384.52 391.458 384.2 391.874 383.976C392.298 383.752 392.774 383.64 393.302 383.64ZM393.242 389.304C393.682 389.304 394.082 389.204 394.442 389.004C394.802 388.796 395.082 388.504 395.282 388.128C395.49 387.752 395.594 387.324 395.594 386.844C395.594 386.364 395.49 385.94 395.282 385.572C395.082 385.196 394.802 384.904 394.442 384.696C394.082 384.488 393.682 384.384 393.242 384.384C392.794 384.384 392.39 384.488 392.03 384.696C391.678 384.904 391.398 385.196 391.19 385.572C390.99 385.94 390.89 386.364 390.89 386.844C390.89 387.324 390.99 387.752 391.19 388.128C391.398 388.504 391.678 388.796 392.03 389.004C392.39 389.204 392.794 389.304 393.242 389.304Z" fill="white"/>
<path d="M398.183 381.096H399.035V390H398.183V381.096Z" fill="white"/>
<path d="M406.71 383.688L403.554 390.756C403.298 391.348 403.002 391.768 402.666 392.016C402.33 392.264 401.926 392.388 401.454 392.388C401.15 392.388 400.866 392.34 400.602 392.244C400.338 392.148 400.11 392.004 399.918 391.812L400.314 391.176C400.634 391.496 401.018 391.656 401.466 391.656C401.754 391.656 401.998 391.576 402.198 391.416C402.406 391.256 402.598 390.984 402.774 390.6L403.05 389.988L400.23 383.688H401.118L403.494 389.052L405.87 383.688H406.71Z" fill="white"/>
<path d="M211.091 15.5997V23.9997H210.239V17.2797L206.939 22.9317H206.519L203.219 17.3157V23.9997H202.367V15.5997H203.099L206.747 21.8277L210.359 15.5997H211.091Z" fill="white"/>
<path d="M219.144 21.1077L213.864 21.1077C213.912 21.7637 214.164 22.2957 214.62 22.7037C215.076 23.1037 215.652 23.3037 216.348 23.3037C216.74 23.3037 217.1 23.2357 217.428 23.0997C217.756 22.9557 218.04 22.7477 218.28 22.4757L218.76 23.0277C218.48 23.3637 218.128 23.6197 217.704 23.7957C217.288 23.9717 216.828 24.0597 216.324 24.0597C215.676 24.0597 215.1 23.9237 214.596 23.6517C214.1 23.3717 213.712 22.9877 213.432 22.4997C213.152 22.0117 213.012 21.4597 213.012 20.8437C213.012 20.2277 213.144 19.6757 213.408 19.1877C213.68 18.6997 214.048 18.3197 214.512 18.0477C214.984 17.7757 215.512 17.6397 216.096 17.6397C216.68 17.6397 217.204 17.7757 217.668 18.0477C218.132 18.3197 218.496 18.6997 218.76 19.1877C219.024 19.6677 219.156 20.2197 219.156 20.8437L219.144 21.1077ZM216.096 18.3717C215.488 18.3717 214.976 18.5677 214.56 18.9597C214.152 19.3437 213.92 19.8477 213.864 20.4717L218.34 20.4717C218.284 19.8477 218.048 19.3437 217.632 18.9597C217.224 18.5677 216.712 18.3717 216.096 18.3717Z" fill="white"/>
<path d="M228.762 17.6397C229.554 17.6397 230.174 17.8677 230.622 18.3237C231.078 18.7797 231.306 19.4517 231.306 20.3397V23.9997H230.454V20.4237C230.454 19.7677 230.294 19.2677 229.974 18.9237C229.662 18.5797 229.218 18.4077 228.642 18.4077C227.986 18.4077 227.47 18.6117 227.094 19.0197C226.718 19.4197 226.53 19.9757 226.53 20.6877V23.9997H225.678V20.4237C225.678 19.7677 225.518 19.2677 225.198 18.9237C224.886 18.5797 224.438 18.4077 223.854 18.4077C223.206 18.4077 222.69 18.6117 222.306 19.0197C221.93 19.4197 221.742 19.9757 221.742 20.6877V23.9997H220.89V17.6877H221.706V18.8397C221.93 18.4557 222.242 18.1597 222.642 17.9517C223.042 17.7437 223.502 17.6397 224.022 17.6397C224.55 17.6397 225.006 17.7517 225.39 17.9757C225.782 18.1997 226.074 18.5317 226.266 18.9717C226.498 18.5557 226.83 18.2317 227.262 17.9997C227.702 17.7597 228.202 17.6397 228.762 17.6397Z" fill="white"/>
<path d="M236.869 17.6397C237.461 17.6397 237.997 17.7757 238.477 18.0477C238.957 18.3117 239.333 18.6877 239.605 19.1757C239.877 19.6637 240.013 20.2197 240.013 20.8437C240.013 21.4677 239.877 22.0237 239.605 22.5117C239.333 22.9997 238.957 23.3797 238.477 23.6517C237.997 23.9237 237.461 24.0597 236.869 24.0597C236.341 24.0597 235.865 23.9477 235.441 23.7237C235.025 23.4997 234.689 23.1757 234.433 22.7517V23.9997H233.617V15.0957H234.469V18.8877C234.733 18.4797 235.069 18.1717 235.477 17.9637C235.893 17.7477 236.357 17.6397 236.869 17.6397ZM236.809 23.3037C237.249 23.3037 237.649 23.2037 238.009 23.0037C238.369 22.7957 238.649 22.5037 238.849 22.1277C239.057 21.7517 239.161 21.3237 239.161 20.8437C239.161 20.3637 239.057 19.9357 238.849 19.5597C238.649 19.1837 238.369 18.8957 238.009 18.6957C237.649 18.4877 237.249 18.3837 236.809 18.3837C236.361 18.3837 235.957 18.4877 235.597 18.6957C235.245 18.8957 234.965 19.1837 234.757 19.5597C234.557 19.9357 234.457 20.3637 234.457 20.8437C234.457 21.3237 234.557 21.7517 234.757 22.1277C234.965 22.5037 235.245 22.7957 235.597 23.0037C235.957 23.2037 236.361 23.3037 236.809 23.3037Z" fill="white"/>
<path d="M247.246 21.1077H241.966C242.014 21.7637 242.266 22.2957 242.722 22.7037C243.178 23.1037 243.754 23.3037 244.45 23.3037C244.842 23.3037 245.202 23.2357 245.53 23.0997C245.858 22.9557 246.142 22.7477 246.382 22.4757L246.862 23.0277C246.582 23.3637 246.23 23.6197 245.806 23.7957C245.39 23.9717 244.93 24.0597 244.426 24.0597C243.778 24.0597 243.202 23.9237 242.698 23.6517C242.202 23.3717 241.814 22.9877 241.534 22.4997C241.254 22.0117 241.114 21.4597 241.114 20.8437C241.114 20.2277 241.246 19.6757 241.51 19.1877C241.782 18.6997 242.15 18.3197 242.614 18.0477C243.086 17.7757 243.614 17.6397 244.198 17.6397C244.782 17.6397 245.306 17.7757 245.77 18.0477C246.234 18.3197 246.598 18.6997 246.862 19.1877C247.126 19.6677 247.258 20.2197 247.258 20.8437L247.246 21.1077ZM244.198 18.3717C243.59 18.3717 243.078 18.5677 242.662 18.9597C242.254 19.3437 242.022 19.8477 241.966 20.4717H246.442C246.386 19.8477 246.15 19.3437 245.734 18.9597C245.326 18.5677 244.814 18.3717 244.198 18.3717Z" fill="white"/>
<path d="M249.808 18.9237C250.008 18.4997 250.304 18.1797 250.696 17.9637C251.096 17.7477 251.588 17.6397 252.172 17.6397V18.4677L251.968 18.4557C251.304 18.4557 250.784 18.6597 250.408 19.0677C250.032 19.4757 249.844 20.0477 249.844 20.7837V23.9997H248.992V17.6877H249.808V18.9237Z" fill="white"/>
<path d="M255.453 24.0597C254.941 24.0597 254.449 23.9877 253.977 23.8437C253.513 23.6917 253.149 23.5037 252.885 23.2797L253.269 22.6077C253.533 22.8157 253.865 22.9877 254.265 23.1237C254.665 23.2517 255.081 23.3157 255.513 23.3157C256.089 23.3157 256.513 23.2277 256.785 23.0517C257.065 22.8677 257.205 22.6117 257.205 22.2837C257.205 22.0517 257.129 21.8717 256.977 21.7437C256.825 21.6077 256.633 21.5077 256.401 21.4437C256.169 21.3717 255.861 21.3037 255.477 21.2397C254.965 21.1437 254.553 21.0477 254.241 20.9517C253.929 20.8477 253.661 20.6757 253.437 20.4357C253.221 20.1957 253.113 19.8637 253.113 19.4397C253.113 18.9117 253.333 18.4797 253.773 18.1437C254.213 17.8077 254.825 17.6397 255.609 17.6397C256.017 17.6397 256.425 17.6957 256.833 17.8077C257.241 17.9117 257.577 18.0517 257.841 18.2277L257.469 18.9117C256.949 18.5517 256.329 18.3717 255.609 18.3717C255.065 18.3717 254.653 18.4677 254.373 18.6597C254.101 18.8517 253.965 19.1037 253.965 19.4157C253.965 19.6557 254.041 19.8477 254.193 19.9917C254.353 20.1357 254.549 20.2437 254.781 20.3157C255.013 20.3797 255.333 20.4477 255.741 20.5197C256.245 20.6157 256.649 20.7117 256.953 20.8077C257.257 20.9037 257.517 21.0677 257.733 21.2997C257.949 21.5317 258.057 21.8517 258.057 22.2597C258.057 22.8117 257.825 23.2517 257.361 23.5797C256.905 23.8997 256.269 24.0597 255.453 24.0597Z" fill="white"/>
<path d="M262.848 17.6397C263.64 17.6397 264.269 17.8717 264.733 18.3357C265.205 18.7917 265.441 19.4597 265.441 20.3397V23.9997H264.589V20.4237C264.589 19.7677 264.425 19.2677 264.097 18.9237C263.769 18.5797 263.301 18.4077 262.693 18.4077C262.013 18.4077 261.472 18.6117 261.072 19.0197C260.68 19.4197 260.485 19.9757 260.485 20.6877V23.9997H259.632V15.0957H260.485V18.7917C260.717 18.4237 261.037 18.1397 261.444 17.9397C261.853 17.7397 262.32 17.6397 262.848 17.6397Z" fill="white"/>
<path d="M267.754 17.6877H268.606V23.9997H267.754V17.6877ZM268.186 16.3077C268.01 16.3077 267.862 16.2477 267.742 16.1277C267.622 16.0077 267.562 15.8637 267.562 15.6957C267.562 15.5357 267.622 15.3957 267.742 15.2757C267.862 15.1557 268.01 15.0957 268.186 15.0957C268.362 15.0957 268.51 15.1557 268.63 15.2757C268.75 15.3877 268.81 15.5237 268.81 15.6837C268.81 15.8597 268.75 16.0077 268.63 16.1277C268.51 16.2477 268.362 16.3077 268.186 16.3077Z" fill="white"/>
<path d="M274.228 17.6397C274.82 17.6397 275.356 17.7757 275.836 18.0477C276.316 18.3117 276.692 18.6877 276.964 19.1757C277.236 19.6637 277.372 20.2197 277.372 20.8437C277.372 21.4757 277.236 22.0357 276.964 22.5237C276.692 23.0117 276.316 23.3917 275.836 23.6637C275.364 23.9277 274.828 24.0597 274.228 24.0597C273.716 24.0597 273.252 23.9557 272.836 23.7477C272.428 23.5317 272.092 23.2197 271.828 22.8117V26.3277H270.976V17.6877H271.792V18.9357C272.048 18.5197 272.384 18.1997 272.8 17.9757C273.224 17.7517 273.7 17.6397 274.228 17.6397ZM274.168 23.3037C274.608 23.3037 275.008 23.2037 275.368 23.0037C275.728 22.7957 276.008 22.5037 276.208 22.1277C276.416 21.7517 276.52 21.3237 276.52 20.8437C276.52 20.3637 276.416 19.9397 276.208 19.5717C276.008 19.1957 275.728 18.9037 275.368 18.6957C275.008 18.4877 274.608 18.3837 274.168 18.3837C273.72 18.3837 273.316 18.4877 272.956 18.6957C272.604 18.9037 272.324 19.1957 272.116 19.5717C271.916 19.9397 271.816 20.3637 271.816 20.8437C271.816 21.3237 271.916 21.7517 272.116 22.1277C272.324 22.5037 272.604 22.7957 272.956 23.0037C273.316 23.2037 273.72 23.3037 274.168 23.3037Z" fill="white"/>
<path d="M284.062 16.3677H281.11V15.5997L287.902 15.5997V16.3677H284.95V23.9997H284.062V16.3677Z" fill="white"/>
<path d="M291.064 24.0597C290.456 24.0597 289.908 23.9237 289.42 23.6517C288.932 23.3717 288.548 22.9877 288.268 22.4997C287.988 22.0117 287.848 21.4597 287.848 20.8437C287.848 20.2277 287.988 19.6757 288.268 19.1877C288.548 18.6997 288.932 18.3197 289.42 18.0477C289.908 17.7757 290.456 17.6397 291.064 17.6397C291.672 17.6397 292.22 17.7757 292.708 18.0477C293.196 18.3197 293.576 18.6997 293.848 19.1877C294.128 19.6757 294.268 20.2277 294.268 20.8437C294.268 21.4597 294.128 22.0117 293.848 22.4997C293.576 22.9877 293.196 23.3717 292.708 23.6517C292.22 23.9237 291.672 24.0597 291.064 24.0597ZM291.064 23.3037C291.512 23.3037 291.912 23.2037 292.264 23.0037C292.624 22.7957 292.904 22.5037 293.104 22.1277C293.304 21.7517 293.404 21.3237 293.404 20.8437C293.404 20.3637 293.304 19.9357 293.104 19.5597C292.904 19.1837 292.624 18.8957 292.264 18.6957C291.912 18.4877 291.512 18.3837 291.064 18.3837C290.616 18.3837 290.212 18.4877 289.852 18.6957C289.5 18.8957 289.22 19.1837 289.012 19.5597C288.812 19.9357 288.712 20.3637 288.712 20.8437C288.712 21.3237 288.812 21.7517 289.012 22.1277C289.22 22.5037 289.5 22.7957 289.852 23.0037C290.212 23.2037 290.616 23.3037 291.064 23.3037Z" fill="white"/>
<path d="M298.348 20.8317L296.859 22.1997V23.9997H296.008V15.0957L296.859 15.0957V21.1317L300.628 17.6877H301.684L298.984 20.2677L301.936 23.9997H300.891L298.348 20.8317Z" fill="white"/>
<path d="M308.453 21.1077L303.173 21.1077C303.221 21.7637 303.473 22.2957 303.929 22.7037C304.385 23.1037 304.961 23.3037 305.657 23.3037C306.049 23.3037 306.409 23.2357 306.737 23.0997C307.065 22.9557 307.349 22.7477 307.589 22.4757L308.069 23.0277C307.789 23.3637 307.437 23.6197 307.013 23.7957C306.597 23.9717 306.137 24.0597 305.633 24.0597C304.985 24.0597 304.409 23.9237 303.905 23.6517C303.409 23.3717 303.021 22.9877 302.741 22.4997C302.461 22.0117 302.321 21.4597 302.321 20.8437C302.321 20.2277 302.453 19.6757 302.717 19.1877C302.989 18.6997 303.357 18.3197 303.821 18.0477C304.293 17.7757 304.821 17.6397 305.405 17.6397C305.989 17.6397 306.513 17.7757 306.977 18.0477C307.441 18.3197 307.805 18.6997 308.069 19.1877C308.333 19.6677 308.465 20.2197 308.465 20.8437L308.453 21.1077ZM305.405 18.3717C304.797 18.3717 304.285 18.5677 303.869 18.9597C303.461 19.3437 303.229 19.8477 303.173 20.4717L307.649 20.4717C307.593 19.8477 307.357 19.3437 306.941 18.9597C306.533 18.5677 306.021 18.3717 305.405 18.3717Z" fill="white"/>
<path d="M313.415 17.6397C314.207 17.6397 314.835 17.8717 315.299 18.3357C315.771 18.7917 316.007 19.4597 316.007 20.3397V23.9997H315.155V20.4237C315.155 19.7677 314.991 19.2677 314.663 18.9237C314.335 18.5797 313.867 18.4077 313.259 18.4077C312.579 18.4077 312.039 18.6117 311.639 19.0197C311.247 19.4197 311.051 19.9757 311.051 20.6877V23.9997H310.199V17.6877H311.015V18.8517C311.247 18.4677 311.567 18.1717 311.975 17.9637C312.391 17.7477 312.871 17.6397 313.415 17.6397Z" fill="white"/>
<path d="M324.785 15.5997C325.857 15.5997 326.697 15.8557 327.305 16.3677C327.913 16.8797 328.217 17.5837 328.217 18.4797C328.217 19.3757 327.913 20.0797 327.305 20.5917C326.697 21.0957 325.857 21.3477 324.785 21.3477H322.529V23.9997H321.641V15.5997H324.785ZM324.761 20.5677C325.593 20.5677 326.229 20.3877 326.669 20.0277C327.109 19.6597 327.329 19.1437 327.329 18.4797C327.329 17.7997 327.109 17.2797 326.669 16.9197C326.229 16.5517 325.593 16.3677 324.761 16.3677L322.529 16.3677V20.5677H324.761Z" fill="white"/>
<path d="M330.609 18.9237C330.809 18.4997 331.105 18.1797 331.497 17.9637C331.897 17.7477 332.389 17.6397 332.973 17.6397V18.4677L332.769 18.4557C332.105 18.4557 331.585 18.6597 331.209 19.0677C330.833 19.4757 330.645 20.0477 330.645 20.7837V23.9997H329.793V17.6877H330.609V18.9237Z" fill="white"/>
<path d="M334.515 17.6877H335.367V23.9997H334.515V17.6877ZM334.947 16.3077C334.771 16.3077 334.623 16.2477 334.503 16.1277C334.383 16.0077 334.323 15.8637 334.323 15.6957C334.323 15.5357 334.383 15.3957 334.503 15.2757C334.623 15.1557 334.771 15.0957 334.947 15.0957C335.123 15.0957 335.271 15.1557 335.391 15.2757C335.511 15.3877 335.571 15.5237 335.571 15.6837C335.571 15.8597 335.511 16.0077 335.391 16.1277C335.271 16.2477 335.123 16.3077 334.947 16.3077Z" fill="white"/>
<path d="M340.354 24.0597C339.73 24.0597 339.17 23.9237 338.674 23.6517C338.186 23.3797 337.802 22.9997 337.522 22.5117C337.242 22.0157 337.102 21.4597 337.102 20.8437C337.102 20.2277 337.242 19.6757 337.522 19.1877C337.802 18.6997 338.186 18.3197 338.674 18.0477C339.17 17.7757 339.73 17.6397 340.354 17.6397C340.898 17.6397 341.382 17.7477 341.806 17.9637C342.238 18.1717 342.578 18.4797 342.826 18.8877L342.19 19.3197C341.982 19.0077 341.718 18.7757 341.398 18.6237C341.078 18.4637 340.73 18.3837 340.354 18.3837C339.898 18.3837 339.486 18.4877 339.118 18.6957C338.758 18.8957 338.474 19.1837 338.266 19.5597C338.066 19.9357 337.966 20.3637 337.966 20.8437C337.966 21.3317 338.066 21.7637 338.266 22.1397C338.474 22.5077 338.758 22.7957 339.118 23.0037C339.486 23.2037 339.898 23.3037 340.354 23.3037C340.73 23.3037 341.078 23.2277 341.398 23.0757C341.718 22.9237 341.982 22.6917 342.19 22.3797L342.826 22.8117C342.578 23.2197 342.238 23.5317 341.806 23.7477C341.374 23.9557 340.89 24.0597 340.354 24.0597Z" fill="white"/>
<path d="M349.89 21.1077L344.61 21.1077C344.658 21.7637 344.91 22.2957 345.366 22.7037C345.822 23.1037 346.398 23.3037 347.094 23.3037C347.486 23.3037 347.846 23.2357 348.174 23.0997C348.502 22.9557 348.786 22.7477 349.026 22.4757L349.506 23.0277C349.226 23.3637 348.874 23.6197 348.45 23.7957C348.034 23.9717 347.574 24.0597 347.07 24.0597C346.422 24.0597 345.846 23.9237 345.342 23.6517C344.846 23.3717 344.458 22.9877 344.178 22.4997C343.898 22.0117 343.758 21.4597 343.758 20.8437C343.758 20.2277 343.89 19.6757 344.154 19.1877C344.426 18.6997 344.794 18.3197 345.258 18.0477C345.73 17.7757 346.258 17.6397 346.842 17.6397C347.426 17.6397 347.95 17.7757 348.414 18.0477C348.878 18.3197 349.242 18.6997 349.506 19.1877C349.77 19.6677 349.902 20.2197 349.902 20.8437L349.89 21.1077ZM346.842 18.3717C346.234 18.3717 345.722 18.5677 345.306 18.9597C344.898 19.3437 344.666 19.8477 344.61 20.4717L349.086 20.4717C349.03 19.8477 348.794 19.3437 348.378 18.9597C347.97 18.5677 347.458 18.3717 346.842 18.3717Z" fill="white"/>
<path d="M360.081 17.6877L357.273 23.9997H356.397L353.601 17.6877H354.489L356.853 23.0637L359.241 17.6877H360.081Z" fill="white"/>
<path d="M362.903 24.0597C362.391 24.0597 361.899 23.9877 361.427 23.8437C360.963 23.6917 360.599 23.5037 360.335 23.2797L360.719 22.6077C360.983 22.8157 361.315 22.9877 361.715 23.1237C362.115 23.2517 362.531 23.3157 362.963 23.3157C363.539 23.3157 363.963 23.2277 364.235 23.0517C364.515 22.8677 364.655 22.6117 364.655 22.2837C364.655 22.0517 364.579 21.8717 364.427 21.7437C364.275 21.6077 364.083 21.5077 363.851 21.4437C363.619 21.3717 363.311 21.3037 362.927 21.2397C362.415 21.1437 362.003 21.0477 361.691 20.9517C361.379 20.8477 361.111 20.6757 360.887 20.4357C360.671 20.1957 360.563 19.8637 360.563 19.4397C360.563 18.9117 360.783 18.4797 361.223 18.1437C361.663 17.8077 362.275 17.6397 363.059 17.6397C363.467 17.6397 363.875 17.6957 364.283 17.8077C364.691 17.9117 365.027 18.0517 365.291 18.2277L364.919 18.9117C364.399 18.5517 363.779 18.3717 363.059 18.3717C362.515 18.3717 362.103 18.4677 361.823 18.6597C361.551 18.8517 361.415 19.1037 361.415 19.4157C361.415 19.6557 361.491 19.8477 361.643 19.9917C361.803 20.1357 361.999 20.2437 362.231 20.3157C362.463 20.3797 362.783 20.4477 363.191 20.5197C363.695 20.6157 364.099 20.7117 364.403 20.8077C364.707 20.9037 364.967 21.0677 365.183 21.2997C365.399 21.5317 365.507 21.8517 365.507 22.2597C365.507 22.8117 365.275 23.2517 364.811 23.5797C364.355 23.8997 363.719 24.0597 362.903 24.0597Z" fill="white"/>
<path d="M379.126 15.5997V23.9997H378.274V17.2797L374.974 22.9317H374.554L371.254 17.3157V23.9997H370.402V15.5997H371.134L374.782 21.8277L378.394 15.5997H379.126Z" fill="white"/>
<path d="M387.179 21.1077H381.899C381.947 21.7637 382.199 22.2957 382.655 22.7037C383.111 23.1037 383.687 23.3037 384.383 23.3037C384.775 23.3037 385.135 23.2357 385.463 23.0997C385.791 22.9557 386.075 22.7477 386.315 22.4757L386.795 23.0277C386.515 23.3637 386.163 23.6197 385.739 23.7957C385.323 23.9717 384.863 24.0597 384.359 24.0597C383.711 24.0597 383.135 23.9237 382.631 23.6517C382.135 23.3717 381.747 22.9877 381.467 22.4997C381.187 22.0117 381.047 21.4597 381.047 20.8437C381.047 20.2277 381.179 19.6757 381.443 19.1877C381.715 18.6997 382.083 18.3197 382.547 18.0477C383.019 17.7757 383.547 17.6397 384.131 17.6397C384.715 17.6397 385.239 17.7757 385.703 18.0477C386.167 18.3197 386.531 18.6997 386.795 19.1877C387.059 19.6677 387.191 20.2197 387.191 20.8437L387.179 21.1077ZM384.131 18.3717C383.523 18.3717 383.011 18.5677 382.595 18.9597C382.187 19.3437 381.955 19.8477 381.899 20.4717H386.375C386.319 19.8477 386.083 19.3437 385.667 18.9597C385.259 18.5677 384.747 18.3717 384.131 18.3717Z" fill="white"/>
<path d="M396.797 17.6397C397.589 17.6397 398.209 17.8677 398.657 18.3237C399.113 18.7797 399.341 19.4517 399.341 20.3397V23.9997H398.489V20.4237C398.489 19.7677 398.329 19.2677 398.009 18.9237C397.697 18.5797 397.253 18.4077 396.677 18.4077C396.021 18.4077 395.505 18.6117 395.129 19.0197C394.753 19.4197 394.565 19.9757 394.565 20.6877V23.9997H393.713V20.4237C393.713 19.7677 393.553 19.2677 393.233 18.9237C392.921 18.5797 392.473 18.4077 391.889 18.4077C391.241 18.4077 390.725 18.6117 390.341 19.0197C389.965 19.4197 389.777 19.9757 389.777 20.6877V23.9997H388.925V17.6877H389.741V18.8397C389.965 18.4557 390.277 18.1597 390.677 17.9517C391.077 17.7437 391.537 17.6397 392.057 17.6397C392.585 17.6397 393.041 17.7517 393.425 17.9757C393.817 18.1997 394.109 18.5317 394.301 18.9717C394.533 18.5557 394.865 18.2317 395.297 17.9997C395.737 17.7597 396.237 17.6397 396.797 17.6397Z" fill="white"/>
<path d="M404.904 17.6397C405.496 17.6397 406.032 17.7757 406.512 18.0477C406.992 18.3117 407.368 18.6877 407.64 19.1757C407.912 19.6637 408.048 20.2197 408.048 20.8437C408.048 21.4677 407.912 22.0237 407.64 22.5117C407.368 22.9997 406.992 23.3797 406.512 23.6517C406.032 23.9237 405.496 24.0597 404.904 24.0597C404.376 24.0597 403.9 23.9477 403.476 23.7237C403.06 23.4997 402.724 23.1757 402.468 22.7517V23.9997H401.652V15.0957H402.504V18.8877C402.768 18.4797 403.104 18.1717 403.512 17.9637C403.928 17.7477 404.392 17.6397 404.904 17.6397ZM404.844 23.3037C405.284 23.3037 405.684 23.2037 406.044 23.0037C406.404 22.7957 406.684 22.5037 406.884 22.1277C407.092 21.7517 407.196 21.3237 407.196 20.8437C407.196 20.3637 407.092 19.9357 406.884 19.5597C406.684 19.1837 406.404 18.8957 406.044 18.6957C405.684 18.4877 405.284 18.3837 404.844 18.3837C404.396 18.3837 403.992 18.4877 403.632 18.6957C403.28 18.8957 403 19.1837 402.792 19.5597C402.592 19.9357 402.492 20.3637 402.492 20.8437C402.492 21.3237 402.592 21.7517 402.792 22.1277C403 22.5037 403.28 22.7957 403.632 23.0037C403.992 23.2037 404.396 23.3037 404.844 23.3037Z" fill="white"/>
<path d="M415.281 21.1077H410.001C410.049 21.7637 410.301 22.2957 410.757 22.7037C411.213 23.1037 411.789 23.3037 412.485 23.3037C412.877 23.3037 413.237 23.2357 413.565 23.0997C413.893 22.9557 414.177 22.7477 414.417 22.4757L414.897 23.0277C414.617 23.3637 414.265 23.6197 413.841 23.7957C413.425 23.9717 412.965 24.0597 412.461 24.0597C411.813 24.0597 411.237 23.9237 410.733 23.6517C410.237 23.3717 409.849 22.9877 409.569 22.4997C409.289 22.0117 409.149 21.4597 409.149 20.8437C409.149 20.2277 409.281 19.6757 409.545 19.1877C409.817 18.6997 410.185 18.3197 410.649 18.0477C411.121 17.7757 411.649 17.6397 412.233 17.6397C412.817 17.6397 413.341 17.7757 413.805 18.0477C414.269 18.3197 414.633 18.6997 414.897 19.1877C415.161 19.6677 415.293 20.2197 415.293 20.8437L415.281 21.1077ZM412.233 18.3717C411.625 18.3717 411.113 18.5677 410.697 18.9597C410.289 19.3437 410.057 19.8477 410.001 20.4717H414.477C414.421 19.8477 414.185 19.3437 413.769 18.9597C413.361 18.5677 412.849 18.3717 412.233 18.3717Z" fill="white"/>
<path d="M417.843 18.9237C418.043 18.4997 418.339 18.1797 418.731 17.9637C419.131 17.7477 419.623 17.6397 420.207 17.6397V18.4677L420.003 18.4557C419.339 18.4557 418.819 18.6597 418.443 19.0677C418.067 19.4757 417.879 20.0477 417.879 20.7837V23.9997H417.027V17.6877H417.843V18.9237Z" fill="white"/>
<path d="M423.489 24.0597C422.977 24.0597 422.485 23.9877 422.013 23.8437C421.549 23.6917 421.185 23.5037 420.921 23.2797L421.305 22.6077C421.569 22.8157 421.901 22.9877 422.301 23.1237C422.701 23.2517 423.117 23.3157 423.549 23.3157C424.125 23.3157 424.549 23.2277 424.821 23.0517C425.101 22.8677 425.241 22.6117 425.241 22.2837C425.241 22.0517 425.165 21.8717 425.013 21.7437C424.861 21.6077 424.669 21.5077 424.437 21.4437C424.205 21.3717 423.897 21.3037 423.513 21.2397C423.001 21.1437 422.589 21.0477 422.277 20.9517C421.965 20.8477 421.697 20.6757 421.473 20.4357C421.257 20.1957 421.149 19.8637 421.149 19.4397C421.149 18.9117 421.369 18.4797 421.809 18.1437C422.249 17.8077 422.861 17.6397 423.645 17.6397C424.053 17.6397 424.461 17.6957 424.869 17.8077C425.277 17.9117 425.613 18.0517 425.877 18.2277L425.505 18.9117C424.985 18.5517 424.365 18.3717 423.645 18.3717C423.101 18.3717 422.689 18.4677 422.409 18.6597C422.137 18.8517 422.001 19.1037 422.001 19.4157C422.001 19.6557 422.077 19.8477 422.229 19.9917C422.389 20.1357 422.585 20.2437 422.817 20.3157C423.049 20.3797 423.369 20.4477 423.777 20.5197C424.281 20.6157 424.685 20.7117 424.989 20.8077C425.293 20.9037 425.553 21.0677 425.769 21.2997C425.985 21.5317 426.093 21.8517 426.093 22.2597C426.093 22.8117 425.861 23.2517 425.397 23.5797C424.941 23.8997 424.305 24.0597 423.489 24.0597Z" fill="white"/>
<path d="M430.884 17.6397C431.676 17.6397 432.304 17.8717 432.768 18.3357C433.24 18.7917 433.476 19.4597 433.476 20.3397V23.9997H432.624V20.4237C432.624 19.7677 432.46 19.2677 432.132 18.9237C431.804 18.5797 431.336 18.4077 430.728 18.4077C430.048 18.4077 429.508 18.6117 429.108 19.0197C428.716 19.4197 428.52 19.9757 428.52 20.6877V23.9997H427.668V15.0957H428.52V18.7917C428.752 18.4237 429.072 18.1397 429.48 17.9397C429.888 17.7397 430.356 17.6397 430.884 17.6397Z" fill="white"/>
<path d="M435.789 17.6877H436.641V23.9997H435.789V17.6877ZM436.221 16.3077C436.045 16.3077 435.897 16.2477 435.777 16.1277C435.657 16.0077 435.597 15.8637 435.597 15.6957C435.597 15.5357 435.657 15.3957 435.777 15.2757C435.897 15.1557 436.045 15.0957 436.221 15.0957C436.397 15.0957 436.545 15.1557 436.665 15.2757C436.785 15.3877 436.845 15.5237 436.845 15.6837C436.845 15.8597 436.785 16.0077 436.665 16.1277C436.545 16.2477 436.397 16.3077 436.221 16.3077Z" fill="white"/>
<path d="M442.263 17.6397C442.855 17.6397 443.391 17.7757 443.871 18.0477C444.351 18.3117 444.727 18.6877 444.999 19.1757C445.271 19.6637 445.407 20.2197 445.407 20.8437C445.407 21.4757 445.271 22.0357 444.999 22.5237C444.727 23.0117 444.351 23.3917 443.871 23.6637C443.399 23.9277 442.863 24.0597 442.263 24.0597C441.751 24.0597 441.287 23.9557 440.871 23.7477C440.463 23.5317 440.127 23.2197 439.863 22.8117V26.3277L439.011 26.3277V17.6877H439.827V18.9357C440.083 18.5197 440.419 18.1997 440.835 17.9757C441.259 17.7517 441.735 17.6397 442.263 17.6397ZM442.203 23.3037C442.643 23.3037 443.043 23.2037 443.403 23.0037C443.763 22.7957 444.043 22.5037 444.243 22.1277C444.451 21.7517 444.555 21.3237 444.555 20.8437C444.555 20.3637 444.451 19.9397 444.243 19.5717C444.043 19.1957 443.763 18.9037 443.403 18.6957C443.043 18.4877 442.643 18.3837 442.203 18.3837C441.755 18.3837 441.351 18.4877 440.991 18.6957C440.639 18.9037 440.359 19.1957 440.151 19.5717C439.951 19.9397 439.851 20.3637 439.851 20.8437C439.851 21.3237 439.951 21.7517 440.151 22.1277C440.359 22.5037 440.639 22.7957 440.991 23.0037C441.351 23.2037 441.755 23.3037 442.203 23.3037Z" fill="white"/>
<path d="M448.836 24.0597C448.324 24.0597 447.832 23.9877 447.36 23.8437C446.896 23.6917 446.532 23.5037 446.268 23.2797L446.652 22.6077C446.916 22.8157 447.248 22.9877 447.648 23.1237C448.048 23.2517 448.464 23.3157 448.896 23.3157C449.472 23.3157 449.896 23.2277 450.168 23.0517C450.448 22.8677 450.588 22.6117 450.588 22.2837C450.588 22.0517 450.512 21.8717 450.36 21.7437C450.208 21.6077 450.016 21.5077 449.784 21.4437C449.552 21.3717 449.244 21.3037 448.86 21.2397C448.348 21.1437 447.936 21.0477 447.624 20.9517C447.312 20.8477 447.044 20.6757 446.82 20.4357C446.604 20.1957 446.496 19.8637 446.496 19.4397C446.496 18.9117 446.716 18.4797 447.156 18.1437C447.596 17.8077 448.208 17.6397 448.992 17.6397C449.4 17.6397 449.808 17.6957 450.216 17.8077C450.624 17.9117 450.96 18.0517 451.224 18.2277L450.852 18.9117C450.332 18.5517 449.712 18.3717 448.992 18.3717C448.448 18.3717 448.036 18.4677 447.756 18.6597C447.484 18.8517 447.348 19.1037 447.348 19.4157C447.348 19.6557 447.424 19.8477 447.576 19.9917C447.736 20.1357 447.932 20.2437 448.164 20.3157C448.396 20.3797 448.716 20.4477 449.124 20.5197C449.628 20.6157 450.032 20.7117 450.336 20.8077C450.64 20.9037 450.9 21.0677 451.116 21.2997C451.332 21.5317 451.44 21.8517 451.44 22.2597C451.44 22.8117 451.208 23.2517 450.744 23.5797C450.288 23.8997 449.652 24.0597 448.836 24.0597Z" fill="white"/>
<path d="M492.456 237.801V249.001H491.32V240.041L486.92 247.577H486.36L481.96 240.089V249.001H480.824V237.801H481.8L486.664 246.105L491.48 237.801H492.456Z" fill="white"/>
<path d="M495.865 240.585H497.001V249.001H495.865V240.585ZM496.441 238.745C496.207 238.745 496.009 238.665 495.849 238.505C495.689 238.345 495.609 238.153 495.609 237.929C495.609 237.716 495.689 237.529 495.849 237.369C496.009 237.209 496.207 237.129 496.441 237.129C496.676 237.129 496.873 237.209 497.033 237.369C497.193 237.518 497.273 237.7 497.273 237.913C497.273 238.148 497.193 238.345 497.033 238.505C496.873 238.665 496.676 238.745 496.441 238.745Z" fill="white"/>
<path d="M504.45 240.521C505.506 240.521 506.344 240.83 506.962 241.449C507.592 242.057 507.906 242.948 507.906 244.121V249.001H506.77V244.233C506.77 243.358 506.552 242.692 506.114 242.233C505.677 241.774 505.053 241.545 504.242 241.545C503.336 241.545 502.616 241.817 502.082 242.361C501.56 242.894 501.298 243.636 501.298 244.585V249.001H500.162V240.585H501.25V242.137C501.56 241.625 501.986 241.23 502.53 240.953C503.085 240.665 503.725 240.521 504.45 240.521Z" fill="white"/>
<path d="M515.422 248.489C515.209 248.681 514.942 248.83 514.622 248.937C514.313 249.033 513.988 249.081 513.646 249.081C512.857 249.081 512.249 248.868 511.822 248.441C511.396 248.014 511.182 247.412 511.182 246.633V241.545H509.678V240.585H511.182V238.745H512.318V240.585H514.878V241.545H512.318V246.569C512.318 247.07 512.441 247.454 512.686 247.721C512.942 247.977 513.305 248.105 513.774 248.105C514.009 248.105 514.233 248.068 514.446 247.993C514.67 247.918 514.862 247.812 515.022 247.673L515.422 248.489Z" fill="white"/>
<path d="M49.9365 37.7991V48.9991H48.7845V38.8231H46.1445V37.7991H49.9365Z" fill="white"/>
<path d="M53.4778 49.0791C53.2431 49.0791 53.0404 48.9938 52.8698 48.8231C52.7098 48.6525 52.6298 48.4445 52.6298 48.1991C52.6298 47.9538 52.7098 47.7511 52.8698 47.5911C53.0404 47.4205 53.2431 47.3351 53.4778 47.3351C53.7124 47.3351 53.9151 47.4205 54.0858 47.5911C54.2564 47.7511 54.3418 47.9538 54.3418 48.1991C54.3418 48.4445 54.2564 48.6525 54.0858 48.8231C53.9151 48.9938 53.7124 49.0791 53.4778 49.0791Z" fill="white"/>
<path d="M60.2965 49.0951C59.4325 49.0951 58.6592 48.8658 57.9765 48.4071C57.3045 47.9485 56.7765 47.2925 56.3925 46.4391C56.0192 45.5751 55.8325 44.5618 55.8325 43.3991C55.8325 42.2365 56.0192 41.2285 56.3925 40.3751C56.7765 39.5111 57.3045 38.8498 57.9765 38.3911C58.6592 37.9325 59.4325 37.7031 60.2965 37.7031C61.1605 37.7031 61.9285 37.9325 62.6005 38.3911C63.2832 38.8498 63.8165 39.5111 64.2005 40.3751C64.5845 41.2285 64.7765 42.2365 64.7765 43.3991C64.7765 44.5618 64.5845 45.5751 64.2005 46.4391C63.8165 47.2925 63.2832 47.9485 62.6005 48.4071C61.9285 48.8658 61.1605 49.0951 60.2965 49.0951ZM60.2965 48.0391C60.9472 48.0391 61.5179 47.8578 62.0085 47.4951C62.5099 47.1325 62.8992 46.6045 63.1765 45.9111C63.4539 45.2178 63.5925 44.3805 63.5925 43.3991C63.5925 42.4178 63.4539 41.5805 63.1765 40.8871C62.8992 40.1938 62.5099 39.6658 62.0085 39.3031C61.5179 38.9405 60.9472 38.7591 60.2965 38.7591C59.6459 38.7591 59.0699 38.9405 58.5685 39.3031C58.0779 39.6658 57.6939 40.1938 57.4165 40.8871C57.1392 41.5805 57.0005 42.4178 57.0005 43.3991C57.0005 44.3805 57.1392 45.2178 57.4165 45.9111C57.6939 46.6045 58.0779 47.1325 58.5685 47.4951C59.0699 47.8578 59.6459 48.0391 60.2965 48.0391Z" fill="white"/>
<path d="M49.296 107.095C48.432 107.095 47.6587 106.866 46.976 106.407C46.304 105.948 45.776 105.292 45.392 104.439C45.0187 103.575 44.832 102.562 44.832 101.399C44.832 100.236 45.0187 99.2285 45.392 98.3751C45.776 97.5111 46.304 96.8498 46.976 96.3911C47.6587 95.9325 48.432 95.7031 49.296 95.7031C50.16 95.7031 50.928 95.9325 51.6 96.3911C52.2827 96.8498 52.816 97.5111 53.2 98.3751C53.584 99.2285 53.776 100.236 53.776 101.399C53.776 102.562 53.584 103.575 53.2 104.439C52.816 105.292 52.2827 105.948 51.6 106.407C50.928 106.866 50.16 107.095 49.296 107.095ZM49.296 106.039C49.9467 106.039 50.5174 105.858 51.008 105.495C51.5094 105.132 51.8987 104.604 52.176 103.911C52.4534 103.218 52.592 102.38 52.592 101.399C52.592 100.418 52.4534 99.5805 52.176 98.8871C51.8987 98.1938 51.5094 97.6658 51.008 97.3031C50.5174 96.9405 49.9467 96.7591 49.296 96.7591C48.6454 96.7591 48.0694 96.9405 47.568 97.3031C47.0774 97.6658 46.6934 98.1938 46.416 98.8871C46.1387 99.5805 46 100.418 46 101.399C46 102.38 46.1387 103.218 46.416 103.911C46.6934 104.604 47.0774 105.132 47.568 105.495C48.0694 105.858 48.6454 106.039 49.296 106.039Z" fill="white"/>
<path d="M56.1179 107.079C55.8832 107.079 55.6806 106.994 55.5099 106.823C55.3499 106.652 55.2699 106.444 55.2699 106.199C55.2699 105.954 55.3499 105.751 55.5099 105.591C55.6806 105.42 55.8832 105.335 56.1179 105.335C56.3526 105.335 56.5552 105.42 56.7259 105.591C56.8966 105.751 56.9819 105.954 56.9819 106.199C56.9819 106.444 56.8966 106.652 56.7259 106.823C56.5552 106.994 56.3526 107.079 56.1179 107.079Z" fill="white"/>
<path d="M65.2168 101.127C65.9208 101.362 66.4594 101.714 66.8328 102.183C67.2168 102.652 67.4088 103.218 67.4088 103.879C67.4088 104.53 67.2328 105.1 66.8808 105.591C66.5288 106.071 66.0221 106.444 65.3608 106.711C64.7101 106.967 63.9421 107.095 63.0568 107.095C61.7128 107.095 60.6568 106.807 59.8888 106.231C59.1208 105.655 58.7368 104.871 58.7368 103.879C58.7368 103.207 58.9181 102.642 59.2808 102.183C59.6541 101.714 60.1928 101.362 60.8968 101.127C60.3208 100.903 59.8834 100.583 59.5848 100.167C59.2861 99.7405 59.1368 99.2391 59.1368 98.6631C59.1368 97.7565 59.4888 97.0365 60.1928 96.5031C60.9074 95.9698 61.8621 95.7031 63.0568 95.7031C63.8461 95.7031 64.5341 95.8258 65.1208 96.0711C65.7181 96.3058 66.1821 96.6471 66.5128 97.0951C66.8434 97.5431 67.0088 98.0658 67.0088 98.6631C67.0088 99.2391 66.8541 99.7405 66.5448 100.167C66.2354 100.583 65.7928 100.903 65.2168 101.127ZM60.2888 98.6951C60.2888 99.3138 60.5341 99.8045 61.0248 100.167C61.5154 100.53 62.1928 100.711 63.0568 100.711C63.9208 100.711 64.5981 100.53 65.0888 100.167C65.5901 99.8045 65.8408 99.3191 65.8408 98.7111C65.8408 98.0818 65.5848 97.5858 65.0728 97.2231C64.5714 96.8605 63.8994 96.6791 63.0568 96.6791C62.2034 96.6791 61.5261 96.8605 61.0248 97.2231C60.5341 97.5858 60.2888 98.0765 60.2888 98.6951ZM63.0568 106.119C64.0488 106.119 64.8221 105.916 65.3768 105.511C65.9421 105.106 66.2248 104.556 66.2248 103.863C66.2248 103.17 65.9421 102.626 65.3768 102.231C64.8221 101.826 64.0488 101.623 63.0568 101.623C62.0754 101.623 61.3021 101.826 60.7368 102.231C60.1821 102.626 59.9048 103.17 59.9048 103.863C59.9048 104.567 60.1821 105.122 60.7368 105.527C61.2914 105.922 62.0648 106.119 63.0568 106.119Z" fill="white"/>
<path d="M49.296 165.095C48.432 165.095 47.6587 164.866 46.976 164.407C46.304 163.948 45.776 163.292 45.392 162.439C45.0187 161.575 44.832 160.562 44.832 159.399C44.832 158.236 45.0187 157.228 45.392 156.375C45.776 155.511 46.304 154.85 46.976 154.391C47.6587 153.932 48.432 153.703 49.296 153.703C50.16 153.703 50.928 153.932 51.6 154.391C52.2827 154.85 52.816 155.511 53.2 156.375C53.584 157.228 53.776 158.236 53.776 159.399C53.776 160.562 53.584 161.575 53.2 162.439C52.816 163.292 52.2827 163.948 51.6 164.407C50.928 164.866 50.16 165.095 49.296 165.095ZM49.296 164.039C49.9467 164.039 50.5174 163.858 51.008 163.495C51.5094 163.132 51.8987 162.604 52.176 161.911C52.4534 161.218 52.592 160.38 52.592 159.399C52.592 158.418 52.4534 157.58 52.176 156.887C51.8987 156.194 51.5094 155.666 51.008 155.303C50.5174 154.94 49.9467 154.759 49.296 154.759C48.6454 154.759 48.0694 154.94 47.568 155.303C47.0774 155.666 46.6934 156.194 46.416 156.887C46.1387 157.58 46 158.418 46 159.399C46 160.38 46.1387 161.218 46.416 161.911C46.6934 162.604 47.0774 163.132 47.568 163.495C48.0694 163.858 48.6454 164.039 49.296 164.039Z" fill="white"/>
<path d="M56.1179 165.079C55.8832 165.079 55.6806 164.994 55.5099 164.823C55.3499 164.652 55.2699 164.444 55.2699 164.199C55.2699 163.954 55.3499 163.751 55.5099 163.591C55.6806 163.42 55.8832 163.335 56.1179 163.335C56.3526 163.335 56.5552 163.42 56.7259 163.591C56.8966 163.751 56.9819 163.954 56.9819 164.199C56.9819 164.444 56.8966 164.652 56.7259 164.823C56.5552 164.994 56.3526 165.079 56.1179 165.079Z" fill="white"/>
<path d="M63.1127 158.295C63.8487 158.295 64.4993 158.434 65.0647 158.711C65.6407 158.988 66.0887 159.383 66.4087 159.895C66.7287 160.396 66.8887 160.983 66.8887 161.655C66.8887 162.338 66.7233 162.94 66.3927 163.463C66.062 163.986 65.6033 164.391 65.0167 164.679C64.4407 164.956 63.79 165.095 63.0647 165.095C61.582 165.095 60.446 164.61 59.6567 163.639C58.8673 162.658 58.4727 161.276 58.4727 159.495C58.4727 158.247 58.686 157.191 59.1127 156.327C59.5393 155.463 60.1367 154.812 60.9047 154.375C61.6727 153.927 62.5687 153.703 63.5927 153.703C64.702 153.703 65.5873 153.906 66.2487 154.311L65.7847 155.239C65.2513 154.887 64.526 154.711 63.6087 154.711C62.3713 154.711 61.4007 155.106 60.6967 155.895C59.9927 156.674 59.6407 157.81 59.6407 159.303C59.6407 159.57 59.6567 159.874 59.6887 160.215C59.966 159.607 60.4087 159.138 61.0167 158.807C61.6247 158.466 62.3233 158.295 63.1127 158.295ZM63.0167 164.119C63.8273 164.119 64.4833 163.9 64.9847 163.463C65.4967 163.015 65.7527 162.423 65.7527 161.687C65.7527 160.951 65.4967 160.364 64.9847 159.927C64.4833 159.49 63.8007 159.271 62.9367 159.271C62.3713 159.271 61.87 159.378 61.4327 159.591C61.006 159.804 60.67 160.098 60.4247 160.471C60.1793 160.844 60.0567 161.26 60.0567 161.719C60.0567 162.146 60.1687 162.54 60.3927 162.903C60.6273 163.266 60.9687 163.559 61.4167 163.783C61.8647 164.007 62.398 164.119 63.0167 164.119Z" fill="white"/>
<path d="M49.296 223.095C48.432 223.095 47.6587 222.866 46.976 222.407C46.304 221.948 45.776 221.292 45.392 220.439C45.0187 219.575 44.832 218.562 44.832 217.399C44.832 216.236 45.0187 215.228 45.392 214.375C45.776 213.511 46.304 212.85 46.976 212.391C47.6587 211.932 48.432 211.703 49.296 211.703C50.16 211.703 50.928 211.932 51.6 212.391C52.2827 212.85 52.816 213.511 53.2 214.375C53.584 215.228 53.776 216.236 53.776 217.399C53.776 218.562 53.584 219.575 53.2 220.439C52.816 221.292 52.2827 221.948 51.6 222.407C50.928 222.866 50.16 223.095 49.296 223.095ZM49.296 222.039C49.9467 222.039 50.5174 221.858 51.008 221.495C51.5094 221.132 51.8987 220.604 52.176 219.911C52.4534 219.218 52.592 218.38 52.592 217.399C52.592 216.418 52.4534 215.58 52.176 214.887C51.8987 214.194 51.5094 213.666 51.008 213.303C50.5174 212.94 49.9467 212.759 49.296 212.759C48.6454 212.759 48.0694 212.94 47.568 213.303C47.0774 213.666 46.6934 214.194 46.416 214.887C46.1387 215.58 46 216.418 46 217.399C46 218.38 46.1387 219.218 46.416 219.911C46.6934 220.604 47.0774 221.132 47.568 221.495C48.0694 221.858 48.6454 222.039 49.296 222.039Z" fill="white"/>
<path d="M56.1179 223.079C55.8832 223.079 55.6806 222.994 55.5099 222.823C55.3499 222.652 55.2699 222.444 55.2699 222.199C55.2699 221.954 55.3499 221.751 55.5099 221.591C55.6806 221.42 55.8832 221.335 56.1179 221.335C56.3526 221.335 56.5552 221.42 56.7259 221.591C56.8966 221.751 56.9819 221.954 56.9819 222.199C56.9819 222.444 56.8966 222.652 56.7259 222.823C56.5552 222.994 56.3526 223.079 56.1179 223.079Z" fill="white"/>
<path d="M67.9614 220.055H65.7214V222.999H64.5694V220.055H58.2494V219.223L64.1854 211.799H65.4654L59.7374 219.031H64.6014V216.439H65.7214V219.031H67.9614V220.055Z" fill="white"/>
<path d="M49.296 281.095C48.432 281.095 47.6587 280.866 46.976 280.407C46.304 279.948 45.776 279.292 45.392 278.439C45.0187 277.575 44.832 276.562 44.832 275.399C44.832 274.236 45.0187 273.228 45.392 272.375C45.776 271.511 46.304 270.85 46.976 270.391C47.6587 269.932 48.432 269.703 49.296 269.703C50.16 269.703 50.928 269.932 51.6 270.391C52.2827 270.85 52.816 271.511 53.2 272.375C53.584 273.228 53.776 274.236 53.776 275.399C53.776 276.562 53.584 277.575 53.2 278.439C52.816 279.292 52.2827 279.948 51.6 280.407C50.928 280.866 50.16 281.095 49.296 281.095ZM49.296 280.039C49.9467 280.039 50.5174 279.858 51.008 279.495C51.5094 279.132 51.8987 278.604 52.176 277.911C52.4534 277.218 52.592 276.38 52.592 275.399C52.592 274.418 52.4534 273.58 52.176 272.887C51.8987 272.194 51.5094 271.666 51.008 271.303C50.5174 270.94 49.9467 270.759 49.296 270.759C48.6454 270.759 48.0694 270.94 47.568 271.303C47.0774 271.666 46.6934 272.194 46.416 272.887C46.1387 273.58 46 274.418 46 275.399C46 276.38 46.1387 277.218 46.416 277.911C46.6934 278.604 47.0774 279.132 47.568 279.495C48.0694 279.858 48.6454 280.039 49.296 280.039Z" fill="white"/>
<path d="M56.1179 281.079C55.8832 281.079 55.6806 280.994 55.5099 280.823C55.3499 280.652 55.2699 280.444 55.2699 280.199C55.2699 279.954 55.3499 279.751 55.5099 279.591C55.6806 279.42 55.8832 279.335 56.1179 279.335C56.3526 279.335 56.5552 279.42 56.7259 279.591C56.8966 279.751 56.9819 279.954 56.9819 280.199C56.9819 280.444 56.8966 280.652 56.7259 280.823C56.5552 280.994 56.3526 281.079 56.1179 281.079Z" fill="white"/>
<path d="M66.4488 279.975V280.999H58.5928V280.183L63.2488 275.623C63.8354 275.047 64.2301 274.551 64.4328 274.135C64.6461 273.708 64.7528 273.282 64.7528 272.855C64.7528 272.194 64.5234 271.682 64.0648 271.319C63.6168 270.946 62.9714 270.759 62.1288 270.759C60.8168 270.759 59.7981 271.175 59.0728 272.007L58.2568 271.303C58.6941 270.791 59.2488 270.396 59.9208 270.119C60.6034 269.842 61.3714 269.703 62.2248 269.703C63.3661 269.703 64.2674 269.975 64.9288 270.519C65.6008 271.052 65.9368 271.788 65.9368 272.727C65.9368 273.303 65.8088 273.858 65.5528 274.391C65.2968 274.924 64.8114 275.538 64.0968 276.231L60.2888 279.975H66.4488Z" fill="white"/>
<path d="M49.296 339.095C48.432 339.095 47.6587 338.866 46.976 338.407C46.304 337.948 45.776 337.292 45.392 336.439C45.0187 335.575 44.832 334.562 44.832 333.399C44.832 332.236 45.0187 331.228 45.392 330.375C45.776 329.511 46.304 328.85 46.976 328.391C47.6587 327.932 48.432 327.703 49.296 327.703C50.16 327.703 50.928 327.932 51.6 328.391C52.2827 328.85 52.816 329.511 53.2 330.375C53.584 331.228 53.776 332.236 53.776 333.399C53.776 334.562 53.584 335.575 53.2 336.439C52.816 337.292 52.2827 337.948 51.6 338.407C50.928 338.866 50.16 339.095 49.296 339.095ZM49.296 338.039C49.9467 338.039 50.5174 337.858 51.008 337.495C51.5094 337.132 51.8987 336.604 52.176 335.911C52.4534 335.218 52.592 334.38 52.592 333.399C52.592 332.418 52.4534 331.58 52.176 330.887C51.8987 330.194 51.5094 329.666 51.008 329.303C50.5174 328.94 49.9467 328.759 49.296 328.759C48.6454 328.759 48.0694 328.94 47.568 329.303C47.0774 329.666 46.6934 330.194 46.416 330.887C46.1387 331.58 46 332.418 46 333.399C46 334.38 46.1387 335.218 46.416 335.911C46.6934 336.604 47.0774 337.132 47.568 337.495C48.0694 337.858 48.6454 338.039 49.296 338.039Z" fill="white"/>
<path d="M56.1179 339.079C55.8832 339.079 55.6806 338.994 55.5099 338.823C55.3499 338.652 55.2699 338.444 55.2699 338.199C55.2699 337.954 55.3499 337.751 55.5099 337.591C55.6806 337.42 55.8832 337.335 56.1179 337.335C56.3526 337.335 56.5552 337.42 56.7259 337.591C56.8966 337.751 56.9819 337.954 56.9819 338.199C56.9819 338.444 56.8966 338.652 56.7259 338.823C56.5552 338.994 56.3526 339.079 56.1179 339.079Z" fill="white"/>
<path d="M62.9367 339.095C62.0727 339.095 61.2993 338.866 60.6167 338.407C59.9447 337.948 59.4167 337.292 59.0327 336.439C58.6593 335.575 58.4727 334.562 58.4727 333.399C58.4727 332.236 58.6593 331.228 59.0327 330.375C59.4167 329.511 59.9447 328.85 60.6167 328.391C61.2993 327.932 62.0727 327.703 62.9367 327.703C63.8007 327.703 64.5687 327.932 65.2407 328.391C65.9233 328.85 66.4567 329.511 66.8407 330.375C67.2247 331.228 67.4167 332.236 67.4167 333.399C67.4167 334.562 67.2247 335.575 66.8407 336.439C66.4567 337.292 65.9233 337.948 65.2407 338.407C64.5687 338.866 63.8007 339.095 62.9367 339.095ZM62.9367 338.039C63.5873 338.039 64.158 337.858 64.6487 337.495C65.15 337.132 65.5393 336.604 65.8167 335.911C66.094 335.218 66.2327 334.38 66.2327 333.399C66.2327 332.418 66.094 331.58 65.8167 330.887C65.5393 330.194 65.15 329.666 64.6487 329.303C64.158 328.94 63.5873 328.759 62.9367 328.759C62.286 328.759 61.71 328.94 61.2087 329.303C60.718 329.666 60.334 330.194 60.0567 330.887C59.7793 331.58 59.6407 332.418 59.6407 333.399C59.6407 334.38 59.7793 335.218 60.0567 335.911C60.334 336.604 60.718 337.132 61.2087 337.495C61.71 337.858 62.286 338.039 62.9367 338.039Z" fill="white"/>
<path d="M72.296 364.095C71.432 364.095 70.6587 363.866 69.976 363.407C69.304 362.948 68.776 362.292 68.392 361.439C68.0187 360.575 67.832 359.562 67.832 358.399C67.832 357.236 68.0187 356.228 68.392 355.375C68.776 354.511 69.304 353.85 69.976 353.391C70.6587 352.932 71.432 352.703 72.296 352.703C73.16 352.703 73.928 352.932 74.6 353.391C75.2827 353.85 75.816 354.511 76.2 355.375C76.584 356.228 76.776 357.236 76.776 358.399C76.776 359.562 76.584 360.575 76.2 361.439C75.816 362.292 75.2827 362.948 74.6 363.407C73.928 363.866 73.16 364.095 72.296 364.095ZM72.296 363.039C72.9467 363.039 73.5174 362.858 74.008 362.495C74.5094 362.132 74.8987 361.604 75.176 360.911C75.4534 360.218 75.592 359.38 75.592 358.399C75.592 357.418 75.4534 356.58 75.176 355.887C74.8987 355.194 74.5094 354.666 74.008 354.303C73.5174 353.94 72.9467 353.759 72.296 353.759C71.6454 353.759 71.0694 353.94 70.568 354.303C70.0774 354.666 69.6934 355.194 69.416 355.887C69.1387 356.58 69 357.418 69 358.399C69 359.38 69.1387 360.218 69.416 360.911C69.6934 361.604 70.0774 362.132 70.568 362.495C71.0694 362.858 71.6454 363.039 72.296 363.039Z" fill="white"/>
<path d="M82.8898 364.095C82.0258 364.095 81.2524 363.866 80.5698 363.407C79.8978 362.948 79.3698 362.292 78.9858 361.439C78.6124 360.575 78.4258 359.562 78.4258 358.399C78.4258 357.236 78.6124 356.228 78.9858 355.375C79.3698 354.511 79.8978 353.85 80.5698 353.391C81.2524 352.932 82.0258 352.703 82.8898 352.703C83.7538 352.703 84.5218 352.932 85.1938 353.391C85.8764 353.85 86.4098 354.511 86.7938 355.375C87.1778 356.228 87.3698 357.236 87.3698 358.399C87.3698 359.562 87.1778 360.575 86.7938 361.439C86.4098 362.292 85.8764 362.948 85.1938 363.407C84.5218 363.866 83.7538 364.095 82.8898 364.095ZM82.8898 363.039C83.5404 363.039 84.1111 362.858 84.6018 362.495C85.1031 362.132 85.4924 361.604 85.7698 360.911C86.0471 360.218 86.1858 359.38 86.1858 358.399C86.1858 357.418 86.0471 356.58 85.7698 355.887C85.4924 355.194 85.1031 354.666 84.6018 354.303C84.1111 353.94 83.5404 353.759 82.8898 353.759C82.2391 353.759 81.6631 353.94 81.1618 354.303C80.6711 354.666 80.2871 355.194 80.0098 355.887C79.7324 356.58 79.5938 357.418 79.5938 358.399C79.5938 359.38 79.7324 360.218 80.0098 360.911C80.2871 361.604 80.6711 362.132 81.1618 362.495C81.6631 362.858 82.2391 363.039 82.8898 363.039Z" fill="white"/>
<path d="M173.479 362.975V363.999H165.623V363.183L170.279 358.623C170.866 358.047 171.26 357.551 171.463 357.135C171.676 356.708 171.783 356.282 171.783 355.855C171.783 355.194 171.554 354.682 171.095 354.319C170.647 353.946 170.002 353.759 169.159 353.759C167.847 353.759 166.828 354.175 166.103 355.007L165.287 354.303C165.724 353.791 166.279 353.396 166.951 353.119C167.634 352.842 168.402 352.703 169.255 352.703C170.396 352.703 171.298 352.975 171.959 353.519C172.631 354.052 172.967 354.788 172.967 355.727C172.967 356.303 172.839 356.858 172.583 357.391C172.327 357.924 171.842 358.538 171.127 359.231L167.319 362.975H173.479Z" fill="white"/>
<path d="M179.326 364.095C178.462 364.095 177.689 363.866 177.006 363.407C176.334 362.948 175.806 362.292 175.422 361.439C175.049 360.575 174.862 359.562 174.862 358.399C174.862 357.236 175.049 356.228 175.422 355.375C175.806 354.511 176.334 353.85 177.006 353.391C177.689 352.932 178.462 352.703 179.326 352.703C180.19 352.703 180.958 352.932 181.63 353.391C182.313 353.85 182.846 354.511 183.23 355.375C183.614 356.228 183.806 357.236 183.806 358.399C183.806 359.562 183.614 360.575 183.23 361.439C182.846 362.292 182.313 362.948 181.63 363.407C180.958 363.866 180.19 364.095 179.326 364.095ZM179.326 363.039C179.977 363.039 180.548 362.858 181.038 362.495C181.54 362.132 181.929 361.604 182.206 360.911C182.484 360.218 182.622 359.38 182.622 358.399C182.622 357.418 182.484 356.58 182.206 355.887C181.929 355.194 181.54 354.666 181.038 354.303C180.548 353.94 179.977 353.759 179.326 353.759C178.676 353.759 178.1 353.94 177.598 354.303C177.108 354.666 176.724 355.194 176.446 355.887C176.169 356.58 176.03 357.418 176.03 358.399C176.03 359.38 176.169 360.218 176.446 360.911C176.724 361.604 177.108 362.132 177.598 362.495C178.1 362.858 178.676 363.039 179.326 363.039Z" fill="white"/>
<path d="M273.353 361.055H271.113V363.999H269.961V361.055H263.641V360.223L269.577 352.799H270.857L265.129 360.031H269.993V357.439H271.113V360.031H273.353V361.055Z" fill="white"/>
<path d="M278.875 364.095C278.011 364.095 277.237 363.866 276.555 363.407C275.883 362.948 275.355 362.292 274.971 361.439C274.597 360.575 274.411 359.562 274.411 358.399C274.411 357.236 274.597 356.228 274.971 355.375C275.355 354.511 275.883 353.85 276.555 353.391C277.237 352.932 278.011 352.703 278.875 352.703C279.739 352.703 280.507 352.932 281.179 353.391C281.861 353.85 282.395 354.511 282.779 355.375C283.163 356.228 283.355 357.236 283.355 358.399C283.355 359.562 283.163 360.575 282.779 361.439C282.395 362.292 281.861 362.948 281.179 363.407C280.507 363.866 279.739 364.095 278.875 364.095ZM278.875 363.039C279.525 363.039 280.096 362.858 280.587 362.495C281.088 362.132 281.477 361.604 281.755 360.911C282.032 360.218 282.171 359.38 282.171 358.399C282.171 357.418 282.032 356.58 281.755 355.887C281.477 355.194 281.088 354.666 280.587 354.303C280.096 353.94 279.525 353.759 278.875 353.759C278.224 353.759 277.648 353.94 277.147 354.303C276.656 354.666 276.272 355.194 275.995 355.887C275.717 356.58 275.579 357.418 275.579 358.399C275.579 359.38 275.717 360.218 275.995 360.911C276.272 361.604 276.656 362.132 277.147 362.495C277.648 362.858 278.224 363.039 278.875 363.039Z" fill="white"/>
<path d="M366.472 357.295C367.208 357.295 367.859 357.434 368.424 357.711C369 357.988 369.448 358.383 369.768 358.895C370.088 359.396 370.248 359.983 370.248 360.655C370.248 361.338 370.083 361.94 369.752 362.463C369.421 362.986 368.963 363.391 368.376 363.679C367.8 363.956 367.149 364.095 366.424 364.095C364.941 364.095 363.805 363.61 363.016 362.639C362.227 361.658 361.832 360.276 361.832 358.495C361.832 357.247 362.045 356.191 362.472 355.327C362.899 354.463 363.496 353.812 364.264 353.375C365.032 352.927 365.928 352.703 366.952 352.703C368.061 352.703 368.947 352.906 369.608 353.311L369.144 354.239C368.611 353.887 367.885 353.711 366.968 353.711C365.731 353.711 364.76 354.106 364.056 354.895C363.352 355.674 363 356.81 363 358.303C363 358.57 363.016 358.874 363.048 359.215C363.325 358.607 363.768 358.138 364.376 357.807C364.984 357.466 365.683 357.295 366.472 357.295ZM366.376 363.119C367.187 363.119 367.843 362.9 368.344 362.463C368.856 362.015 369.112 361.423 369.112 360.687C369.112 359.951 368.856 359.364 368.344 358.927C367.843 358.49 367.16 358.271 366.296 358.271C365.731 358.271 365.229 358.378 364.792 358.591C364.365 358.804 364.029 359.098 363.784 359.471C363.539 359.844 363.416 360.26 363.416 360.719C363.416 361.146 363.528 361.54 363.752 361.903C363.987 362.266 364.328 362.559 364.776 362.783C365.224 363.007 365.757 363.119 366.376 363.119Z" fill="white"/>
<path d="M376.046 364.095C375.182 364.095 374.409 363.866 373.726 363.407C373.054 362.948 372.526 362.292 372.142 361.439C371.769 360.575 371.582 359.562 371.582 358.399C371.582 357.236 371.769 356.228 372.142 355.375C372.526 354.511 373.054 353.85 373.726 353.391C374.409 352.932 375.182 352.703 376.046 352.703C376.91 352.703 377.678 352.932 378.35 353.391C379.033 353.85 379.566 354.511 379.95 355.375C380.334 356.228 380.526 357.236 380.526 358.399C380.526 359.562 380.334 360.575 379.95 361.439C379.566 362.292 379.033 362.948 378.35 363.407C377.678 363.866 376.91 364.095 376.046 364.095ZM376.046 363.039C376.697 363.039 377.267 362.858 377.758 362.495C378.259 362.132 378.649 361.604 378.926 360.911C379.203 360.218 379.342 359.38 379.342 358.399C379.342 357.418 379.203 356.58 378.926 355.887C378.649 355.194 378.259 354.666 377.758 354.303C377.267 353.94 376.697 353.759 376.046 353.759C375.395 353.759 374.819 353.94 374.318 354.303C373.827 354.666 373.443 355.194 373.166 355.887C372.889 356.58 372.75 357.418 372.75 358.399C372.75 359.38 372.889 360.218 373.166 360.911C373.443 361.604 373.827 362.132 374.318 362.495C374.819 362.858 375.395 363.039 376.046 363.039Z" fill="white"/>
<path d="M466.248 358.127C466.952 358.362 467.49 358.714 467.864 359.183C468.248 359.652 468.44 360.218 468.44 360.879C468.44 361.53 468.264 362.1 467.912 362.591C467.56 363.071 467.053 363.444 466.392 363.711C465.741 363.967 464.973 364.095 464.088 364.095C462.744 364.095 461.688 363.807 460.92 363.231C460.152 362.655 459.768 361.871 459.768 360.879C459.768 360.207 459.949 359.642 460.312 359.183C460.685 358.714 461.224 358.362 461.928 358.127C461.352 357.903 460.914 357.583 460.616 357.167C460.317 356.74 460.168 356.239 460.168 355.663C460.168 354.756 460.52 354.036 461.224 353.503C461.938 352.97 462.893 352.703 464.088 352.703C464.877 352.703 465.565 352.826 466.152 353.071C466.749 353.306 467.213 353.647 467.544 354.095C467.874 354.543 468.04 355.066 468.04 355.663C468.04 356.239 467.885 356.74 467.576 357.167C467.266 357.583 466.824 357.903 466.248 358.127ZM461.32 355.695C461.32 356.314 461.565 356.804 462.056 357.167C462.546 357.53 463.224 357.711 464.088 357.711C464.952 357.711 465.629 357.53 466.12 357.167C466.621 356.804 466.872 356.319 466.872 355.711C466.872 355.082 466.616 354.586 466.104 354.223C465.602 353.86 464.93 353.679 464.088 353.679C463.234 353.679 462.557 353.86 462.056 354.223C461.565 354.586 461.32 355.076 461.32 355.695ZM464.088 363.119C465.08 363.119 465.853 362.916 466.408 362.511C466.973 362.106 467.256 361.556 467.256 360.863C467.256 360.17 466.973 359.626 466.408 359.231C465.853 358.826 465.08 358.623 464.088 358.623C463.106 358.623 462.333 358.826 461.768 359.231C461.213 359.626 460.936 360.17 460.936 360.863C460.936 361.567 461.213 362.122 461.768 362.527C462.322 362.922 463.096 363.119 464.088 363.119Z" fill="white"/>
<path d="M474.499 364.095C473.635 364.095 472.861 363.866 472.179 363.407C471.507 362.948 470.979 362.292 470.595 361.439C470.221 360.575 470.035 359.562 470.035 358.399C470.035 357.236 470.221 356.228 470.595 355.375C470.979 354.511 471.507 353.85 472.179 353.391C472.861 352.932 473.635 352.703 474.499 352.703C475.363 352.703 476.131 352.932 476.803 353.391C477.485 353.85 478.019 354.511 478.403 355.375C478.787 356.228 478.979 357.236 478.979 358.399C478.979 359.562 478.787 360.575 478.403 361.439C478.019 362.292 477.485 362.948 476.803 363.407C476.131 363.866 475.363 364.095 474.499 364.095ZM474.499 363.039C475.149 363.039 475.72 362.858 476.211 362.495C476.712 362.132 477.101 361.604 477.379 360.911C477.656 360.218 477.795 359.38 477.795 358.399C477.795 357.418 477.656 356.58 477.379 355.887C477.101 355.194 476.712 354.666 476.211 354.303C475.72 353.94 475.149 353.759 474.499 353.759C473.848 353.759 473.272 353.94 472.771 354.303C472.28 354.666 471.896 355.194 471.619 355.887C471.341 356.58 471.203 357.418 471.203 358.399C471.203 359.38 471.341 360.218 471.619 360.911C471.896 361.604 472.28 362.132 472.771 362.495C473.272 362.858 473.848 363.039 474.499 363.039Z" fill="white"/>
<path d="M560.937 352.799V363.999H559.785V353.823H557.145V352.799H560.937Z" fill="white"/>
<path d="M568.078 364.095C567.214 364.095 566.44 363.866 565.758 363.407C565.086 362.948 564.558 362.292 564.174 361.439C563.8 360.575 563.614 359.562 563.614 358.399C563.614 357.236 563.8 356.228 564.174 355.375C564.558 354.511 565.086 353.85 565.758 353.391C566.44 352.932 567.214 352.703 568.078 352.703C568.942 352.703 569.71 352.932 570.382 353.391C571.064 353.85 571.598 354.511 571.982 355.375C572.366 356.228 572.558 357.236 572.558 358.399C572.558 359.562 572.366 360.575 571.982 361.439C571.598 362.292 571.064 362.948 570.382 363.407C569.71 363.866 568.942 364.095 568.078 364.095ZM568.078 363.039C568.728 363.039 569.299 362.858 569.79 362.495C570.291 362.132 570.68 361.604 570.958 360.911C571.235 360.218 571.374 359.38 571.374 358.399C571.374 357.418 571.235 356.58 570.958 355.887C570.68 355.194 570.291 354.666 569.79 354.303C569.299 353.94 568.728 353.759 568.078 353.759C567.427 353.759 566.851 353.94 566.35 354.303C565.859 354.666 565.475 355.194 565.198 355.887C564.92 356.58 564.782 357.418 564.782 358.399C564.782 359.38 564.92 360.218 565.198 360.911C565.475 361.604 565.859 362.132 566.35 362.495C566.851 362.858 567.427 363.039 568.078 363.039Z" fill="white"/>
<path d="M578.672 364.095C577.808 364.095 577.034 363.866 576.352 363.407C575.68 362.948 575.152 362.292 574.768 361.439C574.394 360.575 574.208 359.562 574.208 358.399C574.208 357.236 574.394 356.228 574.768 355.375C575.152 354.511 575.68 353.85 576.352 353.391C577.034 352.932 577.808 352.703 578.672 352.703C579.536 352.703 580.304 352.932 580.976 353.391C581.658 353.85 582.192 354.511 582.576 355.375C582.96 356.228 583.152 357.236 583.152 358.399C583.152 359.562 582.96 360.575 582.576 361.439C582.192 362.292 581.658 362.948 580.976 363.407C580.304 363.866 579.536 364.095 578.672 364.095ZM578.672 363.039C579.322 363.039 579.893 362.858 580.384 362.495C580.885 362.132 581.274 361.604 581.552 360.911C581.829 360.218 581.968 359.38 581.968 358.399C581.968 357.418 581.829 356.58 581.552 355.887C581.274 355.194 580.885 354.666 580.384 354.303C579.893 353.94 579.322 353.759 578.672 353.759C578.021 353.759 577.445 353.94 576.944 354.303C576.453 354.666 576.069 355.194 575.792 355.887C575.514 356.58 575.376 357.418 575.376 358.399C575.376 359.38 575.514 360.218 575.792 360.911C576.069 361.604 576.453 362.132 576.944 362.495C577.445 362.858 578.021 363.039 578.672 363.039Z" fill="white"/>
<path d="M431.88 281.225C432.616 281.385 433.182 281.705 433.576 282.185C433.982 282.654 434.184 283.262 434.184 284.009C434.184 284.969 433.827 285.71 433.112 286.233C432.408 286.745 431.363 287.001 429.976 287.001H424.824V275.801H429.656C430.904 275.801 431.87 276.051 432.552 276.553C433.246 277.054 433.592 277.763 433.592 278.681C433.592 279.299 433.438 279.827 433.128 280.265C432.83 280.691 432.414 281.011 431.88 281.225ZM426.008 276.777V280.841H429.576C430.483 280.841 431.182 280.67 431.672 280.329C432.163 279.977 432.408 279.47 432.408 278.809C432.408 278.147 432.163 277.646 431.672 277.305C431.182 276.953 430.483 276.777 429.576 276.777H426.008ZM429.96 286.025C430.963 286.025 431.72 285.854 432.232 285.513C432.744 285.171 433 284.638 433 283.913C433 282.515 431.987 281.817 429.96 281.817H426.008V286.025H429.96Z" fill="white"/>
<path d="M444.231 278.585V287.001H443.143V285.465C442.844 285.977 442.433 286.377 441.911 286.665C441.388 286.942 440.791 287.081 440.119 287.081C439.02 287.081 438.151 286.777 437.511 286.169C436.881 285.55 436.567 284.649 436.567 283.465V278.585H437.703V283.353C437.703 284.238 437.921 284.91 438.359 285.369C438.796 285.827 439.42 286.057 440.231 286.057C441.116 286.057 441.815 285.79 442.327 285.257C442.839 284.713 443.095 283.961 443.095 283.001V278.585H444.231Z" fill="white"/>
<path d="M448.5 280.233C448.767 279.667 449.162 279.241 449.684 278.953C450.218 278.665 450.874 278.521 451.652 278.521V279.625L451.38 279.609C450.495 279.609 449.802 279.881 449.3 280.425C448.799 280.969 448.548 281.731 448.548 282.713V287.001H447.412V278.585H448.5V280.233Z" fill="white"/>
<path d="M457.997 278.521C459.053 278.521 459.891 278.83 460.509 279.449C461.139 280.057 461.453 280.947 461.453 282.121V287.001H460.317V282.233C460.317 281.358 460.099 280.691 459.661 280.233C459.224 279.774 458.6 279.545 457.789 279.545C456.883 279.545 456.163 279.817 455.629 280.361C455.107 280.894 454.845 281.635 454.845 282.585V287.001H453.709V278.585H454.797V280.137C455.107 279.625 455.533 279.23 456.077 278.953C456.632 278.665 457.272 278.521 457.997 278.521Z" fill="white"/>
<path fill-rule="evenodd" clip-rule="evenodd" d="M443 264.887L438 262L443 259.113V261.5H492V259.113L497 262L492 264.887V262.5H443V264.887Z" fill="white"/>
<defs>
<linearGradient id="paint0_linear_841_970" x1="46.5" y1="150.896" x2="475.762" y2="245.488" gradientUnits="userSpaceOnUse">
<stop stop-color="#84B9D1"/>
<stop offset="1" stop-color="#D2B4FC"/>
</linearGradient>
</defs>
</svg>
