<svg width="109" height="71" viewBox="0 0 109 71" fill="none" xmlns="http://www.w3.org/2000/svg">
<path fill-rule="evenodd" clip-rule="evenodd" d="M64.9467 4.43348H44.8678L46.2079 0H63.6083L64.9467 4.43348ZM70.7521 6.58647H39.0643L41.1769 11.02H68.6394L70.7521 6.58647ZM48.925 25.6794L50.2283 13.1751H44.5981L43.2965 25.6794H48.925ZM60.6181 25.6794H66.2395L64.938 13.1751H59.313L60.6181 25.6794ZM70.7521 31.9697H38.7822L40.9141 27.8324H68.6219L70.7521 31.9697ZM51.2969 25.6794H58.2444L57.0865 13.1751H52.4548L51.2969 25.6794Z" fill="#8A8A8B"/>
<path d="M16.3782 66.0489H6.55616L4.61982 70.5951H0.859375L9.69922 50.951H13.2913L22.1592 70.5951H18.3426L16.3782 66.0489ZM15.1715 63.1865L11.4672 54.5992L7.79093 63.1865H15.1715Z" fill="#737577"/>
<path d="M37.7975 60.5486H41.2493V68.3782C40.239 69.1826 39.0603 69.8 37.7133 70.2303C36.3663 70.6606 34.9819 70.8758 33.56 70.8758C31.5582 70.8758 29.7528 70.4455 28.1438 69.5849C26.5349 68.7056 25.2721 67.4989 24.3553 65.9647C23.4386 64.4306 22.9802 62.7001 22.9802 60.7731C22.9802 58.8461 23.4386 57.1155 24.3553 55.5814C25.2721 54.0473 26.5349 52.85 28.1438 51.9894C29.7715 51.1101 31.5956 50.6704 33.6161 50.6704C35.2625 50.6704 36.7592 50.9417 38.1062 51.4842C39.4532 52.0268 40.5851 52.8219 41.5018 53.8696L39.2007 56.1146C37.704 54.6179 35.8986 53.8696 33.7845 53.8696C32.4001 53.8696 31.1653 54.1596 30.0802 54.7395C29.0138 55.3195 28.1719 56.1333 27.5545 57.181C26.9558 58.2287 26.6565 59.4261 26.6565 60.7731C26.6565 62.0827 26.9558 63.2613 27.5545 64.309C28.1719 65.3567 29.0138 66.1799 30.0802 66.7786C31.1653 67.3772 32.3907 67.6766 33.7564 67.6766C35.2905 67.6766 36.6376 67.3398 37.7975 66.6663V60.5486Z" fill="#737577"/>
<path d="M55.2376 70.8758C53.2357 70.8758 51.4303 70.4455 49.8214 69.5849C48.2125 68.7056 46.9496 67.4989 46.0329 65.9647C45.1162 64.4119 44.6578 62.6814 44.6578 60.7731C44.6578 58.8648 45.1162 57.1436 46.0329 55.6095C46.9496 54.0567 48.2125 52.85 49.8214 51.9894C51.4303 51.1101 53.2357 50.6704 55.2376 50.6704C57.2394 50.6704 59.0448 51.1101 60.6537 51.9894C62.2627 52.85 63.5255 54.0473 64.4422 55.5814C65.3589 57.1155 65.8173 58.8461 65.8173 60.7731C65.8173 62.7001 65.3589 64.4306 64.4422 65.9647C63.5255 67.4989 62.2627 68.7056 60.6537 69.5849C59.0448 70.4455 57.2394 70.8758 55.2376 70.8758ZM55.2376 67.6766C56.5472 67.6766 57.7258 67.3866 58.7735 66.8066C59.8212 66.208 60.6444 65.3848 61.243 64.3371C61.8417 63.2707 62.1411 62.0827 62.1411 60.7731C62.1411 59.4635 61.8417 58.2848 61.243 57.2372C60.6444 56.1708 59.8212 55.3476 58.7735 54.7676C57.7258 54.1689 56.5472 53.8696 55.2376 53.8696C53.928 53.8696 52.7493 54.1689 51.7016 54.7676C50.6539 55.3476 49.8308 56.1708 49.2321 57.2372C48.6334 58.2848 48.3341 59.4635 48.3341 60.7731C48.3341 62.0827 48.6334 63.2707 49.2321 64.3371C49.8308 65.3848 50.6539 66.208 51.7016 66.8066C52.7493 67.3866 53.928 67.6766 55.2376 67.6766Z" fill="#737577"/>
<path d="M82.5372 70.5951L78.5241 64.8422C78.3558 64.8609 78.1032 64.8703 77.7664 64.8703H73.3325V70.5951H69.6843V50.951H77.7664C79.4689 50.951 80.9469 51.2317 82.2004 51.7929C83.4726 52.3542 84.4454 53.1587 85.1189 54.2063C85.7925 55.254 86.1292 56.4982 86.1292 57.9387C86.1292 59.4167 85.7644 60.6889 85.0348 61.7553C84.3238 62.8217 83.2949 63.6168 81.9478 64.1406L86.466 70.5951H82.5372ZM82.453 57.9387C82.453 56.6852 82.0414 55.7217 81.2182 55.0482C80.395 54.3747 79.1883 54.038 77.5981 54.038H73.3325V61.8675H77.5981C79.1883 61.8675 80.395 61.5308 81.2182 60.8573C82.0414 60.1651 82.453 59.1922 82.453 57.9387Z" fill="#737577"/>
<path d="M102.951 66.0489H93.1294L91.193 70.5951H87.4326L96.2724 50.951H99.8645L108.732 70.5951H104.916L102.951 66.0489ZM101.745 63.1865L98.0404 54.5992L94.3642 63.1865H101.745Z" fill="#737577"/>
</svg>
