<svg width="24" height="24" viewBox="0 0 24 24" fill="none" xmlns="http://www.w3.org/2000/svg">
<path fill-rule="evenodd" clip-rule="evenodd" d="M21.21 7.899V16.05C21.21 19.07 19.32 21.2 16.3 21.2H7.65C4.63 21.2 2.75 19.07 2.75 16.05V7.899C2.75 4.879 4.64 2.75 7.65 2.75H16.3C19.32 2.75 21.21 4.879 21.21 7.899Z" stroke="#333333" stroke-width="1.5" stroke-linecap="round" stroke-linejoin="round"/>
<path d="M9.91978 11.952C10.0424 11.952 10.1411 11.9893 10.2158 12.064C10.2904 12.1333 10.3278 12.2267 10.3278 12.344V14.064C10.3278 14.3093 10.2958 14.4827 10.2318 14.584C10.1678 14.6853 10.0371 14.768 9.83978 14.832C9.62645 14.9067 9.37845 14.9653 9.09578 15.008C8.81311 15.0507 8.54111 15.072 8.27978 15.072C7.69845 15.072 7.19445 14.9573 6.76778 14.728C6.34111 14.4987 6.01311 14.168 5.78378 13.736C5.55978 13.2987 5.44778 12.7787 5.44778 12.176C5.44778 11.584 5.55978 11.072 5.78378 10.64C6.01311 10.2027 6.33578 9.86933 6.75178 9.64C7.16778 9.40533 7.65845 9.288 8.22378 9.288C8.97578 9.288 9.59178 9.49067 10.0718 9.896C10.1358 9.95467 10.1811 10.0133 10.2078 10.072C10.2398 10.1307 10.2558 10.2 10.2558 10.28C10.2558 10.3973 10.2238 10.496 10.1598 10.576C10.0958 10.656 10.0184 10.696 9.92778 10.696C9.86912 10.696 9.81578 10.688 9.76778 10.672C9.71978 10.6507 9.66378 10.6187 9.59978 10.576C9.36512 10.4107 9.14645 10.296 8.94378 10.232C8.74111 10.1627 8.51178 10.128 8.25578 10.128C7.67445 10.128 7.23445 10.3013 6.93578 10.648C6.64245 10.9893 6.49578 11.4987 6.49578 12.176C6.49578 13.5627 7.10378 14.256 8.31978 14.256C8.68245 14.256 9.04511 14.2053 9.40778 14.104V12.688H8.50378C8.37578 12.688 8.27445 12.656 8.19978 12.592C8.13045 12.528 8.09578 12.4373 8.09578 12.32C8.09578 12.2027 8.13045 12.112 8.19978 12.048C8.27445 11.984 8.37578 11.952 8.50378 11.952H9.91978ZM12.163 15.048C12.0083 15.048 11.883 15 11.787 14.904C11.6963 14.808 11.651 14.6827 11.651 14.528V9.832C11.651 9.67733 11.6963 9.55467 11.787 9.464C11.883 9.368 12.0083 9.32 12.163 9.32C12.323 9.32 12.4483 9.368 12.539 9.464C12.635 9.55467 12.683 9.67733 12.683 9.832V14.528C12.683 14.6827 12.635 14.808 12.539 14.904C12.4483 15 12.323 15.048 12.163 15.048ZM14.573 15.048C14.4183 15.048 14.293 15 14.197 14.904C14.1063 14.808 14.061 14.6827 14.061 14.528V9.848C14.061 9.69333 14.1036 9.57333 14.189 9.488C14.2796 9.40267 14.4023 9.36 14.557 9.36H17.365C17.6903 9.36 17.853 9.49867 17.853 9.776C17.853 10.048 17.6903 10.184 17.365 10.184H15.077V11.72H17.205C17.5303 11.72 17.693 11.8587 17.693 12.136C17.693 12.408 17.5303 12.544 17.205 12.544H15.077V14.528C15.077 14.6827 15.0316 14.808 14.941 14.904C14.8503 15 14.7276 15.048 14.573 15.048Z" fill="#ADADAD"/>
</svg>
