<svg width="585" height="485" viewBox="0 0 585 485" fill="none" xmlns="http://www.w3.org/2000/svg">
<path d="M29.9375 99H491.629V460.323" stroke="white" stroke-opacity="0.6" stroke-dasharray="5 5"/>
<path d="M29.9375 298.369H388.86V460.323" stroke="white" stroke-opacity="0.6" stroke-dasharray="12 12"/>
<path d="M491.578 99C450.409 230.23 404.614 287.022 345.357 345.685L494 459L491.578 99Z" fill="url(#paint0_linear_610_483)"/>
<path d="M31.7031 458.825C174.477 450.848 409.859 396.693 491.219 99.8783" stroke="url(#paint1_linear_610_483)" stroke-width="3" stroke-linecap="round"/>
<path d="M351.225 378.993C351.029 379.188 351.029 379.504 351.225 379.7L354.407 382.882C354.602 383.077 354.918 383.077 355.114 382.882C355.309 382.686 355.309 382.37 355.114 382.175L352.285 379.346L355.114 376.518C355.309 376.323 355.309 376.006 355.114 375.811C354.918 375.615 354.602 375.615 354.407 375.811L351.225 378.993ZM423.127 379.7C423.322 379.504 423.322 379.188 423.127 378.993L419.945 375.811C419.75 375.615 419.433 375.615 419.238 375.811C419.043 376.006 419.043 376.323 419.238 376.518L422.066 379.346L419.238 382.175C419.043 382.37 419.043 382.686 419.238 382.882C419.433 383.077 419.75 383.077 419.945 382.882L423.127 379.7ZM351.578 379.846H422.773V378.846H351.578V379.846Z" fill="white" fill-opacity="0.37"/>
<path d="M417.589 359.54C418.33 359.54 418.917 359.757 419.349 360.189C419.782 360.615 419.998 361.256 419.998 362.114V365.48H418.623V362.29C418.623 361.777 418.51 361.392 418.282 361.135C418.055 360.871 417.729 360.739 417.303 360.739C416.841 360.739 416.471 360.893 416.192 361.201C415.914 361.502 415.774 361.935 415.774 362.499V365.48H414.399V362.29C414.399 361.777 414.286 361.392 414.058 361.135C413.831 360.871 413.505 360.739 413.079 360.739C412.61 360.739 412.236 360.89 411.957 361.19C411.686 361.491 411.55 361.927 411.55 362.499V365.48H410.175V359.606H411.484V360.354C411.704 360.09 411.979 359.889 412.309 359.749C412.639 359.61 413.006 359.54 413.409 359.54C413.849 359.54 414.238 359.625 414.575 359.793C414.92 359.955 415.191 360.197 415.389 360.519C415.631 360.211 415.943 359.973 416.324 359.804C416.706 359.628 417.127 359.54 417.589 359.54ZM421.756 359.606H423.131V365.48H421.756V359.606ZM422.449 358.638C422.199 358.638 421.99 358.561 421.822 358.407C421.653 358.246 421.569 358.048 421.569 357.813C421.569 357.579 421.653 357.384 421.822 357.23C421.99 357.069 422.199 356.988 422.449 356.988C422.698 356.988 422.907 357.065 423.076 357.219C423.244 357.366 423.329 357.553 423.329 357.78C423.329 358.022 423.244 358.228 423.076 358.396C422.914 358.558 422.705 358.638 422.449 358.638ZM428.268 359.54C429.009 359.54 429.603 359.757 430.05 360.189C430.498 360.622 430.721 361.264 430.721 362.114V365.48H429.346V362.29C429.346 361.777 429.225 361.392 428.983 361.135C428.741 360.871 428.397 360.739 427.949 360.739C427.443 360.739 427.044 360.893 426.75 361.201C426.457 361.502 426.31 361.938 426.31 362.51V365.48H424.935V359.606H426.244V360.365C426.472 360.094 426.758 359.889 427.102 359.749C427.447 359.61 427.836 359.54 428.268 359.54ZM435.996 365.161C435.835 365.293 435.637 365.392 435.402 365.458C435.175 365.524 434.933 365.557 434.676 365.557C434.031 365.557 433.532 365.389 433.18 365.051C432.828 364.714 432.652 364.223 432.652 363.577V360.75H431.684V359.65H432.652V358.308H434.027V359.65H435.6V360.75H434.027V363.544C434.027 363.83 434.097 364.05 434.236 364.204C434.376 364.351 434.577 364.424 434.841 364.424C435.149 364.424 435.406 364.344 435.611 364.182L435.996 365.161Z" fill="white" fill-opacity="0.37"/>
<path d="M156.629 290.479C155.852 290.479 155.148 290.31 154.517 289.973C153.894 289.628 153.403 289.155 153.043 288.554C152.691 287.953 152.515 287.274 152.515 286.519C152.515 285.764 152.695 285.085 153.054 284.484C153.414 283.883 153.905 283.413 154.528 283.076C155.159 282.731 155.863 282.559 156.64 282.559C157.271 282.559 157.847 282.669 158.367 282.889C158.888 283.109 159.328 283.428 159.687 283.846L158.763 284.715C158.206 284.114 157.52 283.813 156.706 283.813C156.178 283.813 155.705 283.93 155.287 284.165C154.869 284.392 154.543 284.711 154.308 285.122C154.074 285.533 153.956 285.998 153.956 286.519C153.956 287.04 154.074 287.505 154.308 287.916C154.543 288.327 154.869 288.649 155.287 288.884C155.705 289.111 156.178 289.225 156.706 289.225C157.52 289.225 158.206 288.921 158.763 288.312L159.687 289.192C159.328 289.61 158.884 289.929 158.356 290.149C157.836 290.369 157.26 290.479 156.629 290.479ZM166.451 284.495V290.369H165.142V289.621C164.922 289.885 164.647 290.09 164.317 290.237C163.987 290.376 163.632 290.446 163.25 290.446C162.466 290.446 161.846 290.23 161.391 289.797C160.944 289.357 160.72 288.708 160.72 287.85V284.495H162.095V287.663C162.095 288.191 162.213 288.587 162.447 288.851C162.689 289.108 163.03 289.236 163.47 289.236C163.962 289.236 164.35 289.086 164.636 288.785C164.93 288.477 165.076 288.037 165.076 287.465V284.495H166.451ZM169.561 285.353C169.957 284.737 170.653 284.429 171.651 284.429V285.738C171.533 285.716 171.427 285.705 171.332 285.705C170.796 285.705 170.378 285.863 170.078 286.178C169.777 286.486 169.627 286.933 169.627 287.52V290.369H168.252V284.495H169.561V285.353ZM174.126 285.353C174.522 284.737 175.219 284.429 176.216 284.429V285.738C176.099 285.716 175.992 285.705 175.897 285.705C175.362 285.705 174.944 285.863 174.643 286.178C174.342 286.486 174.192 286.933 174.192 287.52V290.369H172.817V284.495H174.126V285.353ZM182.851 287.465C182.851 287.56 182.843 287.696 182.829 287.872H178.22C178.3 288.305 178.509 288.649 178.847 288.906C179.191 289.155 179.617 289.28 180.123 289.28C180.768 289.28 181.3 289.067 181.718 288.642L182.455 289.489C182.191 289.804 181.857 290.043 181.454 290.204C181.05 290.365 180.596 290.446 180.09 290.446C179.444 290.446 178.876 290.318 178.385 290.061C177.893 289.804 177.512 289.449 177.241 288.994C176.977 288.532 176.845 288.011 176.845 287.432C176.845 286.86 176.973 286.347 177.23 285.892C177.494 285.43 177.857 285.071 178.319 284.814C178.781 284.557 179.301 284.429 179.881 284.429C180.453 284.429 180.962 284.557 181.41 284.814C181.864 285.063 182.216 285.419 182.466 285.881C182.722 286.336 182.851 286.864 182.851 287.465ZM179.881 285.529C179.441 285.529 179.067 285.661 178.759 285.925C178.458 286.182 178.275 286.526 178.209 286.959H181.542C181.483 286.534 181.303 286.189 181.003 285.925C180.702 285.661 180.328 285.529 179.881 285.529ZM187.505 284.429C188.245 284.429 188.839 284.645 189.287 285.078C189.734 285.511 189.958 286.152 189.958 287.003V290.369H188.583V287.179C188.583 286.666 188.462 286.281 188.22 286.024C187.978 285.76 187.633 285.628 187.186 285.628C186.68 285.628 186.28 285.782 185.987 286.09C185.693 286.391 185.547 286.827 185.547 287.399V290.369H184.172V284.495H185.481V285.254C185.708 284.983 185.994 284.777 186.339 284.638C186.683 284.499 187.072 284.429 187.505 284.429ZM195.233 290.05C195.071 290.182 194.873 290.281 194.639 290.347C194.411 290.413 194.169 290.446 193.913 290.446C193.267 290.446 192.769 290.277 192.417 289.94C192.065 289.603 191.889 289.111 191.889 288.466V285.639H190.921V284.539H191.889V283.197H193.264V284.539H194.837V285.639H193.264V288.433C193.264 288.719 193.333 288.939 193.473 289.093C193.612 289.24 193.814 289.313 194.078 289.313C194.386 289.313 194.642 289.232 194.848 289.071L195.233 290.05ZM201.098 283.879H198.546V282.669H205.08V283.879H202.528V290.369H201.098V283.879ZM208.06 290.446C207.466 290.446 206.93 290.318 206.454 290.061C205.977 289.804 205.603 289.449 205.332 288.994C205.068 288.532 204.936 288.011 204.936 287.432C204.936 286.853 205.068 286.336 205.332 285.881C205.603 285.426 205.977 285.071 206.454 284.814C206.93 284.557 207.466 284.429 208.06 284.429C208.661 284.429 209.2 284.557 209.677 284.814C210.153 285.071 210.524 285.426 210.788 285.881C211.059 286.336 211.195 286.853 211.195 287.432C211.195 288.011 211.059 288.532 210.788 288.994C210.524 289.449 210.153 289.804 209.677 290.061C209.2 290.318 208.661 290.446 208.06 290.446ZM208.06 289.269C208.566 289.269 208.984 289.1 209.314 288.763C209.644 288.426 209.809 287.982 209.809 287.432C209.809 286.882 209.644 286.438 209.314 286.101C208.984 285.764 208.566 285.595 208.06 285.595C207.554 285.595 207.136 285.764 206.806 286.101C206.483 286.438 206.322 286.882 206.322 287.432C206.322 287.982 206.483 288.426 206.806 288.763C207.136 289.1 207.554 289.269 208.06 289.269ZM214.907 287.85L213.884 288.818V290.369H212.509V282.207H213.884V287.135L216.733 284.495H218.383L215.93 286.959L218.614 290.369H216.942L214.907 287.85ZM224.778 287.465C224.778 287.56 224.77 287.696 224.756 287.872H220.147C220.227 288.305 220.436 288.649 220.774 288.906C221.118 289.155 221.544 289.28 222.05 289.28C222.695 289.28 223.227 289.067 223.645 288.642L224.382 289.489C224.118 289.804 223.784 290.043 223.381 290.204C222.977 290.365 222.523 290.446 222.017 290.446C221.371 290.446 220.803 290.318 220.312 290.061C219.82 289.804 219.439 289.449 219.168 288.994C218.904 288.532 218.772 288.011 218.772 287.432C218.772 286.86 218.9 286.347 219.157 285.892C219.421 285.43 219.784 285.071 220.246 284.814C220.708 284.557 221.228 284.429 221.808 284.429C222.38 284.429 222.889 284.557 223.337 284.814C223.791 285.063 224.143 285.419 224.393 285.881C224.649 286.336 224.778 286.864 224.778 287.465ZM221.808 285.529C221.368 285.529 220.994 285.661 220.686 285.925C220.385 286.182 220.202 286.526 220.136 286.959H223.469C223.41 286.534 223.23 286.189 222.93 285.925C222.629 285.661 222.255 285.529 221.808 285.529ZM229.431 284.429C230.172 284.429 230.766 284.645 231.213 285.078C231.661 285.511 231.884 286.152 231.884 287.003V290.369H230.509V287.179C230.509 286.666 230.388 286.281 230.146 286.024C229.904 285.76 229.56 285.628 229.112 285.628C228.606 285.628 228.207 285.782 227.913 286.09C227.62 286.391 227.473 286.827 227.473 287.399V290.369H226.098V284.495H227.407V285.254C227.635 284.983 227.921 284.777 228.265 284.638C228.61 284.499 228.999 284.429 229.431 284.429ZM239.969 282.669C240.636 282.669 241.215 282.779 241.707 282.999C242.205 283.219 242.587 283.534 242.851 283.945C243.115 284.356 243.247 284.843 243.247 285.408C243.247 285.965 243.115 286.453 242.851 286.871C242.587 287.282 242.205 287.597 241.707 287.817C241.215 288.037 240.636 288.147 239.969 288.147H238.231V290.369H236.801V282.669H239.969ZM239.903 286.937C240.526 286.937 240.999 286.805 241.322 286.541C241.644 286.277 241.806 285.899 241.806 285.408C241.806 284.917 241.644 284.539 241.322 284.275C240.999 284.011 240.526 283.879 239.903 283.879H238.231V286.937H239.903ZM245.798 285.353C246.194 284.737 246.891 284.429 247.888 284.429V285.738C247.771 285.716 247.664 285.705 247.569 285.705C247.034 285.705 246.616 285.863 246.315 286.178C246.014 286.486 245.864 286.933 245.864 287.52V290.369H244.489V284.495H245.798V285.353ZM249.054 284.495H250.429V290.369H249.054V284.495ZM249.747 283.527C249.498 283.527 249.289 283.45 249.12 283.296C248.952 283.135 248.867 282.937 248.867 282.702C248.867 282.467 248.952 282.273 249.12 282.119C249.289 281.958 249.498 281.877 249.747 281.877C249.997 281.877 250.206 281.954 250.374 282.108C250.543 282.255 250.627 282.442 250.627 282.669C250.627 282.911 250.543 283.116 250.374 283.285C250.213 283.446 250.004 283.527 249.747 283.527ZM254.929 290.446C254.32 290.446 253.774 290.318 253.29 290.061C252.806 289.804 252.428 289.449 252.157 288.994C251.886 288.532 251.75 288.011 251.75 287.432C251.75 286.853 251.886 286.336 252.157 285.881C252.428 285.426 252.802 285.071 253.279 284.814C253.763 284.557 254.313 284.429 254.929 284.429C255.508 284.429 256.014 284.546 256.447 284.781C256.887 285.016 257.217 285.353 257.437 285.793L256.381 286.409C256.212 286.138 256 285.936 255.743 285.804C255.494 285.665 255.219 285.595 254.918 285.595C254.405 285.595 253.979 285.764 253.642 286.101C253.305 286.431 253.136 286.875 253.136 287.432C253.136 287.989 253.301 288.437 253.631 288.774C253.968 289.104 254.397 289.269 254.918 289.269C255.219 289.269 255.494 289.203 255.743 289.071C256 288.932 256.212 288.726 256.381 288.455L257.437 289.071C257.21 289.511 256.876 289.852 256.436 290.094C256.003 290.329 255.501 290.446 254.929 290.446ZM264.062 287.465C264.062 287.56 264.054 287.696 264.04 287.872H259.431C259.511 288.305 259.72 288.649 260.058 288.906C260.402 289.155 260.828 289.28 261.334 289.28C261.979 289.28 262.511 289.067 262.929 288.642L263.666 289.489C263.402 289.804 263.068 290.043 262.665 290.204C262.261 290.365 261.807 290.446 261.301 290.446C260.655 290.446 260.087 290.318 259.596 290.061C259.104 289.804 258.723 289.449 258.452 288.994C258.188 288.532 258.056 288.011 258.056 287.432C258.056 286.86 258.184 286.347 258.441 285.892C258.705 285.43 259.068 285.071 259.53 284.814C259.992 284.557 260.512 284.429 261.092 284.429C261.664 284.429 262.173 284.557 262.621 284.814C263.075 285.063 263.427 285.419 263.677 285.881C263.933 286.336 264.062 286.864 264.062 287.465ZM261.092 285.529C260.652 285.529 260.278 285.661 259.97 285.925C259.669 286.182 259.486 286.526 259.42 286.959H262.753C262.694 286.534 262.514 286.189 262.214 285.925C261.913 285.661 261.539 285.529 261.092 285.529Z" fill="white" fill-opacity="0.37"/>
<path d="M190.587 468.623V476.323H189.806V470.163L186.781 475.344H186.396L183.371 470.196V476.323H182.59V468.623H183.261L186.605 474.332L189.916 468.623H190.587ZM197.969 473.672H193.129C193.173 474.273 193.404 474.761 193.822 475.135C194.24 475.502 194.768 475.685 195.406 475.685C195.765 475.685 196.095 475.623 196.396 475.498C196.696 475.366 196.957 475.175 197.177 474.926L197.617 475.432C197.36 475.74 197.037 475.975 196.649 476.136C196.267 476.297 195.846 476.378 195.384 476.378C194.79 476.378 194.262 476.253 193.8 476.004C193.345 475.747 192.989 475.395 192.733 474.948C192.476 474.501 192.348 473.995 192.348 473.43C192.348 472.865 192.469 472.359 192.711 471.912C192.96 471.465 193.297 471.116 193.723 470.867C194.155 470.618 194.639 470.493 195.175 470.493C195.71 470.493 196.19 470.618 196.616 470.867C197.041 471.116 197.375 471.465 197.617 471.912C197.859 472.352 197.98 472.858 197.98 473.43L197.969 473.672ZM195.175 471.164C194.617 471.164 194.148 471.344 193.767 471.703C193.393 472.055 193.18 472.517 193.129 473.089H197.232C197.18 472.517 196.964 472.055 196.583 471.703C196.209 471.344 195.739 471.164 195.175 471.164ZM206.785 470.493C207.511 470.493 208.08 470.702 208.49 471.12C208.908 471.538 209.117 472.154 209.117 472.968V476.323H208.336V473.045C208.336 472.444 208.19 471.985 207.896 471.67C207.61 471.355 207.203 471.197 206.675 471.197C206.074 471.197 205.601 471.384 205.256 471.758C204.912 472.125 204.739 472.634 204.739 473.287V476.323H203.958V473.045C203.958 472.444 203.812 471.985 203.518 471.67C203.232 471.355 202.822 471.197 202.286 471.197C201.692 471.197 201.219 471.384 200.867 471.758C200.523 472.125 200.35 472.634 200.35 473.287V476.323H199.569V470.537H200.317V471.593C200.523 471.241 200.809 470.97 201.175 470.779C201.542 470.588 201.964 470.493 202.44 470.493C202.924 470.493 203.342 470.596 203.694 470.801C204.054 471.006 204.321 471.311 204.497 471.714C204.71 471.333 205.014 471.036 205.41 470.823C205.814 470.603 206.272 470.493 206.785 470.493ZM214.216 470.493C214.759 470.493 215.25 470.618 215.69 470.867C216.13 471.109 216.475 471.454 216.724 471.901C216.974 472.348 217.098 472.858 217.098 473.43C217.098 474.002 216.974 474.512 216.724 474.959C216.475 475.406 216.13 475.755 215.69 476.004C215.25 476.253 214.759 476.378 214.216 476.378C213.732 476.378 213.296 476.275 212.907 476.07C212.526 475.865 212.218 475.568 211.983 475.179V476.323H211.235V468.161H212.016V471.637C212.258 471.263 212.566 470.981 212.94 470.79C213.322 470.592 213.747 470.493 214.216 470.493ZM214.161 475.685C214.565 475.685 214.931 475.593 215.261 475.41C215.591 475.219 215.848 474.952 216.031 474.607C216.222 474.262 216.317 473.87 216.317 473.43C216.317 472.99 216.222 472.598 216.031 472.253C215.848 471.908 215.591 471.644 215.261 471.461C214.931 471.27 214.565 471.175 214.161 471.175C213.751 471.175 213.38 471.27 213.05 471.461C212.728 471.644 212.471 471.908 212.28 472.253C212.097 472.598 212.005 472.99 212.005 473.43C212.005 473.87 212.097 474.262 212.28 474.607C212.471 474.952 212.728 475.219 213.05 475.41C213.38 475.593 213.751 475.685 214.161 475.685ZM223.729 473.672H218.889C218.933 474.273 219.164 474.761 219.582 475.135C220 475.502 220.528 475.685 221.166 475.685C221.525 475.685 221.855 475.623 222.156 475.498C222.456 475.366 222.717 475.175 222.937 474.926L223.377 475.432C223.12 475.74 222.797 475.975 222.409 476.136C222.027 476.297 221.606 476.378 221.144 476.378C220.55 476.378 220.022 476.253 219.56 476.004C219.105 475.747 218.749 475.395 218.493 474.948C218.236 474.501 218.108 473.995 218.108 473.43C218.108 472.865 218.229 472.359 218.471 471.912C218.72 471.465 219.057 471.116 219.483 470.867C219.915 470.618 220.399 470.493 220.935 470.493C221.47 470.493 221.95 470.618 222.376 470.867C222.801 471.116 223.135 471.465 223.377 471.912C223.619 472.352 223.74 472.858 223.74 473.43L223.729 473.672ZM220.935 471.164C220.377 471.164 219.908 471.344 219.527 471.703C219.153 472.055 218.94 472.517 218.889 473.089H222.992C222.94 472.517 222.724 472.055 222.343 471.703C221.969 471.344 221.499 471.164 220.935 471.164ZM226.077 471.67C226.261 471.281 226.532 470.988 226.891 470.79C227.258 470.592 227.709 470.493 228.244 470.493V471.252L228.057 471.241C227.449 471.241 226.972 471.428 226.627 471.802C226.283 472.176 226.11 472.7 226.11 473.375V476.323H225.329V470.537H226.077V471.67ZM231.252 476.378C230.783 476.378 230.332 476.312 229.899 476.18C229.474 476.041 229.14 475.868 228.898 475.663L229.25 475.047C229.492 475.238 229.797 475.395 230.163 475.52C230.53 475.637 230.911 475.696 231.307 475.696C231.835 475.696 232.224 475.615 232.473 475.454C232.73 475.285 232.858 475.051 232.858 474.75C232.858 474.537 232.789 474.372 232.649 474.255C232.51 474.13 232.334 474.039 232.121 473.98C231.909 473.914 231.626 473.852 231.274 473.793C230.805 473.705 230.427 473.617 230.141 473.529C229.855 473.434 229.61 473.276 229.404 473.056C229.206 472.836 229.107 472.532 229.107 472.143C229.107 471.659 229.309 471.263 229.712 470.955C230.116 470.647 230.677 470.493 231.395 470.493C231.769 470.493 232.143 470.544 232.517 470.647C232.891 470.742 233.199 470.871 233.441 471.032L233.1 471.659C232.624 471.329 232.055 471.164 231.395 471.164C230.897 471.164 230.519 471.252 230.262 471.428C230.013 471.604 229.888 471.835 229.888 472.121C229.888 472.341 229.958 472.517 230.097 472.649C230.244 472.781 230.424 472.88 230.636 472.946C230.849 473.005 231.142 473.067 231.516 473.133C231.978 473.221 232.349 473.309 232.627 473.397C232.906 473.485 233.144 473.635 233.342 473.848C233.54 474.061 233.639 474.354 233.639 474.728C233.639 475.234 233.427 475.637 233.001 475.938C232.583 476.231 232 476.378 231.252 476.378ZM238.031 470.493C238.757 470.493 239.333 470.706 239.758 471.131C240.191 471.549 240.407 472.161 240.407 472.968V476.323H239.626V473.045C239.626 472.444 239.476 471.985 239.175 471.67C238.874 471.355 238.445 471.197 237.888 471.197C237.265 471.197 236.77 471.384 236.403 471.758C236.044 472.125 235.864 472.634 235.864 473.287V476.323H235.083V468.161H235.864V471.549C236.077 471.212 236.37 470.951 236.744 470.768C237.118 470.585 237.547 470.493 238.031 470.493ZM242.527 470.537H243.308V476.323H242.527V470.537ZM242.923 469.272C242.762 469.272 242.626 469.217 242.516 469.107C242.406 468.997 242.351 468.865 242.351 468.711C242.351 468.564 242.406 468.436 242.516 468.326C242.626 468.216 242.762 468.161 242.923 468.161C243.085 468.161 243.22 468.216 243.33 468.326C243.44 468.429 243.495 468.553 243.495 468.7C243.495 468.861 243.44 468.997 243.33 469.107C243.22 469.217 243.085 469.272 242.923 469.272ZM248.463 470.493C249.005 470.493 249.497 470.618 249.937 470.867C250.377 471.109 250.721 471.454 250.971 471.901C251.22 472.348 251.345 472.858 251.345 473.43C251.345 474.009 251.22 474.523 250.971 474.97C250.721 475.417 250.377 475.766 249.937 476.015C249.504 476.257 249.013 476.378 248.463 476.378C247.993 476.378 247.568 476.283 247.187 476.092C246.813 475.894 246.505 475.608 246.263 475.234V478.457H245.482V470.537H246.23V471.681C246.464 471.3 246.772 471.006 247.154 470.801C247.542 470.596 247.979 470.493 248.463 470.493ZM248.408 475.685C248.811 475.685 249.178 475.593 249.508 475.41C249.838 475.219 250.094 474.952 250.278 474.607C250.468 474.262 250.564 473.87 250.564 473.43C250.564 472.99 250.468 472.601 250.278 472.264C250.094 471.919 249.838 471.652 249.508 471.461C249.178 471.27 248.811 471.175 248.408 471.175C247.997 471.175 247.627 471.27 247.297 471.461C246.974 471.652 246.717 471.919 246.527 472.264C246.343 472.601 246.252 472.99 246.252 473.43C246.252 473.87 246.343 474.262 246.527 474.607C246.717 474.952 246.974 475.219 247.297 475.41C247.627 475.593 247.997 475.685 248.408 475.685ZM257.477 469.327H254.771V468.623H260.997V469.327H258.291V476.323H257.477V469.327ZM263.895 476.378C263.338 476.378 262.836 476.253 262.388 476.004C261.941 475.747 261.589 475.395 261.332 474.948C261.076 474.501 260.947 473.995 260.947 473.43C260.947 472.865 261.076 472.359 261.332 471.912C261.589 471.465 261.941 471.116 262.388 470.867C262.836 470.618 263.338 470.493 263.895 470.493C264.453 470.493 264.955 470.618 265.402 470.867C265.85 471.116 266.198 471.465 266.447 471.912C266.704 472.359 266.832 472.865 266.832 473.43C266.832 473.995 266.704 474.501 266.447 474.948C266.198 475.395 265.85 475.747 265.402 476.004C264.955 476.253 264.453 476.378 263.895 476.378ZM263.895 475.685C264.306 475.685 264.673 475.593 264.995 475.41C265.325 475.219 265.582 474.952 265.765 474.607C265.949 474.262 266.04 473.87 266.04 473.43C266.04 472.99 265.949 472.598 265.765 472.253C265.582 471.908 265.325 471.644 264.995 471.461C264.673 471.27 264.306 471.175 263.895 471.175C263.485 471.175 263.114 471.27 262.784 471.461C262.462 471.644 262.205 471.908 262.014 472.253C261.831 472.598 261.739 472.99 261.739 473.43C261.739 473.87 261.831 474.262 262.014 474.607C262.205 474.952 262.462 475.219 262.784 475.41C263.114 475.593 263.485 475.685 263.895 475.685ZM270.572 473.419L269.208 474.673V476.323H268.427V468.161H269.208V473.694L272.662 470.537H273.63L271.155 472.902L273.861 476.323H272.904L270.572 473.419ZM279.835 473.672H274.995C275.039 474.273 275.27 474.761 275.688 475.135C276.106 475.502 276.634 475.685 277.272 475.685C277.631 475.685 277.961 475.623 278.262 475.498C278.563 475.366 278.823 475.175 279.043 474.926L279.483 475.432C279.226 475.74 278.904 475.975 278.515 476.136C278.134 476.297 277.712 476.378 277.25 476.378C276.656 476.378 276.128 476.253 275.666 476.004C275.211 475.747 274.856 475.395 274.599 474.948C274.342 474.501 274.214 473.995 274.214 473.43C274.214 472.865 274.335 472.359 274.577 471.912C274.826 471.465 275.164 471.116 275.589 470.867C276.022 470.618 276.506 470.493 277.041 470.493C277.576 470.493 278.057 470.618 278.482 470.867C278.907 471.116 279.241 471.465 279.483 471.912C279.725 472.352 279.846 472.858 279.846 473.43L279.835 473.672ZM277.041 471.164C276.484 471.164 276.014 471.344 275.633 471.703C275.259 472.055 275.046 472.517 274.995 473.089H279.098C279.047 472.517 278.83 472.055 278.449 471.703C278.075 471.344 277.606 471.164 277.041 471.164ZM284.384 470.493C285.11 470.493 285.685 470.706 286.111 471.131C286.543 471.549 286.76 472.161 286.76 472.968V476.323H285.979V473.045C285.979 472.444 285.828 471.985 285.528 471.67C285.227 471.355 284.798 471.197 284.241 471.197C283.617 471.197 283.122 471.384 282.756 471.758C282.396 472.125 282.217 472.634 282.217 473.287V476.323H281.436V470.537H282.184V471.604C282.396 471.252 282.69 470.981 283.064 470.79C283.445 470.592 283.885 470.493 284.384 470.493ZM294.047 476.389C293.475 476.389 292.925 476.297 292.397 476.114C291.876 475.931 291.473 475.689 291.187 475.388L291.506 474.761C291.785 475.04 292.155 475.267 292.617 475.443C293.079 475.612 293.556 475.696 294.047 475.696C294.736 475.696 295.253 475.571 295.598 475.322C295.943 475.065 296.115 474.735 296.115 474.332C296.115 474.024 296.02 473.778 295.829 473.595C295.646 473.412 295.418 473.272 295.147 473.177C294.876 473.074 294.498 472.964 294.014 472.847C293.435 472.7 292.973 472.561 292.628 472.429C292.283 472.29 291.986 472.081 291.737 471.802C291.495 471.523 291.374 471.146 291.374 470.669C291.374 470.28 291.477 469.928 291.682 469.613C291.887 469.29 292.203 469.034 292.628 468.843C293.053 468.652 293.581 468.557 294.212 468.557C294.652 468.557 295.081 468.619 295.499 468.744C295.924 468.861 296.291 469.026 296.599 469.239L296.324 469.888C296.001 469.675 295.657 469.518 295.29 469.415C294.923 469.305 294.564 469.25 294.212 469.25C293.537 469.25 293.028 469.382 292.683 469.646C292.346 469.903 292.177 470.236 292.177 470.647C292.177 470.955 292.269 471.204 292.452 471.395C292.643 471.578 292.877 471.721 293.156 471.824C293.442 471.919 293.823 472.026 294.3 472.143C294.865 472.282 295.319 472.422 295.664 472.561C296.016 472.693 296.313 472.898 296.555 473.177C296.797 473.448 296.918 473.819 296.918 474.288C296.918 474.677 296.812 475.032 296.599 475.355C296.394 475.67 296.075 475.923 295.642 476.114C295.209 476.297 294.678 476.389 294.047 476.389ZM303.741 470.537V476.323H302.992V475.267C302.787 475.619 302.505 475.894 302.146 476.092C301.786 476.283 301.376 476.378 300.914 476.378C300.158 476.378 299.561 476.169 299.121 475.751C298.688 475.326 298.472 474.706 298.472 473.892V470.537H299.253V473.815C299.253 474.424 299.403 474.886 299.704 475.201C300.004 475.516 300.433 475.674 300.991 475.674C301.599 475.674 302.08 475.491 302.432 475.124C302.784 474.75 302.96 474.233 302.96 473.573V470.537H303.741ZM308.909 470.493C309.452 470.493 309.943 470.618 310.383 470.867C310.823 471.109 311.168 471.454 311.417 471.901C311.666 472.348 311.791 472.858 311.791 473.43C311.791 474.009 311.666 474.523 311.417 474.97C311.168 475.417 310.823 475.766 310.383 476.015C309.95 476.257 309.459 476.378 308.909 476.378C308.44 476.378 308.014 476.283 307.633 476.092C307.259 475.894 306.951 475.608 306.709 475.234V478.457H305.928V470.537H306.676V471.681C306.911 471.3 307.219 471.006 307.6 470.801C307.989 470.596 308.425 470.493 308.909 470.493ZM308.854 475.685C309.257 475.685 309.624 475.593 309.954 475.41C310.284 475.219 310.541 474.952 310.724 474.607C310.915 474.262 311.01 473.87 311.01 473.43C311.01 472.99 310.915 472.601 310.724 472.264C310.541 471.919 310.284 471.652 309.954 471.461C309.624 471.27 309.257 471.175 308.854 471.175C308.443 471.175 308.073 471.27 307.743 471.461C307.42 471.652 307.164 471.919 306.973 472.264C306.79 472.601 306.698 472.99 306.698 473.43C306.698 473.87 306.79 474.262 306.973 474.607C307.164 474.952 307.42 475.219 307.743 475.41C308.073 475.593 308.443 475.685 308.854 475.685ZM316.364 470.493C316.907 470.493 317.398 470.618 317.838 470.867C318.278 471.109 318.623 471.454 318.872 471.901C319.121 472.348 319.246 472.858 319.246 473.43C319.246 474.009 319.121 474.523 318.872 474.97C318.623 475.417 318.278 475.766 317.838 476.015C317.405 476.257 316.914 476.378 316.364 476.378C315.895 476.378 315.469 476.283 315.088 476.092C314.714 475.894 314.406 475.608 314.164 475.234V478.457H313.383V470.537H314.131V471.681C314.366 471.3 314.674 471.006 315.055 470.801C315.444 470.596 315.88 470.493 316.364 470.493ZM316.309 475.685C316.712 475.685 317.079 475.593 317.409 475.41C317.739 475.219 317.996 474.952 318.179 474.607C318.37 474.262 318.465 473.87 318.465 473.43C318.465 472.99 318.37 472.601 318.179 472.264C317.996 471.919 317.739 471.652 317.409 471.461C317.079 471.27 316.712 471.175 316.309 471.175C315.898 471.175 315.528 471.27 315.198 471.461C314.875 471.652 314.619 471.919 314.428 472.264C314.245 472.601 314.153 472.99 314.153 473.43C314.153 473.87 314.245 474.262 314.428 474.607C314.619 474.952 314.875 475.219 315.198 475.41C315.528 475.593 315.898 475.685 316.309 475.685ZM320.838 468.161H321.619V476.323H320.838V468.161ZM328.654 470.537L325.761 477.016C325.526 477.559 325.255 477.944 324.947 478.171C324.639 478.398 324.269 478.512 323.836 478.512C323.557 478.512 323.297 478.468 323.055 478.38C322.813 478.292 322.604 478.16 322.428 477.984L322.791 477.401C323.084 477.694 323.436 477.841 323.847 477.841C324.111 477.841 324.335 477.768 324.518 477.621C324.709 477.474 324.885 477.225 325.046 476.873L325.299 476.312L322.714 470.537H323.528L325.706 475.454L327.884 470.537H328.654Z" fill="white" fill-opacity="0.37"/>
<path d="M16 305.357L13.525 307.117C13.547 307.315 13.558 307.52 13.558 307.733L13.558 309.801L16 309.801L16 310.615L8.3 310.615L8.3 307.733C8.3 306.75 8.53467 305.98 9.004 305.423C9.47333 304.866 10.1187 304.587 10.94 304.587C11.5413 304.587 12.051 304.741 12.469 305.049C12.8797 305.35 13.1767 305.782 13.36 306.347L16 304.466L16 305.357ZM12.865 307.755C12.865 306.992 12.6963 306.409 12.359 306.006C12.0217 305.603 11.5487 305.401 10.94 305.401C10.3167 305.401 9.84 305.603 9.51 306.006C9.17267 306.409 9.004 306.992 9.004 307.755L9.004 309.801L12.865 309.801L12.865 307.755ZM13.349 297.793L13.349 302.633C13.9503 302.589 14.438 302.358 14.812 301.94C15.1787 301.522 15.362 300.994 15.362 300.356C15.362 299.997 15.2997 299.667 15.175 299.366C15.043 299.065 14.8523 298.805 14.603 298.585L15.109 298.145C15.417 298.402 15.6517 298.724 15.813 299.113C15.9743 299.494 16.055 299.916 16.055 300.378C16.055 300.972 15.9303 301.5 15.681 301.962C15.4243 302.417 15.0723 302.772 14.625 303.029C14.1777 303.286 13.6717 303.414 13.107 303.414C12.5423 303.414 12.0363 303.293 11.589 303.051C11.1417 302.802 10.7933 302.464 10.544 302.039C10.2947 301.606 10.17 301.122 10.17 300.587C10.17 300.052 10.2947 299.571 10.544 299.146C10.7933 298.721 11.1417 298.387 11.589 298.145C12.029 297.903 12.535 297.782 13.107 297.782L13.349 297.793ZM10.841 300.587C10.841 301.144 11.0207 301.614 11.38 301.995C11.732 302.369 12.194 302.582 12.766 302.633L12.766 298.53C12.194 298.581 11.732 298.798 11.38 299.179C11.0207 299.553 10.841 300.022 10.841 300.587ZM16.055 294.641C16.055 295.111 15.989 295.562 15.857 295.994C15.7177 296.42 15.5453 296.753 15.34 296.995L14.724 296.643C14.9147 296.401 15.0723 296.097 15.197 295.73C15.3143 295.364 15.373 294.982 15.373 294.586C15.373 294.058 15.2923 293.67 15.131 293.42C14.9623 293.164 14.7277 293.035 14.427 293.035C14.2143 293.035 14.0493 293.105 13.932 293.244C13.8073 293.384 13.7157 293.56 13.657 293.772C13.591 293.985 13.5287 294.267 13.47 294.619C13.382 295.089 13.294 295.466 13.206 295.752C13.1107 296.038 12.953 296.284 12.733 296.489C12.513 296.687 12.2087 296.786 11.82 296.786C11.336 296.786 10.94 296.585 10.632 296.181C10.324 295.778 10.17 295.217 10.17 294.498C10.17 294.124 10.2213 293.75 10.324 293.376C10.4193 293.002 10.5477 292.694 10.709 292.452L11.336 292.793C11.006 293.27 10.841 293.838 10.841 294.498C10.841 294.997 10.929 295.375 11.105 295.631C11.281 295.881 11.512 296.005 11.798 296.005C12.018 296.005 12.194 295.936 12.326 295.796C12.458 295.65 12.557 295.47 12.623 295.257C12.6817 295.045 12.744 294.751 12.81 294.377C12.898 293.915 12.986 293.545 13.074 293.266C13.162 292.988 13.3123 292.749 13.525 292.551C13.7377 292.353 14.031 292.254 14.405 292.254C14.911 292.254 15.3143 292.467 15.615 292.892C15.9083 293.31 16.055 293.893 16.055 294.641ZM13.349 285.772L13.349 290.612C13.9503 290.568 14.438 290.337 14.812 289.919C15.1787 289.501 15.362 288.973 15.362 288.335C15.362 287.976 15.2997 287.646 15.175 287.345C15.043 287.045 14.8523 286.784 14.603 286.564L15.109 286.124C15.417 286.381 15.6517 286.704 15.813 287.092C15.9743 287.474 16.055 287.895 16.055 288.357C16.055 288.951 15.9303 289.479 15.681 289.941C15.4243 290.396 15.0723 290.752 14.625 291.008C14.1777 291.265 13.6717 291.393 13.107 291.393C12.5423 291.393 12.0363 291.272 11.589 291.03C11.1417 290.781 10.7933 290.444 10.544 290.018C10.2947 289.586 10.17 289.102 10.17 288.566C10.17 288.031 10.2947 287.551 10.544 287.125C10.7933 286.7 11.1417 286.366 11.589 286.124C12.029 285.882 12.535 285.761 13.107 285.761L13.349 285.772ZM10.841 288.566C10.841 289.124 11.0207 289.593 11.38 289.974C11.732 290.348 12.194 290.561 12.766 290.612L12.766 286.509C12.194 286.561 11.732 286.777 11.38 287.158C11.0207 287.532 10.841 288.002 10.841 288.566ZM11.347 283.424C10.9583 283.24 10.665 282.969 10.467 282.61C10.269 282.243 10.17 281.792 10.17 281.257L10.929 281.257L10.918 281.444C10.918 282.052 11.105 282.529 11.479 282.874C11.853 283.218 12.3773 283.391 13.052 283.391L16 283.391L16 284.172L10.214 284.172L10.214 283.424L11.347 283.424ZM10.214 274.734L16 277.308L16 278.111L10.214 280.674L10.214 279.86L15.142 277.693L10.214 275.504L10.214 274.734ZM13.349 268.757L13.349 273.597C13.9503 273.553 14.438 273.322 14.812 272.904C15.1787 272.486 15.362 271.958 15.362 271.32C15.362 270.96 15.2997 270.63 15.175 270.33C15.043 270.029 14.8523 269.769 14.603 269.549L15.109 269.109C15.417 269.365 15.6517 269.688 15.813 270.077C15.9743 270.458 16.055 270.88 16.055 271.342C16.055 271.936 15.9303 272.464 15.681 272.926C15.4243 273.38 15.0723 273.736 14.625 273.993C14.1777 274.249 13.6717 274.378 13.107 274.378C12.5423 274.378 12.0363 274.257 11.589 274.015C11.1417 273.765 10.7933 273.428 10.544 273.003C10.2947 272.57 10.17 272.086 10.17 271.551C10.17 271.015 10.2947 270.535 10.544 270.11C10.7933 269.684 11.1417 269.351 11.589 269.109C12.029 268.867 12.535 268.746 13.107 268.746L13.349 268.757ZM10.841 271.551C10.841 272.108 11.0207 272.577 11.38 272.959C11.732 273.333 12.194 273.545 12.766 273.597L12.766 269.494C12.194 269.545 11.732 269.761 11.38 270.143C11.0207 270.517 10.841 270.986 10.841 271.551ZM8.3 261.23C8.3 260.248 8.53466 259.478 9.004 258.92C9.47333 258.363 10.1187 258.084 10.94 258.084C11.7613 258.084 12.4067 258.363 12.876 258.92C13.338 259.478 13.569 260.248 13.569 261.23L13.569 263.298L16 263.298L16 264.112L8.3 264.112L8.3 261.23ZM12.854 261.252C12.854 260.49 12.689 259.907 12.359 259.503C12.0217 259.1 11.5487 258.898 10.94 258.898C10.3167 258.898 9.84 259.1 9.51 259.503C9.17266 259.907 9.004 260.49 9.004 261.252L9.004 263.298L12.854 263.298L12.854 261.252ZM11.347 255.892C10.9583 255.708 10.665 255.437 10.467 255.078C10.269 254.711 10.17 254.26 10.17 253.725L10.929 253.725L10.918 253.912C10.918 254.52 11.105 254.997 11.479 255.342C11.853 255.686 12.3773 255.859 13.052 255.859L16 255.859L16 256.64L10.214 256.64L10.214 255.892L11.347 255.892ZM10.214 252.31L10.214 251.529L16 251.529L16 252.31L10.214 252.31ZM8.949 251.914C8.949 252.076 8.894 252.211 8.784 252.321C8.674 252.431 8.542 252.486 8.388 252.486C8.24133 252.486 8.113 252.431 8.003 252.321C7.893 252.211 7.838 252.076 7.838 251.914C7.838 251.753 7.893 251.617 8.003 251.507C8.10566 251.397 8.23033 251.342 8.377 251.342C8.53833 251.342 8.674 251.397 8.784 251.507C8.894 251.617 8.949 251.753 8.949 251.914ZM16.055 246.958C16.055 247.53 15.9303 248.044 15.681 248.498C15.4317 248.946 15.0833 249.298 14.636 249.554C14.1813 249.811 13.6717 249.939 13.107 249.939C12.5423 249.939 12.0363 249.811 11.589 249.554C11.1417 249.298 10.7933 248.946 10.544 248.498C10.2947 248.044 10.17 247.53 10.17 246.958C10.17 246.46 10.269 246.016 10.467 245.627C10.6577 245.231 10.94 244.92 11.314 244.692L11.71 245.275C11.424 245.466 11.2113 245.708 11.072 246.001C10.9253 246.295 10.852 246.614 10.852 246.958C10.852 247.376 10.9473 247.754 11.138 248.091C11.3213 248.421 11.5853 248.682 11.93 248.872C12.2747 249.056 12.667 249.147 13.107 249.147C13.5543 249.147 13.9503 249.056 14.295 248.872C14.6323 248.682 14.8963 248.421 15.087 248.091C15.2703 247.754 15.362 247.376 15.362 246.958C15.362 246.614 15.2923 246.295 15.153 246.001C15.0137 245.708 14.801 245.466 14.515 245.275L14.911 244.692C15.285 244.92 15.571 245.231 15.769 245.627C15.9597 246.023 16.055 246.467 16.055 246.958ZM13.349 238.217L13.349 243.057C13.9503 243.013 14.438 242.782 14.812 242.364C15.1787 241.946 15.362 241.418 15.362 240.78C15.362 240.42 15.2997 240.09 15.175 239.79C15.043 239.489 14.8523 239.229 14.603 239.009L15.109 238.569C15.417 238.825 15.6517 239.148 15.813 239.537C15.9743 239.918 16.055 240.34 16.055 240.802C16.055 241.396 15.9303 241.924 15.681 242.386C15.4243 242.84 15.0723 243.196 14.625 243.453C14.1777 243.709 13.6717 243.838 13.107 243.838C12.5423 243.838 12.0363 243.717 11.589 243.475C11.1417 243.225 10.7933 242.888 10.544 242.463C10.2947 242.03 10.17 241.546 10.17 241.011C10.17 240.475 10.2947 239.995 10.544 239.57C10.7933 239.144 11.1417 238.811 11.589 238.569C12.029 238.327 12.535 238.206 13.107 238.206L13.349 238.217ZM10.841 241.011C10.841 241.568 11.0207 242.037 11.38 242.419C11.732 242.793 12.194 243.005 12.766 243.057L12.766 238.954C12.194 239.005 11.732 239.221 11.38 239.603C11.0207 239.977 10.841 240.446 10.841 241.011Z" fill="white" fill-opacity="0.37"/>
<path d="M342.236 393.907C342.808 393.907 343.318 394.032 343.765 394.281C344.22 394.531 344.575 394.883 344.832 395.337C345.089 395.792 345.217 396.316 345.217 396.91C345.217 397.504 345.089 398.032 344.832 398.494C344.575 398.949 344.22 399.301 343.765 399.55C343.318 399.8 342.808 399.924 342.236 399.924C341.833 399.924 341.462 399.855 341.125 399.715C340.795 399.576 340.516 399.367 340.289 399.088V399.847H338.98V391.685H340.355V394.688C340.59 394.432 340.865 394.237 341.18 394.105C341.503 393.973 341.855 393.907 342.236 393.907ZM342.082 398.747C342.588 398.747 343.002 398.579 343.325 398.241C343.655 397.904 343.82 397.46 343.82 396.91C343.82 396.36 343.655 395.917 343.325 395.579C343.002 395.242 342.588 395.073 342.082 395.073C341.752 395.073 341.455 395.15 341.191 395.304C340.927 395.451 340.718 395.664 340.564 395.942C340.41 396.221 340.333 396.544 340.333 396.91C340.333 397.277 340.41 397.6 340.564 397.878C340.718 398.157 340.927 398.373 341.191 398.527C341.455 398.674 341.752 398.747 342.082 398.747ZM352.208 393.973V399.847H350.899V399.099C350.679 399.363 350.404 399.569 350.074 399.715C349.744 399.855 349.388 399.924 349.007 399.924C348.222 399.924 347.603 399.708 347.148 399.275C346.701 398.835 346.477 398.186 346.477 397.328V393.973H347.852V397.141C347.852 397.669 347.969 398.065 348.204 398.329C348.446 398.586 348.787 398.714 349.227 398.714C349.718 398.714 350.107 398.564 350.393 398.263C350.686 397.955 350.833 397.515 350.833 396.943V393.973H352.208ZM355.317 394.831C355.713 394.215 356.41 393.907 357.407 393.907V395.216C357.29 395.194 357.184 395.183 357.088 395.183C356.553 395.183 356.135 395.341 355.834 395.656C355.534 395.964 355.383 396.412 355.383 396.998V399.847H354.008V393.973H355.317V394.831ZM361.907 393.907C362.648 393.907 363.242 394.124 363.689 394.556C364.136 394.989 364.36 395.631 364.36 396.481V399.847H362.985V396.657C362.985 396.144 362.864 395.759 362.622 395.502C362.38 395.238 362.035 395.106 361.588 395.106C361.082 395.106 360.682 395.26 360.389 395.568C360.096 395.869 359.949 396.305 359.949 396.877V399.847H358.574V393.973H359.883V394.732C360.11 394.461 360.396 394.256 360.741 394.116C361.086 393.977 361.474 393.907 361.907 393.907Z" fill="white" fill-opacity="0.37"/>
<path d="M30.7071 0.292908C30.3166 -0.0976257 29.6834 -0.0976257 29.2929 0.292908L22.9289 6.65686C22.5384 7.04739 22.5384 7.68054 22.9289 8.07108C23.3195 8.46158 23.9526 8.46158 24.3431 8.07108L30 2.41422L35.6569 8.07108C36.0474 8.46158 36.6805 8.46158 37.0711 8.07108C37.4616 7.68054 37.4616 7.04739 37.0711 6.65686L30.7071 0.292908ZM31 460.001L31 1H29L29 460.001H31Z" fill="#878787"/>
<path d="M584.707 460.707C585.098 460.317 585.098 459.683 584.707 459.293L578.343 452.929C577.953 452.538 577.319 452.538 576.929 452.929C576.538 453.319 576.538 453.953 576.929 454.343L582.586 460L576.929 465.657C576.538 466.047 576.538 466.681 576.929 467.071C577.319 467.462 577.953 467.462 578.343 467.071L584.707 460.707ZM30 461H584V459H30V461Z" fill="#878787"/>
<defs>
<linearGradient id="paint0_linear_610_483" x1="494.001" y1="104.515" x2="540.573" y2="307.694" gradientUnits="userSpaceOnUse">
<stop stop-color="#D2B4FC"/>
<stop offset="0.88442" stop-color="#84B9D1" stop-opacity="0"/>
</linearGradient>
<linearGradient id="paint1_linear_610_483" x1="31.7031" y1="184.962" x2="505.462" y2="273.005" gradientUnits="userSpaceOnUse">
<stop stop-color="#84B9D1"/>
<stop offset="1" stop-color="#D2B4FC"/>
</linearGradient>
</defs>
</svg>
