<svg width="25" height="25" viewBox="0 0 25 25" fill="none" xmlns="http://www.w3.org/2000/svg">
<path d="M12.5 2.50293C15.217 2.50293 15.556 2.51293 16.622 2.56293C17.687 2.61293 18.412 2.77993 19.05 3.02793C19.71 3.28193 20.266 3.62593 20.822 4.18093C21.3305 4.68083 21.724 5.28552 21.975 5.95293C22.222 6.58993 22.39 7.31593 22.44 8.38093C22.487 9.44693 22.5 9.78593 22.5 12.5029C22.5 15.2199 22.49 15.5589 22.44 16.6249C22.39 17.6899 22.222 18.4149 21.975 19.0529C21.7247 19.7207 21.3311 20.3255 20.822 20.8249C20.322 21.3333 19.7173 21.7267 19.05 21.9779C18.413 22.2249 17.687 22.3929 16.622 22.4429C15.556 22.4899 15.217 22.5029 12.5 22.5029C9.783 22.5029 9.444 22.4929 8.378 22.4429C7.313 22.3929 6.588 22.2249 5.95 21.9779C5.28233 21.7274 4.67753 21.3339 4.178 20.8249C3.66941 20.3251 3.27593 19.7204 3.025 19.0529C2.777 18.4159 2.61 17.6899 2.56 16.6249C2.513 15.5589 2.5 15.2199 2.5 12.5029C2.5 9.78593 2.51 9.44693 2.56 8.38093C2.61 7.31493 2.777 6.59093 3.025 5.95293C3.27524 5.28511 3.6688 4.68025 4.178 4.18093C4.67767 3.67216 5.28243 3.27866 5.95 3.02793C6.588 2.77993 7.312 2.61293 8.378 2.56293C9.444 2.51593 9.783 2.50293 12.5 2.50293ZM12.5 7.50293C11.1739 7.50293 9.90215 8.02971 8.96447 8.9674C8.02678 9.90508 7.5 11.1768 7.5 12.5029C7.5 13.829 8.02678 15.1008 8.96447 16.0385C9.90215 16.9761 11.1739 17.5029 12.5 17.5029C13.8261 17.5029 15.0979 16.9761 16.0355 16.0385C16.9732 15.1008 17.5 13.829 17.5 12.5029C17.5 11.1768 16.9732 9.90508 16.0355 8.9674C15.0979 8.02971 13.8261 7.50293 12.5 7.50293ZM19 7.25293C19 6.92141 18.8683 6.60347 18.6339 6.36905C18.3995 6.13463 18.0815 6.00293 17.75 6.00293C17.4185 6.00293 17.1005 6.13463 16.8661 6.36905C16.6317 6.60347 16.5 6.92141 16.5 7.25293C16.5 7.58445 16.6317 7.90239 16.8661 8.13681C17.1005 8.37123 17.4185 8.50293 17.75 8.50293C18.0815 8.50293 18.3995 8.37123 18.6339 8.13681C18.8683 7.90239 19 7.58445 19 7.25293ZM12.5 9.50293C13.2956 9.50293 14.0587 9.819 14.6213 10.3816C15.1839 10.9442 15.5 11.7073 15.5 12.5029C15.5 13.2986 15.1839 14.0616 14.6213 14.6243C14.0587 15.1869 13.2956 15.5029 12.5 15.5029C11.7044 15.5029 10.9413 15.1869 10.3787 14.6243C9.81607 14.0616 9.5 13.2986 9.5 12.5029C9.5 11.7073 9.81607 10.9442 10.3787 10.3816C10.9413 9.819 11.7044 9.50293 12.5 9.50293Z" fill="white" fill-opacity="0.37"/>
</svg>
