<svg width="25" height="25" viewBox="0 0 25 25" fill="none" xmlns="http://www.w3.org/2000/svg">
<path d="M18.835 18.4039H16.17V14.2269C16.17 13.2309 16.15 11.9489 14.78 11.9489C13.391 11.9489 13.179 13.0329 13.179 14.1539V18.4039H10.513V9.81494H13.073V10.9849H13.108C13.466 10.3109 14.336 9.59794 15.636 9.59794C18.336 9.59794 18.836 11.3759 18.836 13.6889V18.4039H18.835ZM7.503 8.63994C7.29956 8.6402 7.09806 8.60031 6.91006 8.52255C6.72207 8.44478 6.55127 8.33068 6.40746 8.18678C6.26365 8.04287 6.14965 7.872 6.07201 7.68395C5.99437 7.49591 5.9546 7.29439 5.955 7.09094C5.9552 6.78478 6.04618 6.48554 6.21644 6.23109C6.3867 5.97663 6.62859 5.77838 6.91153 5.66139C7.19447 5.54441 7.50574 5.51396 7.80598 5.57388C8.10622 5.63381 8.38196 5.78142 8.59831 5.99805C8.81466 6.21468 8.96191 6.4906 9.02145 6.79092C9.08099 7.09124 9.05013 7.40247 8.93278 7.68526C8.81543 7.96804 8.61687 8.20968 8.36219 8.37961C8.10751 8.54954 7.80817 8.64014 7.502 8.63994H7.503ZM8.839 18.4039H6.166V9.81494H8.84V18.4039H8.839ZM20.17 3.06494H4.829C4.093 3.06494 3.5 3.64494 3.5 4.36194V19.7679C3.5 20.4849 4.094 21.0649 4.828 21.0649H20.166C20.9 21.0649 21.5 20.4849 21.5 19.7679V4.36194C21.5 3.64494 20.9 3.06494 20.166 3.06494H20.169H20.17Z" fill="white" fill-opacity="0.37"/>
</svg>
