<svg width="96" height="68" viewBox="0 0 96 68" fill="none" xmlns="http://www.w3.org/2000/svg">
<path d="M47.9997 45.1719L52.9497 40.2219L54.3637 41.6359L47.9997 47.9999L41.6357 41.6359L43.0497 40.2219L47.9997 45.1719Z" fill="#5A5A5A"/>
<path d="M47.9997 57.1719L52.9497 52.2219L54.3637 53.6359L47.9997 59.9999L41.6357 53.6359L43.0497 52.2219L47.9997 57.1719Z" fill="#5A5A5A"/>
<path d="M1.824 6.8H3.008V16.976H9.28V18H1.824V6.8ZM18.7089 14.144H11.6689C11.7329 15.0187 12.0689 15.728 12.6769 16.272C13.2849 16.8053 14.0529 17.072 14.9809 17.072C15.5035 17.072 15.9835 16.9813 16.4209 16.8C16.8582 16.608 17.2369 16.3307 17.5569 15.968L18.1969 16.704C17.8235 17.152 17.3542 17.4933 16.7889 17.728C16.2342 17.9627 15.6209 18.08 14.9489 18.08C14.0849 18.08 13.3169 17.8987 12.6449 17.536C11.9835 17.1627 11.4662 16.6507 11.0929 16C10.7195 15.3493 10.5329 14.6133 10.5329 13.792C10.5329 12.9707 10.7089 12.2347 11.0609 11.584C11.4235 10.9333 11.9142 10.4267 12.5329 10.064C13.1622 9.70133 13.8662 9.52 14.6449 9.52C15.4235 9.52 16.1222 9.70133 16.7409 10.064C17.3595 10.4267 17.8449 10.9333 18.1969 11.584C18.5489 12.224 18.7249 12.96 18.7249 13.792L18.7089 14.144ZM14.6449 10.496C13.8342 10.496 13.1515 10.7573 12.5969 11.28C12.0529 11.792 11.7435 12.464 11.6689 13.296H17.6369C17.5622 12.464 17.2475 11.792 16.6929 11.28C16.1489 10.7573 15.4662 10.496 14.6449 10.496ZM24.2468 9.52C25.3454 9.52 26.1881 9.79733 26.7748 10.352C27.3614 10.896 27.6548 11.7067 27.6548 12.784V18H26.5668V16.688C26.3108 17.1253 25.9321 17.4667 25.4308 17.712C24.9401 17.9573 24.3534 18.08 23.6708 18.08C22.7321 18.08 21.9854 17.856 21.4308 17.408C20.8761 16.96 20.5988 16.368 20.5988 15.632C20.5988 14.9173 20.8548 14.3413 21.3668 13.904C21.8894 13.4667 22.7161 13.248 23.8468 13.248H26.5188V12.736C26.5188 12.0107 26.3161 11.4613 25.9108 11.088C25.5054 10.704 24.9134 10.512 24.1348 10.512C23.6014 10.512 23.0894 10.6027 22.5988 10.784C22.1081 10.9547 21.6868 11.1947 21.3348 11.504L20.8228 10.656C21.2494 10.2933 21.7614 10.016 22.3588 9.824C22.9561 9.62133 23.5854 9.52 24.2468 9.52ZM23.8468 17.184C24.4868 17.184 25.0361 17.04 25.4948 16.752C25.9534 16.4533 26.2948 16.0267 26.5188 15.472V14.096H23.8788C22.4388 14.096 21.7188 14.5973 21.7188 15.6C21.7188 16.0907 21.9054 16.48 22.2788 16.768C22.6521 17.0453 23.1748 17.184 23.8468 17.184ZM32.3283 11.232C32.5949 10.6667 32.9896 10.24 33.5123 9.952C34.0456 9.664 34.7016 9.52 35.4803 9.52V10.624L35.2083 10.608C34.3229 10.608 33.6296 10.88 33.1283 11.424C32.6269 11.968 32.3763 12.7307 32.3763 13.712V18H31.2403V9.584H32.3283V11.232ZM42.3251 9.52C43.3811 9.52 44.2185 9.82933 44.8371 10.448C45.4665 11.056 45.7811 11.9467 45.7811 13.12V18H44.6451V13.232C44.6451 12.3573 44.4265 11.6907 43.9891 11.232C43.5518 10.7733 42.9278 10.544 42.1171 10.544C41.2105 10.544 40.4905 10.816 39.9571 11.36C39.4345 11.8933 39.1731 12.6347 39.1731 13.584V18H38.0371V9.584H39.1251V11.136C39.4345 10.624 39.8611 10.2293 40.4051 9.952C40.9598 9.664 41.5998 9.52 42.3251 9.52ZM65.9248 6.8V18H64.7888V9.04L60.3888 16.576H59.8288L55.4288 9.088V18H54.2928V6.8H55.2688L60.1328 15.104L64.9488 6.8H65.9248ZM73.274 18.08C72.4633 18.08 71.7327 17.8987 71.082 17.536C70.4313 17.1627 69.9193 16.6507 69.546 16C69.1727 15.3493 68.986 14.6133 68.986 13.792C68.986 12.9707 69.1727 12.2347 69.546 11.584C69.9193 10.9333 70.4313 10.4267 71.082 10.064C71.7327 9.70133 72.4633 9.52 73.274 9.52C74.0847 9.52 74.8153 9.70133 75.466 10.064C76.1167 10.4267 76.6233 10.9333 76.986 11.584C77.3593 12.2347 77.546 12.9707 77.546 13.792C77.546 14.6133 77.3593 15.3493 76.986 16C76.6233 16.6507 76.1167 17.1627 75.466 17.536C74.8153 17.8987 74.0847 18.08 73.274 18.08ZM73.274 17.072C73.8713 17.072 74.4047 16.9387 74.874 16.672C75.354 16.3947 75.7273 16.0053 75.994 15.504C76.2607 15.0027 76.394 14.432 76.394 13.792C76.394 13.152 76.2607 12.5813 75.994 12.08C75.7273 11.5787 75.354 11.1947 74.874 10.928C74.4047 10.6507 73.8713 10.512 73.274 10.512C72.6767 10.512 72.138 10.6507 71.658 10.928C71.1887 11.1947 70.8153 11.5787 70.538 12.08C70.2713 12.5813 70.138 13.152 70.138 13.792C70.138 14.432 70.2713 15.0027 70.538 15.504C70.8153 16.0053 71.1887 16.3947 71.658 16.672C72.138 16.9387 72.6767 17.072 73.274 17.072ZM81.4533 11.232C81.7199 10.6667 82.1146 10.24 82.6373 9.952C83.1706 9.664 83.8266 9.52 84.6053 9.52V10.624L84.3333 10.608C83.4479 10.608 82.7546 10.88 82.2533 11.424C81.7519 11.968 81.5013 12.7307 81.5013 13.712V18H80.3653V9.584H81.4533V11.232ZM94.412 14.144H87.372C87.436 15.0187 87.772 15.728 88.38 16.272C88.988 16.8053 89.756 17.072 90.684 17.072C91.2067 17.072 91.6867 16.9813 92.124 16.8C92.5613 16.608 92.94 16.3307 93.26 15.968L93.9 16.704C93.5267 17.152 93.0573 17.4933 92.492 17.728C91.9373 17.9627 91.324 18.08 90.652 18.08C89.788 18.08 89.02 17.8987 88.348 17.536C87.6867 17.1627 87.1693 16.6507 86.796 16C86.4227 15.3493 86.236 14.6133 86.236 13.792C86.236 12.9707 86.412 12.2347 86.764 11.584C87.1267 10.9333 87.6173 10.4267 88.236 10.064C88.8653 9.70133 89.5693 9.52 90.348 9.52C91.1267 9.52 91.8253 9.70133 92.444 10.064C93.0627 10.4267 93.548 10.9333 93.9 11.584C94.252 12.224 94.428 12.96 94.428 13.792L94.412 14.144ZM90.348 10.496C89.5373 10.496 88.8547 10.7573 88.3 11.28C87.756 11.792 87.4467 12.464 87.372 13.296H93.34C93.2653 12.464 92.9507 11.792 92.396 11.28C91.852 10.7573 91.1693 10.496 90.348 10.496Z" fill="url(#paint0_linear_590_459)"/>
<defs>
<linearGradient id="paint0_linear_590_459" x1="-2.64183e-07" y1="5.68889" x2="76.5749" y2="50.1532" gradientUnits="userSpaceOnUse">
<stop stop-color="#84B9D1"/>
<stop offset="1" stop-color="#D2B4FC"/>
</linearGradient>
</defs>
</svg>
