<svg width="42" height="42" fill="none" xmlns="http://www.w3.org/2000/svg">
  <path fill-rule="evenodd" clip-rule="evenodd" d="M33.613 11.503a8.1 8.1 0 01-6.08 4.398 7.052 7.052 0 01-1.164.087H14.705c-.41 0-.797-.022-1.164-.087a8.136 8.136 0 01-6.101-4.398l3.234-3.234c.194 2.048 1.919 3.665 4.01 3.665h11.685a4.03 4.03 0 004.01-3.665l3.234 3.234zM20.248 25.625v8.084h-4.075v-8.085a4.04 4.04 0 00-4.031-4.031 4.056 4.056 0 00-3.989 3.406c-.022.194-.043.41-.043.626v.172a4.022 4.022 0 002.48 3.536 4.148 4.148 0 001.552.302 3.99 3.99 0 002.522-.884V33.3a8.126 8.126 0 01-2.522.388 7.293 7.293 0 01-1.553-.151l-.323-.065a8.068 8.068 0 01-6.23-7.654v-.215c0-.367.02-.733.064-1.078a8.12 8.12 0 018.041-7.007c4.075 0 7.46 3.018 8.02 6.92.044.389.087.777.087 1.187zm17.722.215v-.215c0-.367-.022-.733-.087-1.057a8.076 8.076 0 00-8.02-7.028c-4.074 0-7.46 2.997-8.02 6.92a6.718 6.718 0 00-.086 1.165v8.084h4.096v-8.063a4.04 4.04 0 014.032-4.032 4.02 4.02 0 013.988 3.407c.022.194.044.41.044.625v.172a4.023 4.023 0 01-2.48 3.536 4.066 4.066 0 01-1.552.302 3.989 3.989 0 01-2.523-.884v4.57a8.126 8.126 0 002.523.389c.539 0 1.056-.043 1.552-.151l.324-.065c3.492-.84 6.122-3.945 6.209-7.675z" fill="url(#paint0_linear)"/>
  <defs>
    <linearGradient id="paint0_linear" x1="4.035" y1="14.305" x2="47.58" y2="30.01" gradientUnits="userSpaceOnUse">
      <stop stop-color="#84B9D1"/>
      <stop offset="1" stop-color="#66023C"/>
    </linearGradient>
  </defs>
</svg>
