<svg width="229" height="55" viewBox="0 0 229 55" fill="none" xmlns="http://www.w3.org/2000/svg">
<path fill-rule="evenodd" clip-rule="evenodd" d="M40.6169 7.51246H11.5213C11.2453 7.51319 10.9728 7.44941 10.7257 7.32622C10.4787 7.20302 10.2638 7.02381 10.0982 6.80287C9.93264 6.58193 9.82098 6.32537 9.77212 6.05364C9.72326 5.78191 9.73855 5.50252 9.81678 5.23775L10.9984 1.26144C11.1083 0.896498 11.3329 0.5767 11.6389 0.349474C11.9449 0.122249 12.316 -0.000304954 12.6971 5.69861e-07H39.4057C39.7868 -0.000304954 40.1579 0.122249 40.4639 0.349474C40.7699 0.5767 40.9945 0.896498 41.1044 1.26144L42.3126 5.23775C42.3906 5.5018 42.4061 5.7804 42.3577 6.05146C42.3093 6.32251 42.1984 6.57857 42.0339 6.79932C41.8693 7.02008 41.6556 7.19945 41.4096 7.32324C41.1637 7.44702 40.8923 7.51181 40.6169 7.51246ZM50.2295 11.1641H2.38973C2.09118 11.1644 1.79756 11.2401 1.53609 11.3842C1.27463 11.5283 1.0538 11.7361 0.89409 11.9883C0.734381 12.2406 0.640974 12.5291 0.622528 12.827C0.604082 13.125 0.661194 13.4228 0.788574 13.6928L2.67333 17.6691C2.817 17.9722 3.04372 18.2283 3.32715 18.4077C3.61058 18.5871 3.93907 18.6823 4.27449 18.6824H48.3477C48.6831 18.6823 49.0116 18.5871 49.2951 18.4077C49.5785 18.2283 49.8052 17.9722 49.9489 17.6691L51.8307 13.6928C51.9581 13.4228 52.0152 13.125 51.9967 12.827C51.9783 12.5291 51.8849 12.2406 51.7252 11.9883C51.5655 11.7361 51.3446 11.5283 51.0832 11.3842C50.8217 11.2401 50.5281 11.1644 50.2295 11.1641ZM37.2891 43.4511H43.2122C43.4609 43.4524 43.7071 43.4013 43.9348 43.3012C44.1625 43.2011 44.3666 43.0542 44.5338 42.87C44.701 42.6858 44.8275 42.4685 44.9052 42.2322C44.9829 41.9959 45.0099 41.7459 44.9847 41.4984L43.1531 23.8355C43.1076 23.3978 42.901 22.9927 42.5734 22.6989C42.2458 22.4052 41.8206 22.2438 41.3806 22.2461H35.4575C35.2087 22.2448 34.9625 22.2959 34.7348 22.396C34.5071 22.4962 34.303 22.6431 34.1358 22.8273C33.9687 23.0115 33.8421 23.2288 33.7644 23.4651C33.6867 23.7014 33.6597 23.9514 33.685 24.1988L35.5166 41.8618C35.562 42.2995 35.7687 42.7046 36.0963 42.9983C36.4239 43.2921 36.849 43.4535 37.2891 43.4511ZM16.1433 41.8696L17.9719 24.1977C17.9949 23.9532 17.9667 23.7065 17.8893 23.4734C17.8118 23.2403 17.6868 23.0258 17.5221 22.8436C17.3573 22.6614 17.1566 22.5154 16.9324 22.4149C16.7083 22.3144 16.4657 22.2616 16.2201 22.2598H10.2881C9.84812 22.2574 9.42296 22.4188 9.09535 22.7126C8.76774 23.0063 8.5611 23.4115 8.51564 23.8491L6.6752 41.5062C6.64991 41.7537 6.67698 42.0037 6.75466 42.24C6.83234 42.4763 6.9589 42.6936 7.12608 42.8778C7.29326 43.0619 7.49734 43.2089 7.72505 43.309C7.95275 43.4091 8.19896 43.4602 8.4477 43.4589H14.3708C14.8108 43.4613 15.236 43.2999 15.5636 43.0061C15.8912 42.7123 16.0978 42.3072 16.1433 41.8696ZM49.8891 54.1177H1.77164C1.46827 54.1176 1.17001 54.0395 0.905419 53.8911C0.640826 53.7427 0.418739 53.5289 0.260439 53.2701C0.102138 53.0113 0.0129152 52.7162 0.0012999 52.4131C-0.0103154 52.1099 0.0560697 51.8089 0.194103 51.5387L1.9666 48.0676C2.11489 47.7774 2.34031 47.5337 2.61809 47.3632C2.89588 47.1928 3.21528 47.1023 3.54118 47.1016H48.1107C48.4392 47.1006 48.7616 47.191 49.0417 47.3627C49.3218 47.5343 49.5487 47.7804 49.6971 48.0735L51.4696 51.5446C51.6064 51.8148 51.6716 52.1155 51.6592 52.418C51.6468 52.7206 51.557 53.0149 51.3985 53.2729C51.2401 53.5309 51.0181 53.744 50.7539 53.8919C50.4896 54.0398 50.1919 54.1176 49.8891 54.1177ZM21.9301 43.4492H29.7557C30.0035 43.4511 30.2491 43.401 30.4764 43.3022C30.7037 43.2033 30.9077 43.0579 31.0753 42.8752C31.2429 42.6926 31.3703 42.4769 31.4493 42.2419C31.5284 42.007 31.5572 41.7581 31.5341 41.5113L29.9063 23.8483C29.8657 23.4069 29.6612 22.9968 29.3331 22.6987C29.005 22.4007 28.5771 22.2364 28.1338 22.2383H23.5578C23.1146 22.2364 22.6867 22.4007 22.3586 22.6987C22.0305 22.9968 21.826 23.4069 21.7853 23.8483L20.1576 41.5172C20.1354 41.763 20.1647 42.0108 20.2438 42.2446C20.3229 42.4784 20.4499 42.6931 20.6168 42.875C20.7836 43.0569 20.9867 43.2019 21.2128 43.3008C21.439 43.3997 21.6833 43.4502 21.9301 43.4492Z" fill="#808080"/>
<path d="M89.3457 25.1142H76.5932L74.1604 31H67.6469L79.8892 3.53314H86.1674L98.449 31H91.7784L89.3457 25.1142ZM87.3445 20.2879L82.9891 9.77204L78.6336 20.2879H87.3445ZM119.475 16.8349H125.282V27.9786C123.791 29.1035 122.065 29.9667 120.103 30.5684C118.141 31.17 116.166 31.4709 114.178 31.4709C111.327 31.4709 108.763 30.8692 106.487 29.6659C104.211 28.4364 102.42 26.7492 101.112 24.6041C99.8299 22.433 99.189 19.9871 99.189 17.2666C99.189 14.546 99.8299 12.1133 101.112 9.96824C102.42 7.79705 104.225 6.1098 106.527 4.90649C108.829 3.67702 111.418 3.06228 114.296 3.06228C116.702 3.06228 118.887 3.46775 120.849 4.27867C122.81 5.0896 124.458 6.26675 125.793 7.81013L121.712 11.577C119.75 9.51045 117.383 8.47718 114.61 8.47718C112.857 8.47718 111.301 8.8434 109.94 9.57585C108.58 10.3083 107.521 11.3416 106.762 12.6757C106.003 14.0098 105.624 15.5401 105.624 17.2666C105.624 18.9669 106.003 20.4841 106.762 21.8182C107.521 23.1523 108.567 24.1987 109.901 24.9573C111.261 25.6897 112.805 26.056 114.531 26.056C116.362 26.056 118.01 25.6636 119.475 24.8788V16.8349ZM144.489 31.4709C141.638 31.4709 139.061 30.8561 136.759 29.6267C134.483 28.3972 132.691 26.7099 131.383 24.5649C130.102 22.3937 129.461 19.9609 129.461 17.2666C129.461 14.5722 130.102 12.1525 131.383 10.0075C132.691 7.83628 134.483 6.13595 136.759 4.90649C139.061 3.67702 141.638 3.06228 144.489 3.06228C147.34 3.06228 149.904 3.67702 152.18 4.90649C154.456 6.13595 156.247 7.83628 157.555 10.0075C158.863 12.1525 159.517 14.5722 159.517 17.2666C159.517 19.9609 158.863 22.3937 157.555 24.5649C156.247 26.7099 154.456 28.3972 152.18 29.6267C149.904 30.8561 147.34 31.4709 144.489 31.4709ZM144.489 26.056C146.111 26.056 147.576 25.6897 148.884 24.9573C150.192 24.1987 151.212 23.1523 151.944 21.8182C152.703 20.4841 153.082 18.9669 153.082 17.2666C153.082 15.5662 152.703 14.049 151.944 12.7149C151.212 11.3808 150.192 10.3475 148.884 9.61509C147.576 8.85648 146.111 8.47718 144.489 8.47718C142.867 8.47718 141.402 8.85648 140.094 9.61509C138.786 10.3475 137.753 11.3808 136.995 12.7149C136.262 14.049 135.896 15.5662 135.896 17.2666C135.896 18.9669 136.262 20.4841 136.995 21.8182C137.753 23.1523 138.786 24.1987 140.094 24.9573C141.402 25.6897 142.867 26.056 144.489 26.056ZM181.795 31L176.498 23.3485H176.184H170.651V31H164.295V3.53314H176.184C178.617 3.53314 180.722 3.93861 182.501 4.74953C184.306 5.56046 185.693 6.71145 186.66 8.20251C187.628 9.69357 188.112 11.4593 188.112 13.4997C188.112 15.5401 187.615 17.3058 186.621 18.7969C185.653 20.2618 184.267 21.3866 182.462 22.1714L188.622 31H181.795ZM181.677 13.4997C181.677 11.9563 181.18 10.7792 180.186 9.96824C179.192 9.13115 177.74 8.71261 175.831 8.71261H170.651V18.2868H175.831C177.74 18.2868 179.192 17.8682 180.186 17.0311C181.18 16.1941 181.677 15.0169 181.677 13.4997ZM211.238 25.1142H198.485L196.052 31H189.539L201.781 3.53314H208.059L220.341 31H213.67L211.238 25.1142ZM209.236 20.2879L204.881 9.77204L200.525 20.2879H209.236ZM73.0182 51.1299C72.1629 51.1299 71.3346 51 70.5334 50.7402C69.7431 50.4695 69.1206 50.123 68.6658 49.7008L69.2667 48.4341C69.6998 48.8238 70.2519 49.1432 70.9232 49.3922C71.6053 49.6304 72.3036 49.7495 73.0182 49.7495C73.9601 49.7495 74.6638 49.5925 75.1294 49.2786C75.5949 48.9538 75.8277 48.5261 75.8277 47.9956C75.8277 47.6058 75.6978 47.2919 75.4379 47.0537C75.1889 46.8047 74.8749 46.6152 74.496 46.4853C74.1279 46.3554 73.6028 46.2092 72.9207 46.0468C72.0654 45.8411 71.3725 45.6354 70.842 45.4297C70.3223 45.224 69.873 44.91 69.4941 44.4878C69.126 44.0547 68.9419 43.4755 68.9419 42.7501C68.9419 42.1438 69.0989 41.597 69.4129 41.1098C69.7377 40.6226 70.2249 40.2329 70.8745 39.9406C71.5241 39.6482 72.3307 39.5021 73.2942 39.5021C73.9655 39.5021 74.6259 39.5887 75.2755 39.7619C75.9251 39.9351 76.4827 40.1842 76.9482 40.509L76.4123 41.8082C75.9359 41.505 75.4271 41.2777 74.8858 41.1261C74.3444 40.9637 73.8139 40.8825 73.2942 40.8825C72.374 40.8825 71.6811 41.0503 71.2155 41.3859C70.7608 41.7215 70.5334 42.1546 70.5334 42.6851C70.5334 43.0749 70.6634 43.3943 70.9232 43.6433C71.183 43.8815 71.5024 44.0709 71.8814 44.2117C72.2711 44.3416 72.7962 44.4823 73.4566 44.6339C74.3119 44.8396 74.9994 45.0453 75.5191 45.251C76.0388 45.4567 76.4827 45.7707 76.8508 46.193C77.2297 46.6152 77.4192 47.1836 77.4192 47.8982C77.4192 48.4936 77.2568 49.0404 76.932 49.5384C76.6072 50.0256 76.1146 50.4154 75.4542 50.7077C74.7937 50.9892 73.9817 51.1299 73.0182 51.1299ZM107.903 52.0394C107.535 52.4724 107.107 52.8026 106.62 53.03C106.133 53.2574 105.608 53.371 105.045 53.371C104.33 53.371 103.659 53.1978 103.031 52.8514C102.414 52.5157 101.705 51.9365 100.904 51.1137C99.8319 51.0595 98.8629 50.7726 97.9968 50.253C97.1415 49.7333 96.4702 49.0458 95.983 48.1905C95.5067 47.3243 95.2685 46.3662 95.2685 45.316C95.2685 44.2225 95.5283 43.2319 96.048 42.3441C96.5785 41.4563 97.3039 40.7634 98.2242 40.2654C99.1444 39.7565 100.178 39.5021 101.326 39.5021C102.463 39.5021 103.491 39.7565 104.412 40.2654C105.332 40.7634 106.052 41.4563 106.572 42.3441C107.091 43.221 107.351 44.2117 107.351 45.316C107.351 46.2471 107.162 47.1024 106.783 47.8819C106.415 48.6614 105.889 49.3165 105.207 49.847C104.536 50.3775 103.762 50.7456 102.885 50.9513C103.264 51.3519 103.627 51.6388 103.973 51.812C104.33 51.9961 104.693 52.0881 105.061 52.0881C105.862 52.0881 106.555 51.7633 107.14 51.1137L107.903 52.0394ZM96.8925 45.316C96.8925 46.1388 97.0819 46.8859 97.4609 47.5571C97.8506 48.2175 98.3811 48.7372 99.0524 49.1162C99.7345 49.4951 100.492 49.6846 101.326 49.6846C102.149 49.6846 102.896 49.4951 103.567 49.1162C104.238 48.7372 104.763 48.2175 105.142 47.5571C105.532 46.8859 105.727 46.1388 105.727 45.316C105.727 44.4932 105.532 43.7515 105.142 43.0911C104.763 42.4199 104.238 41.8948 103.567 41.5158C102.896 41.1369 102.149 40.9474 101.326 40.9474C100.492 40.9474 99.7345 41.1369 99.0524 41.5158C98.3811 41.8948 97.8506 42.4199 97.4609 43.0911C97.0819 43.7515 96.8925 44.4932 96.8925 45.316ZM130.945 51.1299C129.429 51.1299 128.249 50.6969 127.405 49.8307C126.56 48.9646 126.138 47.7195 126.138 46.0955V39.632H127.762V46.0306C127.762 48.4666 128.829 49.6846 130.961 49.6846C132.001 49.6846 132.797 49.3868 133.349 48.7914C133.901 48.1851 134.177 47.2648 134.177 46.0306V39.632H135.752V46.0955C135.752 47.7303 135.33 48.9808 134.486 49.847C133.641 50.7023 132.461 51.1299 130.945 51.1299ZM162.489 48.158H156.448L155.198 51H153.525L158.673 39.632H160.281L165.445 51H163.74L162.489 48.158ZM161.921 46.8588L159.469 41.2885L157.016 46.8588H161.921ZM191.143 51L188.691 47.5084C188.388 47.5301 188.15 47.5409 187.977 47.5409H185.167V51H183.543V39.632H187.977C189.449 39.632 190.608 39.9839 191.452 40.6876C192.297 41.3913 192.719 42.3603 192.719 43.5946C192.719 44.4715 192.502 45.2186 192.069 45.8357C191.636 46.4528 191.019 46.9021 190.218 47.1836L192.914 51H191.143ZM187.928 46.1605C188.956 46.1605 189.741 45.9385 190.283 45.4946C190.824 45.0507 191.095 44.4174 191.095 43.5946C191.095 42.7717 190.824 42.1438 190.283 41.7107C189.741 41.2668 188.956 41.0449 187.928 41.0449H185.167V46.1605H187.928ZM219.995 49.5871V51H211.745V39.632H219.767V41.0449H213.369V44.5365H219.069V45.9169H213.369V49.5871H219.995Z" fill="#808080"/>
</svg>
