<svg width="76" height="50" viewBox="0 0 76 50" fill="none" xmlns="http://www.w3.org/2000/svg">
<g clip-path="url(#clip0_609_421)">
<path fill-rule="evenodd" clip-rule="evenodd" d="M45.005 3.05089H31.1878L32.11 0H44.0841L45.005 3.05089ZM49 4.53258H27.1941L28.6479 7.58348H47.5462L49 4.53258ZM33.9797 17.6712L34.8766 9.06637H31.0022L30.1065 17.6712H33.9797ZM42.0263 17.6712H45.8947L44.999 9.06637H41.1282L42.0263 17.6712ZM49 22H27L28.4671 19.1529H47.5341L49 22ZM35.6119 17.6712H40.3929L39.596 9.06637H36.4088L35.6119 17.6712Z" fill="url(#paint0_linear_609_421)"/>
</g>
<path d="M11.5826 45.8715H4.82356L3.49106 49H0.90332L6.98644 35.4819H9.45832L15.5608 49H12.9344L11.5826 45.8715ZM10.7522 43.9018L8.20307 37.9924L5.67326 43.9018H10.7522Z" fill="white" fill-opacity="0.87"/>
<path d="M26.3222 42.0865H28.6976V47.4744C28.0023 48.028 27.1913 48.4528 26.2643 48.7489C25.3374 49.045 24.3847 49.1931 23.4062 49.1931C22.0286 49.1931 20.7863 48.897 19.6791 48.3048C18.5719 47.6997 17.7029 46.8693 17.072 45.8136C16.4412 44.7579 16.1258 43.567 16.1258 42.241C16.1258 40.9149 16.4412 39.724 17.072 38.6683C17.7029 37.6126 18.5719 36.7887 19.6791 36.1965C20.7992 35.5914 22.0544 35.2888 23.4448 35.2888C24.5778 35.2888 25.6077 35.4755 26.5347 35.8489C27.4616 36.2222 28.2405 36.7694 28.8714 37.4903L27.2878 39.0353C26.2579 38.0053 25.0155 37.4903 23.5607 37.4903C22.608 37.4903 21.7583 37.6899 21.0116 38.089C20.2777 38.4881 19.6984 39.0481 19.2735 39.7691C18.8616 40.4901 18.6556 41.314 18.6556 42.241C18.6556 43.1422 18.8616 43.9532 19.2735 44.6742C19.6984 45.3952 20.2777 45.9616 21.0116 46.3736C21.7583 46.7856 22.6016 46.9916 23.5414 46.9916C24.5971 46.9916 25.524 46.7599 26.3222 46.2964V42.0865Z" fill="white" fill-opacity="0.87"/>
<path d="M38.3236 49.1931C36.946 49.1931 35.7037 48.897 34.5965 48.3048C33.4893 47.6997 32.6203 46.8693 31.9894 45.8136C31.3586 44.745 31.0431 43.5541 31.0431 42.241C31.0431 40.9278 31.3586 39.7433 31.9894 38.6876C32.6203 37.6191 33.4893 36.7887 34.5965 36.1965C35.7037 35.5914 36.946 35.2888 38.3236 35.2888C39.7011 35.2888 40.9435 35.5914 42.0507 36.1965C43.1579 36.7887 44.0269 37.6126 44.6578 38.6683C45.2886 39.724 45.604 40.9149 45.604 42.241C45.604 43.567 45.2886 44.7579 44.6578 45.8136C44.0269 46.8693 43.1579 47.6997 42.0507 48.3048C40.9435 48.897 39.7011 49.1931 38.3236 49.1931ZM38.3236 46.9916C39.2248 46.9916 40.0359 46.792 40.7568 46.3929C41.4778 45.981 42.0443 45.4145 42.4562 44.6935C42.8682 43.9597 43.0742 43.1422 43.0742 42.241C43.0742 41.3398 42.8682 40.5287 42.4562 39.8077C42.0443 39.0739 41.4778 38.5074 40.7568 38.1083C40.0359 37.6963 39.2248 37.4903 38.3236 37.4903C37.4224 37.4903 36.6113 37.6963 35.8903 38.1083C35.1694 38.5074 34.6029 39.0739 34.1909 39.8077C33.7789 40.5287 33.573 41.3398 33.573 42.241C33.573 43.1422 33.7789 43.9597 34.1909 44.6935C34.6029 45.4145 35.1694 45.981 35.8903 46.3929C36.6113 46.792 37.4224 46.9916 38.3236 46.9916Z" fill="white" fill-opacity="0.87"/>
<path d="M57.1098 49L54.3482 45.0411C54.2323 45.054 54.0585 45.0604 53.8268 45.0604H50.7756V49H48.2651V35.4819H53.8268C54.9984 35.4819 56.0154 35.675 56.878 36.0613C57.7535 36.4475 58.4229 37.0011 58.8864 37.7221C59.3499 38.443 59.5816 39.2992 59.5816 40.2905C59.5816 41.3076 59.3306 42.183 58.8285 42.9169C58.3393 43.6507 57.6312 44.1979 56.7042 44.5583L59.8134 49H57.1098ZM57.0518 40.2905C57.0518 39.4279 56.7686 38.7649 56.2021 38.3014C55.6357 37.8379 54.8053 37.6062 53.7109 37.6062H50.7756V42.9941H53.7109C54.8053 42.9941 55.6357 42.7624 56.2021 42.2989C56.7686 41.8225 57.0518 41.1531 57.0518 40.2905Z" fill="white" fill-opacity="0.87"/>
<path d="M71.1578 45.8715H64.3988L63.0663 49H60.4786L66.5617 35.4819H69.0336L75.136 49H72.5096L71.1578 45.8715ZM70.3274 43.9018L67.7783 37.9924L65.2485 43.9018H70.3274Z" fill="white" fill-opacity="0.87"/>
<defs>
<linearGradient id="paint0_linear_609_421" x1="27" y1="5.21482" x2="49.981" y2="8.55087" gradientUnits="userSpaceOnUse">
<stop stop-color="#84B9D1"/>
<stop offset="1" stop-color="#D2B4FC"/>
</linearGradient>
<clipPath id="clip0_609_421">
<rect width="22" height="22" fill="white" transform="translate(27)"/>
</clipPath>
</defs>
</svg>
