<svg width="155" height="64" viewBox="0 0 155 64" fill="none" xmlns="http://www.w3.org/2000/svg">
<g clip-path="url(#clip0_219_211)">
<path fill-rule="evenodd" clip-rule="evenodd" d="M40.0148 20.4449H22.8132C22.6499 20.4453 22.4889 20.4076 22.3428 20.3348C22.1967 20.2619 22.0697 20.156 21.9718 20.0253C21.8739 19.8947 21.8079 19.743 21.779 19.5824C21.7501 19.4217 21.7592 19.2566 21.8054 19.1L22.504 16.7492C22.569 16.5334 22.7018 16.3444 22.8827 16.21C23.0636 16.0757 23.283 16.0032 23.5083 16.0034H39.2987C39.524 16.0032 39.7434 16.0757 39.9243 16.21C40.1052 16.3444 40.238 16.5334 40.303 16.7492L41.0173 19.1C41.0634 19.2561 41.0725 19.4209 41.0439 19.5811C41.0153 19.7414 40.9498 19.8927 40.8525 20.0232C40.7552 20.1538 40.6288 20.2598 40.4834 20.333C40.338 20.4062 40.1776 20.4445 40.0148 20.4449ZM45.698 22.6036H17.4146C17.2381 22.6038 17.0645 22.6485 16.9099 22.7337C16.7554 22.8189 16.6248 22.9418 16.5304 23.0909C16.436 23.24 16.3807 23.4106 16.3698 23.5867C16.3589 23.7629 16.3927 23.939 16.468 24.0986L17.5823 26.4494C17.6672 26.6286 17.8013 26.78 17.9688 26.8861C18.1364 26.9921 18.3306 27.0485 18.5289 27.0485H44.5855C44.7838 27.0485 44.978 26.9921 45.1455 26.8861C45.3131 26.78 45.4471 26.6286 45.5321 26.4494L46.6446 24.0986C46.7199 23.939 46.7537 23.7629 46.7428 23.5867C46.7319 23.4106 46.6767 23.24 46.5822 23.0909C46.4878 22.9418 46.3573 22.8189 46.2027 22.7337C46.0481 22.6485 45.8745 22.6038 45.698 22.6036ZM38.0482 41.6914H41.55C41.697 41.6922 41.8426 41.662 41.9772 41.6028C42.1119 41.5436 42.2325 41.4567 42.3314 41.3478C42.4302 41.2389 42.505 41.1105 42.5509 40.9708C42.5969 40.8311 42.6129 40.6833 42.5979 40.537L41.5151 30.0944C41.4882 29.8357 41.366 29.5962 41.1723 29.4225C40.9786 29.2488 40.7273 29.1534 40.4671 29.1548H36.9653C36.8183 29.154 36.6727 29.1842 36.5381 29.2434C36.4035 29.3026 36.2828 29.3895 36.184 29.4984C36.0851 29.6073 36.0103 29.7357 35.9644 29.8754C35.9185 30.0152 35.9025 30.163 35.9174 30.3093L37.0003 40.7518C37.0271 41.0105 37.1493 41.25 37.343 41.4237C37.5367 41.5974 37.788 41.6928 38.0482 41.6914ZM25.5465 40.757L26.6276 30.3093C26.6411 30.1647 26.6245 30.0189 26.5787 29.881C26.5329 29.7432 26.459 29.6164 26.3616 29.5087C26.2642 29.401 26.1455 29.3147 26.013 29.2553C25.8805 29.1958 25.7371 29.1646 25.5919 29.1635H22.0849C21.8247 29.1622 21.5733 29.2576 21.3797 29.4312C21.186 29.6049 21.0638 29.8444 21.0369 30.1032L19.9488 40.5422C19.9339 40.6885 19.9499 40.8363 19.9958 40.976C20.0417 41.1157 20.1166 41.2442 20.2154 41.3531C20.3142 41.462 20.4349 41.5489 20.5695 41.6081C20.7041 41.6673 20.8497 41.6974 20.9968 41.6967H24.4986C24.7587 41.6981 25.0101 41.6027 25.2038 41.429C25.3974 41.2553 25.5196 41.0158 25.5465 40.757ZM45.4972 47.9982H17.0496C16.8703 47.9981 16.6939 47.952 16.5375 47.8642C16.3811 47.7765 16.2498 47.6501 16.1562 47.497C16.0626 47.344 16.0098 47.1696 16.003 46.9904C15.9961 46.8111 16.0353 46.6332 16.117 46.4734L17.1649 44.4213C17.2525 44.2497 17.3858 44.1056 17.55 44.0049C17.7143 43.9041 17.9031 43.8506 18.0958 43.8502H44.4457C44.64 43.8496 44.8305 43.903 44.9961 44.0045C45.1618 44.106 45.2959 44.2515 45.3836 44.4248L46.4315 46.4769C46.5124 46.6367 46.551 46.8144 46.5436 46.9933C46.5363 47.1722 46.4832 47.3462 46.3895 47.4987C46.2958 47.6513 46.1646 47.7772 46.0084 47.8647C45.8522 47.9521 45.6762 47.9981 45.4972 47.9982ZM28.9662 41.6914H33.5928C33.7393 41.6925 33.8845 41.6629 34.0189 41.6045C34.1532 41.546 34.2739 41.46 34.3729 41.3521C34.472 41.2441 34.5474 41.1165 34.5941 40.9776C34.6408 40.8387 34.6579 40.6916 34.6442 40.5457L33.6819 30.1032C33.6578 29.8422 33.5369 29.5997 33.3429 29.4235C33.149 29.2473 32.896 29.1502 32.6339 29.1513H29.9286C29.6665 29.1502 29.4135 29.2473 29.2196 29.4235C29.0256 29.5997 28.9047 29.8422 28.8806 30.1032L27.9183 40.5492C27.9052 40.6945 27.9225 40.841 27.9693 40.9792C28.016 41.1175 28.0911 41.2444 28.1898 41.3519C28.2884 41.4595 28.4084 41.5452 28.5422 41.6037C28.6759 41.6621 28.8203 41.692 28.9662 41.6914Z" fill="url(#paint0_linear_219_211)"/>
</g>
<path d="M67.1667 44.7711C66.6467 44.7711 66.1467 44.6878 65.6667 44.5211C65.1933 44.3545 64.8267 44.1345 64.5667 43.8611L64.8567 43.2911C65.11 43.5445 65.4467 43.7511 65.8667 43.9111C66.2867 44.0645 66.72 44.1411 67.1667 44.1411C67.7933 44.1411 68.2633 44.0278 68.5767 43.8011C68.89 43.5678 69.0467 43.2678 69.0467 42.9011C69.0467 42.6211 68.96 42.3978 68.7867 42.2311C68.62 42.0645 68.4133 41.9378 68.1667 41.8511C67.92 41.7578 67.5767 41.6578 67.1367 41.5511C66.61 41.4178 66.19 41.2911 65.8767 41.1711C65.5633 41.0445 65.2933 40.8545 65.0667 40.6011C64.8467 40.3478 64.7367 40.0045 64.7367 39.5711C64.7367 39.2178 64.83 38.8978 65.0167 38.6111C65.2033 38.3178 65.49 38.0845 65.8767 37.9111C66.2633 37.7378 66.7433 37.6511 67.3167 37.6511C67.7167 37.6511 68.1067 37.7078 68.4867 37.8211C68.8733 37.9278 69.2067 38.0778 69.4867 38.2711L69.2367 38.8611C68.9433 38.6678 68.63 38.5245 68.2967 38.4311C67.9633 38.3311 67.6367 38.2811 67.3167 38.2811C66.7033 38.2811 66.24 38.4011 65.9267 38.6411C65.62 38.8745 65.4667 39.1778 65.4667 39.5511C65.4667 39.8311 65.55 40.0578 65.7167 40.2311C65.89 40.3978 66.1033 40.5278 66.3567 40.6211C66.6167 40.7078 66.9633 40.8045 67.3967 40.9111C67.91 41.0378 68.3233 41.1645 68.6367 41.2911C68.9567 41.4111 69.2267 41.5978 69.4467 41.8511C69.6667 42.0978 69.7767 42.4345 69.7767 42.8611C69.7767 43.2145 69.68 43.5378 69.4867 43.8311C69.3 44.1178 69.01 44.3478 68.6167 44.5211C68.2233 44.6878 67.74 44.7711 67.1667 44.7711Z" fill="white" fill-opacity="0.6"/>
<path d="M84.589 45.3011C84.3757 45.5611 84.1223 45.7578 83.829 45.8911C83.5423 46.0311 83.229 46.1011 82.889 46.1011C82.4757 46.1011 82.0823 45.9978 81.709 45.7911C81.3423 45.5911 80.929 45.2511 80.469 44.7711C79.7957 44.7511 79.189 44.5845 78.649 44.2711C78.109 43.9578 77.6857 43.5345 77.379 43.0011C77.0723 42.4678 76.919 41.8711 76.919 41.2111C76.919 40.5378 77.0757 39.9311 77.389 39.3911C77.709 38.8511 78.149 38.4278 78.709 38.1211C79.2757 37.8078 79.9057 37.6511 80.599 37.6511C81.2923 37.6511 81.9157 37.8045 82.469 38.1111C83.029 38.4178 83.469 38.8445 83.789 39.3911C84.109 39.9311 84.269 40.5378 84.269 41.2111C84.269 41.7978 84.1457 42.3378 83.899 42.8311C83.659 43.3178 83.319 43.7245 82.879 44.0511C82.4457 44.3778 81.9457 44.5945 81.379 44.7011C81.8923 45.2411 82.399 45.5111 82.899 45.5111C83.419 45.5111 83.8623 45.2978 84.229 44.8711L84.589 45.3011ZM77.649 41.2111C77.649 41.7578 77.7757 42.2511 78.029 42.6911C78.289 43.1311 78.6423 43.4778 79.089 43.7311C79.5423 43.9845 80.0457 44.1111 80.599 44.1111C81.1523 44.1111 81.6523 43.9845 82.099 43.7311C82.5457 43.4778 82.8957 43.1311 83.149 42.6911C83.4023 42.2511 83.529 41.7578 83.529 41.2111C83.529 40.6645 83.4023 40.1711 83.149 39.7311C82.8957 39.2911 82.5457 38.9445 82.099 38.6911C81.6523 38.4378 81.1523 38.3111 80.599 38.3111C80.0457 38.3111 79.5423 38.4378 79.089 38.6911C78.6423 38.9445 78.289 39.2911 78.029 39.7311C77.7757 40.1711 77.649 40.6645 77.649 41.2111Z" fill="white" fill-opacity="0.6"/>
<path d="M94.8977 44.7711C93.991 44.7711 93.2843 44.5111 92.7777 43.9911C92.271 43.4711 92.0177 42.7145 92.0177 41.7211V37.7111H92.7577V41.6911C92.7577 42.5045 92.941 43.1111 93.3077 43.5111C93.6743 43.9111 94.2043 44.1111 94.8977 44.1111C95.5977 44.1111 96.131 43.9111 96.4977 43.5111C96.8643 43.1111 97.0477 42.5045 97.0477 41.6911V37.7111H97.7677V41.7211C97.7677 42.7145 97.5143 43.4711 97.0077 43.9911C96.5077 44.5111 95.8043 44.7711 94.8977 44.7711Z" fill="white" fill-opacity="0.6"/>
<path d="M110.391 42.8411H106.491L105.651 44.7111H104.881L108.081 37.7111H108.811L112.011 44.7111H111.231L110.391 42.8411ZM110.121 42.2411L108.441 38.4811L106.761 42.2411H110.121Z" fill="white" fill-opacity="0.6"/>
<path d="M124.099 44.7111L122.499 42.4611C122.319 42.4811 122.132 42.4911 121.939 42.4911H120.059V44.7111H119.319V37.7111H121.939C122.832 37.7111 123.532 37.9245 124.039 38.3511C124.546 38.7778 124.799 39.3645 124.799 40.1111C124.799 40.6578 124.659 41.1211 124.379 41.5011C124.106 41.8745 123.712 42.1445 123.199 42.3111L124.909 44.7111H124.099ZM121.919 41.8611C122.612 41.8611 123.142 41.7078 123.509 41.4011C123.876 41.0945 124.059 40.6645 124.059 40.1111C124.059 39.5445 123.876 39.1111 123.509 38.8111C123.142 38.5045 122.612 38.3511 121.919 38.3511H120.059V41.8611H121.919Z" fill="white" fill-opacity="0.6"/>
<path d="M137.646 44.0711V44.7111H132.696V37.7111H137.496V38.3511H133.436V40.8411H137.056V41.4711H133.436V44.0711H137.646Z" fill="white" fill-opacity="0.6"/>
<path d="M74.6793 28.5827H67.9202L66.5877 31.7112H64L70.0831 18.1931H72.555L78.6574 31.7112H76.0311L74.6793 28.5827ZM73.8489 26.6129L71.2997 20.7036L68.7699 26.6129H73.8489Z" fill="white" fill-opacity="0.87"/>
<path d="M89.4189 24.7977H91.7942V30.1856C91.099 30.7392 90.2879 31.164 89.361 31.4601C88.434 31.7562 87.4813 31.9043 86.5029 31.9043C85.1253 31.9043 83.883 31.6082 82.7758 31.016C81.6686 30.4109 80.7996 29.5805 80.1687 28.5248C79.5379 27.4691 79.2224 26.2782 79.2224 24.9521C79.2224 23.6261 79.5379 22.4352 80.1687 21.3795C80.7996 20.3238 81.6686 19.4999 82.7758 18.9076C83.8958 18.3025 85.1511 18 86.5415 18C87.6744 18 88.7044 18.1867 89.6313 18.56C90.5583 18.9334 91.3372 19.4805 91.968 20.2015L90.3845 21.7464C89.3545 20.7165 88.1122 20.2015 86.6574 20.2015C85.7047 20.2015 84.855 20.4011 84.1083 20.8002C83.3744 21.1993 82.7951 21.7593 82.3702 22.4803C81.9582 23.2012 81.7523 24.0252 81.7523 24.9521C81.7523 25.8533 81.9582 26.6644 82.3702 27.3854C82.7951 28.1064 83.3744 28.6728 84.1083 29.0848C84.855 29.4968 85.6982 29.7028 86.6381 29.7028C87.6938 29.7028 88.6207 29.471 89.4189 29.0076V24.7977Z" fill="white" fill-opacity="0.87"/>
<path d="M101.42 31.9043C100.043 31.9043 98.8003 31.6082 97.6931 31.016C96.586 30.4109 95.7169 29.5805 95.0861 28.5248C94.4553 27.4562 94.1398 26.2653 94.1398 24.9521C94.1398 23.639 94.4553 22.4545 95.0861 21.3988C95.7169 20.3303 96.586 19.4999 97.6931 18.9076C98.8003 18.3025 100.043 18 101.42 18C102.798 18 104.04 18.3025 105.147 18.9076C106.255 19.4999 107.124 20.3238 107.754 21.3795C108.385 22.4352 108.701 23.6261 108.701 24.9521C108.701 26.2782 108.385 27.4691 107.754 28.5248C107.124 29.5805 106.255 30.4109 105.147 31.016C104.04 31.6082 102.798 31.9043 101.42 31.9043ZM101.42 29.7028C102.321 29.7028 103.133 29.5032 103.854 29.1041C104.574 28.6921 105.141 28.1257 105.553 27.4047C105.965 26.6709 106.171 25.8533 106.171 24.9521C106.171 24.0509 105.965 23.2399 105.553 22.5189C105.141 21.7851 104.574 21.2186 103.854 20.8195C103.133 20.4075 102.321 20.2015 101.42 20.2015C100.519 20.2015 99.708 20.4075 98.987 20.8195C98.2661 21.2186 97.6996 21.7851 97.2876 22.5189C96.8756 23.2399 96.6696 24.0509 96.6696 24.9521C96.6696 25.8533 96.8756 26.6709 97.2876 27.4047C97.6996 28.1257 98.2661 28.6921 98.987 29.1041C99.708 29.5032 100.519 29.7028 101.42 29.7028Z" fill="white" fill-opacity="0.87"/>
<path d="M120.206 31.7112L117.445 27.7523C117.329 27.7652 117.155 27.7716 116.923 27.7716H113.872V31.7112H111.362V18.1931H116.923C118.095 18.1931 119.112 18.3862 119.975 18.7725C120.85 19.1587 121.52 19.7123 121.983 20.4332C122.447 21.1542 122.678 22.0104 122.678 23.0017C122.678 24.0188 122.427 24.8942 121.925 25.628C121.436 26.3619 120.728 26.909 119.801 27.2695L122.91 31.7112H120.206ZM120.149 23.0017C120.149 22.1391 119.865 21.4761 119.299 21.0126C118.732 20.5491 117.902 20.3174 116.808 20.3174H113.872V25.7053H116.808C117.902 25.7053 118.732 25.4736 119.299 25.0101C119.865 24.5337 120.149 23.8643 120.149 23.0017Z" fill="white" fill-opacity="0.87"/>
<path d="M134.255 28.5827H127.495L126.163 31.7112H123.575L129.658 18.1931H132.13L138.233 31.7112H135.606L134.255 28.5827ZM133.424 26.6129L130.875 20.7036L128.345 26.6129H133.424Z" fill="white" fill-opacity="0.87"/>
<defs>
<linearGradient id="paint0_linear_219_211" x1="16.0022" y1="23.5874" x2="48.1665" y2="28.0738" gradientUnits="userSpaceOnUse">
<stop stop-color="#84B9D1"/>
<stop offset="1" stop-color="#D2B4FC"/>
</linearGradient>
<clipPath id="clip0_219_211">
<rect width="30.746" height="32" fill="white" transform="translate(16 16)"/>
</clipPath>
</defs>
</svg>
