<svg width="110" height="83" viewBox="0 0 110 83" fill="none" xmlns="http://www.w3.org/2000/svg">
<path fill-rule="evenodd" clip-rule="evenodd" d="M52.9473 0.852497C49.7022 2.26983 43.2853 5.04777 34.515 8.83212C33.1095 9.43839 31.0185 10.3422 29.868 10.84C28.718 11.3373 26.627 12.2411 25.2215 12.8474C22.2577 14.1261 20.6603 14.8215 20.6404 14.8413C20.6327 14.8489 36.0949 14.8552 55.0008 14.8552C73.9066 14.8552 89.334 14.8322 89.2839 14.8048C89.1868 14.7512 86.7482 13.6917 83.9262 12.4774C82.9893 12.0741 81.2903 11.3409 80.1506 10.8481C79.0115 10.3552 77.1643 9.55721 76.0459 9.07427C74.928 8.59132 71.5037 7.11143 68.437 5.78502C60.5928 2.3927 59.0883 1.74187 56.9423 0.812437C55.902 0.362348 55.0134 -0.00357436 54.9673 2.63477e-05C54.9213 0.00362706 54.0124 0.387105 52.9473 0.852497ZM14.3828 17.0462C14.5549 17.2065 15.8186 17.8186 16.3537 18.0009C17.4423 18.3722 17.4933 18.3745 24.0597 18.3582C31.5472 18.3393 77.2474 18.338 85.9784 18.356C92.7317 18.3704 92.608 18.3767 93.8171 17.9428C94.344 17.7538 95.6593 17.0899 95.6593 17.0125C95.6593 16.9936 77.3558 16.9783 54.9841 16.9783C31.3991 16.9783 14.3399 17.0066 14.3828 17.0462ZM15.4245 21.0462C9.15743 21.7236 3.327 25.9589 1.12857 31.4311C-3.01499 41.7462 4.75605 52.727 16.1966 52.7225C24.2724 52.7194 30.4044 45.0121 28.2764 37.5397C26.297 30.5885 17.1669 27.2565 9.96429 30.8563C6.03655 32.8192 4.05711 37.8845 5.56743 42.1076C8.06431 49.0903 19.2962 50.2776 21.6906 43.8121C22.6808 41.1395 21.6825 37.8993 19.6895 37.3182L19.5017 37.2633L19.6764 37.5235C21.7665 40.6412 20.1753 44.2753 16.532 44.7033C11.6796 45.274 8.747 40.4122 11.6299 36.5765C13.7159 33.8008 17.1786 32.839 20.327 34.1613C26.9711 36.9514 26.6966 46.4541 19.8715 49.9428C16.9619 51.4294 12.3573 51.3988 9.11228 49.8708C2.64793 46.8264 0.227346 39.845 3.42905 33.4794C6.27766 27.8173 12.6174 25.3535 20.2647 26.9365C20.8612 27.0598 22.2726 27.3731 23.4014 27.6328C45.2521 32.6585 64.2961 32.6841 86.2497 27.7169C87.1866 27.505 88.4938 27.2097 89.1539 27.0612C98.6032 24.9318 106.07 28.8368 107.739 36.7804C109.459 44.9652 102.097 52.1986 93.3543 50.915C88.3091 50.1741 84.869 46.3416 84.86 41.4514C84.8464 33.8773 94.4538 30.656 98.5612 36.8578C101.123 40.7259 98.177 45.2569 93.4609 44.7024C89.9851 44.2942 88.3339 40.9149 90.1255 37.8782C90.5129 37.2215 90.5111 37.212 90.0294 37.442C87.8422 38.484 87.2263 42.1144 88.7818 44.7924C91.7849 49.9626 101.314 48.7725 104.103 42.8795C106.119 38.6212 104.324 33.0807 100.245 30.9652C95.7185 28.6171 90.2511 28.9043 86.0497 31.7101C76.497 38.091 82.4502 53.1744 94.3341 52.6991C102.716 52.3638 109.038 46.6553 109.915 38.6311C110.802 30.503 104.68 22.9577 95.7758 21.2046L94.9238 21.0367L55.3096 21.0268C33.5217 21.0214 15.5735 21.03 15.4245 21.0462ZM27.9193 31.6174C28.5898 32.4942 29.9854 35.0723 30.4116 36.2209L30.5476 36.5873H54.9962H79.4449L79.7036 35.9504C80.2396 34.6312 81.4167 32.4847 82.08 31.6174C82.3044 31.324 82.3351 31.2506 82.2177 31.2852C81.889 31.3829 78.038 32.0846 76.8397 32.2646C76.6053 32.3002 75.9434 32.4028 75.3682 32.4933C62.8093 34.4696 49.1816 34.5484 36.1802 32.7197C33.6233 32.3601 28.4078 31.4689 27.7816 31.2848C27.6646 31.2506 27.6944 31.3235 27.9193 31.6174ZM15.5017 37.2336C12.4427 37.8997 12.1289 42.1378 15.0592 43.2162C16.7194 43.8274 18.6262 42.9047 19.1418 41.2403C19.8471 38.9633 17.8175 36.7291 15.5017 37.2336ZM93.2586 37.2084C91.6142 37.5482 90.4633 39.232 90.7658 40.8541C91.4354 44.444 96.7682 44.1213 96.961 40.4792C97.0694 38.4327 95.2236 36.8024 93.2586 37.2084ZM31.0686 38.7036C31.0686 39.642 31.3788 40.4716 31.9265 40.9986C33.1456 42.1715 33.7009 44.0327 33.7018 46.9519V47.5501H33.9628H34.2233L34.2653 46.3344C34.4645 40.5013 40.6701 37.4911 45.2999 40.9815C47.0175 42.276 47.8244 43.9656 47.9305 46.4888C47.9747 47.5389 47.977 47.5501 48.1571 47.5501C48.3337 47.5501 48.3395 47.5299 48.3409 46.9132C48.3562 40.413 55.1881 37.1342 59.5692 41.5243C60.9481 42.9061 61.5283 44.3221 61.6367 46.5658C61.6832 47.5335 61.6873 47.5501 61.8656 47.5501C62.0439 47.5501 62.0476 47.5357 62.0476 46.7976C62.0494 42.623 64.9729 39.521 68.9061 39.521C72.8424 39.521 75.7551 42.5501 75.7556 46.6432V47.5501H76.0265H76.2979V46.9479C76.2979 44.0763 76.8496 42.2071 78.038 41.0535C78.6205 40.4882 78.9279 39.6744 78.9302 38.6915L78.9311 38.4403H54.9998H31.0686V38.7036ZM40.0912 41.4132C38.6825 41.7021 37.3772 42.713 36.7396 44.0088C36.1296 45.2493 36.1527 45.0121 36.1229 50.3101L36.0962 55.0387H41.0981H46.1L46.077 50.1944L46.054 45.3501L45.8422 44.7262C45.0597 42.4227 42.4626 40.9266 40.0912 41.4132ZM68.1272 41.4109C66.2024 41.7674 64.716 43.0303 64.1268 44.8095C63.9489 45.3474 63.948 45.373 63.9232 50.1944L63.8988 55.0387H68.902H73.9057L73.8782 50.3101C73.8511 45.6557 73.8475 45.5724 73.6745 45.004C72.8993 42.4547 70.5857 40.9559 68.1272 41.4109ZM53.993 41.5149C52.2339 42.0091 51.1128 43.0542 50.4581 44.8095C50.3244 45.1682 50.3127 45.5418 50.2923 50.117L50.2702 55.0387H54.9998H59.7295L59.7074 50.117L59.6852 45.1957L59.4766 44.6259C58.649 42.3664 56.1029 40.9221 53.993 41.5149ZM30.9494 43.3998C30.539 45.8222 28.7722 49.0003 26.7404 50.9717L25.8798 51.807V53.4229V55.0387H28.8598H31.8402L31.8836 54.8649C31.908 54.7695 31.9161 52.5029 31.9021 49.8276C31.8746 44.4827 31.8877 44.6434 31.3797 43.5551C31.1147 42.9876 31.0248 42.9551 30.9494 43.3998ZM78.62 43.5551C78.1238 44.6182 78.1279 44.5728 78.0958 49.0557C78.0795 51.3061 78.0899 53.5732 78.1193 54.0939L78.1721 55.0405L81.1652 55.0202L84.1588 55.0004L84.1795 53.4445L84.2003 51.889L83.1663 50.8583C81.6885 49.3856 80.7656 48.0281 79.9438 46.1175C79.6215 45.369 79.0083 43.4611 79.0083 43.2077C79.0083 42.934 78.8394 43.0852 78.62 43.5551ZM34.3182 57.8256C28.5347 58.5714 25.161 64.9267 27.7391 70.2202C31.0397 76.9981 40.9803 76.5093 43.6573 69.437C44.0975 68.2735 44.3563 65.8984 44.1224 65.1643L44.0691 64.9969L39.1033 65.0167L34.1376 65.0365L33.8057 66.349C33.6233 67.0709 33.4729 67.7046 33.4716 67.7577C33.4698 67.8338 34.2884 67.8545 37.3117 67.8545H41.1537L41.1017 68.0665C40.5382 70.3768 38.1055 72.1731 35.5345 72.1767C29.5253 72.1848 27.5107 64.378 32.7342 61.3264C34.6387 60.2138 37.6738 60.4902 39.2031 61.9151C39.2681 61.9759 39.3995 62.0925 39.4948 62.1739L39.6677 62.322L40.2547 61.7108C40.5775 61.3741 41.0214 60.9137 41.2408 60.6873L41.6399 60.2755L41.2142 59.8911C39.4244 58.2753 36.8385 57.5007 34.3182 57.8256ZM15.0168 58.9184C14.7084 59.6102 11.9189 65.7656 11.4394 66.8121C11.3419 67.0245 10.8556 68.1016 10.358 69.2052C9.86044 70.3093 9.42111 71.2824 9.38093 71.367C9.34074 71.4521 8.98044 72.2429 8.57949 73.1251L7.85074 74.7283L9.44324 74.7076L11.0357 74.6869L11.6245 73.3744C11.9483 72.6525 12.2408 72.0183 12.2742 71.9656C12.3217 71.8904 13.1014 71.8688 15.7437 71.8688C19.0935 71.8688 19.1513 71.8661 19.1039 71.7176C19.0777 71.6344 18.8005 71.0002 18.488 70.3088L17.92 69.0508L15.7816 69.0306C14.6054 69.0193 13.6432 68.9829 13.6432 68.9496C13.6432 68.9163 14.0374 68.0224 14.5192 66.9629C15.0014 65.9034 15.7392 64.2808 16.1591 63.3572C16.579 62.4336 16.9429 61.6788 16.9673 61.6797C16.9917 61.6806 17.2811 62.2802 17.6098 63.0116C17.9385 63.743 18.7354 65.5055 19.3807 66.9278C21.6166 71.858 22.7205 74.3016 22.8068 74.5131L22.893 74.7256H24.4638C25.3276 74.7256 26.0346 74.7085 26.0346 74.6878C26.0346 74.667 25.7701 74.0675 25.4468 73.3559C25.1239 72.6444 24.3938 71.0371 23.8249 69.7845C22.0143 65.7976 20.4051 62.241 19.4696 60.1557L18.5612 58.1312L16.965 58.129L15.3694 58.1267L15.0168 58.9184ZM54.7935 58.2361C48.209 59.4865 45.6774 67.5683 50.3899 72.2951C55.5855 77.5071 64.4428 73.8411 64.4758 66.4646C64.4993 61.3084 59.7719 57.2909 54.7935 58.2361ZM69.0176 66.4259V74.7256H70.4503H71.8834V67.8486V60.9722L73.9938 60.997L76.1042 61.0222L76.5652 61.2535C78.5708 62.2613 78.9726 64.8893 77.3476 66.3701C76.6275 67.0263 75.9791 67.2356 74.662 67.2365L73.9942 67.237L73.442 68.5954C73.1386 69.3425 72.8898 69.9852 72.8898 70.0235C72.8898 70.0617 73.3192 70.0932 73.8439 70.0932H74.7979L75.6901 71.4638C76.1809 72.2172 76.8541 73.2596 77.1869 73.7795L77.7915 74.7256H79.4842C80.4152 74.7256 81.1769 74.7098 81.1769 74.6905C81.1769 74.6635 78.6534 70.7288 77.9752 69.6981L77.842 69.496L78.3821 69.176C82.4118 66.7896 82.0854 60.8012 77.8118 58.7096C76.6749 58.1533 76.4338 58.1267 72.4672 58.1267H69.0176V66.4259ZM91.9167 58.1848C91.8824 58.2429 90.8615 60.4915 87.5266 67.8545C86.5364 70.041 85.4654 72.4035 85.1471 73.1043C84.8284 73.8047 84.5376 74.456 84.5005 74.5518L84.4333 74.7256H86.0023H87.5709L88.4156 72.8532C88.8802 71.8234 89.371 70.7378 89.5056 70.4407C89.6406 70.1432 90.2149 68.8753 90.782 67.6227C93.0482 62.6177 93.4577 61.7391 93.5259 61.7409C93.5652 61.7418 93.7417 62.0668 93.9187 62.4633C94.2763 63.265 95.2277 65.3655 96.2282 67.5647L96.887 69.0126H94.7649C92.6495 69.0126 92.6423 69.013 92.529 69.1863C92.4256 69.3443 91.3225 71.7698 91.3225 71.8391C91.3225 71.8554 92.8554 71.8688 94.7292 71.8688C97.8912 71.8688 98.1422 71.8788 98.219 72.0039C98.2646 72.0781 98.5589 72.7123 98.8727 73.4131L99.4439 74.6869L101.042 74.7076C101.921 74.7193 102.625 74.7017 102.605 74.6689C102.586 74.6364 102.168 73.7237 101.678 72.6407C101.188 71.5583 100.03 69.0045 99.1048 66.9665C98.1797 64.9285 96.9732 62.2608 96.4242 61.0388C95.8747 59.8164 95.3523 58.6614 95.2629 58.472L95.1003 58.1267H93.5259C92.6594 58.1267 91.9357 58.1528 91.9167 58.1848ZM57.6295 61.0717C61.7554 62.1546 63.1163 67.3306 60.0726 70.3633C56.5842 73.8398 50.7402 71.3742 50.7402 66.4259C50.7402 62.7951 54.1366 60.1553 57.6295 61.0717ZM25.4675 77.4779C25.4386 77.5067 25.4152 78.1674 25.4152 78.9456V80.3611H28.6697H31.9238L31.903 78.9136L31.8818 77.4661L28.7009 77.4459C26.9512 77.4347 25.4964 77.4495 25.4675 77.4779ZM36.1549 77.4783C36.126 77.5071 36.1026 78.1674 36.1026 78.9456V80.3611H41.0999H46.0969L46.0756 78.9136L46.0544 77.4661L41.1306 77.4463C38.4229 77.4351 36.1838 77.45 36.1549 77.4783ZM50.2756 78.8943V80.3625L55.0193 80.3422L59.7629 80.3224V78.8943V77.4661L55.0193 77.4463L50.2756 77.4261V78.8943ZM63.9584 77.4783C63.9295 77.5071 63.906 78.1674 63.906 78.9456V80.3611H68.9034H73.9003L73.8791 78.9136L73.8583 77.4661L68.9345 77.4463C66.2263 77.4351 63.9873 77.45 63.9584 77.4783ZM78.1315 77.4779C78.1026 77.5067 78.0791 78.1674 78.0791 78.9456V80.3611H81.3336H84.5881L84.5669 78.9136L84.5457 77.4661L81.3648 77.4459C79.6151 77.4347 78.1604 77.4495 78.1315 77.4779ZM14.3774 81.7168C14.7201 81.9751 16.1261 82.6075 16.7795 82.7975L17.4766 83H54.9998H92.5226L93.2193 82.7947C93.9779 82.5715 94.9992 82.1201 95.4733 81.7992L95.7726 81.5962L54.9985 81.5989C18.7698 81.6011 14.241 81.6142 14.3774 81.7168Z" fill="white"/>
</svg>
