<svg width="68" height="53" viewBox="0 0 68 53" fill="none" xmlns="http://www.w3.org/2000/svg">
<path fill-rule="evenodd" clip-rule="evenodd" d="M33.0374 0.791663C31.0609 1.67963 27.1524 3.42003 21.8105 5.79094C20.9544 6.17078 19.6808 6.737 18.9801 7.04887C18.2796 7.36047 17.006 7.92669 16.1499 8.30652C14.3447 9.10763 13.3717 9.5433 13.3596 9.55571C13.3549 9.5605 22.7728 9.56444 34.2882 9.56444C45.8036 9.56444 55.2003 9.55006 55.1697 9.53286C55.1106 9.4993 53.6253 8.83552 51.9064 8.07473C51.3358 7.82207 50.3009 7.36272 49.6067 7.05395C48.9129 6.74517 47.7878 6.24522 47.1066 5.94265C46.4257 5.64008 44.34 4.71292 42.4721 3.88192C37.6942 1.75661 36.7779 1.34886 35.4707 0.766565C34.8371 0.484582 34.2959 0.255329 34.2678 0.257585C34.2398 0.259841 33.6862 0.500092 33.0374 0.791663ZM9.54817 10.9371C9.65295 11.0375 10.4227 11.421 10.7486 11.5352C11.4117 11.7679 11.4427 11.7693 15.4423 11.7591C20.0028 11.7473 47.8384 11.7464 53.1564 11.7577C57.2697 11.7667 57.1944 11.7707 57.9309 11.4988C58.2518 11.3804 59.0529 10.9645 59.0529 10.916C59.0529 10.9041 47.9044 10.8946 34.278 10.8946C19.9126 10.8946 9.52204 10.9123 9.54817 10.9371ZM10.1826 13.4431C6.36543 13.8675 2.81417 16.521 1.47512 19.9493C-1.04868 26.4118 3.68459 33.2914 10.6529 33.2886C15.5718 33.2866 19.3068 28.4579 18.0106 23.7764C16.805 19.4215 11.2439 17.3339 6.85688 19.5892C4.46453 20.819 3.25887 23.9924 4.17879 26.6383C5.69962 31.0129 12.5409 31.7568 13.9993 27.7061C14.6024 26.0317 13.9943 24.0017 12.7804 23.6377L12.666 23.6033L12.7724 23.7663C14.0455 25.7196 13.0763 27.9963 10.8572 28.2645C7.90166 28.622 6.11544 25.576 7.87141 23.173C9.14197 21.434 11.2511 20.8314 13.1687 21.6598C17.2156 23.4079 17.0484 29.3614 12.8912 31.547C11.1191 32.4784 8.31446 32.4592 6.33793 31.5019C2.40055 29.5946 0.926195 25.2207 2.87632 21.2326C4.61139 17.6853 8.47286 16.1417 13.1308 17.1334C13.4941 17.2107 14.3538 17.407 15.0413 17.5697C28.3503 20.7183 39.9499 20.7344 53.3216 17.6224C53.8923 17.4896 54.6885 17.3046 55.0905 17.2115C60.846 15.8775 65.3942 18.324 66.4107 23.3007C67.4579 28.4286 62.9738 32.9603 57.649 32.1561C54.576 31.692 52.4806 29.2909 52.4751 26.2271C52.4669 21.4819 58.3187 19.4638 60.8205 23.3492C62.3806 25.7726 60.5864 28.6113 57.7139 28.2639C55.5968 28.0081 54.5911 25.891 55.6824 23.9885C55.9183 23.577 55.9172 23.5711 55.6238 23.7152C54.2916 24.368 53.9165 26.6425 54.8639 28.3203C56.693 31.5594 62.4969 30.8139 64.196 27.1219C65.4237 24.454 64.3307 20.9828 61.8463 19.6575C59.089 18.1864 55.7588 18.3663 53.1998 20.1242C47.3813 24.1218 51.0074 33.5717 58.2458 33.2739C63.3509 33.0638 67.2019 29.4874 67.7357 24.4602C68.2764 19.3679 64.5475 14.6407 59.1239 13.5424L58.6049 13.4372L34.4763 13.431C21.2055 13.4276 10.2734 13.433 10.1826 13.4431ZM17.7931 20.0661C18.2015 20.6154 19.0516 22.2306 19.3112 22.9502L19.394 23.1797H34.2854H49.1769L49.3345 22.7807C49.6609 21.9542 50.3779 20.6094 50.7819 20.0661C50.9186 19.8822 50.9373 19.8363 50.8658 19.858C50.6656 19.9192 48.32 20.3588 47.5901 20.4716C47.4473 20.4938 47.0442 20.5581 46.6938 20.6148C39.0443 21.853 30.7438 21.9023 22.8248 20.7566C21.2674 20.5313 18.0907 19.973 17.7092 19.8577C17.638 19.8363 17.6561 19.8819 17.7931 20.0661ZM10.2297 23.5847C8.36643 24.002 8.1753 26.6571 9.96014 27.3328C10.9714 27.7157 12.1328 27.1376 12.4468 26.0949C12.8764 24.6683 11.6402 23.2686 10.2297 23.5847ZM57.5907 23.5689C56.5891 23.7818 55.8881 24.8367 56.0723 25.8529C56.4802 28.102 59.7284 27.8998 59.8458 25.618C59.9118 24.3359 58.7876 23.3145 57.5907 23.5689ZM19.7113 24.5056C19.7113 25.0936 19.9003 25.6132 20.2339 25.9434C20.9764 26.6783 21.3147 27.8443 21.3152 29.6732V30.048H21.4742H21.6328L21.6584 29.2864C21.7797 25.6319 25.5595 23.7459 28.3795 25.9327C29.4257 26.7437 29.9171 27.8023 29.9817 29.3831C30.0087 30.0409 30.0101 30.048 30.1198 30.048C30.2273 30.048 30.2309 30.0353 30.2317 29.649C30.2411 25.5766 34.4023 23.5223 37.0708 26.2728C37.9107 27.1385 38.2641 28.0256 38.3301 29.4313C38.3584 30.0376 38.3609 30.048 38.4695 30.048C38.5781 30.048 38.5803 30.039 38.5803 29.5765C38.5814 26.9611 40.3621 25.0177 42.7578 25.0177C45.1554 25.0177 46.9295 26.9154 46.9298 29.4798V30.048H47.0948H47.2601V29.6707C47.2601 27.8717 47.5961 26.7006 48.32 25.9778C48.6747 25.6237 48.862 25.1139 48.8634 24.498L48.8639 24.3407H34.2876H19.7113V24.5056ZM25.2069 26.2032C24.3489 26.3842 23.5538 27.0175 23.1655 27.8294C22.794 28.6065 22.808 28.4579 22.7898 31.7771L22.7736 34.7396H25.8202H28.8668L28.8528 31.7046L28.8388 28.6697L28.7098 28.2788C28.2332 26.8356 26.6513 25.8983 25.2069 26.2032ZM42.2834 26.2017C41.111 26.4251 40.2057 27.2163 39.8468 28.331C39.7384 28.668 39.7379 28.684 39.7227 31.7046L39.7079 34.7396H42.7553H45.803L45.7863 31.7771C45.7698 28.8611 45.7675 28.809 45.6622 28.4528C45.19 26.8557 43.7808 25.9167 42.2834 26.2017ZM33.6743 26.2669C32.6029 26.5765 31.92 27.2313 31.5213 28.331C31.4399 28.5557 31.4327 28.7898 31.4203 31.6562L31.4069 34.7396H34.2876H37.1684L37.1549 31.6562L37.1415 28.5729L37.0144 28.216C36.5103 26.8004 34.9595 25.8955 33.6743 26.2669ZM19.6387 27.4478C19.3887 28.9655 18.3126 30.9565 17.075 32.1916L16.5509 32.715V33.7273V34.7396H18.366H20.1813L20.2077 34.6308C20.2226 34.571 20.2275 33.1509 20.219 31.4748C20.2022 28.1263 20.2102 28.2269 19.9008 27.5451C19.7394 27.1895 19.6846 27.1692 19.6387 27.4478ZM48.6744 27.5451C48.3722 28.2112 48.3747 28.1827 48.3552 30.9912C48.3453 32.4011 48.3516 33.8215 48.3695 34.1478L48.4016 34.7408L50.2247 34.7281L52.0481 34.7157L52.0607 33.7408L52.0733 32.7663L51.4436 32.1206C50.5434 31.1979 49.9813 30.3475 49.4808 29.1504C49.2844 28.6815 48.911 27.4862 48.911 27.3274C48.911 27.156 48.8081 27.2507 48.6744 27.5451ZM21.6906 36.4857C18.1679 36.9529 16.113 40.9345 17.6834 44.2509C19.6937 48.4973 25.7484 48.1911 27.379 43.7603C27.6471 43.0314 27.8047 41.5433 27.6623 41.0834L27.6298 40.9785L24.6052 40.9909L21.5806 41.0033L21.3785 41.8256C21.2674 42.2779 21.1758 42.6749 21.1749 42.7082C21.1738 42.7559 21.6725 42.7688 23.5139 42.7688H25.854L25.8224 42.9016C25.4792 44.3491 23.9974 45.4745 22.4315 45.4767C18.7713 45.4818 17.5442 40.5908 20.7259 38.6789C21.8859 37.9819 23.7345 38.155 24.666 39.0478C24.7056 39.0858 24.7856 39.1589 24.8436 39.2099L24.949 39.3027L25.3065 38.9198C25.5031 38.7088 25.7735 38.4204 25.9071 38.2785L26.1502 38.0205L25.8909 37.7797C24.8007 36.7674 23.2257 36.2821 21.6906 36.4857ZM9.93429 37.1703C9.74645 37.6037 8.04742 41.4601 7.75535 42.1158C7.69595 42.2489 7.39976 42.9236 7.09669 43.6151C6.79362 44.3068 6.52604 44.9164 6.50156 44.9694C6.47708 45.0227 6.25762 45.5182 6.01341 46.0709L5.56954 47.0753L6.53951 47.0623L7.50949 47.0493L7.86811 46.2271C8.06529 45.7748 8.2435 45.3775 8.26385 45.3445C8.29273 45.2974 8.76768 45.2838 10.3771 45.2838C12.4174 45.2838 12.4526 45.2821 12.4237 45.1891C12.4078 45.1369 12.2389 44.7396 12.0486 44.3065L11.7026 43.5183L10.4002 43.5056C9.68375 43.4986 9.0977 43.4758 9.0977 43.4549C9.0977 43.434 9.33778 42.874 9.63122 42.2102C9.92494 41.5464 10.3743 40.5299 10.6301 39.9512C10.8858 39.3726 11.1075 38.8997 11.1223 38.9003C11.1372 38.9009 11.3135 39.2765 11.5137 39.7347C11.7139 40.1929 12.1993 41.2972 12.5923 42.1882C13.9542 45.2771 14.6266 46.808 14.6791 46.9405L14.7316 47.0736H15.6884C16.2145 47.0736 16.6452 47.0629 16.6452 47.0499C16.6452 47.0369 16.484 46.6613 16.2871 46.2155C16.0905 45.7697 15.6458 44.7627 15.2993 43.978C14.1965 41.4802 13.2163 39.2519 12.6465 37.9455L12.0932 36.6771L11.121 36.6757L10.1491 36.6743L9.93429 37.1703ZM34.1619 36.7428C30.1514 37.5262 28.6094 42.5895 31.4797 45.5509C34.6443 48.8162 40.0393 46.5195 40.0594 41.8981C40.0737 38.6677 37.1943 36.1507 34.1619 36.7428ZM42.8257 41.8738V47.0736H43.6983H44.5712V42.7652V38.457L45.8567 38.4725L47.1421 38.4883L47.4229 38.6333C48.6445 39.2646 48.8892 40.9111 47.8995 41.8388C47.4608 42.25 47.0659 42.3811 46.2637 42.3817L45.8569 42.3819L45.5206 43.233C45.3358 43.7011 45.1842 44.1037 45.1842 44.1277C45.1842 44.1517 45.4458 44.1714 45.7654 44.1714H46.3465L46.8899 45.03C47.1888 45.5021 47.5989 46.1552 47.8016 46.4809L48.1698 47.0736H49.2008C49.7679 47.0736 50.2319 47.0637 50.2319 47.0516C50.2319 47.0347 48.6948 44.5696 48.2817 43.9238L48.2006 43.7972L48.5295 43.5967C50.984 42.1017 50.7852 38.3499 48.1822 37.0395C47.4897 36.691 47.3428 36.6743 44.9268 36.6743H42.8257V41.8738ZM56.7733 36.7107C56.7524 36.7471 56.1306 38.1559 54.0994 42.7688C53.4963 44.1387 52.8439 45.6188 52.6501 46.0579C52.4559 46.4966 52.2788 46.9047 52.2562 46.9647L52.2153 47.0736H53.1709H54.1263L54.6409 45.9005C54.9239 45.2554 55.2228 44.5752 55.3048 44.3891C55.387 44.2027 55.7368 43.4084 56.0822 42.6236C57.4625 39.4879 57.712 38.9375 57.7535 38.9386C57.7774 38.9392 57.885 39.1428 57.9928 39.3912C58.2106 39.8934 58.79 41.2095 59.3995 42.5872L59.8007 43.4944H58.5081C57.2197 43.4944 57.2153 43.4947 57.1463 43.6032C57.0833 43.7022 56.4114 45.2218 56.4114 45.2652C56.4114 45.2754 57.3451 45.2838 58.4864 45.2838C60.4123 45.2838 60.5652 45.29 60.612 45.3684C60.6398 45.415 60.8191 45.8123 61.0102 46.2513L61.3581 47.0493L62.3317 47.0623C62.8671 47.0696 63.2956 47.0586 63.2835 47.0381C63.2717 47.0177 63.0176 46.4459 62.7189 45.7674C62.4202 45.0893 61.7148 43.4893 61.1516 42.2125C60.5881 40.9356 59.8532 39.2643 59.5188 38.4987C59.1841 37.7329 58.8659 37.0093 58.8115 36.8906L58.7125 36.6743H57.7535C57.2257 36.6743 56.7849 36.6907 56.7733 36.7107ZM35.8893 38.5193C38.4024 39.1978 39.2313 42.4406 37.3774 44.3406C35.2527 46.5186 31.6931 44.9739 31.6931 41.8738C31.6931 39.5991 33.7618 37.9452 35.8893 38.5193ZM16.2998 48.7979C16.2822 48.816 16.2679 49.2299 16.2679 49.7175V50.6043H18.2502H20.2322L20.2195 49.6974L20.2066 48.7906L18.2691 48.7779C17.2035 48.7708 16.3174 48.7801 16.2998 48.7979ZM22.8094 48.7982C22.7918 48.8162 22.7775 49.2299 22.7775 49.7175V50.6043H25.8213H28.8649L28.852 49.6974L28.839 48.7906L25.84 48.7782C24.1908 48.7711 22.827 48.7804 22.8094 48.7982ZM31.4102 49.6853V50.6051L34.2995 50.5925L37.1888 50.58V49.6853V48.7906L34.2995 48.7782L31.4102 48.7655V49.6853ZM39.7442 48.7982C39.7266 48.8162 39.7123 49.2299 39.7123 49.7175V50.6043H42.7561H45.7997L45.7868 49.6974L45.7742 48.7906L42.7751 48.7782C41.1256 48.7711 39.7618 48.7804 39.7442 48.7982ZM48.3769 48.7979C48.3593 48.816 48.345 49.2299 48.345 49.7175V50.6043H50.3273H52.3096L52.2967 49.6974L52.2837 48.7906L50.3463 48.7779C49.2806 48.7708 48.3945 48.7801 48.3769 48.7979ZM9.54487 51.4536C9.7536 51.6155 10.61 52.0117 11.0079 52.1307L11.4326 52.2576H34.2876H57.1424L57.5668 52.129C58.0288 51.9891 58.6509 51.7063 58.9396 51.5052L59.122 51.3781L34.2868 51.3798C12.2202 51.3812 9.46181 51.3893 9.54487 51.4536Z" fill="black" fill-opacity="0.37"/>
</svg>
