<svg width="100" height="100" viewBox="0 0 100 100" fill="none" xmlns="http://www.w3.org/2000/svg">
<path fill-rule="evenodd" clip-rule="evenodd" d="M50 1C22.938 1 1 22.938 1 50C1 77.0619 22.938 99 50 99C77.0619 99 99 77.0619 99 50C99 22.938 77.0619 1 50 1ZM0 50C0 22.3858 22.3858 0 50 0C77.6142 0 100 22.3858 100 50C100 77.6142 77.6142 100 50 100C22.3858 100 0 77.6142 0 50Z" fill="#545454"/>
<path fill-rule="evenodd" clip-rule="evenodd" d="M50 4C24.5949 4 4 24.5949 4 50C4 75.4051 24.5949 96 50 96C75.4051 96 96 75.4051 96 50C96 24.5949 75.4051 4 50 4ZM3 50C3 24.0426 24.0426 3 50 3C75.9574 3 97 24.0426 97 50C97 75.9574 75.9574 97 50 97C24.0426 97 3 75.9574 3 50Z" fill="#545454"/>
<path fill-rule="evenodd" clip-rule="evenodd" d="M50 23C35.0883 23 23 35.0883 23 50C23 64.9117 35.0883 77 50 77C64.9117 77 77 64.9117 77 50C77 35.0883 64.9117 23 50 23ZM22 50C22 34.536 34.536 22 50 22C65.464 22 78 34.536 78 50C78 65.464 65.464 78 50 78C34.536 78 22 65.464 22 50Z" fill="#545454"/>
<path fill-rule="evenodd" clip-rule="evenodd" d="M50 26C36.7452 26 26 36.7452 26 50C26 63.2548 36.7452 74 50 74C63.2548 74 74 63.2548 74 50C74 36.7452 63.2548 26 50 26ZM25 50C25 36.1929 36.1929 25 50 25C63.8071 25 75 36.1929 75 50C75 63.8071 63.8071 75 50 75C36.1929 75 25 63.8071 25 50Z" fill="#545454"/>
<path fill-rule="evenodd" clip-rule="evenodd" d="M74.5 76.5C73.9477 76.5 73.5 76.9477 73.5 77.5C73.5 78.0523 73.9477 78.5 74.5 78.5C75.0523 78.5 75.5 78.0523 75.5 77.5C75.5 76.9477 75.0523 76.5 74.5 76.5ZM72.5 77.5C72.5 76.3954 73.3954 75.5 74.5 75.5C75.6046 75.5 76.5 76.3954 76.5 77.5C76.5 78.6046 75.6046 79.5 74.5 79.5C73.3954 79.5 72.5 78.6046 72.5 77.5Z" fill="#1D1D1D"/>
<path fill-rule="evenodd" clip-rule="evenodd" d="M36.5 14.5C35.9477 14.5 35.5 14.9477 35.5 15.5C35.5 16.0523 35.9477 16.5 36.5 16.5C37.0523 16.5 37.5 16.0523 37.5 15.5C37.5 14.9477 37.0523 14.5 36.5 14.5ZM34.5 15.5C34.5 14.3954 35.3954 13.5 36.5 13.5C37.6046 13.5 38.5 14.3954 38.5 15.5C38.5 16.6046 37.6046 17.5 36.5 17.5C35.3954 17.5 34.5 16.6046 34.5 15.5Z" fill="#1D1D1D"/>
<path fill-rule="evenodd" clip-rule="evenodd" d="M58.2787 40.6057H41.9492L43.0391 37.0001H57.1902L58.2787 40.6057ZM63 42.3567H37.2294L38.9475 45.9623H61.2819L63 42.3567ZM45.2488 57.8843L46.3087 47.715H41.7298L40.6713 57.8843H45.2488ZM54.7584 57.8843H59.3301L58.2716 47.715H53.697L54.7584 57.8843ZM63 63H37L38.7338 59.6353H61.2676L63 63ZM47.1777 57.8843H52.8279L51.8862 47.715H48.1194L47.1777 57.8843Z" fill="white"/>
<path d="M57.9775 80.7351C58.6207 80.5221 59.2734 80.4203 59.9354 80.4297C60.5892 80.4419 61.1329 80.5638 61.5666 80.7954L61.4414 81.6193C61.0242 81.4098 60.5231 81.2921 59.938 81.2663C59.3556 81.2487 58.7882 81.3314 58.2356 81.5145C57.4604 81.7713 56.9255 82.104 56.6308 82.5128C56.3388 82.9299 56.2679 83.3652 56.4182 83.8187C56.5329 84.1651 56.7317 84.4058 57.0144 84.541C57.2888 84.6789 57.5964 84.7509 57.937 84.757C58.2804 84.7714 58.7461 84.7544 59.3341 84.706C60.0402 84.6551 60.6117 84.6397 61.0484 84.6597C61.4879 84.688 61.8998 84.8124 62.284 85.0329C62.6599 85.2561 62.9367 85.6358 63.1143 86.1718C63.259 86.6089 63.2747 87.043 63.1613 87.4741C63.0506 87.9134 62.7916 88.3195 62.3843 88.6924C61.977 89.0652 61.4188 89.3691 60.7096 89.6041C60.2148 89.768 59.7091 89.8577 59.1926 89.8732C58.6706 89.8997 58.1968 89.8508 57.7712 89.7264L57.8387 88.8941C58.2808 89.013 58.7271 89.0619 59.1777 89.0408C59.631 89.0279 60.0556 88.9559 60.4514 88.8248C61.2101 88.5734 61.7341 88.2351 62.0233 87.8098C62.3071 87.3955 62.3724 86.9575 62.2194 86.4957C62.1047 86.1493 61.9087 85.9031 61.6315 85.757C61.3488 85.6218 61.0317 85.5484 60.68 85.5368C60.3229 85.5361 59.8545 85.5586 59.2747 85.6042C58.5878 85.6579 58.0246 85.6706 57.5851 85.6423C57.1401 85.625 56.7296 85.5047 56.3537 85.2815C55.9804 85.0665 55.7064 84.6951 55.5316 84.1674C55.3868 83.7303 55.3739 83.2907 55.4928 82.8486C55.6063 82.4175 55.8707 82.0142 56.2863 81.6386C56.7045 81.2712 57.2683 80.9701 57.9775 80.7351Z" fill="#1D1D1D"/>
<path d="M37.0791 79.8783C37.4199 79.6028 37.795 79.4186 38.2045 79.3257C38.6072 79.2226 39.0256 79.2159 39.4594 79.3055C39.9869 79.4145 40.4617 79.6501 40.8836 80.0122C41.2988 80.3641 41.7367 80.907 42.1972 81.6408C43.0512 81.8438 43.7814 82.2165 44.388 82.7587C44.9945 83.3009 45.4232 83.9527 45.6739 84.7142C45.9247 85.4757 45.9631 86.2775 45.7891 87.1198C45.6116 87.9791 45.2517 88.712 44.7095 89.3185C44.1588 89.9233 43.4856 90.3476 42.6901 90.5913C41.8844 90.8418 41.0391 90.8756 40.1543 90.6928C39.2695 90.5101 38.5144 90.1501 37.8891 89.6128C37.2553 89.0739 36.8063 88.4134 36.542 87.6314C36.276 86.8579 36.2317 86.0415 36.4092 85.1822C36.5639 84.4335 36.8636 83.7769 37.3085 83.2124C37.7431 82.6546 38.2842 82.2252 38.9318 81.9243C39.5709 81.6217 40.2661 81.477 41.0174 81.4902C40.5046 80.6658 39.9292 80.1877 39.2912 80.0558C38.6275 79.9188 38.0055 80.0741 37.4251 80.522L37.0791 79.8783ZM44.8575 86.9274C45.0016 86.2297 44.97 85.5668 44.7627 84.9385C44.5469 84.3084 44.1873 83.7729 43.6841 83.3318C43.1724 82.889 42.5634 82.5947 41.8573 82.4488C41.1511 82.3029 40.4796 82.3328 39.8428 82.5383C39.206 82.7439 38.668 83.094 38.2287 83.5887C37.7894 84.0835 37.4977 84.6796 37.3536 85.3773C37.2095 86.0749 37.2411 86.7379 37.4484 87.3662C37.6557 87.9945 38.011 88.5292 38.5142 88.9702C39.0174 89.4112 39.6221 89.7047 40.3283 89.8506C41.0344 89.9964 41.7102 89.9675 42.3555 89.7637C42.9923 89.5582 43.5346 89.2089 43.9824 88.7159C44.4217 88.2212 44.7134 87.625 44.8575 86.9274Z" fill="#1D1D1D"/>
<path d="M27.5936 74.3521C28.4761 75.1376 28.9387 76.0029 28.9814 76.9481C29.0241 77.8932 28.6151 78.8492 27.7545 79.8161L24.2803 83.7194L23.56 83.0782L27.0082 79.2042C27.7128 78.4125 28.06 77.6631 28.0496 76.9561C28.0393 76.2491 27.6967 75.5952 27.0218 74.9945C26.3404 74.388 25.648 74.1207 24.9445 74.1923C24.2411 74.264 23.537 74.6957 22.8324 75.4874L19.3842 79.3614L18.6833 78.7376L22.1575 74.8344C23.0181 73.8675 23.9203 73.3504 24.864 73.2833C25.8012 73.2103 26.7111 73.5666 27.5936 74.3521Z" fill="#1D1D1D"/>
<path d="M15.459 59.0236L17.0572 63.8479L19.7146 64.1207L20.0301 65.0732L10.0598 63.9832L9.76065 63.0802L17.1084 56.2533L17.428 57.2182L15.459 59.0236ZM14.8275 59.6034L10.8648 63.2224L16.2043 63.7598L14.8275 59.6034Z" fill="#1D1D1D"/>
<path d="M18.3056 41.7492L15.0124 43.1979C14.9905 43.4329 14.954 43.6737 14.9031 43.9204L14.4075 46.3196L17.2406 46.9049L17.0455 47.8492L8.1123 46.0039L8.80299 42.6603C9.03849 41.5203 9.49527 40.6832 10.1733 40.1491C10.8514 39.615 11.6669 39.4464 12.6197 39.6432C13.3174 39.7873 13.8718 40.0881 14.2829 40.5456C14.6873 40.9929 14.9281 41.566 15.0055 42.265L18.5191 40.7155L18.3056 41.7492ZM14.0938 43.7799C14.2766 42.8951 14.2206 42.1783 13.9259 41.6295C13.6312 41.0807 13.1308 40.7334 12.4247 40.5876C11.7015 40.4382 11.1002 40.5579 10.6207 40.9467C10.1326 41.3338 9.79724 41.9698 9.61446 42.8546L9.12413 45.2283L13.6035 46.1536L14.0938 43.7799Z" fill="#1D1D1D"/>
<path d="M26.8709 26.8232L27.4939 27.3777L23.2053 32.196L16.3916 26.1313L20.5502 21.459L21.1732 22.0135L17.6557 25.9655L20.0794 28.1228L23.2157 24.5991L23.829 25.1449L20.6926 28.6686L23.2234 30.9212L26.8709 26.8232Z" fill="#1D1D1D"/>
<path d="M55.2056 14.9038L50.6766 14.9038L49.7837 17.0001H48.0498L52.1259 7.94214L53.7822 7.94214L57.8712 17.0001L56.1114 17.0001L55.2056 14.9038ZM54.6491 13.5839L52.9411 9.62432L51.246 13.5839L54.6491 13.5839Z" fill="white"/>
<path d="M72.6405 18.3427L74.0188 19.1385L72.2137 22.265C71.6248 22.3533 71.0118 22.3282 70.3747 22.1894C69.7376 22.0507 69.1352 21.8174 68.5674 21.4896C67.768 21.0281 67.1463 20.44 66.7022 19.7254C66.2624 19.0034 66.0363 18.2303 66.024 17.4064C66.0116 16.5824 66.2275 15.7857 66.6718 15.0162C67.1161 14.2467 67.6981 13.6613 68.4178 13.2601C69.1376 12.8588 69.9179 12.6718 70.7588 12.6991C71.6115 12.7232 72.4413 12.9682 73.2482 13.434C73.9056 13.8136 74.4407 14.267 74.8535 14.7942C75.2663 15.3214 75.535 15.8999 75.6595 16.5296L74.223 16.8956C73.9704 15.9528 73.422 15.2378 72.5778 14.7504C72.025 14.4312 71.465 14.2623 70.898 14.2437C70.3385 14.2295 69.8147 14.3604 69.3266 14.6364C68.846 14.9167 68.4504 15.3259 68.1398 15.8638C67.8379 16.3867 67.6857 16.9264 67.6832 17.4828C67.6882 18.0435 67.8346 18.5663 68.1224 19.0512C68.4177 19.5405 68.838 19.9425 69.3834 20.2574C69.996 20.6111 70.6115 20.7872 71.23 20.7856L72.6405 18.3427Z" fill="white"/>
<path d="M79.4761 32.5635C79.0146 31.7642 78.7702 30.944 78.7429 30.1031C78.7231 29.2579 78.9138 28.4754 79.3151 27.7556C79.7238 27.0316 80.3092 26.4496 81.0712 26.0096C81.8332 25.5696 82.6262 25.3559 83.4502 25.3682C84.2816 25.3763 85.0546 25.6024 85.7692 26.0465C86.4913 26.4862 87.0831 27.1058 87.5446 27.9052C88.0062 28.7046 88.2468 29.5269 88.2666 30.3721C88.2939 31.213 88.1069 31.9933 87.7057 32.7131C87.3044 33.4328 86.719 34.0149 85.9495 34.4591C85.1801 34.9034 84.3833 35.1193 83.5594 35.107C82.7354 35.0946 81.9624 34.8685 81.2403 34.4287C80.5257 33.9847 79.9376 33.3629 79.4761 32.5635ZM80.7536 31.826C81.0556 32.3489 81.4431 32.7527 81.9162 33.0374C82.3969 33.3177 82.9154 33.4567 83.4718 33.4542C84.0356 33.4474 84.579 33.293 85.102 32.9911C85.6249 32.6892 86.0266 32.2979 86.3069 31.8173C86.5948 31.3324 86.7337 30.8139 86.7237 30.2618C86.7213 29.7054 86.5691 29.1657 86.2671 28.6428C85.9652 28.1198 85.5739 27.7181 85.0933 27.4378C84.6202 27.1531 84.1017 27.0142 83.5378 27.021C82.9814 27.0235 82.4417 27.1757 81.9188 27.4776C81.3958 27.7796 80.9904 28.173 80.7026 28.6579C80.4223 29.1385 80.2833 29.657 80.2858 30.2134C80.2958 30.7655 80.4517 31.303 80.7536 31.826Z" fill="white"/>
<path d="M83.7409 50.4059L86.3936 48.5555C86.385 48.4779 86.3806 48.3614 86.3806 48.2061V46.1616H83.7409V44.4794H92.7988V48.2061C92.7988 48.9911 92.6694 49.6726 92.4106 50.2506C92.1518 50.8372 91.7809 51.2858 91.2978 51.5964C90.8147 51.9069 90.241 52.0622 89.5768 52.0622C88.8953 52.0622 88.3087 51.894 87.817 51.5575C87.3253 51.2297 86.9586 50.7553 86.7171 50.1342L83.7409 52.2175V50.4059ZM89.5768 50.3671C90.1548 50.3671 90.599 50.1773 90.9096 49.7977C91.2202 49.4182 91.3754 48.8617 91.3754 48.1285V46.1616H87.7652V48.1285C87.7652 48.8617 87.9205 49.4182 88.231 49.7977C88.5502 50.1773 88.9988 50.3671 89.5768 50.3671Z" fill="white"/>
<path d="M80.1734 66.6723L82.4379 62.7501L81.0689 60.9287L81.9359 59.4271L87.7422 67.486L86.9141 68.9204L77.0252 67.9327L77.9051 66.4086L80.1734 66.6723ZM81.5947 66.8504L85.8778 67.3509L83.2963 63.9031L81.5947 66.8504Z" fill="white"/>
</svg>
