<svg width="342" height="310" viewBox="0 0 342 310" fill="none" xmlns="http://www.w3.org/2000/svg">
<g opacity="0.11">
<path d="M170.065 229.397L152.765 396.887C152.335 401.036 150.38 404.875 147.28 407.659C144.181 410.444 140.159 411.973 135.996 411.951H79.9597C77.6065 411.963 75.2771 411.479 73.1229 410.53C70.9688 409.581 69.038 408.189 67.4564 406.443C65.8747 404.697 64.6774 402.638 63.9426 400.398C63.2077 398.159 62.9515 395.789 63.1908 393.444L80.6025 226.093C81.0326 221.945 82.9875 218.105 86.0869 215.321C89.1863 212.537 93.2085 211.007 97.3714 211.029H153.491C155.815 211.046 158.11 211.547 160.23 212.5C162.351 213.452 164.25 214.836 165.809 216.563C167.367 218.29 168.55 220.322 169.283 222.532C170.015 224.741 170.282 227.079 170.065 229.397Z" fill="#121212"/>
<path d="M408.854 411.867H352.818C348.655 411.889 344.633 410.36 341.533 407.576C338.434 404.791 336.479 400.952 336.049 396.803L318.721 229.397C318.482 227.051 318.738 224.682 319.473 222.442C320.208 220.203 321.405 218.143 322.987 216.397C324.568 214.652 326.499 213.259 328.653 212.31C330.807 211.361 333.137 210.877 335.49 210.889H391.526C395.689 210.867 399.711 212.397 402.811 215.181C405.91 217.965 407.865 221.805 408.295 225.953L425.623 393.36C425.862 395.705 425.606 398.075 424.871 400.314C424.136 402.554 422.939 404.613 421.357 406.359C419.776 408.105 417.845 409.497 415.691 410.446C413.537 411.395 411.207 411.879 408.854 411.867Z" fill="#121212"/>
<path d="M22.638 105.865H475.231C478.055 105.868 480.833 106.586 483.307 107.951C485.78 109.317 487.87 111.287 489.381 113.677C490.892 116.068 491.775 118.802 491.95 121.626C492.124 124.45 491.584 127.273 490.379 129.832L472.576 167.519C471.217 170.391 469.072 172.819 466.39 174.519C463.709 176.219 460.601 177.122 457.428 177.123H40.4689C37.2957 177.122 34.1879 176.219 31.5065 174.519C28.8251 172.819 26.6802 170.391 25.321 167.519L7.49008 129.832C6.285 127.273 5.74468 124.45 5.91919 121.626C6.0937 118.802 6.97739 116.068 8.48833 113.677C9.99927 111.287 12.0885 109.317 14.5621 107.951C17.0357 106.586 19.8135 105.868 22.638 105.865Z" fill="#121212"/>
<path d="M384.288 71.2578H109.026C106.414 71.2647 103.836 70.6602 101.499 69.4926C99.1614 68.325 97.1285 66.6265 95.5622 64.5324C93.9959 62.4384 92.9394 60.0067 92.4772 57.4313C92.015 54.8559 92.1597 52.2079 92.8997 49.6984L104.079 12.0116C105.119 8.55276 107.243 5.52177 110.138 3.36816C113.033 1.21456 116.544 0.0530125 120.149 0.0559136H372.829C376.434 0.0530125 379.945 1.21456 382.84 3.36816C385.735 5.52177 387.859 8.55276 388.899 12.0116L400.33 49.6984C401.068 52.2011 401.214 54.8416 400.756 57.4106C400.298 59.9796 399.249 62.4065 397.692 64.4988C396.136 66.591 394.114 68.2911 391.787 69.4643C389.46 70.6375 386.892 71.2516 384.288 71.2578Z" fill="#121212"/>
<path d="M281.522 411.867H207.487C205.152 411.877 202.841 411.397 200.701 410.46C198.562 409.523 196.641 408.149 195.063 406.425C193.484 404.701 192.282 402.666 191.534 400.45C190.786 398.234 190.508 395.886 190.718 393.556L206.118 226.093C206.502 221.91 208.437 218.022 211.541 215.197C214.646 212.373 218.693 210.816 222.887 210.833H266.179C270.372 210.816 274.42 212.373 277.524 215.197C280.628 218.022 282.563 221.91 282.948 226.093L298.347 393.5C298.566 395.839 298.293 398.198 297.545 400.424C296.797 402.651 295.592 404.696 294.006 406.427C292.421 408.158 290.49 409.536 288.34 410.473C286.19 411.41 283.867 411.885 281.522 411.867Z" fill="#121212"/>
</g>
</svg>
