<svg width="100" height="100" viewBox="0 0 100 100" fill="none" xmlns="http://www.w3.org/2000/svg">
<g clip-path="url(#clip0_841_1020)">
<path fill-rule="evenodd" clip-rule="evenodd" d="M50 1C22.938 1 1 22.938 1 50C1 77.0619 22.938 99 50 99C77.0619 99 99 77.0619 99 50C99 22.938 77.0619 1 50 1ZM0 50C0 22.3858 22.3858 0 50 0C77.6142 0 100 22.3858 100 50C100 77.6142 77.6142 100 50 100C22.3858 100 0 77.6142 0 50Z" fill="#545454"/>
<path fill-rule="evenodd" clip-rule="evenodd" d="M50 4C24.5949 4 4 24.5949 4 50C4 75.4051 24.5949 96 50 96C75.4051 96 96 75.4051 96 50C96 24.5949 75.4051 4 50 4ZM3 50C3 24.0426 24.0426 3 50 3C75.9574 3 97 24.0426 97 50C97 75.9574 75.9574 97 50 97C24.0426 97 3 75.9574 3 50Z" fill="#545454"/>
<path fill-rule="evenodd" clip-rule="evenodd" d="M50 23C35.0883 23 23 35.0883 23 50C23 64.9117 35.0883 77 50 77C64.9117 77 77 64.9117 77 50C77 35.0883 64.9117 23 50 23ZM22 50C22 34.536 34.536 22 50 22C65.464 22 78 34.536 78 50C78 65.464 65.464 78 50 78C34.536 78 22 65.464 22 50Z" fill="#545454"/>
<path fill-rule="evenodd" clip-rule="evenodd" d="M50 26C36.7452 26 26 36.7452 26 50C26 63.2548 36.7452 74 50 74C63.2548 74 74 63.2548 74 50C74 36.7452 63.2548 26 50 26ZM25 50C25 36.1929 36.1929 25 50 25C63.8071 25 75 36.1929 75 50C75 63.8071 63.8071 75 50 75C36.1929 75 25 63.8071 25 50Z" fill="#545454"/>
<path fill-rule="evenodd" clip-rule="evenodd" d="M74.5 76.5C73.9477 76.5 73.5 76.9477 73.5 77.5C73.5 78.0523 73.9477 78.5 74.5 78.5C75.0523 78.5 75.5 78.0523 75.5 77.5C75.5 76.9477 75.0523 76.5 74.5 76.5ZM72.5 77.5C72.5 76.3954 73.3954 75.5 74.5 75.5C75.6046 75.5 76.5 76.3954 76.5 77.5C76.5 78.6046 75.6046 79.5 74.5 79.5C73.3954 79.5 72.5 78.6046 72.5 77.5Z" fill="#1D1D1D"/>
<path fill-rule="evenodd" clip-rule="evenodd" d="M36.5 14.5C35.9477 14.5 35.5 14.9477 35.5 15.5C35.5 16.0523 35.9477 16.5 36.5 16.5C37.0523 16.5 37.5 16.0523 37.5 15.5C37.5 14.9477 37.0523 14.5 36.5 14.5ZM34.5 15.5C34.5 14.3954 35.3954 13.5 36.5 13.5C37.6046 13.5 38.5 14.3954 38.5 15.5C38.5 16.6046 37.6046 17.5 36.5 17.5C35.3954 17.5 34.5 16.6046 34.5 15.5Z" fill="#1D1D1D"/>
<g clip-path="url(#clip1_841_1020)">
<path fill-rule="evenodd" clip-rule="evenodd" d="M58.2787 40.6056H41.9492L43.0391 37H57.1902L58.2787 40.6056ZM63 42.3566H37.2294L38.9475 45.9622H61.2819L63 42.3566ZM45.2488 57.8842L46.3087 47.7148H41.7298L40.6713 57.8842H45.2488ZM54.7584 57.8842H59.3301L58.2716 47.7148H53.697L54.7584 57.8842ZM63 62.9999H37L38.7338 59.6351H61.2676L63 62.9999ZM47.1777 57.8842H52.8279L51.8862 47.7148H48.1194L47.1777 57.8842Z" fill="url(#paint0_linear_841_1020)"/>
</g>
<path d="M57.9794 80.7345C58.6227 80.5215 59.2753 80.4196 59.9374 80.4291C60.5912 80.4413 61.1349 80.5632 61.5685 80.7948L61.4434 81.6187C61.0262 81.4091 60.525 81.2915 59.9399 81.2656C59.3576 81.2481 58.7901 81.3308 58.2376 81.5138C57.4624 81.7706 56.9274 82.1034 56.6327 82.5122C56.3408 82.9293 56.2699 83.3646 56.4201 83.8181C56.5349 84.1645 56.7336 84.4052 57.0163 84.5404C57.2908 84.6782 57.5983 84.7502 57.939 84.7564C58.2824 84.7707 58.748 84.7538 59.336 84.7054C60.0422 84.6545 60.6136 84.6391 61.0504 84.6591C61.4899 84.6874 61.9017 84.8118 62.2859 85.0323C62.6619 85.2555 62.9386 85.6351 63.1162 86.1712C63.261 86.6083 63.2767 87.0423 63.1632 87.4734C63.0525 87.9128 62.7935 88.3189 62.3863 88.6918C61.979 89.0646 61.4207 89.3685 60.7115 89.6035C60.2167 89.7674 59.7111 89.8571 59.1946 89.8726C58.6725 89.8991 58.1987 89.8502 57.7732 89.7258L57.8406 88.8935C58.2827 89.0124 58.729 89.0613 59.1796 89.0402C59.6329 89.0273 60.0575 88.9553 60.4534 88.8242C61.2121 88.5728 61.736 88.2345 62.0253 87.8092C62.309 87.3949 62.3744 86.9569 62.2214 86.4951C62.1067 86.1487 61.9107 85.9025 61.6335 85.7563C61.3508 85.6212 61.0336 85.5478 60.682 85.5362C60.3249 85.5355 59.8564 85.558 59.2767 85.6036C58.5898 85.6573 58.0266 85.67 57.5871 85.6417C57.1421 85.6244 56.7316 85.5041 56.3556 85.2809C55.9824 85.0659 55.7084 84.6945 55.5335 84.1667C55.3887 83.7297 55.3758 83.2901 55.4948 82.848C55.6082 82.4169 55.8727 82.0136 56.2882 81.638C56.7065 81.2706 57.2702 80.9695 57.9794 80.7345Z" fill="url(#paint1_linear_841_1020)"/>
<path d="M37.08 79.8775C37.4208 79.6019 37.796 79.4177 38.2055 79.3249C38.6082 79.2218 39.0265 79.2151 39.4604 79.3047C39.9879 79.4137 40.4626 79.6492 40.8846 80.0114C41.2998 80.3633 41.7376 80.9061 42.1981 81.64C43.0522 81.843 43.7824 82.2156 44.389 82.7578C44.9955 83.3 45.4241 83.9519 45.6749 84.7134C45.9256 85.4748 45.964 86.2767 45.79 87.119C45.6125 87.9782 45.2527 88.7111 44.7105 89.3177C44.1597 89.9224 43.4866 90.3467 42.6911 90.5904C41.8854 90.8409 41.0401 90.8748 40.1553 90.692C39.2705 90.5092 38.5154 90.1492 37.8901 89.612C37.2563 89.073 36.8073 88.4125 36.543 87.6305C36.277 86.857 36.2327 86.0406 36.4102 85.1814C36.5649 84.4327 36.8646 83.7761 37.3095 83.2115C37.744 82.6537 38.2851 82.2244 38.9328 81.9235C39.5719 81.6208 40.2671 81.4761 41.0184 81.4894C40.5056 80.6649 39.9302 80.1868 39.2921 80.055C38.6285 79.9179 38.0065 80.0733 37.4261 80.5211L37.08 79.8775ZM44.8584 86.9265C45.0026 86.2289 44.971 85.5659 44.7637 84.9376C44.5478 84.3076 44.1883 83.772 43.6851 83.331C43.1733 82.8882 42.5644 82.5938 41.8582 82.448C41.1521 82.3021 40.4806 82.3319 39.8438 82.5375C39.207 82.743 38.669 83.0931 38.2297 83.5879C37.7904 84.0826 37.4987 84.6788 37.3546 85.3764C37.2105 86.0741 37.2421 86.737 37.4494 87.3653C37.6567 87.9936 38.0119 88.5283 38.5152 88.9693C39.0184 89.4104 39.6231 89.7039 40.3293 89.8497C41.0354 89.9956 41.7111 89.9666 42.3564 89.7628C42.9932 89.5573 43.5355 89.208 43.9833 88.7151C44.4226 88.2203 44.7143 87.6241 44.8584 86.9265Z" fill="url(#paint2_linear_841_1020)"/>
<path d="M27.5946 74.3515C28.4771 75.137 28.9397 76.0023 28.9824 76.9474C29.025 77.8926 28.6161 78.8486 27.7555 79.8155L24.2812 83.7188L23.5609 83.0776L27.0092 79.2036C27.7138 78.4119 28.061 77.6625 28.0506 76.9555C28.0403 76.2485 27.6976 75.5946 27.0228 74.9939C26.3414 74.3874 25.649 74.12 24.9455 74.1917C24.2421 74.2634 23.538 74.6951 22.8333 75.4868L19.3851 79.3608L18.6843 78.737L22.1585 74.8338C23.0191 73.8669 23.9213 73.3498 24.865 73.2826C25.8022 73.2097 26.712 73.566 27.5946 74.3515Z" fill="url(#paint3_linear_841_1020)"/>
<path d="M15.461 59.0233L17.0591 63.8476L19.7165 64.1204L20.0321 65.0729L10.0617 63.983L9.7626 63.08L17.1103 56.2531L17.4299 57.218L15.461 59.0233ZM14.8294 59.6032L10.8667 63.2221L16.2063 63.7595L14.8294 59.6032Z" fill="url(#paint4_linear_841_1020)"/>
<path d="M18.3066 41.7492L15.0134 43.1979C14.9915 43.4329 14.955 43.6737 14.904 43.9204L14.4084 46.3196L17.2415 46.9049L17.0465 47.8492L8.11328 46.0039L8.80396 42.6603C9.03946 41.5203 9.49625 40.6832 10.1743 40.1491C10.8524 39.615 11.6678 39.4464 12.6207 39.6432C13.3184 39.7873 13.8727 40.0881 14.2839 40.5456C14.6882 40.9929 14.9291 41.566 15.0065 42.265L18.5201 40.7155L18.3066 41.7492ZM14.0948 43.7799C14.2776 42.8951 14.2216 42.1783 13.9269 41.6295C13.6322 41.0807 13.1318 40.7334 12.4256 40.5876C11.7025 40.4382 11.1011 40.5579 10.6216 40.9467C10.1336 41.3338 9.79821 41.9698 9.61544 42.8546L9.12511 45.2283L13.6045 46.1536L14.0948 43.7799Z" fill="url(#paint5_linear_841_1020)"/>
<path d="M26.8719 26.8228L27.4949 27.3773L23.2063 32.1956L16.3926 26.1309L20.5512 21.4586L21.1742 22.0131L17.6567 25.965L20.0804 28.1223L23.2167 24.5987L23.8299 25.1445L20.6936 28.6682L23.2244 30.9208L26.8719 26.8228Z" fill="url(#paint6_linear_841_1020)"/>
</g>
<path d="M55.2046 14.9031L50.6756 14.9031L49.7828 16.9993H48.0488L52.1249 7.94141L53.7812 7.94141L57.8702 16.9993L56.1104 16.9993L55.2046 14.9031ZM54.6482 13.5832L52.9401 9.62359L51.245 13.5832L54.6482 13.5832Z" fill="url(#paint7_linear_841_1020)"/>
<path d="M72.6395 18.3412L74.0179 19.137L72.2127 22.2636C71.6238 22.3519 71.0108 22.3267 70.3737 22.188C69.7366 22.0492 69.1342 21.816 68.5664 21.4881C67.767 21.0266 67.1453 20.4386 66.7012 19.724C66.2614 19.0019 66.0354 18.2289 66.023 17.4049C66.0106 16.581 66.2266 15.7842 66.6708 15.0147C67.1151 14.2452 67.6971 13.6599 68.4169 13.2586C69.1366 12.8573 69.917 12.6703 70.7579 12.6976C71.6106 12.7218 72.4403 12.9667 73.2472 13.4326C73.9046 13.8121 74.4397 14.2655 74.8525 14.7927C75.2654 15.32 75.534 15.8984 75.6586 16.5281L74.2221 16.8941C73.9694 15.9514 73.421 15.2363 72.5768 14.7489C72.024 14.4297 71.4641 14.2608 70.897 14.2423C70.3375 14.228 69.8137 14.3589 69.3256 14.6349C68.845 14.9153 68.4494 15.3244 68.1388 15.8623C67.8369 16.3852 67.6847 16.9249 67.6822 17.4813C67.6872 18.042 67.8336 18.5648 68.1214 19.0498C68.4167 19.539 68.8371 19.9411 69.3824 20.2559C69.995 20.6096 70.6106 20.7857 71.229 20.7842L72.6395 18.3412Z" fill="url(#paint8_linear_841_1020)"/>
<path d="M79.4761 32.5628C79.0146 31.7634 78.7702 30.9433 78.7429 30.1024C78.7231 29.2572 78.9138 28.4747 79.3151 27.7549C79.7238 27.0308 80.3092 26.4488 81.0712 26.0089C81.8332 25.5689 82.6262 25.3551 83.4502 25.3675C84.2816 25.3756 85.0546 25.6016 85.7692 26.0457C86.4913 26.4855 87.0831 27.1051 87.5446 27.9045C88.0062 28.7038 88.2468 29.5261 88.2666 30.3713C88.2939 31.2123 88.1069 31.9926 87.7057 32.7123C87.3044 33.4321 86.719 34.0141 85.9495 34.4584C85.1801 34.9027 84.3833 35.1186 83.5594 35.1062C82.7354 35.0938 81.9624 34.8678 81.2403 34.428C80.5257 33.9839 79.9376 33.3622 79.4761 32.5628ZM80.7536 31.8252C81.0556 32.3482 81.4431 32.752 81.9162 33.0367C82.3969 33.317 82.9154 33.4559 83.4718 33.4535C84.0356 33.4467 84.579 33.2923 85.102 32.9904C85.6249 32.6884 86.0266 32.2972 86.3069 31.8166C86.5948 31.3316 86.7337 30.8131 86.7237 30.2611C86.7213 29.7047 86.5691 29.165 86.2671 28.642C85.9652 28.1191 85.5739 27.7174 85.0933 27.4371C84.6202 27.1524 84.1017 27.0135 83.5378 27.0203C82.9814 27.0228 82.4417 27.175 81.9188 27.4769C81.3958 27.7788 80.9904 28.1722 80.7026 28.6572C80.4223 29.1378 80.2833 29.6563 80.2858 30.2127C80.2958 30.7648 80.4517 31.3023 80.7536 31.8252Z" fill="url(#paint9_linear_841_1020)"/>
<path d="M83.739 50.405L86.3916 48.5546C86.383 48.4769 86.3787 48.3605 86.3787 48.2052V46.1607H83.739V44.4785H92.7969V48.2052C92.7969 48.9902 92.6675 49.6717 92.4087 50.2497C92.1499 50.8363 91.7789 51.2849 91.2958 51.5955C90.8128 51.906 90.2391 52.0613 89.5748 52.0613C88.8933 52.0613 88.3067 51.8931 87.815 51.5566C87.3233 51.2288 86.9567 50.7544 86.7151 50.1332L83.739 52.2166V50.405ZM89.5748 50.3662C90.1528 50.3662 90.5971 50.1764 90.9077 49.7968C91.2182 49.4172 91.3735 48.8608 91.3735 48.1276V46.1607H87.7633V48.1276C87.7633 48.8608 87.9185 49.4172 88.2291 49.7968C88.5483 50.1764 88.9969 50.3662 89.5748 50.3662Z" fill="url(#paint10_linear_841_1020)"/>
<path d="M80.1724 66.6713L82.4369 62.7491L81.0679 60.9278L81.9349 59.4261L87.7413 67.4851L86.9131 68.9195L77.0242 67.9317L77.9041 66.4076L80.1724 66.6713ZM81.5937 66.8494L85.8768 67.35L83.2953 63.9021L81.5937 66.8494Z" fill="url(#paint11_linear_841_1020)"/>
<defs>
<linearGradient id="paint0_linear_841_1020" x1="36.9958" y1="61.4197" x2="64.7919" y2="57.7561" gradientUnits="userSpaceOnUse">
<stop stop-color="#5D636D"/>
<stop offset="1" stop-color="#EEEEEE"/>
</linearGradient>
<linearGradient id="paint1_linear_841_1020" x1="61.2564" y1="77.5259" x2="52.9644" y2="80.9099" gradientUnits="userSpaceOnUse">
<stop stop-color="#5D636D"/>
<stop offset="1" stop-color="#EEEEEE"/>
</linearGradient>
<linearGradient id="paint2_linear_841_1020" x1="47.9793" y1="80.7762" x2="35.8239" y2="79.417" gradientUnits="userSpaceOnUse">
<stop stop-color="#5D636D"/>
<stop offset="1" stop-color="#EEEEEE"/>
</linearGradient>
<linearGradient id="paint3_linear_841_1020" x1="32.8302" y1="76.3116" x2="23.7822" y2="69.5466" gradientUnits="userSpaceOnUse">
<stop stop-color="#5D636D"/>
<stop offset="1" stop-color="#EEEEEE"/>
</linearGradient>
<linearGradient id="paint4_linear_841_1020" x1="22.1324" y1="64.7489" x2="17.8986" y2="54.7808" gradientUnits="userSpaceOnUse">
<stop stop-color="#5D636D"/>
<stop offset="1" stop-color="#EEEEEE"/>
</linearGradient>
<linearGradient id="paint5_linear_841_1020" x1="18.7825" y1="49.7974" x2="20.0795" y2="39.5169" gradientUnits="userSpaceOnUse">
<stop stop-color="#5D636D"/>
<stop offset="1" stop-color="#EEEEEE"/>
</linearGradient>
<linearGradient id="paint6_linear_841_1020" x1="23.6475" y1="34.8515" x2="29.6558" y2="26.9911" gradientUnits="userSpaceOnUse">
<stop stop-color="#5D636D"/>
<stop offset="1" stop-color="#EEEEEE"/>
</linearGradient>
<linearGradient id="paint7_linear_841_1020" x1="48.0488" y1="10.0885" x2="58.2711" y2="11.6975" gradientUnits="userSpaceOnUse">
<stop stop-color="#84B9D1"/>
<stop offset="1" stop-color="#D2B4FC"/>
</linearGradient>
<linearGradient id="paint8_linear_841_1020" x1="67.8958" y1="12.893" x2="75.0517" y2="18.3998" gradientUnits="userSpaceOnUse">
<stop stop-color="#84B9D1"/>
<stop offset="1" stop-color="#D2B4FC"/>
</linearGradient>
<linearGradient id="paint9_linear_841_1020" x1="83.1929" y1="24.7839" x2="86.9395" y2="34.3657" gradientUnits="userSpaceOnUse">
<stop stop-color="#84B9D1"/>
<stop offset="1" stop-color="#D2B4FC"/>
</linearGradient>
<linearGradient id="paint10_linear_841_1020" x1="90.6498" y1="44.4785" x2="89.6418" y2="52.6069" gradientUnits="userSpaceOnUse">
<stop stop-color="#84B9D1"/>
<stop offset="1" stop-color="#D2B4FC"/>
</linearGradient>
<linearGradient id="paint11_linear_841_1020" x1="87.9199" y1="62.8815" x2="81.4153" y2="70.9298" gradientUnits="userSpaceOnUse">
<stop stop-color="#84B9D1"/>
<stop offset="1" stop-color="#D2B4FC"/>
</linearGradient>
<clipPath id="clip0_841_1020">
<rect width="100" height="100" fill="white"/>
</clipPath>
<clipPath id="clip1_841_1020">
<rect width="26" height="26" fill="white" transform="translate(37 37)"/>
</clipPath>
</defs>
</svg>
