<svg width="3" height="12" viewBox="0 0 3 12" fill="none" xmlns="http://www.w3.org/2000/svg">
<path d="M1.5 12C0.671573 12 0 11.2931 0 10.4211C0 9.54902 0.671573 8.8421 1.5 8.8421C2.32843 8.8421 3 9.54902 3 10.4211C3 11.2931 2.32843 12 1.5 12Z" fill="#C4C4C4"/>
<path d="M1.5 7.57895C0.671573 7.57895 0 6.87203 0 6C0 5.12797 0.671573 4.42105 1.5 4.42105C2.32843 4.42105 3 5.12797 3 6C3 6.87203 2.32843 7.57895 1.5 7.57895Z" fill="#C4C4C4"/>
<path d="M1.5 3.15789C0.671573 3.15789 0 2.45098 0 1.57895C0 0.706919 0.671573 0 1.5 0C2.32843 0 3 0.706919 3 1.57895C3 2.45098 2.32843 3.15789 1.5 3.15789Z" fill="#C4C4C4"/>
</svg>
