<svg width="32" height="32" viewBox="0 0 32 32" fill="none" xmlns="http://www.w3.org/2000/svg">
<rect width="32" height="32" rx="16" fill="url(#paint0_linear)"/>
<path d="M32 16C32 19.1645 31.0616 22.2579 29.3035 24.8891C27.5454 27.5203 25.0466 29.5711 22.1229 30.7821C19.1993 31.9931 15.9823 32.3099 12.8786 31.6926C9.77486 31.0752 6.92393 29.5513 4.68629 27.3137C2.44865 25.0761 0.924799 22.2251 0.307435 19.1214C-0.309928 16.0177 0.00692538 12.8007 1.21793 9.87706C2.42893 6.95345 4.47969 4.45459 7.11088 2.69649C9.74206 0.938384 12.8355 -3.77363e-08 16 0V16H32Z" fill="#FFB7B7"/>
<path d="M16 32C11.7565 32 7.68687 30.3143 4.68629 27.3137C1.68571 24.3131 -1.18045e-07 20.2435 0 16C1.18045e-07 11.7565 1.68571 7.68687 4.68629 4.68629C7.68687 1.68571 11.7565 -5.06028e-08 16 0V16L16 32Z" fill="#007AFF"/>
<rect x="2.40039" y="2.40039" width="27.2" height="27.2" rx="13.6" fill="white"/>
<defs>
<linearGradient id="paint0_linear" x1="-8.80612e-08" y1="7.58519" x2="33.4268" y2="12.4376" gradientUnits="userSpaceOnUse">
<stop stop-color="#84B9D1"/>
<stop offset="1" stop-color="#D2B4FC"/>
</linearGradient>
</defs>
</svg>
