<svg width="134" height="135" viewBox="0 0 134 135" fill="none" xmlns="http://www.w3.org/2000/svg">
<path fill-rule="evenodd" clip-rule="evenodd" d="M66.1654 0.343666C65.7851 0.886159 65.8118 9.7596 66.1948 10.2124C66.6872 10.7942 67.1977 10.7827 67.6577 10.1796L68.0654 9.64507V5.42806C68.0654 1.09499 67.9925 0.516225 67.395 0.121094C67.0446 -0.111021 66.4021 0.0054186 66.1654 0.343666ZM33.2863 9.2698C32.6972 9.68058 32.9969 11.0534 33.8655 11.9219C34.0296 12.0861 34.1644 12.3186 34.1644 12.4381C34.1644 12.5576 34.3266 12.8496 34.5252 13.0871C34.7237 13.3246 34.934 13.672 34.9928 13.8594C35.0512 14.0469 35.3353 14.5966 35.6239 15.0811C35.9125 15.5655 36.3034 16.2264 36.4928 16.5494C37.1807 17.7229 37.8752 18.362 38.3367 18.2459C39.1549 18.0405 39.4645 17.0327 38.9262 16.3264C38.7735 16.126 38.5589 15.7389 38.4493 15.4659C38.3402 15.1929 38.1943 14.9696 38.1256 14.9696C38.0573 14.9696 37.7179 14.4038 37.372 13.7124C37.0257 13.0211 36.5814 12.2438 36.3836 11.9849C36.1862 11.7261 35.9117 11.2783 35.7735 10.9897C34.8153 8.98767 34.2507 8.59712 33.2863 9.2698ZM99.1444 9.4687C98.6661 9.96805 98.1377 10.7831 97.7556 11.61C97.6197 11.904 97.3849 12.2819 97.2333 12.4499C96.9684 12.7435 96.6129 13.3761 96.0758 14.5103C95.9368 14.8035 95.6593 15.2384 95.4588 15.4762C95.2584 15.7144 95.0943 15.9901 95.0939 16.0886C95.0931 16.1871 94.9935 16.4581 94.8717 16.691C94.2082 17.9638 96.0548 18.8094 96.7427 17.5477C96.8859 17.2843 97.1485 16.8888 97.3261 16.6685C97.5036 16.4478 97.701 16.1015 97.7643 15.8988C97.8281 15.6957 98.1736 15.1013 98.5321 14.5775C98.8909 14.0534 99.2639 13.383 99.3617 13.0879C99.459 12.7924 99.635 12.4709 99.7526 12.3732C100.149 12.0441 100.886 10.5693 100.922 10.033C100.995 8.95217 99.9557 8.62232 99.1444 9.4687ZM64.7822 21.3929C62.7753 21.5929 61.4963 21.8567 60.6732 22.24C60.2457 22.4389 59.7998 22.6027 59.6822 22.6034C59.384 22.6057 56.2966 24.1259 55.9252 24.4535C55.7572 24.6016 55.3983 24.8822 55.1281 25.0765C52.4274 27.0178 50.5304 29.1725 49.2885 31.709C49.119 32.0549 48.8812 32.4206 48.7594 32.5214C48.638 32.6222 48.491 32.9234 48.4326 33.1906C48.3746 33.4575 48.1707 33.9855 47.9794 34.3634C47.7882 34.7414 47.5847 35.39 47.527 35.805C47.4694 36.2204 47.2751 36.9075 47.0945 37.3321C46.5787 38.5472 46.5787 56.5995 47.0945 58.2621C47.2766 58.8501 47.5102 59.7091 47.6133 60.171C47.716 60.6329 47.9275 61.2503 48.0833 61.5431C48.239 61.8359 48.3662 62.1833 48.3662 62.315C48.3662 62.4471 48.538 62.788 48.7479 63.0724C48.9579 63.3569 49.1297 63.6474 49.1297 63.7176C49.1297 64.7579 53.7292 69.9905 55.4159 70.8689C55.6121 70.9708 55.9443 71.2178 56.1542 71.4175C56.3642 71.6172 56.6719 71.876 56.8384 71.9928C57.2297 72.2681 56.8319 72.3196 52.7947 72.5151C50.6869 72.6174 49.6161 72.7342 49.1297 72.9148C48.7518 73.0553 48.0772 73.2389 47.6309 73.3229C47.1846 73.4069 46.5043 73.6432 46.1191 73.8478C45.7343 74.0525 45.2876 74.2201 45.1265 74.2201C44.8256 74.2201 44.2259 74.4865 44.0904 74.6805C44.0484 74.7408 43.7128 74.9538 43.3451 75.1539C42.9771 75.3543 42.4965 75.6158 42.277 75.7353C41.7891 76.0006 39.8787 77.483 38.7651 78.4604C37.9561 79.1705 36.0541 81.4095 35.8816 81.8554C35.8327 81.9814 35.5979 82.3101 35.3605 82.5862C35.1226 82.8622 34.9279 83.1603 34.9279 83.2493C34.9279 83.3379 34.7909 83.5852 34.6229 83.7983C34.4553 84.0117 34.2426 84.469 34.1506 84.8149C34.0586 85.1608 33.8929 85.5471 33.783 85.6731C33.4543 86.0488 32.6675 88.2722 32.4861 89.3381C32.3934 89.884 32.2006 90.6743 32.0574 91.0942C31.8215 91.7872 31.7974 92.9435 31.7974 103.616V115.375L32.2792 116.749C33.0729 119.012 34.5362 120.967 35.9934 121.711C36.3008 121.867 36.6413 122.103 36.7509 122.235C36.86 122.367 37.2796 122.573 37.6831 122.692C38.0863 122.812 38.5601 122.987 38.7361 123.081C38.9117 123.175 39.7451 123.312 40.5873 123.385C42.7458 123.573 42.5633 123.087 42.5633 128.645C42.5633 133.985 42.5915 134.143 43.5318 134.052C44.463 133.961 44.5328 133.565 44.5412 128.323L44.5485 123.709L45.1211 123.54C46.2901 123.194 57.1919 123.409 57.4992 123.784C57.6412 123.957 57.9295 124.215 58.1394 124.357C58.3494 124.5 58.8304 124.857 59.2084 125.151C59.5863 125.446 60.1017 125.791 60.3537 125.917C60.6057 126.044 61.1211 126.385 61.499 126.676C61.877 126.966 62.432 127.338 62.7325 127.502C63.033 127.666 63.6858 128.07 64.1832 128.4C66.6846 130.059 67.3549 130.103 69.1054 128.727C69.3119 128.564 69.5612 128.431 69.6589 128.431C69.8147 128.431 70.2003 128.191 72.0358 126.953C72.2458 126.812 73.0017 126.318 73.7156 125.855C74.4295 125.393 75.0873 124.928 75.1774 124.822C75.2675 124.716 75.7142 124.368 76.17 124.049L76.9988 123.468L82.8372 123.423C86.8072 123.393 88.7741 123.431 88.9837 123.543C89.2822 123.703 89.2917 123.851 89.2917 128.337C89.2917 133.484 89.3437 133.849 90.0996 134.015C90.5172 134.107 90.6329 134.055 91.004 133.61L91.4297 133.1V128.494C91.4297 123.124 91.2842 123.535 93.2347 123.393C96.6916 123.142 99.4579 121.2 101.285 117.742L101.89 116.596V103.54V90.4834L101.489 89.5672C101.269 89.0632 101.04 88.3184 100.982 87.9122C100.923 87.506 100.708 86.86 100.504 86.4771C100.301 86.0938 100.134 85.6666 100.134 85.5273C100.134 85.3883 99.9622 85.0413 99.7522 84.7569C99.5422 84.4725 99.3704 84.1758 99.3704 84.098C99.3704 83.9239 98.6772 82.8018 98.1106 82.0589C97.8796 81.7558 97.6907 81.4645 97.6907 81.4115C97.6907 81.2923 96.3056 79.7168 95.4676 78.8834C94.4559 77.8767 93.1541 76.8012 92.3031 76.2698C91.8649 75.9957 91.3319 75.6357 91.1193 75.47C90.9066 75.3039 90.4855 75.0649 90.1836 74.9389C89.8816 74.8126 89.5888 74.6354 89.533 74.5453C89.4773 74.4549 89.1425 74.3094 88.789 74.2216C88.4354 74.1342 87.8716 73.9307 87.5356 73.77C87.1997 73.6089 86.5125 73.3748 86.0085 73.2496C85.5046 73.1244 84.7384 72.919 84.3055 72.7934C83.8393 72.6583 82.5028 72.5269 81.0223 72.4712C79.6494 72.4197 78.1659 72.3402 77.7261 72.2952L76.9263 72.2135L77.6123 71.537C77.9899 71.1648 78.3625 70.8605 78.4404 70.8605C78.6561 70.8605 81.031 68.8562 81.8091 68.0179C82.6455 67.1165 82.9239 66.7542 83.7447 65.4986C84.0955 64.9622 84.512 64.3514 84.6701 64.1414C84.8281 63.9314 85.0793 63.434 85.2278 63.0358C85.3763 62.6376 85.5569 62.2757 85.6287 62.2314C85.7001 62.1871 85.8402 61.7569 85.9394 61.2755C86.0387 60.794 86.2193 60.2061 86.3411 59.969C87.7498 57.2253 87.6681 39.4948 86.2273 35.2797C85.5577 33.3204 85.0114 32.0415 84.6521 31.5914C84.4742 31.3685 84.1226 30.8306 83.8706 30.3965C83.0907 29.0515 79.6994 25.5266 78.4953 24.8093C77.0339 23.9389 76.0398 23.3998 75.6943 23.2914C75.4881 23.2269 75.1575 23.0474 74.9598 22.8932C74.7624 22.7394 74.3501 22.5676 74.0435 22.5118C73.7374 22.4565 73.2262 22.2801 72.9081 22.1201C71.7167 21.5211 67.3855 21.1336 64.7822 21.3929ZM70.553 23.7472C70.9424 23.8793 71.6403 24.0576 72.1038 24.1435C72.5672 24.229 73.2395 24.4669 73.598 24.6719C73.9569 24.8769 74.357 25.0456 74.4875 25.0464C74.6185 25.0475 74.9533 25.2166 75.232 25.422C75.5103 25.6278 75.9409 25.8401 76.1879 25.8947C76.4353 25.9489 76.6758 26.0928 76.7224 26.2146C76.7694 26.336 77.0706 26.57 77.3928 26.7342C78.5812 27.3408 81.3151 30.3209 82.4772 32.2778C82.6348 32.5432 82.8838 32.9345 83.0307 33.1479C83.1777 33.3609 83.3491 33.7732 83.4121 34.0641C83.4751 34.3547 83.65 34.767 83.8008 34.9804C83.9512 35.1934 84.1547 35.8119 84.2524 36.3547C84.3501 36.8972 84.5445 37.5817 84.685 37.8757C85.0724 38.6893 85.0732 56.9118 84.6857 57.7277C84.546 58.0216 84.3834 58.6057 84.3242 59.0257C84.2066 59.8641 83.3824 61.9848 82.841 62.8418C82.7353 63.0091 82.4096 63.5244 82.1172 63.9872C80.6256 66.3472 78.7901 68.1782 76.6056 69.4861C76.2547 69.6961 75.6179 70.0912 75.1904 70.3642C74.7628 70.6372 74.2707 70.8605 74.0966 70.8605C73.9225 70.8605 73.5079 70.9999 73.1754 71.1697C72.5627 71.4832 70.5515 71.9615 68.5999 72.2585C67.3935 72.4418 64.8498 72.3479 64.1989 72.0955C63.9622 72.0039 63.275 71.855 62.6718 71.7645C62.0686 71.6741 61.3005 71.471 60.9645 71.3125C60.6286 71.1545 60.0571 70.9204 59.6948 70.7933C59.3325 70.6658 58.8591 70.4226 58.6434 70.2531C58.4277 70.0832 58.1791 69.9443 58.0913 69.9443C57.3904 69.9443 53.5597 66.5778 52.243 64.8049C51.6956 64.0673 50.1887 61.0678 49.8001 59.9419C48.6281 56.5446 48.5773 38.5465 49.7325 35.9764C49.886 35.6351 50.057 35.1411 50.1131 34.8784C50.1689 34.6158 50.3827 34.1729 50.5884 33.8946C50.7938 33.6159 50.9622 33.2857 50.9622 33.1609C50.9622 32.1889 55.1792 27.4992 57.0739 26.3646C57.6179 26.039 58.3036 25.6167 58.5976 25.427C58.8915 25.2369 59.3829 25.0376 59.689 24.9845C59.9956 24.9311 60.4209 24.7505 60.6339 24.5829C60.8469 24.4153 61.4207 24.2073 61.909 24.1206C62.3973 24.0339 63.0307 23.8892 63.3166 23.7991C64.8353 23.3193 69.1997 23.288 70.553 23.7472ZM9.2349 33.3663C8.61605 34.2172 8.84587 34.641 10.4795 35.6615C10.6138 35.7454 11.0025 35.9917 11.343 36.2089C11.6832 36.4258 12.1779 36.6785 12.4421 36.7705C12.7059 36.8625 13.2862 37.2069 13.7317 37.5356C14.1773 37.8643 14.7908 38.2151 15.0958 38.3155C15.4005 38.4159 15.7708 38.6316 15.9185 38.7946C16.5759 39.5215 17.961 39.2642 18.1408 38.3823C18.2618 37.7898 17.5013 36.9583 16.5671 36.6609C16.2533 36.5609 15.9563 36.4143 15.9074 36.3353C15.8586 36.2562 15.5314 36.0459 15.1802 35.868C14.8289 35.6897 14.5071 35.4958 14.4651 35.437C14.4231 35.3782 13.7703 34.9987 13.0144 34.5936C12.2585 34.189 11.537 33.7755 11.411 33.6751C11.2243 33.5266 9.72203 32.9765 9.54985 32.994C9.52351 32.9963 9.38188 33.1639 9.2349 33.3663ZM123.116 33.3777C122.78 33.5781 122.265 33.866 121.971 34.0172C121.03 34.5016 119.919 35.1697 119.604 35.44C119.436 35.5847 119.127 35.7531 118.917 35.8145C118.707 35.8764 118.432 36.0134 118.306 36.1192C118.18 36.2253 117.837 36.4326 117.543 36.5804C116.016 37.347 115.542 38.1128 116.101 38.9107C116.518 39.507 117.209 39.3776 118.764 38.4121C119.226 38.1254 119.938 37.6982 120.345 37.463C120.753 37.2282 121.406 36.8499 121.796 36.6227C122.186 36.3956 122.746 36.0967 123.04 35.9589C123.334 35.8214 123.712 35.5866 123.88 35.4374C124.048 35.2885 124.392 35.0709 124.644 34.9537C125.577 34.5207 125.041 33.007 123.956 33.0124C123.83 33.0131 123.452 33.1777 123.116 33.3777ZM62.143 61.9653C61.683 62.3669 61.599 62.9736 61.9445 63.4004L62.2351 63.7596L66.7918 63.7955L71.3486 63.8314L71.864 63.3866L72.3798 62.9419L72.0518 62.4112C71.5983 61.6774 71.7491 61.6981 66.8483 61.6981C62.8772 61.6981 62.4194 61.724 62.143 61.9653ZM0.604638 65.9796C-0.251669 66.3236 -0.184478 67.4967 0.717641 67.9572C1.27693 68.2423 1.61327 68.2645 5.40461 68.2645H9.48915L10.0576 67.7094L10.6261 67.1543L10.2932 66.6805C9.67889 65.8063 9.82549 65.8303 5.22633 65.8357C2.87463 65.8383 0.794758 65.9029 0.604638 65.9796ZM124.147 65.9288C123.255 66.1006 123.28 67.4036 124.185 67.9148C124.778 68.2488 124.923 68.2595 128.928 68.2618L133.059 68.2645L133.547 67.7609C134.156 67.1325 134.155 67.0386 133.521 66.3663L133.007 65.8212L128.749 65.8418C126.407 65.8532 124.336 65.8926 124.147 65.9288ZM82.1145 74.6385C82.3245 74.7423 83.1995 74.9294 84.0589 75.0539C84.9186 75.1783 85.8806 75.4112 86.1967 75.5715C86.5132 75.7315 87.0095 75.914 87.2997 75.9766C88.2262 76.1766 90.8265 77.6949 92.1932 78.8337C92.4872 79.0785 93.0147 79.5053 93.3652 79.7821C93.9783 80.2658 95.179 81.6008 96.0395 82.7557C97.4196 84.6076 99.136 88.344 99.3124 89.881C99.3697 90.3803 99.5262 91.0637 99.6602 91.3997C99.9519 92.1315 100.121 114.28 99.8419 115.19C99.1525 117.435 98.5867 118.415 97.4352 119.359C95.0942 121.277 95.3245 121.243 84.7869 121.248C80.0835 121.25 75.9948 121.191 75.7008 121.115C75.4068 121.04 74.972 120.934 74.7345 120.881C74.3077 120.785 73.325 119.9 72.8631 119.195C72.5806 118.764 72.408 116.862 72.5596 115.852C72.7062 114.874 73.6087 113.839 74.8403 113.237L75.7771 112.779L84.42 112.702C93.7596 112.62 93.5702 112.639 93.5653 111.806C93.5607 111.003 93.0212 110.717 91.5087 110.717C89.9995 110.717 89.63 110.122 90.5134 109.114C90.6608 108.946 90.862 108.556 90.9605 108.248C91.0593 107.94 91.2392 107.605 91.3606 107.504C91.482 107.403 91.6858 106.969 91.813 106.538C91.9405 106.107 92.1741 105.411 92.3318 104.991C93.7218 101.291 93.2022 94.5882 91.3686 92.5618C91.2204 92.398 90.9841 92.0517 90.8444 91.7929C89.9262 90.0944 86.4922 87.151 84.8632 86.6669C84.6533 86.6043 84.3646 86.4504 84.2215 86.3252C84.0783 86.1996 83.5102 86.0026 82.959 85.8869C82.4077 85.7712 81.7717 85.5555 81.5461 85.4078C80.789 84.9115 76.6838 84.9252 75.2247 85.4288C74.5921 85.6472 73.942 85.8262 73.7805 85.8266C73.6186 85.8266 73.0742 86.0328 72.5703 86.284C72.0664 86.5352 71.58 86.7413 71.4899 86.7413C71.3994 86.7417 71.1642 86.9139 70.9669 87.1238C70.7695 87.3338 70.5282 87.5056 70.4309 87.5056C70.3331 87.5056 69.5551 88.1642 68.7018 88.9693C67.1568 90.4269 67.148 90.4323 66.6914 90.2299C66.4395 90.1184 66.2329 89.9814 66.2329 89.9253C66.2329 89.4733 62.8272 86.9292 61.7785 86.5982C61.4704 86.5008 61.1405 86.3275 61.0455 86.2133C60.9508 86.0988 60.5156 85.9213 60.0788 85.8186C59.6421 85.7163 59.0786 85.5254 58.8266 85.3952C58.1062 85.0222 54.0732 84.9497 52.871 85.2875C52.3671 85.4296 51.5616 85.6437 51.0809 85.764C50.6003 85.8843 49.8856 86.1538 49.4928 86.3626C49.1003 86.5711 48.7033 86.7421 48.6105 86.7425C48.5181 86.7425 48.0646 87.0162 47.6026 87.3502C47.1407 87.6847 46.5909 88.0767 46.381 88.2218C45.2998 88.9678 43.8582 90.5288 42.9531 91.9341C42.7095 92.3121 42.3571 92.8618 42.1693 93.1558C41.9819 93.4498 41.7791 93.9281 41.7184 94.2186C41.6581 94.5092 41.4779 94.9978 41.318 95.3048C40.6338 96.6173 40.5899 102.692 41.2553 103.979C41.3913 104.242 41.5703 104.815 41.6535 105.253C41.7364 105.692 41.9754 106.296 42.1838 106.597C42.3926 106.899 42.5633 107.287 42.5633 107.46C42.5633 107.633 42.6961 107.944 42.8588 108.15C43.2791 108.685 43.9617 110.282 43.8708 110.518C43.8166 110.659 43.433 110.717 42.5534 110.717C40.9988 110.717 40.4254 110.991 40.4254 111.734C40.4254 112.73 40.1646 112.702 49.5836 112.703C57.7878 112.704 58.078 112.714 58.5212 113.008C58.7732 113.175 59.0996 113.312 59.2466 113.312C60.104 113.315 61.6502 115.732 61.6509 117.071C61.6517 117.862 60.9134 119.643 60.4675 119.926C60.361 119.994 60.1201 120.206 59.9318 120.397C58.6212 121.732 39.6053 121.702 37.903 120.363C37.6721 120.181 37.406 120.031 37.3124 120.03C36.9677 120.025 35.2455 118.095 34.7928 117.207C34.0285 115.707 33.9846 114.852 34.0537 102.846C34.117 91.8757 34.1926 90.317 34.7111 89.3144C34.8302 89.0838 35.0054 88.5311 35.0997 88.0859C35.1944 87.6408 35.3883 87.1048 35.5311 86.8948C35.6739 86.6848 35.8842 86.2725 35.998 85.9785C36.1122 85.6846 36.3302 85.2803 36.4829 85.0799C36.6356 84.8794 36.7604 84.6271 36.7604 84.519C36.7604 84.4106 36.9322 84.1182 37.1422 83.8685C37.3521 83.6188 37.5239 83.3363 37.5239 83.2409C37.5239 83.1451 37.7473 82.832 38.0202 82.5445C38.2932 82.2571 38.654 81.8386 38.822 81.6149C39.4817 80.735 42.0555 78.3432 42.3426 78.3432C42.4087 78.3432 42.5931 78.2252 42.7526 78.0809C43.3761 77.5166 46.0595 76.1079 47.1976 75.7471C47.5205 75.6448 47.9672 75.4658 48.1902 75.3497C48.4127 75.2333 48.8014 75.1352 49.0533 75.1317C49.3053 75.1279 49.9925 75.0191 50.5804 74.8901C52.6508 74.4342 53.4536 74.4125 67.5309 74.4308C78.49 74.4449 81.8198 74.4923 82.1145 74.6385ZM57.7974 87.5003C59.9414 87.7469 62.9085 89.3992 64.4337 91.1962C65.6347 92.6114 65.8817 92.9244 66.0524 93.2501C66.4933 94.0904 67.8837 93.6341 68.4373 92.4678C68.7289 91.8536 70.9963 89.5729 71.654 89.2327C71.906 89.1026 72.2152 88.9075 72.3412 88.7994C74.0428 87.3395 80.411 86.8673 82.7074 88.0309C83.1315 88.2459 83.5748 88.4219 83.6924 88.4219C83.8096 88.4219 84.0695 88.5482 84.27 88.7029C84.4704 88.8575 84.8548 89.059 85.1247 89.151C85.3947 89.243 85.8623 89.5462 86.1639 89.8245C87.7337 91.2733 89.2917 92.9844 89.2917 93.2593C89.2917 93.3375 89.4567 93.6254 89.6582 93.8987C89.8598 94.1717 90.0683 94.6287 90.1221 94.9142C90.1755 95.1998 90.3714 95.7625 90.5573 96.1653C91.062 97.2587 91.0521 102.125 90.5424 103.355C90.3584 103.799 90.208 104.284 90.208 104.432C90.208 104.58 90.0431 105.041 89.8411 105.457C89.6392 105.873 89.3276 106.522 89.1486 106.899C88.5492 108.163 88.1945 108.806 87.925 109.114C87.7777 109.282 87.6177 109.532 87.5692 109.67C87.5207 109.808 87.2523 110.096 86.9725 110.309L86.4636 110.697L80.5095 110.745L74.5555 110.793L73.6705 111.282C72.3141 112.031 71.1745 113.177 70.8909 114.079C70.8252 114.288 70.6435 114.698 70.4874 114.991C70.0808 115.752 70.0804 118.354 70.4862 119.118C70.642 119.411 70.8485 119.891 70.9455 120.185C71.11 120.684 72.0736 121.865 72.3172 121.865C72.3771 121.865 72.689 122.12 73.0097 122.431L73.593 122.998L72.9116 123.615C72.035 124.409 71.433 124.817 68.9618 126.293C68.6106 126.503 68.0902 126.83 67.8054 127.019C67.1667 127.443 66.6964 127.454 66.1913 127.057C65.9775 126.889 65.7557 126.751 65.6981 126.751C65.64 126.751 65.0189 126.373 64.3176 125.912C63.6159 125.45 63.0047 125.072 62.9589 125.072C62.9135 125.072 62.5718 124.848 62.1999 124.575C61.8285 124.302 61.2436 123.877 60.9008 123.63C60.1006 123.053 60.1151 122.991 61.2425 122.17C61.8655 121.716 62.3007 121.256 62.5229 120.815C62.7084 120.448 62.9574 120.036 63.0765 119.899C64.4673 118.303 63.6174 114.104 61.5265 112.24C59.8509 110.747 60.1487 110.8 53.22 110.746L47.1552 110.698L46.6536 110.07C45.8396 109.05 44.7329 107.01 43.8147 104.838C42.6568 102.098 42.6679 96.2012 43.8334 94.8558C43.9522 94.7188 44.093 94.4225 44.1465 94.1973C44.3946 93.1505 46.4829 90.7293 47.9951 89.7352C48.4933 89.408 49.0934 89.0079 49.329 88.8464C49.5645 88.6853 50.1089 88.4486 50.5388 88.3211C50.9687 88.1936 51.4734 87.9885 51.6604 87.866C52.3408 87.4205 55.4774 87.2334 57.7974 87.5003ZM78.4495 91.5856C77.3836 91.7837 77.1588 93.4612 78.1979 93.4612C78.3896 93.4612 79.0229 93.588 79.6051 93.743C82.4043 94.4882 83.8741 95.9286 84.365 98.4078C84.6869 100.031 85.1828 100.858 85.752 100.719C87.034 100.406 87.1722 98.9587 86.1528 96.5154C85.7577 95.5678 85.5493 95.2448 84.596 94.1037C84.105 93.5162 82.8238 92.6167 82.1363 92.377C81.8725 92.285 81.6564 92.1544 81.6564 92.0872C81.6564 91.8349 79.1863 91.4485 78.4495 91.5856ZM16.2751 95.0478C15.9685 95.1574 15.5299 95.3949 15.3001 95.5758C15.0702 95.7564 14.8118 95.9045 14.7263 95.9045C14.6404 95.9045 14.3578 96.0664 14.0979 96.2642C13.8379 96.4623 13.4534 96.6761 13.2435 96.7398C13.0335 96.8036 12.7243 96.9784 12.5563 97.1285C12.3883 97.2785 11.7698 97.6507 11.1819 97.9554C9.56589 98.793 8.96766 99.3439 8.96766 99.994C8.96766 100.905 10.1553 101.299 10.9704 100.658C11.4606 100.272 12.5681 99.6249 13.3412 99.2725C13.689 99.1137 14.023 98.9037 14.0834 98.806C14.1437 98.7082 14.4777 98.4933 14.8255 98.3288C15.4383 98.0386 16.1251 97.6397 16.9615 97.088C17.1841 96.941 17.53 96.7215 17.7296 96.6005C19.0173 95.819 17.788 94.5073 16.2751 95.0478ZM116.097 95.1349C115.483 95.8137 116.775 97.5843 117.883 97.5843C118.011 97.5843 118.206 97.6927 118.316 97.8252C118.426 97.9577 118.854 98.2497 119.267 98.4742C119.68 98.6987 120.337 99.0682 120.727 99.2954C121.118 99.5229 121.677 99.8348 121.971 99.9891C122.265 100.143 122.746 100.421 123.04 100.606C124.819 101.727 126.026 100.27 124.395 98.9717C123.964 98.6284 123.522 98.3478 123.413 98.3478C123.305 98.3478 123.022 98.1917 122.785 98.0008C122.547 97.8099 122.112 97.5305 121.818 97.3797C120.961 96.9391 120.31 96.5676 120.102 96.3997C118.751 95.3051 116.568 94.6157 116.097 95.1349Z" fill="#66023C"/>
</svg>
