<svg width="104" height="134" viewBox="0 0 104 134" fill="none" xmlns="http://www.w3.org/2000/svg">
<path fill-rule="evenodd" clip-rule="evenodd" d="M43.0367 0.102781C40.3204 0.349953 35.6872 1.25031 33.5501 1.9457C33.1193 2.08625 32.353 2.30471 31.8469 2.43177C31.3408 2.55928 30.7864 2.79035 30.6145 2.9457C30.443 3.10105 30.158 3.22812 29.9818 3.22812C29.6898 3.22812 28.7237 3.63891 26.5875 4.67199C25.8099 5.04797 22.577 6.82518 21.4556 7.49272C20.5853 8.011 19.064 9.07889 18.6654 9.45138C18.473 9.63154 18.1889 9.85217 18.0339 9.94138C17.1166 10.471 13.6632 13.6603 12.409 15.1359C11.8063 15.8452 11.0095 16.753 10.6388 17.1529C10.2676 17.5528 9.89248 18.0102 9.80501 18.1694C9.71754 18.3287 9.59178 18.498 9.52564 18.5459C9.42381 18.6198 7.11701 22.0441 6.23972 23.4236C6.08654 23.6647 5.69359 24.4088 5.36722 25.0772C5.04085 25.7452 4.71012 26.4092 4.63266 26.5528C3.78714 28.1186 3.26625 29.3505 2.53605 31.5137C2.3424 32.0881 2.07695 32.8322 1.94597 33.1673C1.81542 33.5024 1.61611 34.2857 1.50297 34.908C1.38983 35.5303 1.20227 36.2352 1.08565 36.4746C0.969027 36.7139 0.820638 37.4467 0.755799 38.1029C0.691395 38.7587 0.504274 39.8162 0.340652 40.4528C-0.15935 42.3945 -0.0932041 54.1648 0.435954 57.3924C0.650489 58.7014 0.825858 60.0869 0.825858 60.4707C0.825858 60.855 0.915067 61.3898 1.02386 61.6592C1.13265 61.9285 1.36372 62.8933 1.53692 63.8028C1.89984 65.7084 2.68792 68.6627 2.90463 68.9299C2.98557 69.03 3.17182 69.5426 3.31804 70.0691C3.69532 71.4264 4.27061 73.0361 4.57218 73.5774C4.7136 73.8315 4.82936 74.1701 4.82936 74.3294C4.82936 74.4891 5.01735 74.9473 5.24755 75.3472C5.47731 75.7471 5.72275 76.3472 5.79237 76.681C5.86243 77.0148 6.0204 77.4456 6.14355 77.6384C6.2667 77.8311 6.45861 78.3416 6.57001 78.7724C6.68141 79.2032 6.87201 79.7123 6.99386 79.9038C7.1157 80.0953 7.27106 80.6271 7.33938 81.0853C7.4077 81.5439 7.58785 82.2097 7.73929 82.5648C8.10831 83.4304 8.61179 85.6658 9.43295 90.0866C10.1492 93.9452 10.2101 108.556 9.53434 114.456C9.44122 115.269 9.24496 119.108 9.09831 122.985C8.95166 126.862 8.78847 130.661 8.73625 131.427C8.58917 133.567 9.26497 134.461 10.3342 133.541L10.8107 133.132L10.9369 129.842C11.0065 128.033 11.1466 125.574 11.2484 124.377C11.3503 123.181 11.5178 119.813 11.6209 116.893C11.7236 113.973 11.9216 110.252 12.06 108.625C12.4108 104.507 12.4029 95.5879 12.0461 93.2916C11.899 92.3425 11.7036 90.822 11.6122 89.9126C11.5213 89.0031 11.3337 87.8281 11.1962 87.3016C10.7493 85.5923 10.2184 83.4099 9.97951 82.2972C9.8507 81.6984 9.66663 81.111 9.57046 80.9917C9.47429 80.872 9.30849 80.3603 9.20187 79.8546C9.09526 79.349 8.85113 78.6275 8.65923 78.2515C8.46776 77.8755 8.31066 77.4264 8.31066 77.2537C8.31066 77.0809 8.16445 76.6666 7.98559 76.3329C7.80718 75.9991 7.6057 75.4752 7.53868 75.1688C7.47123 74.862 7.27715 74.4312 7.107 74.2114C6.93729 73.9912 6.74756 73.5509 6.68576 73.2319C6.62397 72.9134 6.45948 72.4042 6.32066 72.1005C5.79281 70.9464 4.62309 67.3494 4.13136 65.3694C3.95337 64.6514 3.68488 63.6357 3.53518 63.1122C3.38549 62.5887 3.26277 61.895 3.26277 61.5708C3.26277 61.2462 3.14571 60.5295 3.00255 59.9773C1.90245 55.7309 1.85937 41.8693 2.93597 38.4972C3.11569 37.9341 3.26277 37.2605 3.26277 37.0002C3.26277 36.4328 4.22709 33.0977 4.58001 32.4441C4.71709 32.1899 4.82936 31.844 4.82936 31.6747C4.82936 31.3936 5.15704 30.5864 6.3446 27.9454C6.58089 27.4188 6.84373 26.8705 6.92815 26.7269C7.01257 26.5833 7.22797 26.1525 7.40683 25.7696C7.58568 25.3866 7.86201 24.9658 8.02128 24.8344C8.18055 24.703 8.31066 24.5071 8.3111 24.3992C8.31153 24.1303 10.7345 20.4558 11.1949 20.0254C11.2972 19.9297 11.5265 19.6164 11.7041 19.3291C12.2863 18.3879 15.5801 14.8256 16.8399 13.7752C16.9835 13.6555 17.6493 13.1072 18.3194 12.5567C18.9896 12.0067 19.7054 11.4057 19.9104 11.2216C20.1153 11.0376 20.3272 10.887 20.3812 10.887C20.4352 10.887 20.9843 10.5149 21.6014 10.0602C22.8551 9.13633 23.3207 8.85434 25.1776 7.89568C25.8865 7.5297 26.5523 7.16373 26.6571 7.08236C26.7624 7.00055 27.1175 6.84345 27.4465 6.73249C27.7755 6.62152 28.1671 6.42439 28.3168 6.29428C28.4665 6.16373 28.9026 5.95746 29.2855 5.83562C29.6685 5.71377 30.2546 5.46877 30.5884 5.29123C30.9222 5.11412 31.316 4.96877 31.4635 4.96877C31.611 4.96877 31.8865 4.86129 32.0753 4.72987C32.2642 4.59845 32.6928 4.43265 33.0279 4.36128C33.363 4.28992 34.2246 4.05449 34.9426 3.83822C35.6606 3.62194 36.7181 3.35084 37.2925 3.23552C37.8669 3.11977 38.8486 2.92177 39.474 2.7947C43.2969 2.01837 54.9079 2.18765 56.5058 3.04274C56.6703 3.13108 57.31 3.25771 57.9279 3.32473C58.5454 3.39174 59.2983 3.5471 59.6011 3.67025C59.9036 3.79296 60.7652 4.02925 61.5158 4.19462C62.2661 4.35998 63.0346 4.60193 63.2234 4.73204C63.4123 4.86216 63.6943 4.96877 63.8501 4.96877C64.0063 4.96877 64.5019 5.16459 64.9523 5.40393C65.4023 5.64327 65.8966 5.8391 66.0507 5.8391C66.2047 5.8391 66.6512 6.02535 67.0424 6.25337C67.4336 6.48096 68.0076 6.72204 68.3174 6.78862C68.6277 6.85564 68.9262 6.98314 68.9815 7.07235C69.0363 7.16112 69.3701 7.38044 69.723 7.5593C71.5176 8.46922 72.4341 8.99359 73.8558 9.92484C74.7122 10.4858 75.4924 11.0393 75.5899 11.155C75.6874 11.2704 76.0055 11.5123 76.2975 11.6916C77.6203 12.5067 81.6513 16.3618 83.0734 18.172C83.5512 18.78 84.3023 19.7199 84.7422 20.2608C85.1822 20.8013 85.6522 21.4514 85.7866 21.7051C85.9211 21.9588 86.3058 22.5855 86.6417 23.0977C87.4289 24.297 87.63 24.6651 88.8158 27.075C90.5608 30.6221 90.7731 31.1512 91.5852 33.9763C91.8097 34.7561 92.0408 35.4715 92.0995 35.5659C92.1578 35.6604 92.2853 36.3149 92.3828 37.0198C92.4803 37.7252 92.6752 38.7722 92.8162 39.3466C93.7427 43.1304 93.6361 54.2209 92.6587 55.7127C91.7331 57.1252 92.4242 60.3463 94.1805 62.8036C94.539 63.3054 95.2175 64.2641 95.6887 64.9342C96.16 65.6044 96.6113 66.231 96.6918 66.3267C96.7723 66.4225 97.0308 66.7749 97.2658 67.11C97.5008 67.4451 97.734 67.7584 97.7841 67.8063C97.8341 67.8541 98.0238 68.1261 98.2053 68.4112C98.3867 68.6958 98.5996 69.0091 98.6775 69.1074C99.4616 70.0944 99.6744 70.3898 99.8711 70.7654C99.9964 71.0047 100.39 71.553 100.745 71.9838C103.528 75.3607 101.586 79.117 96.6487 79.9047C95.8828 80.027 94.7862 80.2463 94.2118 80.3925C93.6374 80.5387 92.8676 80.7084 92.5016 80.7698C91.4146 80.9525 91.2862 81.4869 91.3684 85.4926C91.4359 88.772 91.4442 88.8329 91.9107 89.5379C92.6718 90.688 92.5016 91.8695 91.4298 92.8717L90.9642 93.3068L86.3771 93.3939C81.4306 93.4879 80.9015 93.5962 80.7583 94.5462C80.6164 95.4879 81.1848 95.6563 84.5146 95.6611C86.21 95.6632 87.9032 95.7359 88.2775 95.8229C90.1104 96.2481 90.7762 98.7559 89.4511 100.244C89.2052 100.52 89.1487 101.246 89.0577 105.292L88.9511 110.017L88.4294 111.236C86.6273 115.442 83.6369 117.964 79.4163 118.837C78.1948 119.09 74.8518 118.939 74.1943 118.601C73.9071 118.453 73.2413 118.277 72.7148 118.21C72.1882 118.143 71.4258 117.942 71.0207 117.763C70.6155 117.584 69.9106 117.384 69.4541 117.32C68.9976 117.256 68.4676 117.108 68.2761 116.993C68.0846 116.877 67.458 116.68 66.8836 116.555C66.3092 116.43 65.4641 116.181 65.0059 116.001C64.5476 115.821 63.9754 115.674 63.7343 115.674C63.4932 115.674 62.9675 115.527 62.5659 115.347C61.4941 114.868 60.3479 114.75 59.921 115.075C59.4149 115.461 59.27 132.447 59.7648 133.385C60.1238 134.066 60.5611 134.11 61.1473 133.524L61.5746 133.096V125.451C61.5746 116.51 61.4136 117.169 63.4393 117.814C64.1847 118.052 65.1473 118.34 65.5781 118.454C67.8631 119.062 68.8492 119.357 69.3205 119.573C69.6077 119.704 70.2343 119.867 70.713 119.935C71.1917 120.003 71.8575 120.178 72.1926 120.324C75.2744 121.664 81.3336 121.209 84.116 119.429C85.9598 118.249 86.4537 117.894 87.0834 117.299C87.8654 116.558 89.2509 114.746 89.2509 114.463C89.2509 114.363 89.3171 114.282 89.3976 114.282C89.6313 114.282 90.8175 111.617 90.8175 111.091C90.8175 110.83 90.9463 110.324 91.1043 109.968C91.3345 109.447 91.4054 108.538 91.4651 105.317C91.5347 101.544 91.5608 101.284 91.9181 100.792C92.4202 100.1 92.4764 96.9926 92.0047 95.9957L91.7118 95.3773L92.5216 94.7772C94.3863 93.3952 95.0678 89.4878 93.6848 88.1053C93.3397 87.7602 93.3123 83.3494 93.6522 82.8847C93.8058 82.6745 94.2688 82.5291 95.1322 82.4208C95.8232 82.3342 96.7997 82.1488 97.3019 82.0091C97.8045 81.8694 98.5678 81.7015 98.9986 81.6353C103.86 80.8938 105.67 74.476 102.204 70.2667C101.781 69.7532 101.436 69.2645 101.436 69.181C101.436 69.0287 101.245 68.7719 100.348 67.7149C100.084 67.4046 99.8689 67.0939 99.8689 67.0243C99.8689 66.9542 99.5665 66.5339 99.1966 66.09C98.8271 65.6457 98.3928 65.0473 98.2318 64.7601C97.8759 64.1244 97.1748 63.1426 96.7401 62.6714C94.5225 60.2649 94.0047 57.7384 95.2418 55.3606C95.744 54.3959 95.8807 44.7592 95.432 41.9511C95.2797 40.9972 95.046 39.4337 94.9133 38.4763C94.7801 37.519 94.5882 36.5007 94.4864 36.2135C94.3846 35.9263 94.1504 35.1038 93.9664 34.3858C93.4024 32.1869 93.1021 31.233 92.7357 30.4763C92.5421 30.0768 92.3837 29.6377 92.3828 29.5006C92.3824 29.3631 92.2262 29.0159 92.036 28.7287C91.8458 28.4415 91.6896 28.082 91.6892 27.9297C91.6874 27.5872 89.915 24.0898 89.4307 23.4745C89.2361 23.2269 89.0769 22.9584 89.0769 22.8775C89.0769 22.6481 86.9359 19.4606 85.992 18.2848C83.7605 15.5049 81.9655 13.535 80.6682 12.4423C79.9798 11.8626 79.0786 11.1046 78.666 10.7586C77.1334 9.47314 73.1347 6.70942 72.8074 6.70942C72.7383 6.70942 72.4728 6.5606 72.2174 6.37913C71.5429 5.89871 68.3862 4.27251 68.1286 4.27251C68.008 4.27251 67.522 4.09018 67.0485 3.86737C65.4388 3.11063 64.2748 2.67068 63.3152 2.45701C62.7887 2.33995 62.199 2.15849 62.0054 2.05449C61.8113 1.95048 61.1455 1.77598 60.5258 1.66719C59.9057 1.55797 59.0855 1.35866 58.7025 1.22376C58.3196 1.08886 57.3405 0.896083 56.5267 0.795125C55.7129 0.694167 54.3813 0.495298 53.5676 0.353C51.749 0.0348959 45.4296 -0.115236 43.0367 0.102781ZM31.6354 16.9823C29.4021 17.2586 27.3181 17.6955 26.678 18.0219C26.3007 18.2143 25.8804 18.3718 25.7446 18.3718C25.6084 18.3718 25.2529 18.5193 24.9543 18.6999C24.6558 18.8805 24.2272 19.0841 24.0022 19.1525C23.6158 19.27 23.1071 19.5724 21.7367 20.4993C17.9487 23.062 15.2054 27.4484 14.1945 32.5581C13.9086 34.0041 14.1062 39.1848 14.4869 40.217C14.6632 40.6956 14.8664 41.4006 14.9382 41.7835C15.1114 42.7061 15.9308 44.8454 16.2432 45.1913C16.3799 45.3427 16.4917 45.626 16.4917 45.821C16.4917 46.0159 16.6362 46.3619 16.8129 46.5904C16.9895 46.8188 17.3294 47.3971 17.5679 47.8758C18.4813 49.7079 22.5475 55.2701 22.9757 55.2727C23.0475 55.2732 23.1062 55.365 23.1062 55.4764C23.1062 55.7632 27.0801 59.7701 28.8503 61.2684C29.6641 61.9573 30.7215 62.8868 31.2002 63.3341C31.6789 63.781 32.131 64.1479 32.205 64.1492C32.279 64.15 32.6706 64.4473 33.0753 64.8093C34.2433 65.855 37.625 68.3285 37.8856 68.3285C37.9809 68.3285 38.1211 68.4268 38.1976 68.5469C38.3669 68.8128 39.5506 69.7088 40.2077 70.0683C40.4705 70.2123 41.7769 71.0156 43.1102 71.8533C44.444 72.691 45.5763 73.3764 45.6272 73.3764C45.6777 73.3764 46.0079 73.5722 46.3604 73.8115C47.4131 74.5256 48.3835 74.3942 50.1733 73.2941C50.5563 73.0587 51.1437 72.7262 51.4792 72.5556C52.0345 72.2724 57.0746 68.9782 57.4841 68.6309C57.5798 68.5495 58.32 68.0156 59.1294 67.4438C60.7421 66.3041 64.1233 63.5952 65.3026 62.4973C65.7143 62.1144 66.659 61.2527 67.4023 60.5826C69.6451 58.5608 72.5938 55.4181 74.3431 53.1848C75.3819 51.8593 78.0734 47.8332 78.2057 47.4076C78.2744 47.1865 78.4768 46.7975 78.6556 46.5434C78.8349 46.2892 78.9811 46.0203 78.9811 45.9459C78.9811 45.871 79.1334 45.4916 79.3192 45.1021C81.3345 40.8841 82.1652 34.8697 81.1726 31.6878C80.9933 31.1134 80.7862 30.3692 80.7126 30.0341C80.5351 29.2287 79.7009 27.2343 79.3967 26.8875C79.264 26.7361 79.1552 26.5254 79.1552 26.4188C79.1552 25.8696 76.1595 22.2948 74.8893 21.3278C72.2374 19.31 69.0172 17.82 66.3614 17.3822C62.7878 16.7935 62.7669 16.7935 58.8892 17.3983C57.9388 17.5463 57.0811 17.7478 56.9832 17.8457C56.8853 17.9436 56.6829 18.0237 56.5337 18.0237C56.2734 18.0237 54.3056 18.9675 53.0685 19.6855C51.9906 20.3109 49.8104 22.1534 49.0328 23.0959C47.7765 24.619 48.055 24.6664 45.944 22.5672C43.8069 20.4423 41.561 18.9184 39.6302 18.2843C39.1106 18.1133 38.5305 17.8674 38.3417 17.7373C38.1528 17.6076 37.7768 17.5015 37.5057 17.5015C37.2346 17.5015 36.4883 17.3896 35.8473 17.2534C34.3338 16.9314 32.8303 16.8344 31.6354 16.9823ZM36.7886 19.746C37.9474 20.0206 39.0832 20.364 39.3125 20.5089C39.5419 20.6538 39.9148 20.8278 40.1415 20.8957C40.3687 20.9636 40.8778 21.2486 41.2729 21.5289C41.6685 21.8091 42.1881 22.1681 42.4274 22.3265C42.8865 22.6307 45.7347 25.4445 45.7347 25.5942C45.7347 25.9136 47.0636 27.4445 47.4183 27.5333C47.9936 27.6777 48.6268 27.3675 48.9988 26.7582C50.7638 23.8688 54.7195 20.7913 57.6581 20.0215C58.1368 19.8957 58.9593 19.6703 59.4858 19.5197C60.7843 19.1486 64.4597 19.1442 65.7578 19.5115C66.2813 19.6599 67.1421 19.8814 67.6712 20.0041C68.1999 20.1268 68.8266 20.3483 69.0638 20.4971C69.3005 20.6455 69.7047 20.8161 69.9615 20.8753C71.0503 21.1272 74.2883 23.6416 75.6064 25.2578C77.1016 27.0916 77.5477 27.8879 78.569 30.5524C79.2091 32.2221 79.3301 38.9955 78.7461 40.4781C78.5764 40.9089 78.3353 41.6713 78.2104 42.1726C78.0855 42.6739 77.9058 43.183 77.8105 43.304C77.7152 43.425 77.4985 43.8963 77.3284 44.351C77.1582 44.8058 76.9598 45.1778 76.8875 45.1778C76.8153 45.1778 76.7026 45.3932 76.6373 45.6565C76.4458 46.4307 74.6447 49.1635 72.0294 52.6469C70.29 54.9638 63.4145 61.3724 59.6177 64.2149C58.8766 64.7701 58.2225 65.3006 58.1647 65.3946C58.1068 65.4882 57.8909 65.64 57.6847 65.7319C57.4788 65.8237 56.9967 66.1348 56.6137 66.4229C56.2308 66.711 55.7217 67.0752 55.4823 67.2319C49.38 71.2314 49.2517 71.3124 48.4862 71.6631C47.6442 72.0491 46.9836 71.8059 44.5967 70.2293C43.6428 69.5992 42.4709 68.8372 41.9923 68.536C41.1646 68.0152 38.2333 65.9764 37.1202 65.1479C36.8338 64.9346 36.1289 64.4151 35.5536 63.993C34.9783 63.5713 34.3347 63.0621 34.1236 62.8615C33.9122 62.6614 33.5205 62.3258 33.2533 62.1161C30.5836 60.0234 25.0209 54.8428 25.0209 54.449C25.0209 54.4054 24.6036 53.8876 24.0936 53.2984C23.584 52.7096 22.9378 51.9141 22.6575 51.5312C22.3777 51.1483 22.064 50.7566 21.9609 50.6609C21.8573 50.5651 21.4691 50.0168 21.0988 49.4424C20.728 48.868 20.3394 48.3106 20.2346 48.2039C19.8577 47.8184 17.5775 42.9707 17.1327 41.6095C16.0426 38.27 16.0844 31.9676 17.2115 29.8627C17.3899 29.5289 17.5361 29.1464 17.5361 29.0128C17.5361 28.8792 17.7124 28.4876 17.9278 28.1425C18.1432 27.7974 18.3977 27.3879 18.4935 27.233C19.9643 24.8488 21.9382 22.9506 24.5792 21.3814C24.7742 21.2652 25.0514 21.1198 25.195 21.058C25.3386 20.9958 25.8477 20.7669 26.3264 20.5493C26.8051 20.3313 27.4317 20.1059 27.7189 20.0476C28.0061 19.9897 28.7894 19.7895 29.4596 19.6029C31.3891 19.065 34.1437 19.1185 36.7886 19.746ZM62.2012 25.874C61.434 26.4776 62.0141 27.5972 63.0937 27.5972C64.4049 27.5972 66.7522 28.6073 68.253 29.8179C69.2078 30.5877 70.6247 33.1416 70.6277 34.099C70.6351 36.2048 71.6852 37.3418 72.6443 36.2822C73.2226 35.6434 72.8196 32.4136 72.0168 31.2526C71.8514 31.0133 71.6625 30.6451 71.5973 30.4345C71.3401 29.6055 67.9837 26.5528 67.3296 26.5528C67.1747 26.5528 66.8753 26.4319 66.6643 26.2839C65.7021 25.6103 62.8675 25.3501 62.2012 25.874Z" fill="#66023C"/>
</svg>
