<svg width="135" height="134" viewBox="0 0 135 134" fill="none" xmlns="http://www.w3.org/2000/svg">
<path fill-rule="evenodd" clip-rule="evenodd" d="M51.8616 0.131109C51.6428 0.168504 50.9506 0.373777 50.3232 0.586609C49.6959 0.799839 49.1007 0.974084 49.0005 0.974084C48.9002 0.974084 48.4471 1.14395 47.9928 1.35161C47.5389 1.55927 47.0599 1.77529 46.9287 1.83178C46.7055 1.92725 46.3757 2.13849 44.7259 3.24124C43.6264 3.9764 40.8818 6.87171 40.8818 7.29658C40.8818 7.38052 40.7426 7.57505 40.5727 7.72861C40.4025 7.88257 40.2187 8.21275 40.1638 8.46219C40.1089 8.71162 39.9319 9.08358 39.7699 9.28925C39.6084 9.49492 39.3674 10.0535 39.2349 10.53C39.102 11.0066 38.8689 11.7191 38.7161 12.113C38.3111 13.1592 38.3123 18.6638 38.7181 19.8306C38.8701 20.2682 39.1247 21.0917 39.2842 21.6605C39.6323 22.9041 40.3563 24.6672 40.6611 25.0145C40.7824 25.153 40.8818 25.375 40.8818 25.5078C40.8818 25.6411 41.0955 26.0652 41.3564 26.4503C41.6174 26.8354 41.8322 27.197 41.8338 27.2539C41.8605 28.2038 48.9468 36.3686 51.136 37.971C51.375 38.1461 52.0629 38.7368 52.6648 39.2838C53.2663 39.8308 53.8184 40.2784 53.892 40.2784C53.9652 40.2784 54.3082 40.5473 54.6539 40.8755C55 41.2041 55.4618 41.5967 55.6806 41.7483C55.8994 41.8999 56.6155 42.4154 57.2719 42.894C59.2399 44.3285 60.2857 45.0522 60.392 45.0522C60.4469 45.0522 60.7365 45.267 61.0356 45.5295C61.3348 45.7921 61.6459 46.0069 61.7274 46.0069C61.8929 46.0069 62.796 46.5551 64.5121 47.698C64.8622 47.9308 65.6117 48.3194 66.1774 48.5609L67.2058 49.0005L68.0965 48.551C68.5862 48.3039 69.0807 47.9885 69.1956 47.85C69.3106 47.7116 69.4908 47.5982 69.5962 47.5982C69.7021 47.5982 70.1409 47.3726 70.5713 47.0969C71.0021 46.8213 71.6052 46.4382 71.9115 46.246C72.4438 45.9115 73.9408 44.9213 74.6787 44.4157C74.8701 44.2844 75.2814 43.9801 75.5925 43.7394C75.904 43.4987 76.2131 43.3018 76.2796 43.3018C76.3922 43.3018 76.8214 42.9867 77.7992 42.1863C78.018 42.0073 78.6466 41.5327 79.1964 41.1321C79.7461 40.7311 80.498 40.126 80.8672 39.7871C81.2364 39.4481 81.742 39.0085 81.9906 38.8096C83.7148 37.4316 88.9429 32.1275 89.3463 31.347C89.4763 31.0956 89.6454 30.8899 89.7222 30.8899C89.7986 30.8899 90.0106 30.6572 90.1928 30.3727C90.375 30.0883 90.7748 29.5333 91.0815 29.1395C91.6627 28.3924 92.0478 27.7587 92.5904 26.6543C92.7675 26.2939 93.0161 25.9128 93.143 25.8078C93.2695 25.7028 93.4175 25.4155 93.4712 25.1701C93.5253 24.9242 93.7445 24.4854 93.9589 24.1954C94.173 23.905 94.3484 23.5347 94.3484 23.372C94.3484 23.2096 94.4701 22.8476 94.6189 22.5676C94.8556 22.1216 95.327 20.2642 95.7782 18.0006C95.9612 17.0809 95.9615 14.9438 95.7785 14.0225C95.4265 12.2506 94.9531 10.4354 94.745 10.0582C94.6197 9.83187 94.4085 9.3704 94.2752 9.03305C93.834 7.91757 92.5598 6.164 91.2526 4.87269C90.1383 3.77233 89.46 3.24761 87.9038 2.2825C87.2299 1.8644 85.2165 0.970105 84.5864 0.808592C84.2228 0.715901 83.6392 0.523754 83.2891 0.382529C82.3208 -0.00852474 77.7097 -0.0916681 76.5262 0.2604C76.0449 0.404011 75.2134 0.64111 74.6787 0.787507C74.1437 0.933904 73.6066 1.13401 73.4853 1.23227C73.3636 1.33053 72.9419 1.56285 72.548 1.74823C72.1542 1.93402 71.6486 2.21169 71.4246 2.36525C71.2002 2.5192 70.6799 2.86968 70.2678 3.14457C69.8552 3.41906 68.9999 4.18287 68.3662 4.84126C67.0363 6.22407 67.0339 6.22407 65.815 4.86314C65.4184 4.42037 64.7843 3.84751 64.4051 3.59013C64.0264 3.33274 63.6373 3.02125 63.5407 2.89792C63.3816 2.69424 61.3069 1.48965 60.534 1.15191C58.4836 0.256422 54.12 -0.25716 51.8616 0.131109ZM57.8288 2.62622C58.8978 2.87445 60.3299 3.45527 60.9318 3.88451C61.8706 4.55483 62.7745 5.10581 62.9388 5.10859C63.1878 5.11257 64.8388 6.99026 65.6559 8.19843C66.609 9.6079 67.3915 9.70417 68.2027 8.51231C68.361 8.27959 68.6872 7.90484 68.9279 7.67888C69.1686 7.45292 69.3655 7.18718 69.3655 7.08853C69.3655 6.90792 70.8963 5.399 71.5328 4.95225C72.9705 3.94299 73.9225 3.36098 74.1357 3.36098C74.2738 3.36098 74.528 3.26392 74.7006 3.14497C76.7005 1.76812 82.7839 2.06609 85.9942 3.69793C86.7604 4.0874 87.3882 4.46254 87.6364 4.67895C87.7832 4.80744 88.0943 5.01073 88.327 5.13127C88.6708 5.30869 89.8328 6.5101 91.3867 8.29391C91.6946 8.64757 92.598 10.4938 92.598 10.7699C92.598 10.9012 92.7909 11.4542 93.0268 11.9984C93.6315 13.3927 93.6868 18.5114 93.1116 19.8306C92.921 20.2682 92.6887 20.9783 92.5952 21.4083C92.5021 21.8388 92.3275 22.3758 92.2073 22.6018C92.0872 22.8281 91.6934 23.6218 91.3321 24.3657C90.9709 25.1096 90.3559 26.1706 89.9656 26.7232C89.5758 27.2757 89.2563 27.767 89.2563 27.8152C89.2563 27.8629 89.0737 28.1271 88.8506 28.4016C88.6274 28.676 87.8326 29.6527 87.0847 30.5716C85.7277 32.2389 83.5592 34.5212 82.4732 35.425C82.1577 35.6876 81.4603 36.2978 80.9237 36.7812C80.3866 37.2645 79.661 37.8716 79.3109 38.1302C78.9608 38.3887 78.3522 38.9059 77.9584 39.2799C77.5645 39.6538 77.1886 39.9601 77.1233 39.9601C76.9809 39.9601 75.614 40.9133 74.6167 41.7081C74.2229 42.022 73.5784 42.4898 73.1846 42.748C72.7907 43.0062 72.3575 43.2898 72.2222 43.379C72.0866 43.4677 71.7397 43.6837 71.4509 43.8587C71.1625 44.0338 70.6727 44.3739 70.3628 44.6146C70.0529 44.8553 69.7104 45.0522 69.6018 45.0522C69.4932 45.0522 69.307 45.1695 69.1885 45.3127C69.0695 45.456 68.6849 45.7054 68.3336 45.8677C67.9823 46.0296 67.5745 46.2488 67.4277 46.355C67.0415 46.6339 65.9268 46.0312 62.2048 43.5313C57.7067 40.5103 57.5901 40.4283 57.5901 40.278C57.5901 40.2024 57.4398 40.093 57.2564 40.0349C57.0726 39.9764 56.5407 39.583 56.0737 39.1601C55.607 38.7376 55.0592 38.304 54.8563 38.1966C54.6531 38.0892 54.0217 37.5541 53.4528 37.0079C52.884 36.4613 51.9809 35.6514 51.4467 35.2074C50.2198 34.1894 46.497 30.134 45.6556 28.8992C45.4368 28.5782 45.0609 28.0797 44.8202 27.7917C44.5796 27.5033 44.3826 27.1962 44.3826 27.109C44.3826 27.0219 44.2677 26.8552 44.1272 26.7387C43.9868 26.6221 43.702 26.1658 43.4947 25.7246C43.287 25.2835 43.0456 24.8152 42.958 24.684C42.8705 24.5527 42.6915 24.1946 42.5598 23.8883C42.4282 23.582 42.2499 23.224 42.164 23.0927C40.4602 20.4926 40.1272 13.9031 41.5359 10.6542C41.7889 10.0706 41.9957 9.54743 41.9957 9.49134C41.9957 8.66587 45.378 5.22913 47.0703 4.33484C47.2986 4.2143 47.6288 3.98914 47.8039 3.83478C47.9789 3.68083 48.3699 3.50181 48.6727 3.43776C48.9754 3.37371 49.4982 3.17799 49.8339 3.00295C51.1785 2.302 55.5454 2.09632 57.8288 2.62622ZM79.2417 6.79812C78.4023 7.50424 78.9398 8.37427 80.3218 8.54573C83.8234 8.98134 86.3288 11.2994 87.0222 14.7461C87.4252 16.7503 88.3362 17.5662 89.1175 16.623C89.4895 16.1739 89.3996 13.5785 88.9886 12.9002C88.8056 12.5983 88.6019 12.1738 88.5359 11.9562C88.1468 10.6772 85.5606 8.04209 84.1643 7.50225C83.858 7.3837 83.4999 7.19633 83.3687 7.08574C83.1447 6.89718 81.9377 6.6553 80.3799 6.48703C79.8261 6.42696 79.6133 6.48504 79.2417 6.79812ZM25.4736 55.6377C24.6573 55.8445 23.9054 56.08 23.8028 56.1608C23.7005 56.242 23.249 56.4277 22.7999 56.5745C22.3507 56.7209 21.8563 56.9811 21.7011 57.1526C21.546 57.3236 21.3502 57.464 21.2663 57.464C20.6107 57.464 17.3916 60.9223 16.8223 62.2378C16.652 62.6317 16.4193 63.0613 16.3055 63.1926C16.1918 63.3239 16.0096 63.7177 15.9013 64.0678C15.7931 64.4179 15.6157 64.8475 15.5071 65.0226C14.7413 66.2578 14.7791 77.993 15.5537 79.5413C15.7183 79.8703 15.8958 80.364 15.9479 80.6385C16 80.913 16.2073 81.3907 16.4086 81.7002C16.6095 82.0097 17.0049 82.6446 17.2869 83.1109C17.569 83.5771 18.3388 84.4937 18.9976 85.1481C19.6563 85.8021 20.1954 86.4255 20.1954 86.5325C20.1954 86.6399 20.3207 86.8006 20.4738 86.8898C20.6775 87.0083 20.3477 87.0533 19.2474 87.0568C15.379 87.0692 10.8352 88.1902 9.21564 89.5312C9.08436 89.6403 8.79793 89.7827 8.57913 89.8479C7.34351 90.2167 2.53232 95.2853 2.53232 96.2185C2.53232 96.3188 2.38911 96.5304 2.21407 96.6888C2.03903 96.8471 1.89581 97.0623 1.89581 97.1669C1.89581 97.272 1.72515 97.6785 1.5163 98.0712C1.30784 98.4634 1.08506 99.1007 1.02141 99.487C0.957761 99.8733 0.76482 100.502 0.592963 100.884C0.0944987 101.99 -0.00535388 105.052 0.000215548 119.046C0.0061828 133.825 -0.00137452 133.721 1.08108 133.872C2.17428 134.024 2.12416 134.705 2.22441 118.358C2.33142 100.981 2.2797 101.534 4.14427 97.8027C5.11932 95.8514 7.0356 93.5866 8.49877 92.6561C8.84925 92.4329 9.27929 92.1286 9.45433 91.9794C10.2818 91.2737 12.9122 90.0954 14.1891 89.8579C14.9108 89.7238 15.8234 89.5444 16.2172 89.4588C17.1055 89.2659 48.8262 89.2361 49.129 89.4282C49.2841 89.5265 49.1898 89.6506 48.7709 89.8976C48.4579 90.0822 48.2017 90.3026 48.2017 90.3874C48.2017 90.4717 48.0676 90.5835 47.9037 90.6356C46.9553 90.9363 42.6322 95.9902 42.6322 96.7978C42.6322 96.933 42.4866 97.229 42.3084 97.4554C42.0128 97.8313 41.6894 98.621 41.1245 100.349C40.5349 102.15 40.4892 103.368 40.449 118.33L40.41 132.97L40.8635 133.515C41.2924 134.03 41.3433 134.049 41.7944 133.862C42.6573 133.505 42.6271 134.052 42.6724 117.773L42.715 102.576L43.151 101.338C43.3909 100.657 43.587 99.9855 43.587 99.8454C43.587 99.7054 43.7219 99.3673 43.8869 99.0944C44.052 98.8215 44.2406 98.4193 44.3059 98.2005C44.4415 97.747 45.8374 95.6381 46.4445 94.9706C47.2624 94.0707 48.8064 92.596 49.1178 92.417C49.2941 92.316 49.9425 91.9289 50.5583 91.5569C51.1746 91.185 51.7454 90.8806 51.8274 90.8806C51.9093 90.8806 52.2304 90.7084 52.5407 90.4976C52.8601 90.2811 53.5439 90.0424 54.1144 89.949C54.6694 89.8579 55.6432 89.6713 56.2785 89.534C60.092 88.7106 79.6558 89.3884 81.3796 90.4041C81.6421 90.5588 82.036 90.737 82.2548 90.8007C83.6396 91.2021 87.4077 94.2716 88.3521 95.7674C88.5629 96.1016 88.853 96.4724 88.9962 96.5913C89.1394 96.7103 89.2563 96.9322 89.2563 97.0846C89.2563 97.237 89.3904 97.5325 89.5539 97.7414C90.0142 98.3282 90.8245 100.486 91.1225 101.919C91.3616 103.07 91.3962 104.85 91.4372 118.012C91.4877 134.42 91.4503 133.845 92.4687 133.845C93.6423 133.845 93.5667 135.036 93.5174 117.301L93.4732 101.463L93.1295 100.747C92.9405 100.353 92.7368 99.744 92.6772 99.3939C92.6171 99.0438 92.4317 98.5633 92.265 98.3262C92.0979 98.0891 91.9615 97.8218 91.9615 97.7318C91.9615 97.48 90.8838 95.4695 90.486 94.979C90.2911 94.7387 89.9525 94.3329 89.7337 94.0771C89.5149 93.8213 89.1645 93.373 88.9548 93.0806C88.7455 92.7882 88.2574 92.2989 87.8703 91.9933C87.4837 91.6878 86.9625 91.2586 86.7123 91.0398C86.151 90.5493 85.3637 89.9199 85.0872 89.7413C84.9213 89.6339 84.9277 89.5766 85.119 89.4509C85.4158 89.256 116.859 89.2476 117.899 89.4421C120.121 89.8579 121.167 90.116 121.802 90.4053C122.193 90.5835 122.684 90.7943 122.895 90.8743C123.105 90.9542 123.754 91.3461 124.337 91.7455C124.921 92.1449 125.44 92.4719 125.49 92.4719C125.541 92.4719 125.805 92.6847 126.077 92.9449C128.486 95.2483 129.159 96.0932 130.01 97.8822C130.197 98.2761 130.441 98.7057 130.553 98.837C130.665 98.9683 130.866 99.4695 131 99.9509C131.134 100.432 131.356 101.218 131.494 101.696C131.713 102.459 131.743 104.438 131.743 117.78V132.994L132.101 133.32C132.863 134.014 133.083 134.035 133.628 133.472L134.13 132.955L134.128 118.243C134.126 105.532 134.092 103.39 133.879 102.497C133.744 101.928 133.565 101.108 133.482 100.674C133.304 99.7504 132.599 97.9101 132.287 97.556C132.168 97.4203 131.965 97.0114 131.836 96.647C131.602 95.9838 131.216 95.3636 130.47 94.4522C130.251 94.1849 129.893 93.7246 129.675 93.4291C128.878 92.353 126.196 90.1081 125.302 89.768C125.098 89.6908 124.888 89.5563 124.834 89.47C124.781 89.3833 124.469 89.2265 124.142 89.1219C123.815 89.0169 123.44 88.8371 123.307 88.7221C122.419 87.9499 117.92 87.0688 114.84 87.0636L113.769 87.0616L113.955 86.624C114.058 86.3833 114.719 85.5774 115.424 84.833C116.129 84.0883 116.829 83.2648 116.98 83.0031C117.13 82.7409 117.321 82.4191 117.403 82.2878C117.785 81.6784 118.386 80.2299 118.525 79.5827C118.61 79.1888 118.79 78.5531 118.926 78.1704C119.735 75.8826 119.095 65.169 118.059 63.67C117.908 63.4512 117.699 63.0092 117.595 62.6882C117.491 62.3671 117.302 62.0182 117.175 61.9128C117.048 61.8074 116.944 61.6296 116.944 61.517C116.944 60.8192 113.422 57.6104 111.873 56.8972C111.381 56.6704 110.691 56.349 110.341 56.1831C106.656 54.4383 100.688 55.2554 97.0623 58.0015C95.0478 59.5271 92.7535 62.4674 92.4989 63.8502C92.4444 64.145 92.3016 64.5444 92.1811 64.7381C90.8305 66.9086 91.4559 79.8536 92.9982 81.6513C93.1108 81.7826 93.318 82.1406 93.4585 82.4469C93.8348 83.2656 94.3452 83.9101 95.6071 85.1597C96.2277 85.7743 96.7353 86.3782 96.7353 86.5023C96.7353 86.626 96.8606 86.8006 97.0138 86.8898C97.2051 87.0011 93.8631 87.0533 86.3559 87.0568L75.4191 87.0616L75.6112 86.624C75.717 86.3833 75.9104 86.1204 76.0409 86.0396C76.8234 85.5551 79.0599 82.7696 79.3085 81.9696C79.3766 81.7508 79.5596 81.3907 79.7155 81.1692C80.0075 80.7538 80.3616 79.6336 80.7697 77.8323C81.528 74.4858 80.7988 64.7966 79.6686 63.197C79.5154 62.9806 79.3905 62.722 79.3905 62.6221C79.3905 62.5223 79.1936 62.1833 78.9529 61.8683C78.7122 61.5536 78.3363 61.0293 78.1175 60.7035C77.6795 60.051 75.9168 58.2597 75.7123 58.2597C75.6419 58.2597 75.4461 58.1121 75.2779 57.9315C74.9397 57.5683 74.1946 57.1088 73.3437 56.7384C73.0374 56.6052 72.5329 56.3597 72.223 56.1926C71.9127 56.0259 71.1807 55.8131 70.596 55.7196C70.0112 55.6261 69.3472 55.4793 69.1205 55.393C67.4098 54.7426 61.4124 55.913 60.0463 57.1633C59.8657 57.3288 59.6584 57.464 59.5852 57.464C58.8982 57.464 55.0441 61.6594 55.0441 62.4073C55.0441 62.5529 54.9112 62.8429 54.7489 63.0518C54.5866 63.2606 54.3638 63.7177 54.2541 64.0678C54.1439 64.4179 53.9597 64.8551 53.8443 65.0397C53.067 66.2824 53.102 77.9417 53.8877 79.511C54.0607 79.8568 54.2481 80.3783 54.3038 80.6695C54.3595 80.9611 54.5488 81.3828 54.7243 81.6059C54.9001 81.8295 55.0441 82.0885 55.0441 82.1812C55.0441 82.5134 55.9189 83.6607 57.1263 84.9134C57.801 85.6135 58.3997 86.3428 58.4566 86.5341C58.5135 86.7254 58.6817 86.914 58.8309 86.9534C58.9797 86.9928 54.1474 87.033 48.0919 87.0433L37.0815 87.0616L37.2713 86.7004C37.3755 86.5015 37.8942 85.9107 38.4241 85.3876C39.571 84.255 40.6786 82.7863 40.9172 82.0805C41.0119 81.8009 41.2192 81.3856 41.3775 81.1576C41.5359 80.9301 41.7423 80.393 41.8362 79.9642C41.9301 79.5357 42.1294 78.9342 42.2798 78.6279C42.522 78.133 42.5527 77.4317 42.5527 72.3424V66.6138L42.1035 65.1817C41.8569 64.394 41.5868 63.6421 41.5036 63.5109C41.4209 63.3796 41.2482 63.045 41.1205 62.7677C40.9101 62.3106 40.5493 61.7644 39.4859 60.2937C38.5789 59.0386 36.5938 57.4636 34.9942 56.7293C34.6878 56.5888 34.1508 56.337 33.8007 56.1695C31.933 55.2765 27.913 55.0199 25.4736 55.6377ZM32.3045 57.9931C32.7942 58.2275 33.2955 58.42 33.4184 58.4216C33.5409 58.4232 33.9352 58.6201 34.2936 58.8592C34.652 59.0983 35.2476 59.473 35.6171 59.6918C36.8969 60.4501 39.0081 63.0442 39.3725 64.3065C39.4358 64.5253 39.5905 64.8221 39.7162 64.9657C40.2282 65.5497 40.4323 68.1295 40.3567 73.0585C40.2803 78.0077 40.2394 78.3232 39.4262 80.2192C38.8164 81.6406 37.3655 83.5012 36.1991 84.3573C35.7822 84.6632 35.2877 85.0558 35.1 85.2301C33.1224 87.0644 26.5044 87.5963 24.1047 86.1136C23.8155 85.935 23.4734 85.7886 23.3441 85.7886C23.2148 85.7886 22.9725 85.6378 22.8058 85.4532C22.6392 85.269 22.2481 84.9882 21.9374 84.8295C21.3737 84.5418 19.2406 82.4123 19.2406 82.137C19.2406 82.0575 19.1181 81.8701 18.9685 81.7205C16.3179 79.0695 16.4495 64.8065 19.1455 62.5688C19.2852 62.4531 19.3997 62.2915 19.3997 62.2104C19.3997 61.9534 21.9764 59.5259 22.5703 59.2232C22.883 59.0637 23.4229 58.7816 23.7698 58.5966C24.1163 58.4112 24.5121 58.2597 24.6493 58.2597C24.7862 58.2597 25.0567 58.1487 25.2508 58.013C26.2601 57.3057 30.8394 57.293 32.3045 57.9931ZM69.5036 57.6335C69.938 57.7266 70.5653 57.9414 70.8975 58.1109C71.2297 58.2804 71.6076 58.4188 71.7377 58.4188C71.9613 58.4188 72.2791 58.607 73.9802 59.7447C74.896 60.3574 76.4379 61.9689 76.7617 62.6516C76.8994 62.9416 77.076 63.2189 77.1544 63.267C77.2327 63.3155 77.4197 63.6943 77.5697 64.1092C77.7197 64.5241 77.9934 65.1857 78.1779 65.5795C78.8495 67.012 78.744 78.0499 78.0483 79.1626C77.9309 79.3499 77.7893 79.7641 77.7336 80.0831C77.6775 80.4022 77.4189 80.9309 77.1587 81.2587C76.8982 81.5861 76.6853 81.9182 76.6853 81.9966C76.6853 82.2337 74.1616 84.7169 73.533 85.0984C71.361 86.4159 69.3166 87.0548 67.2555 87.0596C65.9335 87.0624 63.3195 86.6125 62.7618 86.2859C62.4992 86.1319 62.062 85.9286 61.7907 85.8343C60.7182 85.4608 57.7763 82.8066 57.5118 81.9735C57.4557 81.7961 57.3475 81.6513 57.2715 81.6513C57.026 81.6513 56.1795 79.7915 55.8071 78.4353C55.255 76.4232 55.1774 68.5261 55.6914 66.6138C56.7281 62.7534 59.8358 59.0899 62.7192 58.3297C63.1464 58.2167 63.5916 58.0453 63.7086 57.9482C64.2432 57.5042 67.96 57.3025 69.5036 57.6335ZM108.674 57.8945C109.066 58.0779 109.653 58.3122 109.98 58.4144C110.307 58.5171 110.619 58.6734 110.674 58.7617C110.729 58.85 111.085 59.0561 111.466 59.2196C112.273 59.5653 114.691 61.9077 115.187 62.8234C115.367 63.1576 115.584 63.5387 115.668 63.67C115.751 63.8013 116.048 64.4815 116.326 65.1817L116.832 66.4547L116.903 71.3081C116.994 77.6035 116.854 78.61 115.584 80.8557C115.46 81.0745 115.252 81.4798 115.121 81.7563C114.587 82.8877 111.56 85.5356 110.42 85.8689C110.201 85.933 109.908 86.0858 109.767 86.2087C109.627 86.3316 109.019 86.5389 108.415 86.6698C102.536 87.944 97.4175 85.5984 94.8596 80.4578C92.9819 76.685 93.0623 67.3951 95.004 63.7484C95.8247 62.2072 97.9892 59.7953 99.0307 59.261C99.3 59.1233 99.6883 58.8791 99.8944 58.7188C100.1 58.5584 100.53 58.3798 100.849 58.3221C101.168 58.2645 101.624 58.1189 101.862 57.9983C103.131 57.3558 107.388 57.291 108.674 57.8945ZM63.4054 78.143C62.4558 79.1343 64.0917 80.7546 66.3735 81.0832C68.8261 81.4365 71.7532 79.704 70.9011 78.4035C70.5009 77.7925 69.9026 77.7929 68.7692 78.4047C67.4063 79.1407 66.7916 79.1244 65.2095 78.3096C63.7376 77.5518 63.9528 77.5717 63.4054 78.143ZM101.686 78.2118C99.6549 80.3071 105.725 82.0925 108.421 80.1925C110.35 78.8324 109.181 77.3318 107.021 78.3956C105.527 79.1323 104.963 79.1184 103.498 78.3096C102.118 77.5474 102.319 77.5586 101.686 78.2118ZM25.034 78.2687C24.339 79.1848 25.7982 80.6667 27.7507 81.0275C30.5366 81.5427 33.7581 79.6244 32.4485 78.2305C32.0054 77.7587 31.6163 77.728 31.0407 78.1195C29.6224 79.0834 28.2882 79.1785 27.0605 78.4035C26.0453 77.7626 25.4481 77.7229 25.034 78.2687ZM51.7025 102.304C51.4837 102.451 51.2521 102.644 51.1877 102.733C51.1232 102.822 51.0695 109.713 51.0683 118.046L51.0659 133.197L51.6571 133.599L52.2483 134L52.771 133.494L53.2937 132.987V117.915V102.843L52.804 102.432C52.2355 101.953 52.226 101.952 51.7025 102.304ZM121.678 102.487L121.161 102.948L121.126 117.879L121.091 132.811L121.625 133.434C122.235 134.144 122.922 134.076 123.289 133.27C123.562 132.671 123.543 102.966 123.27 102.637C122.779 102.047 122.228 101.995 121.678 102.487ZM11.0376 102.506C10.5308 103.066 10.4696 132.67 10.9736 133.378C11.4677 134.072 12.2331 133.989 12.6428 133.197C12.9547 132.594 12.9786 103.727 12.6675 102.815C12.4252 102.104 11.5512 101.938 11.0376 102.506ZM81.1409 102.497C80.827 102.811 80.8226 103.027 80.8226 117.923V133.031L81.1807 133.43C81.7332 134.044 82.2468 134.028 82.6836 133.384L83.0504 132.843V117.857V102.87L82.682 102.525C82.2217 102.092 81.5574 102.08 81.1409 102.497Z" fill="#66023C"/>
</svg>
