<svg width="21" height="21" viewBox="0 0 21 21" fill="none" xmlns="http://www.w3.org/2000/svg">
<path fill-rule="evenodd" clip-rule="evenodd" d="M18.2062 6.67149L17.6616 5.72641C17.2008 4.92673 16.1798 4.65085 15.379 5.1097V5.1097C14.9978 5.33425 14.543 5.39796 14.1148 5.28678C13.6866 5.17559 13.3202 4.89865 13.0964 4.51702C12.9524 4.27445 12.8751 3.99817 12.8721 3.71611V3.71611C12.8851 3.26389 12.7145 2.82568 12.3992 2.50128C12.0838 2.17689 11.6506 1.99395 11.1982 1.99414H10.101C9.65774 1.99414 9.2328 2.17075 8.92015 2.4849C8.6075 2.79905 8.43293 3.22484 8.43506 3.66805V3.66805C8.42192 4.58313 7.67632 5.31803 6.76114 5.31794C6.47908 5.31501 6.2028 5.23765 5.96023 5.09368V5.09368C5.15945 4.63484 4.13837 4.91071 3.67762 5.71039L3.09295 6.67149C2.63276 7.47017 2.90487 8.4906 3.70165 8.9541V8.9541C4.21956 9.25311 4.53861 9.80572 4.53861 10.4038C4.53861 11.0018 4.21956 11.5544 3.70165 11.8534V11.8534C2.90588 12.3138 2.63347 13.3317 3.09295 14.128V14.128L3.64558 15.0811C3.86146 15.4706 4.22367 15.7581 4.65207 15.8798C5.08046 16.0016 5.53971 15.9476 5.92819 15.7298V15.7298C6.31009 15.507 6.76519 15.4459 7.19232 15.5602C7.61945 15.6745 7.98323 15.9547 8.20279 16.3385C8.34676 16.5811 8.42412 16.8574 8.42705 17.1395V17.1395C8.42705 18.0639 9.17648 18.8134 10.101 18.8134H11.1982C12.1196 18.8134 12.8677 18.0688 12.8721 17.1475V17.1475C12.87 16.7029 13.0457 16.2758 13.36 15.9615C13.6744 15.6471 14.1014 15.4714 14.546 15.4735C14.8274 15.4811 15.1026 15.5581 15.347 15.6978V15.6978C16.1456 16.158 17.1661 15.8859 17.6296 15.0891V15.0891L18.2062 14.128C18.4294 13.7449 18.4907 13.2886 18.3764 12.8602C18.2622 12.4317 17.9819 12.0665 17.5975 11.8454V11.8454C17.2132 11.6243 16.9329 11.2591 16.8186 10.8306C16.7044 10.4022 16.7656 9.94592 16.9888 9.56279C17.134 9.30937 17.3441 9.09925 17.5975 8.9541V8.9541C18.3895 8.49086 18.661 7.47638 18.2062 6.6795V6.6795V6.67149Z" stroke="#595858" stroke-width="1.5" stroke-linecap="round" stroke-linejoin="round"/>
<ellipse opacity="0.4" cx="10.6533" cy="10.4043" rx="2.30664" ry="2.30664" stroke="#595858" stroke-width="1.5" stroke-linecap="round" stroke-linejoin="round"/>
</svg>
