<svg width="72" height="72" viewBox="0 0 72 72" fill="none" xmlns="http://www.w3.org/2000/svg">
<g clip-path="url(#clip0_196_301)">
<path fill-rule="evenodd" clip-rule="evenodd" d="M35.9994 1.10665C16.728 1.10665 1.10543 16.7292 1.10543 36.0006C1.10543 55.272 16.728 70.8945 35.9994 70.8945C55.2708 70.8945 70.8933 55.272 70.8933 36.0006C70.8933 16.7292 55.2708 1.10665 35.9994 1.10665ZM0.393311 36.0006C0.393311 16.3359 16.3347 0.394531 35.9994 0.394531C55.6641 0.394531 71.6054 16.3359 71.6054 36.0006C71.6054 55.6653 55.6641 71.6067 35.9994 71.6067C16.3347 71.6067 0.393311 55.6653 0.393311 36.0006Z" fill="#797979" fill-opacity="0.2"/>
<path fill-rule="evenodd" clip-rule="evenodd" d="M35.9994 3.24288C17.9078 3.24288 3.24178 17.9089 3.24178 36.0005C3.24178 54.092 17.9078 68.758 35.9994 68.758C54.0909 68.758 68.7569 54.092 68.7569 36.0005C68.7569 17.9089 54.0909 3.24288 35.9994 3.24288ZM2.52966 36.0005C2.52966 17.5157 17.5146 2.53076 35.9994 2.53076C54.4842 2.53076 69.4691 17.5157 69.4691 36.0005C69.4691 54.4853 54.4842 69.4702 35.9994 69.4702C17.5146 69.4702 2.52966 54.4853 2.52966 36.0005Z" fill="#797979" fill-opacity="0.2"/>
<path fill-rule="evenodd" clip-rule="evenodd" d="M35.9994 16.7732C25.3805 16.7732 16.7721 25.3815 16.7721 36.0004C16.7721 46.6194 25.3805 55.2277 35.9994 55.2277C46.6183 55.2277 55.2267 46.6194 55.2267 36.0004C55.2267 25.3815 46.6183 16.7732 35.9994 16.7732ZM16.06 36.0004C16.06 24.9882 24.9872 16.061 35.9994 16.061C47.0116 16.061 55.9388 24.9882 55.9388 36.0004C55.9388 47.0127 47.0116 55.9398 35.9994 55.9398C24.9872 55.9398 16.06 47.0127 16.06 36.0004Z" fill="#797979" fill-opacity="0.2"/>
<path fill-rule="evenodd" clip-rule="evenodd" d="M35.9994 18.9099C26.5603 18.9099 18.9085 26.5617 18.9085 36.0008C18.9085 45.4398 26.5603 53.0917 35.9994 53.0917C45.4384 53.0917 53.0903 45.4398 53.0903 36.0008C53.0903 26.5617 45.4384 18.9099 35.9994 18.9099ZM18.1964 36.0008C18.1964 26.1684 26.167 18.1978 35.9994 18.1978C45.8317 18.1978 53.8024 26.1684 53.8024 36.0008C53.8024 45.8331 45.8317 53.8038 35.9994 53.8038C26.167 53.8038 18.1964 45.8331 18.1964 36.0008Z" fill="#797979" fill-opacity="0.2"/>
<path fill-rule="evenodd" clip-rule="evenodd" d="M53.4463 54.8718C53.053 54.8718 52.7342 55.1906 52.7342 55.5839C52.7342 55.9772 53.053 56.296 53.4463 56.296C53.8396 56.296 54.1585 55.9772 54.1585 55.5839C54.1585 55.1906 53.8396 54.8718 53.4463 54.8718ZM52.0221 55.5839C52.0221 54.7973 52.6597 54.1597 53.4463 54.1597C54.2329 54.1597 54.8706 54.7973 54.8706 55.5839C54.8706 56.3705 54.2329 57.0082 53.4463 57.0082C52.6597 57.0082 52.0221 56.3705 52.0221 55.5839Z" fill="#1D1D1D"/>
<path fill-rule="evenodd" clip-rule="evenodd" d="M26.3857 10.7204C25.9924 10.7204 25.6736 11.0392 25.6736 11.4325C25.6736 11.8258 25.9924 12.1447 26.3857 12.1447C26.779 12.1447 27.0979 11.8258 27.0979 11.4325C27.0979 11.0392 26.779 10.7204 26.3857 10.7204ZM24.9615 11.4325C24.9615 10.646 25.5991 10.0083 26.3857 10.0083C27.1723 10.0083 27.81 10.646 27.81 11.4325C27.81 12.2191 27.1723 12.8568 26.3857 12.8568C25.5991 12.8568 24.9615 12.2191 24.9615 11.4325Z" fill="#1D1D1D"/>
<g clip-path="url(#clip1_196_301)">
<path d="M32.978 35.0488L32.3699 40.9256C32.3548 41.0712 32.2861 41.2059 32.1771 41.3036C32.0682 41.4013 31.9268 41.455 31.7805 41.4542H29.8107C29.728 41.4546 29.6461 41.4376 29.5704 41.4043C29.4947 41.371 29.4268 41.3222 29.3712 41.2609C29.3156 41.1997 29.2735 41.1274 29.2477 41.0488C29.2218 40.9702 29.2128 40.8871 29.2213 40.8048L29.8333 34.9329C29.8484 34.7873 29.9171 34.6526 30.0261 34.5549C30.135 34.4572 30.2764 34.4035 30.4228 34.4043H32.3955C32.4772 34.4049 32.5578 34.4225 32.6324 34.4559C32.7069 34.4893 32.7737 34.5379 32.8284 34.5985C32.8832 34.6591 32.9248 34.7304 32.9506 34.8079C32.9763 34.8854 32.9857 34.9674 32.978 35.0488Z" fill="url(#paint0_linear_196_301)"/>
<path d="M41.3719 41.4513H39.4021C39.2558 41.4521 39.1144 41.3984 39.0054 41.3007C38.8965 41.203 38.8278 41.0683 38.8127 40.9227L38.2036 35.0488C38.1951 34.9665 38.2041 34.8834 38.23 34.8048C38.2558 34.7262 38.2979 34.6539 38.3535 34.5927C38.4091 34.5314 38.477 34.4826 38.5527 34.4493C38.6284 34.416 38.7103 34.399 38.793 34.3994H40.7628C40.9091 34.3986 41.0505 34.4523 41.1595 34.55C41.2684 34.6477 41.3371 34.7824 41.3522 34.928L41.9613 40.8019C41.9698 40.8842 41.9607 40.9673 41.9349 41.0459C41.9091 41.1245 41.867 41.1968 41.8114 41.258C41.7558 41.3193 41.6879 41.3681 41.6122 41.4014C41.5365 41.4347 41.4546 41.4517 41.3719 41.4513Z" fill="url(#paint1_linear_196_301)"/>
<path d="M43.5922 44.9988H27.5904C27.4896 44.9987 27.3904 44.9728 27.3024 44.9234C27.2144 44.8741 27.1405 44.803 27.0879 44.7169C27.0352 44.6309 27.0056 44.5327 27.0017 44.4319C26.9979 44.3311 27.0199 44.231 27.0658 44.1411L27.6553 42.9868C27.7046 42.8903 27.7796 42.8092 27.8719 42.7525C27.9643 42.6959 28.0705 42.6658 28.1789 42.6655H43.0008C43.11 42.6652 43.2172 42.6953 43.3104 42.7524C43.4035 42.8094 43.479 42.8913 43.5283 42.9887L44.1178 44.1431C44.1633 44.2329 44.185 44.3329 44.1808 44.4336C44.1767 44.5342 44.1469 44.632 44.0942 44.7179C44.0415 44.8037 43.9676 44.8745 43.8798 44.9237C43.7919 44.9729 43.6929 44.9987 43.5922 44.9988Z" fill="url(#paint2_linear_196_301)"/>
<path d="M27.7958 30.7144H43.7052C43.8045 30.7145 43.9021 30.7396 43.9891 30.7876C44.076 30.8355 44.1495 30.9046 44.2026 30.9885C44.2557 31.0724 44.2868 31.1683 44.2929 31.2674C44.299 31.3665 44.28 31.4655 44.2377 31.5553L43.6119 32.8777C43.5641 32.9784 43.4887 33.0636 43.3944 33.1233C43.3002 33.1829 43.1909 33.2146 43.0794 33.2146H28.4226C28.311 33.2146 28.2018 33.1829 28.1075 33.1233C28.0133 33.0636 27.9379 32.9784 27.8901 32.8777L27.2633 31.5553C27.221 31.4655 27.202 31.3665 27.2081 31.2674C27.2142 31.1683 27.2453 31.0724 27.2984 30.9885C27.3515 30.9046 27.425 30.8355 27.5119 30.7876C27.5989 30.7396 27.6965 30.7145 27.7958 30.7144Z" fill="url(#paint3_linear_196_301)"/>
<path d="M40.5083 29.5003H30.8324C30.7406 29.5005 30.65 29.4793 30.5678 29.4383C30.4857 29.3974 30.4142 29.3378 30.3591 29.2643C30.3041 29.1908 30.2669 29.1055 30.2507 29.0151C30.2344 28.9248 30.2395 28.8318 30.2656 28.7438L30.6585 27.4215C30.6951 27.3001 30.7698 27.1937 30.8715 27.1182C30.9733 27.0426 31.0967 27.0019 31.2234 27.002H40.1055C40.2323 27.0019 40.3557 27.0426 40.4574 27.1182C40.5592 27.1937 40.6339 27.3001 40.6704 27.4215L41.0722 28.7438C41.0982 28.8316 41.1033 28.9243 41.0872 29.0144C41.0711 29.1045 41.0343 29.1897 40.9795 29.2631C40.9248 29.3365 40.8537 29.3962 40.7719 29.4373C40.6901 29.4785 40.5999 29.5 40.5083 29.5003Z" fill="url(#paint4_linear_196_301)"/>
<path d="M36.896 41.4513H34.2935C34.2114 41.4516 34.1302 41.4348 34.055 41.4019C33.9798 41.369 33.9123 41.3208 33.8568 41.2603C33.8013 41.1998 33.759 41.1284 33.7327 41.0507C33.7064 40.9729 33.6967 40.8905 33.7041 40.8088L34.2454 34.9329C34.2589 34.7861 34.3269 34.6497 34.436 34.5506C34.5451 34.4515 34.6874 34.3968 34.8348 34.3975H36.3566C36.504 34.3968 36.6463 34.4515 36.7554 34.5506C36.8645 34.6497 36.9325 34.7861 36.9461 34.9329L37.4874 40.8068C37.4951 40.8889 37.4855 40.9717 37.4592 41.0498C37.4329 41.1279 37.3905 41.1997 37.3348 41.2604C37.2791 41.3211 37.2112 41.3695 37.1356 41.4024C37.06 41.4353 36.9784 41.4519 36.896 41.4513Z" fill="url(#paint5_linear_196_301)"/>
</g>
<path d="M41.7642 58.1121C42.2281 57.9584 42.7007 57.88 43.182 57.877C43.6593 57.8818 44.0592 57.9579 44.3818 58.1052L44.2834 58.9003C43.9785 58.7667 43.6216 58.6926 43.2128 58.6782C42.8 58.6715 42.3998 58.7324 42.0122 58.8608C41.5013 59.0301 41.1478 59.2417 40.9517 59.4956C40.7575 59.7555 40.7081 60.0293 40.8034 60.317C40.8734 60.5284 41.0003 60.6754 41.1841 60.7579C41.3639 60.8482 41.5682 60.8946 41.7971 60.897C42.0201 60.9013 42.3312 60.8862 42.7304 60.8518C43.2313 60.8096 43.6441 60.7967 43.9688 60.813C44.2877 60.8312 44.5878 60.9207 44.8692 61.0817C45.1467 61.2504 45.3506 61.5316 45.481 61.925C45.5899 62.2539 45.603 62.5787 45.5202 62.8994C45.4316 63.222 45.2374 63.5209 44.9375 63.7962C44.6377 64.0715 44.2265 64.2957 43.7038 64.4689C43.3397 64.5895 42.9659 64.6612 42.5824 64.684C42.1989 64.7067 41.8517 64.6718 41.5409 64.5793L41.5981 63.7783C41.911 63.8571 42.2278 63.889 42.5487 63.874C42.8715 63.8648 43.1739 63.8135 43.4558 63.7201C43.9549 63.5548 44.3006 63.3392 44.4928 63.0735C44.6792 62.8098 44.7247 62.534 44.6294 62.2462C44.5593 62.0348 44.4315 61.8849 44.2458 61.7965C44.062 61.714 43.8548 61.6687 43.6239 61.6604C43.3892 61.66 43.079 61.678 42.6936 61.7144C42.1927 61.7565 41.7828 61.7685 41.4639 61.7503C41.1451 61.7321 40.8479 61.6416 40.5724 61.4787C40.2909 61.3177 40.086 61.0435 39.9576 60.6559C39.8506 60.3329 39.8405 60.0071 39.9272 59.6786C40.0158 59.356 40.213 59.056 40.5187 58.7788C40.8263 58.5075 41.2415 58.2852 41.7642 58.1121Z" fill="#C6C6C6"/>
<path d="M26.6972 57.4729C26.9533 57.2731 27.2307 57.1377 27.5297 57.0668C27.8286 56.9959 28.1356 56.993 28.4506 57.0581C28.8505 57.1407 29.2061 57.3152 29.5174 57.5817C29.824 57.8408 30.1539 58.2469 30.5071 58.8C31.1006 58.9542 31.6097 59.2267 32.0343 59.6177C32.4529 60.0074 32.749 60.4697 32.9228 61.0046C33.0892 61.5444 33.1118 62.1081 32.9904 62.6958C32.864 63.3077 32.604 63.832 32.2106 64.2687C31.8111 64.7042 31.3251 65.0081 30.7525 65.1804C30.1787 65.3588 29.5707 65.3817 28.9285 65.249C28.2924 65.1176 27.7462 64.8563 27.2901 64.4652C26.8327 64.0801 26.5099 63.6091 26.3217 63.0523C26.1322 62.5014 26.1013 61.917 26.229 61.2991C26.3366 60.778 26.5415 60.3213 26.8437 59.9289C27.1398 59.5352 27.5093 59.2294 27.9524 59.0114C28.3893 58.7921 28.8651 58.6756 29.3796 58.6618C29.2138 58.3939 29.044 58.1914 28.8702 58.0544C28.6915 57.9101 28.4992 57.8167 28.2932 57.7741C27.8449 57.6815 27.4196 57.7832 27.0173 58.0791L26.6972 57.4729ZM32.0816 62.508C32.1767 62.0476 32.157 61.6076 32.0226 61.1882C31.8808 60.7736 31.644 60.4214 31.3122 60.1318C30.9743 59.8409 30.5721 59.6473 30.1056 59.5509C29.6451 59.4558 29.2052 59.4755 28.7858 59.6099C28.3663 59.7444 28.0124 59.9745 27.724 60.3003C27.4283 60.6308 27.2329 61.0263 27.1378 61.4868C27.0427 61.9472 27.066 62.3848 27.2078 62.7994C27.3422 63.2188 27.5754 63.5734 27.9072 63.863C28.239 64.1527 28.6352 64.3451 29.0956 64.4402C29.5621 64.5365 30.0081 64.5181 30.4336 64.3849C30.853 64.2505 31.2106 64.0179 31.5063 63.6874C31.7947 63.3616 31.9865 62.9685 32.0816 62.508Z" fill="#C6C6C6"/>
<path d="M19.8889 53.5244C20.5358 54.1003 20.875 54.7335 20.9064 55.424C20.9378 56.1145 20.645 56.8063 20.0281 57.4995L17.5725 60.2583L16.8793 59.6413L19.3102 56.9103C20.2357 55.8705 20.2432 54.9455 19.3329 54.1352C18.8892 53.7403 18.4365 53.5651 17.9746 53.6095C17.5086 53.6585 17.0411 53.9464 16.5722 54.4732L14.1413 57.2043L13.469 56.6058L15.9245 53.847C16.5456 53.1492 17.2009 52.7759 17.8904 52.727C18.5758 52.6828 19.2419 52.9486 19.8889 53.5244Z" fill="#C6C6C6"/>
<path d="M11.2927 42.559L12.3782 45.836L14.1445 46.0036L14.4451 46.9109L7.35375 46.1612L7.06486 45.2891L12.3032 40.4451L12.6096 41.3701L11.2927 42.559ZM10.6901 43.1008L8.10928 45.4319L11.5714 45.7611L10.6901 43.1008Z" fill="#C6C6C6"/>
<path d="M13.138 30.2636L10.9007 31.2323C10.8777 31.4044 10.8563 31.539 10.8362 31.6359L10.5115 33.2081L12.4472 33.608L12.2595 34.5167L5.89795 33.2026L6.41045 30.7217C6.58066 29.8977 6.91147 29.2901 7.4029 28.8989C7.89433 28.5077 8.48538 28.3834 9.17605 28.5261C9.6668 28.6274 10.0598 28.835 10.3551 29.1486C10.6504 29.4623 10.8305 29.8596 10.8954 30.3405L13.3426 29.273L13.138 30.2636ZM10.0581 31.5036C10.177 30.928 10.1436 30.4631 9.95774 30.1089C9.77192 29.7546 9.44878 29.53 8.98833 29.4348C8.52787 29.3397 8.14519 29.4186 7.84027 29.6715C7.52929 29.9231 7.31436 30.3367 7.19546 30.9122L6.87632 32.4572L9.739 33.0485L10.0581 31.5036Z" fill="#C6C6C6"/>
<path d="M19.1992 19.1587L19.8022 19.6955L16.668 23.2167L11.8159 18.8979L14.8637 15.4737L15.4667 16.0105L13.0359 18.7415L14.5262 20.068L16.6918 17.635L17.281 18.1594L15.1154 20.5925L16.6819 21.9868L19.1992 19.1587Z" fill="#C6C6C6"/>
</g>
<path d="M39.7063 10.75L36.4811 10.75L35.8453 12.2428H34.6105L37.5132 5.79248H38.6927L41.6045 12.2428H40.3513L39.7063 10.75ZM39.3101 9.81012L38.0937 6.9904L36.8866 9.81012L39.3101 9.81012Z" fill="url(#paint6_linear_196_301)"/>
<path d="M52.251 13.2339L53.2326 13.8006L51.9471 16.0271C51.5277 16.09 51.0912 16.0721 50.6375 15.9733C50.1838 15.8745 49.7548 15.7084 49.3505 15.4749C48.7812 15.1463 48.3385 14.7275 48.0222 14.2186C47.7091 13.7044 47.5481 13.1539 47.5392 12.5672C47.5304 11.9804 47.6842 11.413 48.0006 10.8651C48.317 10.3171 48.7314 9.90023 49.244 9.61449C49.7565 9.32874 50.3122 9.19559 50.9111 9.21502C51.5183 9.2322 52.1092 9.40665 52.6837 9.73839C53.1519 10.0087 53.533 10.3316 53.827 10.707C54.1209 11.0824 54.3123 11.4944 54.4009 11.9428L53.378 12.2034C53.1981 11.5321 52.8076 11.0229 52.2064 10.6758C51.8127 10.4485 51.414 10.3282 51.0102 10.315C50.6117 10.3048 50.2387 10.398 49.8911 10.5946C49.5489 10.7942 49.2671 11.0856 49.046 11.4686C48.831 11.841 48.7226 12.2254 48.7208 12.6216C48.7244 13.0209 48.8286 13.3932 49.0336 13.7385C49.2439 14.0869 49.5432 14.3732 49.9316 14.5974C50.3678 14.8493 50.8062 14.9747 51.2466 14.9736L52.251 13.2339Z" fill="url(#paint7_linear_196_301)"/>
<path d="M57.2138 23.4548C56.8851 22.8855 56.7111 22.3015 56.6916 21.7026C56.6775 21.1007 56.8133 20.5435 57.0991 20.031C57.3901 19.5153 57.807 19.1009 58.3497 18.7876C58.8923 18.4743 59.457 18.322 60.0438 18.3308C60.6359 18.3366 61.1863 18.4976 61.6952 18.8138C62.2094 19.127 62.6309 19.5682 62.9595 20.1374C63.2882 20.7067 63.4596 21.2923 63.4737 21.8942C63.4931 22.493 63.3599 23.0487 63.0742 23.5613C62.7885 24.0738 62.3716 24.4883 61.8236 24.8047C61.2756 25.121 60.7083 25.2748 60.1215 25.266C59.5348 25.2572 58.9843 25.0962 58.4701 24.783C57.9612 24.4668 57.5424 24.024 57.2138 23.4548ZM58.1235 22.9295C58.3385 23.3019 58.6145 23.5895 58.9514 23.7922C59.2937 23.9918 59.6629 24.0908 60.0591 24.089C60.4607 24.0842 60.8476 23.9743 61.2201 23.7592C61.5925 23.5442 61.8785 23.2656 62.0781 22.9233C62.2831 22.578 62.382 22.2088 62.3749 21.8156C62.3732 21.4194 62.2648 21.0351 62.0498 20.6627C61.8348 20.2903 61.5561 20.0043 61.2139 19.8046C60.8769 19.6019 60.5077 19.503 60.1062 19.5078C59.7099 19.5096 59.3256 19.618 58.9532 19.833C58.5808 20.048 58.2921 20.3282 58.0872 20.6735C57.8875 21.0157 57.7886 21.385 57.7904 21.7812C57.7974 22.1743 57.9085 22.5571 58.1235 22.9295Z" fill="url(#paint8_linear_196_301)"/>
<path d="M60.2843 36.2897L62.1733 34.972C62.1672 34.9167 62.1641 34.8338 62.1641 34.7232V33.2673H60.2843V32.0693H66.7346V34.7232C66.7346 35.2822 66.6425 35.7675 66.4582 36.1791C66.2739 36.5969 66.0097 36.9163 65.6657 37.1375C65.3217 37.3586 64.9132 37.4692 64.4401 37.4692C63.9548 37.4692 63.5371 37.3494 63.1869 37.1098C62.8368 36.8764 62.5757 36.5385 62.4037 36.0962L60.2843 37.5798V36.2897ZM64.4401 36.2621C64.8517 36.2621 65.1681 36.1269 65.3893 35.8566C65.6104 35.5863 65.721 35.1901 65.721 34.6679V33.2673H63.1501V34.6679C63.1501 35.1901 63.2607 35.5863 63.4818 35.8566C63.7091 36.1269 64.0285 36.2621 64.4401 36.2621Z" fill="url(#paint9_linear_196_301)"/>
<path d="M57.7096 48.0022L59.3222 45.2091L58.3473 43.9121L58.9647 42.8427L63.0995 48.5816L62.5098 49.6031L55.4677 48.8997L56.0943 47.8144L57.7096 48.0022ZM58.7217 48.129L61.7718 48.4854L59.9334 46.0302L58.7217 48.129Z" fill="url(#paint10_linear_196_301)"/>
<defs>
<linearGradient id="paint0_linear_196_301" x1="29.2182" y1="36.0754" x2="33.2073" y2="36.3844" gradientUnits="userSpaceOnUse">
<stop stop-color="#84B9D1"/>
<stop offset="1" stop-color="#D2B4FC"/>
</linearGradient>
<linearGradient id="paint1_linear_196_301" x1="38.2005" y1="36.071" x2="42.1911" y2="36.3802" gradientUnits="userSpaceOnUse">
<stop stop-color="#84B9D1"/>
<stop offset="1" stop-color="#D2B4FC"/>
</linearGradient>
<linearGradient id="paint2_linear_196_301" x1="27.0013" y1="43.2186" x2="35.5541" y2="52.3605" gradientUnits="userSpaceOnUse">
<stop stop-color="#84B9D1"/>
<stop offset="1" stop-color="#D2B4FC"/>
</linearGradient>
<linearGradient id="paint3_linear_196_301" x1="27.207" y1="31.307" x2="36.392" y2="40.4193" gradientUnits="userSpaceOnUse">
<stop stop-color="#84B9D1"/>
<stop offset="1" stop-color="#D2B4FC"/>
</linearGradient>
<linearGradient id="paint4_linear_196_301" x1="30.2414" y1="27.5941" x2="38.5242" y2="32.8184" gradientUnits="userSpaceOnUse">
<stop stop-color="#84B9D1"/>
<stop offset="1" stop-color="#D2B4FC"/>
</linearGradient>
<linearGradient id="paint5_linear_196_301" x1="33.7017" y1="36.0695" x2="37.7178" y2="36.3826" gradientUnits="userSpaceOnUse">
<stop stop-color="#84B9D1"/>
<stop offset="1" stop-color="#D2B4FC"/>
</linearGradient>
<linearGradient id="paint6_linear_196_301" x1="34.6105" y1="7.32145" x2="41.89" y2="8.46725" gradientUnits="userSpaceOnUse">
<stop stop-color="#84B9D1"/>
<stop offset="1" stop-color="#D2B4FC"/>
</linearGradient>
<linearGradient id="paint7_linear_196_301" x1="48.8729" y1="9.35415" x2="53.9688" y2="13.2757" gradientUnits="userSpaceOnUse">
<stop stop-color="#84B9D1"/>
<stop offset="1" stop-color="#D2B4FC"/>
</linearGradient>
<linearGradient id="paint8_linear_196_301" x1="59.8606" y1="17.9152" x2="62.5286" y2="24.7387" gradientUnits="userSpaceOnUse">
<stop stop-color="#84B9D1"/>
<stop offset="1" stop-color="#D2B4FC"/>
</linearGradient>
<linearGradient id="paint9_linear_196_301" x1="65.2057" y1="32.0693" x2="64.4878" y2="37.8577" gradientUnits="userSpaceOnUse">
<stop stop-color="#84B9D1"/>
<stop offset="1" stop-color="#D2B4FC"/>
</linearGradient>
<linearGradient id="paint10_linear_196_301" x1="63.2267" y1="45.3034" x2="58.5947" y2="51.0347" gradientUnits="userSpaceOnUse">
<stop stop-color="#84B9D1"/>
<stop offset="1" stop-color="#D2B4FC"/>
</linearGradient>
<clipPath id="clip0_196_301">
<rect width="71.2121" height="71.2121" fill="white" transform="translate(0.393921 0.394043)"/>
</clipPath>
<clipPath id="clip1_196_301">
<rect width="17.2946" height="18" fill="white" transform="translate(27 27)"/>
</clipPath>
</defs>
</svg>
