<svg width="25" height="25" viewBox="0 0 25 25" fill="none" xmlns="http://www.w3.org/2000/svg">
<path d="M12.5 22.5029C6.977 22.5029 2.5 18.0259 2.5 12.5029C2.5 6.97993 6.977 2.50293 12.5 2.50293C18.023 2.50293 22.5 6.97993 22.5 12.5029C22.5 18.0259 18.023 22.5029 12.5 22.5029ZM9.39 13.6729L9.403 13.6659L10.273 16.5359C10.385 16.8469 10.539 16.9029 10.726 16.8769C10.914 16.8519 11.013 16.7509 11.136 16.6329L12.324 15.4849L14.874 17.3729C15.34 17.6299 15.675 17.4969 15.791 16.9409L17.448 9.11893C17.631 8.39093 17.311 8.09893 16.746 8.33093L7.013 12.0909C6.349 12.3569 6.353 12.7289 6.893 12.8939L9.39 13.6739V13.6729Z" fill="white" fill-opacity="0.37"/>
</svg>
