<svg width="1342" height="959" viewBox="0 0 1342 959" fill="none" xmlns="http://www.w3.org/2000/svg">
<path d="M120.627 694.508C108.357 722.549 69.8417 717.294 66.3525 773.338C63.2659 822.592 89.339 868.854 147.007 887.21H1187.5C1214.91 823.916 1327.72 540.589 1253.5 325.6C1183.97 124.172 1038.96 107.408 910.643 139.286C914.477 131.614 915.34 125.016 912.752 119.914C900.827 96.591 820.729 113.7 733.806 158.159C646.883 202.618 586.186 257.55 598.053 280.911C603.517 291.613 623.34 293.78 651.541 288.736C631.281 304.362 608.749 316.794 584.729 325.6C481.414 364.133 318.572 281.812 217.021 295.814C155.289 304.31 103.526 335.344 80.6927 390.083L80.3476 389.7C80.3476 389.7 45.3406 428.251 59.259 505.317C73.1775 582.382 132.877 666.486 120.627 694.508Z" fill="#93C1F9" fill-opacity="0.5"/>
<path opacity="0.7" d="M120.627 694.508C108.357 722.549 69.8417 717.294 66.3525 773.338C63.2659 822.592 89.339 868.854 147.007 887.21H1187.5C1214.91 823.916 1327.72 540.589 1253.5 325.6C1183.97 124.172 1038.96 107.408 910.643 139.286C914.477 131.614 915.34 125.016 912.752 119.914C900.827 96.591 820.729 113.7 733.806 158.159C646.883 202.618 586.186 257.55 598.053 280.911C603.517 291.613 623.34 293.78 651.541 288.736C631.281 304.362 608.749 316.794 584.729 325.6C481.414 364.133 318.572 281.812 217.021 295.814C155.289 304.31 103.526 335.344 80.6927 390.083L80.3476 389.7C80.3476 389.7 45.3406 428.251 59.259 505.317C73.1775 582.382 132.877 666.486 120.627 694.508Z" fill="white"/>
<path d="M1049.12 609.964H978.365V645.385H1049.12V609.964Z" fill="white" stroke="#D9D9D9" stroke-miterlimit="10"/>
<path d="M1086.07 618.243H941.449V655.914H1086.07V618.243Z" fill="white" stroke="#D9D9D9" stroke-miterlimit="10"/>
<path d="M1095.09 649.741H932.418V670.997H1095.09V649.741Z" fill="white" stroke="#D9D9D9" stroke-miterlimit="10"/>
<path d="M921.659 690.435V886.619H985.651V757.516C985.651 743.279 998.245 731.724 1013.75 731.724C1029.26 731.724 1041.85 743.279 1041.85 757.516V886.547H1105.85V690.363L921.659 690.435Z" fill="white" stroke="#D9D9D9" stroke-miterlimit="10"/>
<path d="M1105.85 664.067H921.659V685.324H1105.85V664.067Z" fill="white" stroke="#D9D9D9" stroke-miterlimit="10"/>
<path d="M1109.14 692.091H916.73L908.166 682.894H1117.7L1109.14 692.091Z" fill="white" stroke="#D9D9D9" stroke-miterlimit="10"/>
<path d="M924.25 703.143H1102.39" stroke="#D9D9D9" stroke-miterlimit="10"/>
<path d="M967.481 886.548V709.496" stroke="#D9D9D9" stroke-miterlimit="10"/>
<path d="M1059.16 718.675V709.496" stroke="#D9D9D9" stroke-miterlimit="10"/>
<path d="M1059.16 886.547V725.694" stroke="#D9D9D9" stroke-miterlimit="10"/>
<path d="M987.36 767.452H967.283V772.222H987.36V767.452Z" fill="white" stroke="#D9D9D9" stroke-miterlimit="10"/>
<path d="M1059.39 767.452H1039.32V772.222H1059.39V767.452Z" fill="white" stroke="#D9D9D9" stroke-miterlimit="10"/>
<path d="M1062.33 635.576C1062.49 637.229 1062.15 638.894 1061.35 640.351C1060.55 641.807 1059.33 642.989 1057.85 643.739C1056.37 644.49 1054.69 644.775 1053.05 644.558C1051.4 644.34 1049.86 643.629 1048.62 642.519C1047.39 641.409 1046.51 639.951 1046.12 638.337C1045.73 636.722 1045.83 635.027 1046.42 633.472C1047.01 631.918 1048.05 630.577 1049.41 629.626C1050.77 628.675 1052.39 628.158 1054.05 628.142C1056.13 628.034 1058.17 628.756 1059.72 630.149C1061.27 631.542 1062.21 633.494 1062.33 635.576V635.576Z" fill="white" stroke="#D9D9D9" stroke-miterlimit="10"/>
<path d="M1089.62 725.497C1089.76 727.151 1089.4 728.81 1088.58 730.256C1087.76 731.701 1086.53 732.866 1085.04 733.598C1083.55 734.33 1081.87 734.595 1080.23 734.358C1078.59 734.12 1077.06 733.392 1075.83 732.269C1074.61 731.145 1073.76 729.679 1073.38 728.061C1073.01 726.443 1073.13 724.75 1073.73 723.203C1074.34 721.656 1075.39 720.327 1076.76 719.391C1078.13 718.455 1079.76 717.954 1081.41 717.955C1083.5 717.872 1085.54 718.619 1087.07 720.032C1088.61 721.446 1089.53 723.41 1089.62 725.497V725.497Z" fill="white" stroke="#D9D9D9" stroke-miterlimit="10"/>
<path d="M953.394 725.497C953.536 727.151 953.174 728.81 952.357 730.256C951.541 731.701 950.306 732.866 948.817 733.598C947.327 734.33 945.651 734.595 944.008 734.358C942.365 734.12 940.832 733.392 939.61 732.269C938.388 731.145 937.533 729.679 937.158 728.061C936.783 726.443 936.905 724.75 937.508 723.203C938.112 721.656 939.168 720.327 940.539 719.391C941.909 718.455 943.531 717.954 945.191 717.955C947.277 717.872 949.311 718.619 950.848 720.032C952.386 721.446 953.301 723.41 953.394 725.497V725.497Z" fill="white" stroke="#D9D9D9" stroke-miterlimit="10"/>
<path d="M982.665 635.576C982.81 637.23 982.452 638.891 981.638 640.338C980.823 641.786 979.59 642.954 978.101 643.689C976.612 644.423 974.935 644.691 973.292 644.456C971.648 644.221 970.113 643.495 968.889 642.372C967.665 641.249 966.809 639.783 966.432 638.165C966.055 636.547 966.176 634.853 966.779 633.305C967.381 631.757 968.437 630.427 969.808 629.49C971.179 628.552 972.801 628.051 974.461 628.052C976.545 627.969 978.576 628.713 980.113 630.123C981.65 631.532 982.567 633.492 982.665 635.576V635.576Z" fill="white" stroke="#D9D9D9" stroke-miterlimit="10"/>
<path d="M1045.85 627.297H982.665V642.362H1045.85V627.297Z" fill="white" stroke="#D9D9D9" stroke-miterlimit="10"/>
<path d="M1027.7 603.179C1027.7 606.095 1021.45 608.452 1013.75 608.452C1006.05 608.452 999.81 606.095 999.81 603.179C999.81 600.263 1006.05 597.905 1013.75 597.905C1021.45 597.905 1027.7 600.263 1027.7 603.179Z" fill="white" stroke="#D9D9D9" stroke-miterlimit="10"/>
<path d="M989.249 609.964L999.108 603.179H1027.95L1041.08 609.964H989.249Z" fill="white" stroke="#D9D9D9" stroke-miterlimit="10"/>
<path d="M969.532 808.128H917.827V813.402H969.532V808.128Z" fill="white" stroke="#D9D9D9" stroke-miterlimit="10"/>
<path d="M969.532 766.695H917.827V771.969H969.532V766.695Z" fill="white" stroke="#D9D9D9" stroke-miterlimit="10"/>
<path d="M1109.05 808.128H1057.34V813.402H1109.05V808.128Z" fill="white" stroke="#D9D9D9" stroke-miterlimit="10"/>
<path d="M1109.05 766.695H1057.34V771.969H1109.05V766.695Z" fill="white" stroke="#D9D9D9" stroke-miterlimit="10"/>
<path d="M930.133 805.878V772.725" stroke="#D9D9D9" stroke-miterlimit="10"/>
<path d="M930.133 765.184V740.31" stroke="#D9D9D9" stroke-miterlimit="10"/>
<path d="M930.133 875.947V814.914" stroke="#D9D9D9" stroke-miterlimit="10"/>
<path d="M1097.55 805.878V772.725" stroke="#D9D9D9" stroke-miterlimit="10"/>
<path d="M1097.55 765.184V740.31" stroke="#D9D9D9" stroke-miterlimit="10"/>
<path d="M1097.55 875.947V814.914" stroke="#D9D9D9" stroke-miterlimit="10"/>
<path d="M1066.37 805.878V772.725" stroke="#D9D9D9" stroke-miterlimit="10"/>
<path d="M1066.37 765.184V740.31" stroke="#D9D9D9" stroke-miterlimit="10"/>
<path d="M1066.37 858.813V814.914" stroke="#D9D9D9" stroke-miterlimit="10"/>
<path d="M1066.37 875.947V865.813" stroke="#D9D9D9" stroke-miterlimit="10"/>
<path d="M961.328 805.878V772.725" stroke="#D9D9D9" stroke-miterlimit="10"/>
<path d="M961.328 765.184V740.31" stroke="#D9D9D9" stroke-miterlimit="10"/>
<path d="M961.328 875.947V814.914" stroke="#D9D9D9" stroke-miterlimit="10"/>
<path d="M961.31 740.31H930.133V743.315H961.31V740.31Z" fill="white" stroke="#D9D9D9" stroke-miterlimit="10"/>
<path d="M1097.57 740.31H1066.39V743.315H1097.57V740.31Z" fill="white" stroke="#D9D9D9" stroke-miterlimit="10"/>
<path d="M496.076 661.691H348.302V721.771H496.076V661.691Z" fill="white" stroke="#D9D9D9" stroke-miterlimit="10"/>
<path d="M337.166 699.92H223.808V735.107H337.166V699.92Z" fill="white" stroke="#D9D9D9" stroke-miterlimit="10"/>
<path d="M620.571 699.92H507.212V735.107H620.571V699.92Z" fill="white" stroke="#D9D9D9" stroke-miterlimit="10"/>
<path d="M337.166 710.557H223.808V745.744H337.166V710.557Z" fill="white" stroke="#D9D9D9" stroke-miterlimit="10"/>
<path d="M620.571 710.557H507.212V745.744H620.571V710.557Z" fill="white" stroke="#D9D9D9" stroke-miterlimit="10"/>
<path d="M625.122 707.768H220.515V710.809H625.122V707.768Z" fill="white" stroke="#D9D9D9" stroke-miterlimit="10"/>
<path d="M217.529 748.948L221.793 764.985V885.485H258.332V825.334H303.038V885.485H369.315V749.362H476.233V885.485H545.46V825.334H585.417V885.485H621.596V761.943L625.644 748.948H217.529Z" fill="white" stroke="#D9D9D9" stroke-miterlimit="10"/>
<path d="M245.073 768.027V885.522H258.332V825.335H303.038V885.522H314.822V768.027H245.073Z" fill="white" stroke="#D9D9D9" stroke-miterlimit="10"/>
<path d="M226.165 763.707H332.452" stroke="#D9D9D9" stroke-miterlimit="10"/>
<path d="M233.775 748.786H229.223V763.257H233.775V748.786Z" fill="white" stroke="#D9D9D9" stroke-miterlimit="10"/>
<path d="M247.429 748.786H242.878V763.257H247.429V748.786Z" fill="white" stroke="#D9D9D9" stroke-miterlimit="10"/>
<path d="M261.066 748.786H256.515V763.257H261.066V748.786Z" fill="white" stroke="#D9D9D9" stroke-miterlimit="10"/>
<path d="M274.721 748.786H270.169V763.257H274.721V748.786Z" fill="white" stroke="#D9D9D9" stroke-miterlimit="10"/>
<path d="M288.358 748.786H283.806V763.257H288.358V748.786Z" fill="white" stroke="#D9D9D9" stroke-miterlimit="10"/>
<path d="M301.994 748.786H297.443V763.257H301.994V748.786Z" fill="white" stroke="#D9D9D9" stroke-miterlimit="10"/>
<path d="M315.649 748.786H311.098V763.257H315.649V748.786Z" fill="white" stroke="#D9D9D9" stroke-miterlimit="10"/>
<path d="M329.286 748.786H324.735V763.257H329.286V748.786Z" fill="white" stroke="#D9D9D9" stroke-miterlimit="10"/>
<path d="M254.428 822.148V885.791H266.104V854.618H267.669V849.974C267.669 840.813 273.48 829.42 280.658 829.42C287.836 829.42 293.647 840.813 293.647 849.974V854.618H295.194V885.791H306.888V822.148C306.888 807.659 295.14 779.6 280.658 779.6C266.158 779.6 254.428 807.659 254.428 822.148Z" fill="white" stroke="#D9D9D9" stroke-miterlimit="10"/>
<path d="M529.484 768.027V885.522H545.46V825.335H585.417V885.522H599.252V768.027H529.484Z" fill="white" stroke="#D9D9D9" stroke-miterlimit="10"/>
<path d="M510.594 763.707H616.864" stroke="#D9D9D9" stroke-miterlimit="10"/>
<path d="M518.186 748.786H513.635V763.257H518.186V748.786Z" fill="white" stroke="#D9D9D9" stroke-miterlimit="10"/>
<path d="M531.841 748.786H527.29V763.257H531.841V748.786Z" fill="white" stroke="#D9D9D9" stroke-miterlimit="10"/>
<path d="M545.478 748.786H540.926V763.257H545.478V748.786Z" fill="white" stroke="#D9D9D9" stroke-miterlimit="10"/>
<path d="M559.133 748.786H554.581V763.257H559.133V748.786Z" fill="white" stroke="#D9D9D9" stroke-miterlimit="10"/>
<path d="M572.769 748.786H568.218V763.257H572.769V748.786Z" fill="white" stroke="#D9D9D9" stroke-miterlimit="10"/>
<path d="M586.424 748.786H581.873V763.257H586.424V748.786Z" fill="white" stroke="#D9D9D9" stroke-miterlimit="10"/>
<path d="M600.061 748.786H595.51V763.257H600.061V748.786Z" fill="white" stroke="#D9D9D9" stroke-miterlimit="10"/>
<path d="M613.716 748.786H609.164V763.257H613.716V748.786Z" fill="white" stroke="#D9D9D9" stroke-miterlimit="10"/>
<path d="M345.082 721.212V885.791H379.264V814.498H383.815V803.879C383.815 782.947 400.78 756.867 421.703 756.867C442.626 756.867 459.609 782.947 459.609 803.879V814.498H464.161V885.791H498.343V721.212H345.082Z" fill="white" stroke="#D9D9D9" stroke-miterlimit="10"/>
<path d="M538.804 822.148V885.791H550.498V854.618H552.045V849.974C552.045 840.813 557.856 829.42 565.034 829.42C572.212 829.42 578.023 840.813 578.023 849.974V854.618H579.57V885.791H591.264V822.148C591.264 807.659 579.516 779.6 565.034 779.6C550.587 779.6 538.804 807.659 538.804 822.148Z" fill="white" stroke="#D9D9D9" stroke-miterlimit="10"/>
<path d="M359.942 645.493C358.503 637.663 352.602 623.48 345.549 623.48C338.497 623.48 332.542 637.663 331.157 645.493H359.942Z" fill="white" stroke="#D9D9D9" stroke-miterlimit="10"/>
<path d="M359.061 849.885H331.949L334.666 646.861H356.362L359.061 849.885Z" fill="white" stroke="#D9D9D9" stroke-miterlimit="10"/>
<path d="M352.422 849.885H338.605L339.99 646.861H351.037L352.422 849.885Z" fill="white" stroke="#D9D9D9" stroke-miterlimit="10"/>
<path d="M331.589 849.884C331.589 849.884 329.394 868.206 320.597 879.203H370.431C361.633 868.206 359.438 849.884 359.438 849.884H331.589Z" fill="white" stroke="#D9D9D9" stroke-miterlimit="10"/>
<path d="M371.168 879.203H319.859V886.529H371.168V879.203Z" fill="white" stroke="#D9D9D9" stroke-miterlimit="10"/>
<path d="M331.895 762.915H359.132" stroke="#D9D9D9" stroke-miterlimit="10"/>
<path d="M331.895 780.248H359.132" stroke="#D9D9D9" stroke-miterlimit="10"/>
<path d="M331.895 797.581H359.132" stroke="#D9D9D9" stroke-miterlimit="10"/>
<path d="M331.895 814.913H359.132" stroke="#D9D9D9" stroke-miterlimit="10"/>
<path d="M331.895 832.245H359.132" stroke="#D9D9D9" stroke-miterlimit="10"/>
<path d="M360.679 643.315H330.347V649.309H360.679V643.315Z" fill="white" stroke="#D9D9D9" stroke-miterlimit="10"/>
<path d="M347.6 653.394H342.689V665.669H347.6V653.394Z" fill="white" stroke="#D9D9D9" stroke-miterlimit="10"/>
<path d="M355.426 653.394H353.285V665.669H355.426V653.394Z" fill="white" stroke="#D9D9D9" stroke-miterlimit="10"/>
<path d="M337.939 653.394H335.799V665.669H337.939V653.394Z" fill="white" stroke="#D9D9D9" stroke-miterlimit="10"/>
<path d="M345.334 623.516V608.397" stroke="#D9D9D9" stroke-miterlimit="10"/>
<path d="M347.889 620.942C347.889 620.437 347.739 619.943 347.458 619.523C347.177 619.102 346.778 618.775 346.312 618.581C345.845 618.388 345.331 618.337 344.836 618.436C344.34 618.534 343.885 618.778 343.528 619.135C343.17 619.493 342.927 619.948 342.828 620.444C342.73 620.94 342.78 621.454 342.974 621.921C343.167 622.388 343.495 622.787 343.915 623.068C344.335 623.348 344.829 623.498 345.334 623.498C345.67 623.501 346.003 623.436 346.314 623.309C346.625 623.181 346.908 622.993 347.146 622.755C347.383 622.517 347.571 622.235 347.699 621.923C347.827 621.612 347.891 621.279 347.889 620.942V620.942Z" fill="white" stroke="#D9D9D9" stroke-miterlimit="10"/>
<path d="M346.755 615.849C346.755 615.472 346.605 615.11 346.339 614.843C346.072 614.577 345.711 614.427 345.334 614.427C344.957 614.427 344.595 614.577 344.329 614.843C344.062 615.11 343.912 615.472 343.912 615.849C343.912 616.226 344.062 616.587 344.329 616.854C344.595 617.121 344.957 617.271 345.334 617.271C345.711 617.271 346.072 617.121 346.339 616.854C346.605 616.587 346.755 616.226 346.755 615.849V615.849Z" fill="white" stroke="#D9D9D9" stroke-miterlimit="10"/>
<path d="M333.046 639.679H357.945" stroke="#D9D9D9" stroke-miterlimit="10"/>
<path d="M333.855 636.025H357.135" stroke="#D9D9D9" stroke-miterlimit="10"/>
<path d="M335.313 632.714H355.678" stroke="#D9D9D9" stroke-miterlimit="10"/>
<path d="M337.508 629.42H353.483" stroke="#D9D9D9" stroke-miterlimit="10"/>
<path d="M339.163 626.864H351.828" stroke="#D9D9D9" stroke-miterlimit="10"/>
<path d="M513.832 645.493C512.411 637.663 506.492 623.48 499.44 623.48C492.388 623.48 486.433 637.663 485.048 645.493H513.832Z" fill="white" stroke="#D9D9D9" stroke-miterlimit="10"/>
<path d="M512.969 849.885H485.857L488.574 646.861H510.27L512.969 849.885Z" fill="white" stroke="#D9D9D9" stroke-miterlimit="10"/>
<path d="M506.313 849.885H492.514L493.899 646.861H504.946L506.313 849.885Z" fill="white" stroke="#D9D9D9" stroke-miterlimit="10"/>
<path d="M485.498 849.884C485.498 849.884 483.285 868.206 474.488 879.203H524.411C515.614 868.206 513.419 849.884 513.419 849.884H485.498Z" fill="white" stroke="#D9D9D9" stroke-miterlimit="10"/>
<path d="M525.076 879.203H473.768V886.529H525.076V879.203Z" fill="white" stroke="#D9D9D9" stroke-miterlimit="10"/>
<path d="M485.804 762.915H513.041" stroke="#D9D9D9" stroke-miterlimit="10"/>
<path d="M485.804 780.248H513.041" stroke="#D9D9D9" stroke-miterlimit="10"/>
<path d="M485.804 797.581H513.041" stroke="#D9D9D9" stroke-miterlimit="10"/>
<path d="M485.804 814.913H513.041" stroke="#D9D9D9" stroke-miterlimit="10"/>
<path d="M485.804 832.245H513.041" stroke="#D9D9D9" stroke-miterlimit="10"/>
<path d="M514.588 643.315H484.256V649.309H514.588V643.315Z" fill="white" stroke="#D9D9D9" stroke-miterlimit="10"/>
<path d="M501.509 653.394H496.598V665.669H501.509V653.394Z" fill="white" stroke="#D9D9D9" stroke-miterlimit="10"/>
<path d="M509.335 653.394H507.194V665.669H509.335V653.394Z" fill="white" stroke="#D9D9D9" stroke-miterlimit="10"/>
<path d="M491.848 653.394H489.708V665.669H491.848V653.394Z" fill="white" stroke="#D9D9D9" stroke-miterlimit="10"/>
<path d="M499.242 623.516V608.397" stroke="#D9D9D9" stroke-miterlimit="10"/>
<path d="M499.242 623.516C500.653 623.516 501.797 622.372 501.797 620.96C501.797 619.549 500.653 618.404 499.242 618.404C497.831 618.404 496.688 619.549 496.688 620.96C496.688 622.372 497.831 623.516 499.242 623.516Z" fill="white" stroke="#D9D9D9" stroke-miterlimit="10"/>
<path d="M500.664 615.849C500.664 615.567 500.58 615.293 500.424 615.059C500.268 614.825 500.046 614.643 499.786 614.535C499.526 614.427 499.241 614.399 498.965 614.454C498.689 614.509 498.436 614.644 498.237 614.843C498.039 615.042 497.903 615.295 497.848 615.571C497.794 615.847 497.822 616.133 497.929 616.393C498.037 616.653 498.219 616.875 498.453 617.031C498.686 617.187 498.961 617.271 499.242 617.271C499.619 617.271 499.981 617.121 500.247 616.854C500.514 616.587 500.664 616.226 500.664 615.849V615.849Z" fill="white" stroke="#D9D9D9" stroke-miterlimit="10"/>
<path d="M486.955 639.679H511.853" stroke="#D9D9D9" stroke-miterlimit="10"/>
<path d="M487.764 636.025H511.044" stroke="#D9D9D9" stroke-miterlimit="10"/>
<path d="M489.222 632.714H509.587" stroke="#D9D9D9" stroke-miterlimit="10"/>
<path d="M491.416 629.42H507.392" stroke="#D9D9D9" stroke-miterlimit="10"/>
<path d="M493.072 626.864H505.737" stroke="#D9D9D9" stroke-miterlimit="10"/>
<path d="M368.559 747.778H474.829" stroke="#D9D9D9" stroke-miterlimit="10"/>
<path d="M376.152 722.742H371.6V747.004H376.152V722.742Z" fill="white" stroke="#D9D9D9" stroke-miterlimit="10"/>
<path d="M389.806 722.742H385.255V747.004H389.806V722.742Z" fill="white" stroke="#D9D9D9" stroke-miterlimit="10"/>
<path d="M403.443 722.742H398.891V747.004H403.443V722.742Z" fill="white" stroke="#D9D9D9" stroke-miterlimit="10"/>
<path d="M417.098 722.742H412.546V747.004H417.098V722.742Z" fill="white" stroke="#D9D9D9" stroke-miterlimit="10"/>
<path d="M430.735 722.742H426.183V747.004H430.735V722.742Z" fill="white" stroke="#D9D9D9" stroke-miterlimit="10"/>
<path d="M444.389 722.742H439.838V747.004H444.389V722.742Z" fill="white" stroke="#D9D9D9" stroke-miterlimit="10"/>
<path d="M458.026 722.742H453.475V747.004H458.026V722.742Z" fill="white" stroke="#D9D9D9" stroke-miterlimit="10"/>
<path d="M471.681 722.742H467.129V747.004H471.681V722.742Z" fill="white" stroke="#D9D9D9" stroke-miterlimit="10"/>
<path d="M218.752 719.611L221.793 725.191H620.912L625.464 719.611H218.752Z" fill="white" stroke="#D9D9D9" stroke-miterlimit="10"/>
<path d="M517.575 677.08H327.361V682.66H517.575V677.08Z" fill="white" stroke="#D9D9D9" stroke-miterlimit="10"/>
<path d="M625.644 748.949H481.252V743.352H627.155L625.644 748.949Z" fill="white" stroke="#D9D9D9" stroke-miterlimit="10"/>
<path d="M217.529 748.949H364.943V743.352H216L217.529 748.949Z" fill="white" stroke="#D9D9D9" stroke-miterlimit="10"/>
<path d="M544.165 813.005H585.309" stroke="#D9D9D9" stroke-miterlimit="10"/>
<path d="M548.249 796.518V811.061" stroke="#D9D9D9" stroke-miterlimit="10"/>
<path d="M553.79 788.815V811.062" stroke="#D9D9D9" stroke-miterlimit="10"/>
<path d="M559.331 783.775V811.061" stroke="#D9D9D9" stroke-miterlimit="10"/>
<path d="M564.854 783.182V811.061" stroke="#D9D9D9" stroke-miterlimit="10"/>
<path d="M570.395 783.775V811.061" stroke="#D9D9D9" stroke-miterlimit="10"/>
<path d="M575.936 788.815V811.062" stroke="#D9D9D9" stroke-miterlimit="10"/>
<path d="M581.459 796.518V811.061" stroke="#D9D9D9" stroke-miterlimit="10"/>
<path d="M556.254 787.627H573.165" stroke="#D9D9D9" stroke-miterlimit="10"/>
<path d="M550.623 792.972H579.084" stroke="#D9D9D9" stroke-miterlimit="10"/>
<path d="M546.773 799.794H581.459" stroke="#D9D9D9" stroke-miterlimit="10"/>
<path d="M544.992 806.615H583.546" stroke="#D9D9D9" stroke-miterlimit="10"/>
<path d="M259.483 813.005H300.627" stroke="#D9D9D9" stroke-miterlimit="10"/>
<path d="M263.585 796.518V811.061" stroke="#D9D9D9" stroke-miterlimit="10"/>
<path d="M269.126 788.815V811.062" stroke="#D9D9D9" stroke-miterlimit="10"/>
<path d="M274.649 783.775V811.061" stroke="#D9D9D9" stroke-miterlimit="10"/>
<path d="M280.19 783.182V811.061" stroke="#D9D9D9" stroke-miterlimit="10"/>
<path d="M285.731 783.775V811.061" stroke="#D9D9D9" stroke-miterlimit="10"/>
<path d="M291.254 788.815V811.062" stroke="#D9D9D9" stroke-miterlimit="10"/>
<path d="M296.795 796.518V811.061" stroke="#D9D9D9" stroke-miterlimit="10"/>
<path d="M271.591 787.627H288.502" stroke="#D9D9D9" stroke-miterlimit="10"/>
<path d="M265.959 792.972H294.42" stroke="#D9D9D9" stroke-miterlimit="10"/>
<path d="M262.11 799.794H296.795" stroke="#D9D9D9" stroke-miterlimit="10"/>
<path d="M260.329 806.615H298.864" stroke="#D9D9D9" stroke-miterlimit="10"/>
<path d="M725.239 725.64C725.615 724.145 725.809 722.61 725.815 721.068C725.815 710.521 710.541 697.994 706.151 697.994C702.139 697.994 686.488 710.593 686.488 721.068C686.485 722.61 686.678 724.147 687.063 725.64H725.239Z" fill="white" stroke="#D9D9D9" stroke-miterlimit="10"/>
<path d="M706.151 697.994V686.223" stroke="#D9D9D9" stroke-miterlimit="10"/>
<path d="M725.239 725.641H687.675V746.303H725.239V725.641Z" fill="white" stroke="#D9D9D9" stroke-miterlimit="10"/>
<path d="M707.393 730.932L705.144 729.834L702.769 730.95C701.853 731.386 701.079 732.072 700.535 732.928C699.991 733.784 699.699 734.777 699.693 735.791V746.681H710.487V735.738C710.472 734.727 710.175 733.741 709.628 732.891C709.081 732.042 708.306 731.363 707.393 730.932Z" fill="white" stroke="#D9D9D9" stroke-miterlimit="10"/>
<path d="M719.554 730.932L718.205 729.834L716.784 730.95C716.16 731.585 715.677 732.344 715.367 733.178C715.057 734.013 714.927 734.903 714.985 735.791V746.681H721.407V735.738C721.454 734.851 721.313 733.965 720.994 733.137C720.675 732.308 720.184 731.557 719.554 730.932V730.932Z" fill="white" stroke="#D9D9D9" stroke-miterlimit="10"/>
<path d="M694.547 730.932L693.252 729.834L691.903 730.95C691.288 731.591 690.811 732.351 690.502 733.184C690.192 734.017 690.057 734.904 690.104 735.791V746.681H696.203V735.738C696.261 734.867 696.144 733.993 695.86 733.168C695.576 732.342 695.129 731.582 694.547 730.932V730.932Z" fill="white" stroke="#D9D9D9" stroke-miterlimit="10"/>
<path d="M829.692 709.603C834.326 701.746 836.774 692.791 836.781 683.668C836.781 653.394 810.047 624.272 777.052 624.272C744.058 624.272 717.324 653.412 717.324 683.668C717.328 692.794 719.782 701.751 724.43 709.603H829.692Z" fill="white" stroke="#D9D9D9" stroke-miterlimit="10"/>
<path d="M867.274 725.64C867.659 724.147 867.853 722.61 867.85 721.068C867.85 710.521 852.576 697.994 848.186 697.994C844.192 697.994 828.523 710.593 828.523 721.068C828.529 722.61 828.722 724.145 829.098 725.64H867.274Z" fill="white" stroke="#D9D9D9" stroke-miterlimit="10"/>
<path d="M848.186 697.994V686.223" stroke="#D9D9D9" stroke-miterlimit="10"/>
<path d="M867.292 725.641H829.728V746.303H867.292V725.641Z" fill="white" stroke="#D9D9D9" stroke-miterlimit="10"/>
<path d="M849.445 730.932L847.178 729.834L844.804 730.95C843.891 731.389 843.121 732.075 842.58 732.932C842.039 733.788 841.75 734.779 841.745 735.791V746.681H852.45V735.738C852.443 734.737 852.159 733.757 851.628 732.909C851.098 732.06 850.342 731.376 849.445 730.932V730.932Z" fill="white" stroke="#D9D9D9" stroke-miterlimit="10"/>
<path d="M861.607 730.932L860.258 729.834L858.837 730.95C858.209 731.582 857.724 732.341 857.413 733.176C857.103 734.011 856.975 734.903 857.038 735.791V746.681H863.442V735.738C863.487 734.853 863.347 733.969 863.031 733.141C862.715 732.314 862.23 731.561 861.607 730.932Z" fill="white" stroke="#D9D9D9" stroke-miterlimit="10"/>
<path d="M836.582 730.932L835.305 729.834L833.956 730.95C833.341 731.591 832.864 732.351 832.555 733.184C832.245 734.017 832.11 734.904 832.157 735.791V746.681H838.256V735.738C838.315 734.865 838.198 733.989 837.91 733.164C837.623 732.338 837.171 731.578 836.582 730.932V730.932Z" fill="white" stroke="#D9D9D9" stroke-miterlimit="10"/>
<path d="M776.278 606.04L750.804 631.526C750.804 631.526 767.175 626.522 777.646 626.522C788.116 626.522 803.12 631.076 803.12 631.076L776.278 606.04Z" fill="white" stroke="#D9D9D9" stroke-miterlimit="10"/>
<path d="M776.278 606.04V576" stroke="#D9D9D9" stroke-miterlimit="10"/>
<path d="M770.413 576.647C770.867 577.728 771.61 578.661 772.56 579.347C773.51 580.032 774.631 580.441 775.799 580.531C776.966 580.62 778.136 580.385 779.179 579.853C780.223 579.32 781.099 578.51 781.711 577.511" stroke="#D9D9D9" stroke-miterlimit="10"/>
<path d="M776.728 606.039C777.98 606.039 778.995 605.024 778.995 603.772C778.995 602.519 777.98 601.504 776.728 601.504C775.476 601.504 774.461 602.519 774.461 603.772C774.461 605.024 775.476 606.039 776.728 606.039Z" stroke="#D9D9D9" stroke-miterlimit="10"/>
<path d="M779.013 596.483C779.041 596.167 779.003 595.848 778.901 595.548C778.8 595.247 778.637 594.971 778.423 594.737C778.209 594.503 777.948 594.316 777.658 594.188C777.368 594.06 777.054 593.994 776.737 593.994C776.42 593.994 776.106 594.06 775.816 594.188C775.526 594.316 775.265 594.503 775.051 594.737C774.837 594.971 774.674 595.247 774.573 595.548C774.471 595.848 774.433 596.167 774.461 596.483C774.512 597.052 774.773 597.581 775.195 597.966C775.616 598.352 776.166 598.566 776.737 598.566C777.308 598.566 777.858 598.352 778.279 597.966C778.7 597.581 778.962 597.052 779.013 596.483V596.483Z" stroke="#D9D9D9" stroke-miterlimit="10"/>
<path d="M903.183 732.983H889.834V746.626H903.183V732.983Z" fill="white" stroke="#D9D9D9" stroke-miterlimit="10"/>
<path d="M897.678 732.695V711.493" stroke="#D9D9D9" stroke-miterlimit="10"/>
<path d="M900.862 717.019H895.645" stroke="#D9D9D9" stroke-miterlimit="10"/>
<path d="M890.158 723.264V732.695" stroke="#D9D9D9" stroke-miterlimit="10"/>
<path d="M892.587 725.73H888.233" stroke="#D9D9D9" stroke-miterlimit="10"/>
<path d="M889.834 732.983L879.688 746.338H889.834V732.983Z" fill="#D9D9D9" stroke="#D9D9D9" stroke-miterlimit="10"/>
<path d="M652.018 746.626H665.366V732.983H652.018V746.626Z" fill="white" stroke="#D9D9D9" stroke-miterlimit="10"/>
<path d="M657.523 732.695V711.493" stroke="#D9D9D9" stroke-miterlimit="10"/>
<path d="M654.321 717.019H659.556" stroke="#D9D9D9" stroke-miterlimit="10"/>
<path d="M665.025 723.264V732.695" stroke="#D9D9D9" stroke-miterlimit="10"/>
<path d="M662.596 725.73H666.95" stroke="#D9D9D9" stroke-miterlimit="10"/>
<path d="M665.349 732.983L675.513 746.338H665.349V732.983Z" fill="#D9D9D9" stroke="#D9D9D9" stroke-miterlimit="10"/>
<path d="M724.861 747.059H651.154V849.488H724.861V747.059Z" fill="white" stroke="#D9D9D9" stroke-miterlimit="10"/>
<path d="M904.137 747.059H830.43V849.488H904.137V747.059Z" fill="white" stroke="#D9D9D9" stroke-miterlimit="10"/>
<path d="M654.195 755.715H718.403" stroke="#D9D9D9" stroke-miterlimit="10"/>
<path d="M834.945 755.715H899.153" stroke="#D9D9D9" stroke-miterlimit="10"/>
<path d="M952.171 720.421C952.306 719.885 952.378 719.335 952.387 718.783C952.387 715.003 946.9 710.521 945.335 710.521C943.769 710.521 938.3 715.003 938.3 718.783C938.303 719.335 938.37 719.884 938.498 720.421H952.171Z" fill="white" stroke="#D9D9D9" stroke-miterlimit="10"/>
<path d="M935.476 720.528H955.14" stroke="#D9D9D9" stroke-miterlimit="10" stroke-linecap="round"/>
<path d="M945.335 710.521V706.291" stroke="#D9D9D9" stroke-miterlimit="10"/>
<path d="M952.171 720.42H938.714V731.633H952.171V720.42Z" fill="white" stroke="#D9D9D9" stroke-miterlimit="10"/>
<path d="M945.785 722.31L944.975 721.914L944.13 722.31C943.79 722.469 943.505 722.724 943.31 723.045C943.115 723.365 943.018 723.735 943.032 724.11V731.813H946.864V724.092C946.876 723.722 946.781 723.357 946.589 723.041C946.397 722.724 946.118 722.47 945.785 722.31V722.31Z" fill="white" stroke="#D9D9D9" stroke-miterlimit="10"/>
<path d="M950.138 722.31L949.653 721.914L949.149 722.31C948.915 722.545 948.735 722.827 948.62 723.137C948.505 723.448 948.458 723.78 948.483 724.11V731.813H950.786V724.092C950.813 723.766 950.769 723.438 950.657 723.13C950.546 722.822 950.369 722.543 950.138 722.31V722.31Z" fill="white" stroke="#D9D9D9" stroke-miterlimit="10"/>
<path d="M941.179 722.31L940.711 721.914L940.243 722.31C940.015 722.547 939.841 722.83 939.732 723.141C939.623 723.452 939.583 723.782 939.614 724.11V731.813H941.791V724.092C941.818 723.769 941.777 723.443 941.672 723.137C941.567 722.83 941.399 722.548 941.179 722.31V722.31Z" fill="white" stroke="#D9D9D9" stroke-miterlimit="10"/>
<path d="M952.153 733.344H938.516L935.584 848.498H955.086L952.153 733.344Z" fill="white" stroke="#D9D9D9" stroke-miterlimit="10"/>
<path d="M953.305 732.498H937.383C936.678 732.498 936.106 733.07 936.106 733.776V734.91C936.106 735.616 936.678 736.188 937.383 736.188H953.305C954.01 736.188 954.582 735.616 954.582 734.91V733.776C954.582 733.07 954.01 732.498 953.305 732.498Z" fill="white" stroke="#D9D9D9" stroke-miterlimit="10"/>
<path d="M953.305 774.991H937.383C936.678 774.991 936.106 775.563 936.106 776.269V777.403C936.106 778.109 936.678 778.681 937.383 778.681H953.305C954.01 778.681 954.582 778.109 954.582 777.403V776.269C954.582 775.563 954.01 774.991 953.305 774.991Z" fill="white" stroke="#D9D9D9" stroke-miterlimit="10"/>
<path d="M956.183 813.131H935.08C934.047 813.131 933.209 813.969 933.209 815.003V816.641C933.209 817.674 934.047 818.512 935.08 818.512H956.183C957.217 818.512 958.054 817.674 958.054 816.641V815.003C958.054 813.969 957.217 813.131 956.183 813.131Z" fill="white" stroke="#D9D9D9" stroke-miterlimit="10"/>
<path d="M1008.36 669.772C1008.54 669.018 1008.64 668.245 1008.64 667.468C1008.64 662.213 1001.02 655.949 998.821 655.949C996.626 655.949 988.98 662.213 988.98 667.468C988.98 668.246 989.083 669.021 989.286 669.772H1008.36Z" fill="white" stroke="#D9D9D9" stroke-miterlimit="10"/>
<path d="M998.893 655.95V650.064" stroke="#D9D9D9" stroke-miterlimit="10"/>
<path d="M1008.43 669.772H989.664V685.413H1008.43V669.772Z" fill="white" stroke="#D9D9D9" stroke-miterlimit="10"/>
<path d="M999.504 672.418L998.389 671.86L997.202 672.418C996.744 672.634 996.357 672.975 996.087 673.402C995.816 673.829 995.672 674.324 995.672 674.83V685.629H1001.07V674.83C1001.07 674.319 1000.93 673.818 1000.65 673.389C1000.37 672.96 999.973 672.623 999.504 672.418V672.418Z" fill="white" stroke="#D9D9D9" stroke-miterlimit="10"/>
<path d="M1005.59 672.418L1004.92 671.86L1004.2 672.418C1003.88 672.732 1003.64 673.109 1003.48 673.525C1003.32 673.941 1003.26 674.386 1003.28 674.83V685.629H1006.56V674.83C1006.58 674.382 1006.5 673.934 1006.34 673.517C1006.17 673.101 1005.91 672.726 1005.59 672.418V672.418Z" fill="white" stroke="#D9D9D9" stroke-miterlimit="10"/>
<path d="M993.081 672.418L992.452 671.86L991.768 672.418C991.469 672.741 991.238 673.121 991.089 673.536C990.941 673.95 990.878 674.391 990.905 674.83V685.629H993.963V674.83C993.994 674.389 993.931 673.946 993.779 673.53C993.627 673.115 993.389 672.736 993.081 672.418Z" fill="white" stroke="#D9D9D9" stroke-miterlimit="10"/>
<path d="M1008.41 687.808H989.358L985.274 848.498H1012.49L1008.41 687.808Z" fill="white" stroke="#D9D9D9" stroke-miterlimit="10"/>
<path d="M1010.51 687.357H987.289C986.583 687.357 986.011 687.93 986.011 688.635V689.769C986.011 690.475 986.583 691.047 987.289 691.047H1010.51C1011.22 691.047 1011.79 690.475 1011.79 689.769V688.635C1011.79 687.93 1011.22 687.357 1010.51 687.357Z" fill="white" stroke="#D9D9D9" stroke-miterlimit="10"/>
<path d="M1009.97 668.53H987.793C987.087 668.53 986.515 669.102 986.515 669.808V670.942C986.515 671.648 987.087 672.22 987.793 672.22H1009.97C1010.68 672.22 1011.25 671.648 1011.25 670.942V669.808C1011.25 669.102 1010.68 668.53 1009.97 668.53Z" fill="white" stroke="#D9D9D9" stroke-miterlimit="10"/>
<path d="M1010.05 745.924H987.756C986.793 745.924 986.011 746.705 986.011 747.67V749.344C986.011 750.308 986.793 751.089 987.756 751.089H1010.05C1011.01 751.089 1011.79 750.308 1011.79 749.344V747.67C1011.79 746.705 1011.01 745.924 1010.05 745.924Z" fill="white" stroke="#D9D9D9" stroke-miterlimit="10"/>
<path d="M1014.78 798.3H983.852C982.819 798.3 981.981 799.138 981.981 800.172V801.809C981.981 802.843 982.819 803.681 983.852 803.681H1014.78C1015.81 803.681 1016.65 802.843 1016.65 801.809V800.172C1016.65 799.138 1015.81 798.3 1014.78 798.3Z" fill="white" stroke="#D9D9D9" stroke-miterlimit="10"/>
<path d="M598.478 720.421C598.344 719.885 598.271 719.335 598.262 718.783C598.262 715.003 603.749 710.521 605.315 710.521C606.88 710.521 612.349 715.003 612.349 718.783C612.346 719.335 612.279 719.884 612.151 720.421H598.478Z" fill="white" stroke="#D9D9D9" stroke-miterlimit="10"/>
<path d="M595.474 720.061H614.868" stroke="#D9D9D9" stroke-miterlimit="10" stroke-linecap="round"/>
<path d="M605.314 710.521V706.291" stroke="#D9D9D9" stroke-miterlimit="10"/>
<path d="M598.478 731.615H611.935V720.402H598.478V731.615Z" fill="white" stroke="#D9D9D9" stroke-miterlimit="10"/>
<path d="M604.865 722.31L605.674 721.914L606.52 722.31C606.856 722.473 607.139 722.729 607.334 723.048C607.528 723.367 607.627 723.736 607.617 724.11V731.813H603.785V724.092C603.773 723.722 603.869 723.357 604.06 723.041C604.252 722.724 604.531 722.47 604.865 722.31Z" fill="white" stroke="#D9D9D9" stroke-miterlimit="10"/>
<path d="M600.511 722.31L600.997 721.914L601.501 722.31C601.734 722.545 601.915 722.827 602.03 723.137C602.144 723.448 602.191 723.78 602.166 724.11V731.813H599.863V724.092C599.836 723.766 599.88 723.438 599.992 723.13C600.104 722.822 600.281 722.543 600.511 722.31V722.31Z" fill="white" stroke="#D9D9D9" stroke-miterlimit="10"/>
<path d="M609.47 722.31L609.92 721.914L610.406 722.31C610.634 722.547 610.808 722.83 610.917 723.141C611.026 723.452 611.066 723.782 611.035 724.11V731.813H608.858V724.092C608.831 723.769 608.872 723.443 608.977 723.137C609.082 722.83 609.25 722.548 609.47 722.31Z" fill="white" stroke="#D9D9D9" stroke-miterlimit="10"/>
<path d="M598.496 733.344H612.133L615.066 848.498H595.564L598.496 733.344Z" fill="white" stroke="#D9D9D9" stroke-miterlimit="10"/>
<path d="M597.345 736.204H613.266C613.972 736.204 614.543 735.632 614.543 734.926V733.792C614.543 733.087 613.972 732.514 613.266 732.514H597.345C596.639 732.514 596.067 733.087 596.067 733.792V734.926C596.067 735.632 596.639 736.204 597.345 736.204Z" fill="white" stroke="#D9D9D9" stroke-miterlimit="10"/>
<path d="M597.345 778.699H613.266C613.972 778.699 614.543 778.127 614.543 777.421V776.287C614.543 775.582 613.972 775.009 613.266 775.009H597.345C596.639 775.009 596.067 775.582 596.067 776.287V777.421C596.067 778.127 596.639 778.699 597.345 778.699Z" fill="white" stroke="#D9D9D9" stroke-miterlimit="10"/>
<path d="M594.466 818.494H615.569C616.603 818.494 617.44 817.656 617.44 816.622V814.984C617.44 813.951 616.603 813.113 615.569 813.113H594.466C593.433 813.113 592.595 813.951 592.595 814.984V816.622C592.595 817.656 593.433 818.494 594.466 818.494Z" fill="white" stroke="#D9D9D9" stroke-miterlimit="10"/>
<path d="M542.222 669.772C542.034 669.018 541.938 668.245 541.934 667.468C541.934 662.213 549.562 655.949 551.757 655.949C553.952 655.949 561.598 662.213 561.598 667.468C561.597 668.246 561.494 669.021 561.292 669.772H542.222Z" fill="white" stroke="#D9D9D9" stroke-miterlimit="10"/>
<path d="M551.757 655.95V650.064" stroke="#D9D9D9" stroke-miterlimit="10"/>
<path d="M542.222 685.396H560.986V669.755H542.222V685.396Z" fill="white" stroke="#D9D9D9" stroke-miterlimit="10"/>
<path d="M551.145 672.418L552.261 671.86L553.448 672.418C553.905 672.634 554.292 672.975 554.563 673.402C554.834 673.829 554.977 674.324 554.977 674.83V685.629H549.58V674.83C549.576 674.319 549.722 673.818 550.001 673.389C550.279 672.96 550.677 672.623 551.145 672.418V672.418Z" fill="white" stroke="#D9D9D9" stroke-miterlimit="10"/>
<path d="M545.065 672.418L545.73 671.86L546.45 672.418C546.765 672.732 547.01 673.109 547.168 673.525C547.327 673.941 547.394 674.386 547.367 674.83V685.629H544.201V674.83C544.165 674.39 544.223 673.947 544.372 673.531C544.521 673.115 544.757 672.735 545.065 672.418Z" fill="white" stroke="#D9D9D9" stroke-miterlimit="10"/>
<path d="M557.568 672.418L558.197 671.86L558.881 672.418C559.18 672.741 559.411 673.121 559.56 673.536C559.708 673.95 559.771 674.391 559.745 674.83V685.629H556.794V674.83C556.749 674.396 556.795 673.958 556.928 673.543C557.061 673.128 557.279 672.745 557.568 672.418Z" fill="white" stroke="#D9D9D9" stroke-miterlimit="10"/>
<path d="M542.24 687.808H561.292L565.357 848.498H538.156L542.24 687.808Z" fill="white" stroke="#D9D9D9" stroke-miterlimit="10"/>
<path d="M540.135 691.064H563.361C564.066 691.064 564.638 690.492 564.638 689.787V688.653C564.638 687.947 564.066 687.375 563.361 687.375H540.135C539.43 687.375 538.858 687.947 538.858 688.653V689.787C538.858 690.492 539.43 691.064 540.135 691.064Z" fill="white" stroke="#D9D9D9" stroke-miterlimit="10"/>
<path d="M540.243 672.237H563.271C563.976 672.237 564.548 671.665 564.548 670.959V669.826C564.548 669.12 563.976 668.548 563.271 668.548H540.243C539.537 668.548 538.965 669.12 538.965 669.826V670.959C538.965 671.665 539.537 672.237 540.243 672.237Z" fill="white" stroke="#D9D9D9" stroke-miterlimit="10"/>
<path d="M540.603 751.09H562.893C563.857 751.09 564.638 750.308 564.638 749.344V747.67C564.638 746.706 563.857 745.924 562.893 745.924H540.603C539.639 745.924 538.858 746.706 538.858 747.67V749.344C538.858 750.308 539.639 751.09 540.603 751.09Z" fill="white" stroke="#D9D9D9" stroke-miterlimit="10"/>
<path d="M535.871 803.682H566.797C567.83 803.682 568.668 802.844 568.668 801.81V800.172C568.668 799.138 567.83 798.3 566.797 798.3H535.871C534.838 798.3 534 799.138 534 800.172V801.81C534 802.844 534.838 803.682 535.871 803.682Z" fill="white" stroke="#D9D9D9" stroke-miterlimit="10"/>
<path d="M830.232 709.604H724.429V849.47H830.232V709.604Z" fill="white" stroke="#D9D9D9" stroke-miterlimit="10"/>
<path d="M708.958 813.527L703.866 811.043L698.469 813.563C696.393 814.53 694.637 816.07 693.406 818.003C692.176 819.935 691.523 822.179 691.525 824.47V849.056H715.704V824.434C715.723 822.164 715.1 819.935 713.906 818.005C712.712 816.075 710.997 814.522 708.958 813.527V813.527Z" fill="white" stroke="#D9D9D9" stroke-miterlimit="10"/>
<path d="M708.958 767.162L703.866 764.696L698.469 767.198C696.393 768.165 694.637 769.706 693.406 771.638C692.176 773.57 691.523 775.814 691.525 778.105V802.727H715.704V777.997C715.706 775.741 715.074 773.529 713.881 771.613C712.689 769.698 710.983 768.156 708.958 767.162V767.162Z" fill="white" stroke="#D9D9D9" stroke-miterlimit="10"/>
<path d="M668.821 813.527L665.349 811.043L661.751 813.563C658.872 815.543 657.037 819.79 657.037 824.47V849.056H673.48V824.434C673.444 819.808 671.645 815.597 668.821 813.527Z" fill="white" stroke="#D9D9D9" stroke-miterlimit="10"/>
<path d="M668.821 767.162L665.349 764.696L661.751 767.198C658.872 769.178 657.037 773.426 657.037 778.105V802.727H673.48V777.997C673.582 775.955 673.215 773.917 672.407 772.039C671.6 770.161 670.373 768.492 668.821 767.162Z" fill="white" stroke="#D9D9D9" stroke-miterlimit="10"/>
<path d="M843.959 813.527L849.068 811.043L854.465 813.563C856.536 814.534 858.288 816.076 859.515 818.008C860.741 819.94 861.392 822.181 861.391 824.47V849.056H837.158V824.434C837.144 822.158 837.775 819.925 838.979 817.995C840.183 816.064 841.91 814.515 843.959 813.527V813.527Z" fill="white" stroke="#D9D9D9" stroke-miterlimit="10"/>
<path d="M843.959 767.162L849.068 764.696L854.465 767.198C856.536 768.17 858.288 769.712 859.515 771.643C860.741 773.575 861.392 775.817 861.391 778.105V802.727H837.158V777.997C837.162 775.735 837.801 773.519 839.004 771.603C840.206 769.687 841.923 768.148 843.959 767.162V767.162Z" fill="white" stroke="#D9D9D9" stroke-miterlimit="10"/>
<path d="M884.095 813.527L887.567 811.043L891.165 813.563C894.044 815.543 895.879 819.79 895.879 824.47V849.056H879.454V824.434C879.49 819.808 881.271 815.597 884.095 813.527Z" fill="white" stroke="#D9D9D9" stroke-miterlimit="10"/>
<path d="M884.095 767.162L887.567 764.696L891.165 767.198C894.044 769.178 895.879 773.426 895.879 778.105V802.727H879.454V777.997C879.49 773.39 881.271 769.178 884.095 767.162Z" fill="white" stroke="#D9D9D9" stroke-miterlimit="10"/>
<path d="M679.885 807.767V755.229" stroke="#D9D9D9" stroke-miterlimit="10"/>
<path d="M679.885 844.214V817.774" stroke="#D9D9D9" stroke-miterlimit="10"/>
<path d="M873.481 844.214V755.229" stroke="#D9D9D9" stroke-miterlimit="10"/>
<path d="M745.784 761.726V752.169H808.121V775.837" stroke="#D9D9D9" stroke-miterlimit="10"/>
<path d="M745.784 779.024V770.727" stroke="#D9D9D9" stroke-miterlimit="10"/>
<path d="M728.046 732.588H825.878" stroke="#D9D9D9" stroke-miterlimit="10"/>
<path d="M789.285 764.931L777.196 759.081L764.512 764.931C759.597 767.231 755.439 770.886 752.526 775.467C749.614 780.048 748.068 785.365 748.069 790.794V849.11H805.405V790.579C805.386 785.223 803.865 779.98 801.016 775.445C798.166 770.911 794.102 767.268 789.285 764.931V764.931Z" fill="white" stroke="#D9D9D9" stroke-miterlimit="10"/>
<path d="M1020.25 848.57H532.597V886.547H1020.25V848.57Z" fill="white" stroke="#D9D9D9" stroke-miterlimit="10"/>
</svg>
