<svg width="25" height="25" viewBox="0 0 25 25" fill="none" xmlns="http://www.w3.org/2000/svg">
<path d="M22.6603 5.72087C21.8969 6.05856 21.0873 6.28034 20.2583 6.37887C21.1321 5.8563 21.7861 5.03388 22.0983 4.06487C21.2783 4.55287 20.3793 4.89487 19.4423 5.07987C18.813 4.40645 17.9787 3.95983 17.0693 3.80945C16.1599 3.65907 15.2263 3.81336 14.4136 4.24832C13.6009 4.68328 12.9547 5.37455 12.5755 6.21466C12.1962 7.05477 12.1051 7.99665 12.3163 8.89387C10.6535 8.81052 9.02668 8.37839 7.54163 7.62553C6.05659 6.87267 4.74647 5.81592 3.69634 4.52387C3.32463 5.16232 3.1293 5.88809 3.13034 6.62687C3.13034 8.07687 3.86834 9.35787 4.99034 10.1079C4.32635 10.087 3.67698 9.90765 3.09634 9.58487V9.63687C3.09654 10.6026 3.43071 11.5385 4.04219 12.2859C4.65367 13.0334 5.50483 13.5463 6.45134 13.7379C5.83496 13.9049 5.18865 13.9295 4.56134 13.8099C4.82821 14.6411 5.34835 15.3681 6.04894 15.889C6.74952 16.4099 7.59547 16.6987 8.46834 16.7149C7.60082 17.3962 6.60752 17.8999 5.54522 18.197C4.48293 18.4942 3.37247 18.5791 2.27734 18.4469C4.18904 19.6763 6.41444 20.329 8.68734 20.3269C16.3803 20.3269 20.5873 13.9539 20.5873 8.42687C20.5873 8.24687 20.5823 8.06487 20.5743 7.88687C21.3932 7.29504 22.0999 6.56189 22.6613 5.72187L22.6603 5.72087Z" fill="white" fill-opacity="0.37"/>
</svg>
