<svg width="24" height="24" viewBox="0 0 24 24" fill="none" xmlns="http://www.w3.org/2000/svg">
<path d="M22.1618 5.6569C21.3984 5.9946 20.5888 6.21638 19.7598 6.3149C20.6336 5.79234 21.2875 4.96992 21.5998 4.0009C20.7798 4.4889 19.8808 4.8309 18.9438 5.0159C18.3144 4.34248 17.4802 3.89587 16.5708 3.74549C15.6614 3.59511 14.7277 3.74939 13.9151 4.18436C13.1024 4.61932 12.4562 5.31059 12.0769 6.1507C11.6976 6.9908 11.6066 7.93268 11.8178 8.8299C10.1549 8.74656 8.52814 8.31443 7.0431 7.56157C5.55805 6.80871 4.24794 5.75195 3.19781 4.4599C2.8261 5.09835 2.63076 5.82413 2.63181 6.5629C2.63181 8.0129 3.36981 9.2939 4.49181 10.0439C3.82782 10.023 3.17844 9.84368 2.59781 9.5209V9.5729C2.59801 10.5386 2.93218 11.4745 3.54366 12.222C4.15513 12.9694 5.00629 13.4824 5.95281 13.6739C5.33642 13.8409 4.69012 13.8656 4.06281 13.7459C4.32968 14.5771 4.84982 15.3041 5.5504 15.825C6.25099 16.3459 7.09694 16.6347 7.96981 16.6509C7.10229 17.3322 6.10899 17.8359 5.04669 18.1331C3.98439 18.4303 2.87394 18.5152 1.77881 18.3829C3.69051 19.6123 5.9159 20.265 8.18881 20.2629C15.8818 20.2629 20.0888 13.8899 20.0888 8.3629C20.0888 8.1829 20.0838 8.0009 20.0758 7.8229C20.8947 7.23107 21.6014 6.49792 22.1628 5.6579L22.1618 5.6569Z" fill="white"/>
</svg>
