<svg width="588" height="191" viewBox="0 0 588 191" fill="none" xmlns="http://www.w3.org/2000/svg">
<path d="M2.93848 188.187L140.009 174.412C145.014 173.518 155.025 171.732 165.036 150.493C175.046 129.255 185.057 88.5638 195.068 79.0016C205.079 69.4394 215.089 91.006 225.1 109.426C235.111 127.846 245.121 143.119 255.132 136.771C265.143 130.423 275.154 102.454 285.164 86.7015C295.175 70.9488 305.186 67.4121 315.196 65.0177C325.207 62.6232 335.218 61.371 345.228 63.5261C355.239 65.6812 365.25 71.2436 375.261 68.8171C385.271 66.3906 395.282 55.9752 405.293 45.7574C415.303 35.5396 425.314 25.5195 435.325 21.511C445.336 17.5025 455.346 19.5056 465.357 23.1263C475.368 26.747 485.378 31.9853 495.389 36.5875C505.4 41.1897 515.41 45.1557 525.421 37.1908C535.432 29.2259 545.443 9.3301 555.453 4.1754C565.464 -0.979299 575.475 8.60709 580.48 13.4003L585.485 18.1935" stroke="url(#paint0_linear)" stroke-width="4" stroke-linecap="round"/>
<defs>
<linearGradient id="paint0_linear" x1="2.93847" y1="46.6635" x2="493.419" y2="463.522" gradientUnits="userSpaceOnUse">
<stop stop-color="#84B9D1"/>
<stop offset="1" stop-color="#66023C"/>
</linearGradient>
</defs>
</svg>
