<svg width="15" height="14" viewBox="0 0 15 14" fill="none" xmlns="http://www.w3.org/2000/svg">
<path fill-rule="evenodd" clip-rule="evenodd" d="M11.1991 0.812079C11.1991 1.25984 10.8523 1.62416 10.4248 1.62416C9.99718 1.62416 9.65039 1.26188 9.65039 0.814114C9.65039 0.366351 9.99718 0.00203529 10.4248 0C10.8523 0 11.1991 0.364316 11.1991 0.812079ZM11.3097 3.0458C11.3097 3.4264 11.0161 3.73373 10.6536 3.73373C10.291 3.73373 9.99745 3.4264 9.99745 3.0458C9.99745 2.6652 10.291 2.35787 10.6536 2.35787C11.0161 2.35787 11.3097 2.66724 11.3097 3.0458ZM12.4542 4.00309C12.8148 4.00309 13.1084 3.69576 13.1084 3.3172C13.1084 2.93864 12.8148 2.63131 12.4542 2.63131C12.0936 2.63131 11.8 2.93864 11.8 3.3172C11.8 3.69576 12.0936 4.00309 12.4542 4.00309ZM12.7993 5.22198C12.7993 5.54559 12.5491 5.80814 12.2397 5.80814C11.9304 5.80814 11.6801 5.54559 11.6801 5.22198C11.6801 4.89837 11.9304 4.63582 12.2397 4.63582C12.5491 4.63582 12.7993 4.89837 12.7993 5.22198ZM13.6803 6.39471C13.9916 6.39471 14.2438 6.13012 14.2438 5.80448C14.2438 5.47883 13.9916 5.21424 13.6803 5.21424C13.3689 5.21424 13.1167 5.47883 13.1167 5.80448C13.1167 6.13012 13.3689 6.39471 13.6803 6.39471ZM11.0012 4.96489C11.0012 5.29664 10.745 5.5653 10.4278 5.5653C10.1106 5.5653 9.85442 5.29461 9.85442 4.96489C9.85442 4.63314 10.1106 4.36448 10.4278 4.36448C10.745 4.36448 11.0012 4.63314 11.0012 4.96489ZM9.90821 7.00213C10.1742 7.00213 10.389 6.77621 10.389 6.49941C10.389 6.22058 10.1742 5.99669 9.90821 5.99669C9.64221 5.99669 9.42743 6.22261 9.42743 6.49941C9.42743 6.77621 9.64221 7.00213 9.90821 7.00213ZM12.1879 6.75399C12.1879 7.03078 11.9751 7.25467 11.7111 7.25467C11.447 7.25467 11.2323 7.03078 11.2342 6.75399C11.2342 6.47719 11.447 6.25331 11.7111 6.25331C11.9751 6.25331 12.1879 6.47719 12.1879 6.75399ZM13.1474 7.83913C13.4134 7.83913 13.6282 7.61321 13.6282 7.33438C13.6282 7.05554 13.4134 6.82963 13.1474 6.82963C12.8814 6.82963 12.6666 7.05554 12.6666 7.33438C12.6666 7.61321 12.8814 7.83913 13.1474 7.83913ZM12.8432 8.5044C12.8432 8.73846 12.6619 8.92978 12.4373 8.92978C12.2127 8.92978 12.0314 8.73846 12.0314 8.5044C12.0314 8.27034 12.2127 8.07903 12.4373 8.07903C12.6619 8.07903 12.8432 8.27034 12.8432 8.5044ZM10.9937 8.35488C11.2223 8.35488 11.4095 8.15949 11.4095 7.91933C11.4095 7.67916 11.2243 7.48377 10.9937 7.48377C10.7632 7.48377 10.578 7.67916 10.578 7.91933C10.578 8.15949 10.7652 8.35488 10.9937 8.35488ZM9.60533 7.65654C9.60533 7.89467 9.42011 8.08802 9.19352 8.08802C8.96495 8.08802 8.7817 7.89467 8.7817 7.65654C8.7817 7.41841 8.96692 7.22506 9.19352 7.22506C9.42208 7.22506 9.60533 7.41841 9.60533 7.65654ZM10.1941 9.11197C10.3931 9.11197 10.5527 8.94304 10.5527 8.73747C10.5527 8.52987 10.3931 8.36298 10.1941 8.36298C9.99509 8.36298 9.83549 8.53191 9.83549 8.73747C9.83549 8.94507 9.99509 9.11197 10.1941 9.11197ZM11.9993 9.31787C11.9993 9.5275 11.8358 9.69643 11.6367 9.69643C11.4377 9.69643 11.2762 9.5275 11.2742 9.31787C11.2742 9.10823 11.4377 8.9393 11.6367 8.9393C11.8377 8.9393 11.9993 9.10823 11.9993 9.31787ZM10.8237 10.135C10.9814 10.135 11.1094 10.0007 11.1094 9.83584C11.1094 9.67099 10.9814 9.53666 10.8237 9.53666C10.6661 9.53666 10.538 9.67099 10.538 9.83584C10.54 10.0007 10.6661 10.135 10.8237 10.135ZM10.3118 10.0976C10.3118 10.2462 10.1975 10.3683 10.0537 10.3683C9.90983 10.3683 9.79358 10.2482 9.79555 10.0976C9.79555 9.94904 9.90983 9.82692 10.0537 9.82692C10.1955 9.82692 10.3118 9.94701 10.3118 10.0976ZM9.37935 9.59087C9.5488 9.59087 9.68673 9.44636 9.68673 9.26929C9.68673 9.09222 9.5488 8.94772 9.37935 8.94772C9.20989 8.94772 9.07197 9.09222 9.07197 9.26929C9.07197 9.44636 9.20989 9.59087 9.37935 9.59087ZM8.74803 8.47876C8.74803 8.68636 8.58645 8.85325 8.38941 8.85325C8.19237 8.85325 8.03277 8.68636 8.0308 8.47876C8.0308 8.27116 8.19237 8.10427 8.38941 8.10427C8.58842 8.10427 8.74803 8.27116 8.74803 8.47876ZM11.3253 13.5421C11.7509 13.5421 12.0957 13.1798 12.0957 12.7341C12.0957 12.2884 11.7509 11.9261 11.3253 11.9261C10.8997 11.9261 10.5548 12.2884 10.5548 12.7341C10.5548 13.1798 10.8997 13.5421 11.3253 13.5421ZM10.0096 11.8468C10.0096 12.2192 9.72194 12.5204 9.36726 12.5204C9.01259 12.5204 8.72491 12.2192 8.72491 11.8468C8.72491 11.4743 9.01259 11.1731 9.36726 11.1731C9.72194 11.1731 10.0096 11.4743 10.0096 11.8468ZM8.24998 14.0008C8.60859 14.0008 8.89824 13.6975 8.89824 13.321C8.89824 12.9465 8.60859 12.6412 8.24998 12.6412C7.89136 12.6412 7.60171 12.9445 7.60171 13.321C7.60171 13.6955 7.89136 14.0008 8.24998 14.0008ZM8.47454 10.6844C8.47454 11.01 8.22233 11.2725 7.91298 11.2725C7.60362 11.2725 7.35141 11.008 7.35141 10.6844C7.35141 10.3587 7.60362 10.0962 7.91298 10.0962C8.22233 10.0962 8.47454 10.3587 8.47454 10.6844ZM6.79624 12.7724C7.10559 12.7724 7.35583 12.5098 7.35583 12.1862C7.35583 11.8626 7.10559 11.6001 6.79624 11.6001C6.48688 11.6001 6.23664 11.8626 6.23664 12.1862C6.23467 12.5098 6.48688 12.7724 6.79624 12.7724ZM6.15086 13.2064C6.15086 13.528 5.90259 13.7905 5.59323 13.7905C5.28585 13.7905 5.03561 13.528 5.03561 13.2064C5.03561 12.8848 5.28388 12.6223 5.59323 12.6223C5.90062 12.6223 6.15086 12.8828 6.15086 13.2064ZM4.59328 12.4648C4.85534 12.4648 5.07011 12.241 5.07011 11.9662C5.07011 11.6914 4.85731 11.4675 4.59328 11.4675C4.33121 11.4675 4.11644 11.6914 4.11644 11.9662C4.11841 12.241 4.33121 12.4648 4.59328 12.4648ZM6.27534 10.944C6.27534 11.2187 6.06254 11.4426 5.7985 11.4426C5.53447 11.4426 5.32166 11.2187 5.32166 10.944C5.32166 10.6692 5.53447 10.4453 5.7985 10.4453C6.06254 10.4453 6.27534 10.6672 6.27534 10.944ZM6.9217 9.94277C7.18574 9.94277 7.39854 9.71889 7.39854 9.44209C7.39854 9.16529 7.18574 8.94141 6.9217 8.94141C6.65767 8.94141 6.44486 9.16529 6.44486 9.44209C6.44486 9.71889 6.65767 9.94277 6.9217 9.94277ZM5.61708 9.71567C5.61708 9.95583 5.43187 10.1492 5.2033 10.1492C4.97473 10.1492 4.78951 9.95583 4.78951 9.71567C4.78951 9.4755 4.97473 9.28215 5.2033 9.28215C5.43187 9.28215 5.61708 9.4755 5.61708 9.71567ZM4.00465 11.1675C4.23124 11.1675 4.41449 10.9762 4.41449 10.738C4.41449 10.4999 4.23124 10.3086 4.00465 10.3086C3.77805 10.3086 3.5948 10.4999 3.5948 10.738C3.5948 10.9762 3.77805 11.1675 4.00465 11.1675ZM4.0833 9.6042C4.0833 9.80772 3.92369 9.97462 3.72862 9.97462C3.53355 9.97462 3.37395 9.80976 3.37395 9.6042C3.37395 9.40067 3.53355 9.23377 3.72862 9.23377C3.92369 9.23377 4.0833 9.39863 4.0833 9.6042ZM3.71736 8.92634C3.88484 8.92634 4.0208 8.78387 4.0208 8.6068C4.0208 8.43177 3.88484 8.28726 3.71736 8.28726C3.54987 8.28726 3.41391 8.42973 3.41391 8.6068C3.41391 8.78387 3.54987 8.92634 3.71736 8.92634ZM4.1426 7.78391C4.1426 7.93249 4.02832 8.05461 3.88448 8.05461C3.74064 8.05461 3.62635 7.93249 3.62635 7.78391C3.62635 7.63534 3.74064 7.51322 3.88448 7.51322C4.02634 7.51322 4.1426 7.63534 4.1426 7.78391ZM4.91811 7.91028C5.08757 7.91028 5.22549 7.76577 5.22549 7.5887C5.22549 7.41163 5.08757 7.26713 4.91811 7.26713C4.74866 7.26713 4.61073 7.41163 4.61073 7.5887C4.61073 7.76577 4.74866 7.91028 4.91811 7.91028ZM6.41119 7.07792C6.41119 7.28348 6.24962 7.45241 6.05257 7.45241C5.85356 7.45241 5.69396 7.28552 5.69396 7.07792C5.69396 6.87235 5.85553 6.70343 6.05257 6.70343C6.25159 6.70343 6.41119 6.87032 6.41119 7.07792ZM6.32269 8.64148C6.54731 8.64148 6.73056 8.45016 6.73056 8.21407C6.73056 7.97798 6.54731 7.78666 6.32269 7.78666C6.09806 7.78666 5.91481 7.97798 5.91481 8.21407C5.91481 8.45016 6.09609 8.64148 6.32269 8.64148ZM5.28854 8.584C5.28854 8.78956 5.13091 8.95645 4.93387 8.95645C4.73683 8.95645 4.57722 8.78956 4.5792 8.584C4.5792 8.37843 4.73683 8.21154 4.93387 8.21154C5.12894 8.21154 5.28854 8.37843 5.28854 8.584ZM1.0126 8.40595C1.43624 8.40595 1.78106 8.04571 1.78106 7.60202C1.78106 7.15832 1.43624 6.79808 1.0126 6.79808C0.588962 6.79808 0.244141 7.15832 0.244141 7.60202C0.244141 8.04571 0.588962 8.40595 1.0126 8.40595ZM3.41554 6.2786C3.41554 6.6592 3.12195 6.96857 2.75742 6.96857C2.39487 6.96857 2.09931 6.66124 2.09931 6.2786C2.09931 5.89801 2.3929 5.58864 2.75742 5.58864C3.11998 5.58864 3.41554 5.89801 3.41554 6.2786ZM2.07621 5.1978C2.43877 5.1978 2.73039 4.89048 2.73039 4.51191C2.73039 4.13335 2.43679 3.82602 2.07621 3.82602C1.71366 3.82602 1.42204 4.13335 1.42204 4.51191C1.42006 4.89048 1.71366 5.1978 2.07621 5.1978ZM4.3204 3.77269C4.3204 4.09834 4.06819 4.36089 3.75883 4.36089C3.44948 4.36089 3.19727 4.09834 3.19727 3.77269C3.19727 3.44705 3.44948 3.1845 3.75883 3.1845C4.06819 3.1845 4.3204 3.44705 4.3204 3.77269ZM4.4444 6.12548C4.75572 6.12548 5.00793 5.86089 5.00793 5.53524C5.00793 5.2096 4.75572 4.94501 4.4444 4.94501C4.13307 4.94501 3.88086 5.2096 3.88086 5.53524C3.88086 5.86089 4.13307 6.12548 4.4444 6.12548ZM6.45388 5.25632C6.45388 5.53516 6.2391 5.75904 5.97507 5.75904C5.70906 5.75904 5.49429 5.53312 5.49626 5.25632C5.49626 4.97749 5.71103 4.75361 5.97507 4.75361C6.2391 4.75361 6.45388 4.97952 6.45388 5.25632ZM7.29615 5.7638C7.52471 5.7638 7.70993 5.57045 7.70993 5.33232C7.70993 5.09419 7.52471 4.90084 7.29615 4.90084C7.06758 4.90084 6.88236 5.09419 6.88236 5.33232C6.88433 5.57045 7.06955 5.7638 7.29615 5.7638ZM8.73674 5.65849C8.73674 5.85998 8.5791 6.0228 8.38797 6.0228C8.19685 6.0228 8.04118 5.85794 8.03921 5.65849C8.03921 5.45699 8.19685 5.29417 8.38797 5.29417C8.58107 5.29417 8.73674 5.45699 8.73674 5.65849ZM8.53196 4.6945C8.69944 4.6945 8.8354 4.55203 8.8354 4.377C8.8354 4.20196 8.69944 4.05949 8.53196 4.05949C8.36447 4.05949 8.22852 4.20196 8.22852 4.377C8.22852 4.55203 8.36447 4.6945 8.53196 4.6945ZM8.04236 3.89152C8.04236 4.09505 7.88473 4.25991 7.69163 4.25991C7.49656 4.25991 7.3409 4.09505 7.3409 3.89152C7.3409 3.688 7.49853 3.52314 7.69163 3.52314C7.88473 3.52314 8.04236 3.688 8.04236 3.89152ZM6.61282 3.99501C6.83942 3.99501 7.02266 3.80166 7.02266 3.56556C7.02266 3.32743 6.83942 3.13612 6.61282 3.13612C6.38622 3.13612 6.20297 3.32947 6.20297 3.56556C6.20297 3.80369 6.38622 3.99501 6.61282 3.99501ZM5.77421 3.4937C5.77421 3.7705 5.55943 3.99642 5.29343 3.99642C5.0294 3.99642 4.81462 3.77254 4.81265 3.4937C4.81265 3.2169 5.02742 2.99099 5.29343 2.99099C5.55943 2.99099 5.77421 3.2169 5.77421 3.4937ZM3.51604 2.74042C3.81751 2.74042 4.05987 2.48601 4.05987 2.17054C4.05987 1.85507 3.81554 1.60066 3.51604 1.60066C3.21457 1.60066 2.97221 1.85507 2.97221 2.17054C2.97221 2.48601 3.21654 2.74042 3.51604 2.74042ZM5.52601 1.89094C5.52601 2.16774 5.31124 2.39365 5.04523 2.39365C4.77923 2.39365 4.56445 2.16774 4.56445 1.89094C4.56445 1.61414 4.77923 1.38822 5.04523 1.38822C5.31124 1.38822 5.52601 1.61414 5.52601 1.89094ZM6.36646 2.40039C6.59503 2.40039 6.78025 2.20703 6.78025 1.96687C6.78025 1.72671 6.59503 1.53335 6.36646 1.53335C6.13789 1.53335 5.95267 1.72671 5.95267 1.96687C5.95267 2.205 6.13789 2.40039 6.36646 2.40039ZM7.79864 2.29521C7.79864 2.4967 7.64297 2.65952 7.44987 2.65952C7.25874 2.65952 7.10111 2.49466 7.10111 2.29521C7.10111 2.09371 7.25677 1.93089 7.44987 1.93089C7.64297 1.93089 7.79864 2.09371 7.79864 2.29521ZM8.28323 3.10592C8.45465 3.10592 8.59455 2.95938 8.59455 2.78027C8.59455 2.59913 8.45465 2.45463 8.28323 2.45463C8.1118 2.45463 7.97191 2.60117 7.97191 2.78027C7.97191 2.95938 8.1118 3.10592 8.28323 3.10592ZM9.151 3.35009C9.151 3.49866 9.03672 3.61875 8.89485 3.61875C8.75298 3.61875 8.63673 3.49866 8.6387 3.35009C8.6387 3.20151 8.75298 3.08143 8.89485 3.08143C9.03672 3.08143 9.151 3.20151 9.151 3.35009Z" fill="#3D3D3D"/>
</svg>
